<?xml version="1.0" encoding="utf-8"?>
<!-- Generator: Adobe Illustrator 24.3.0, SVG Export Plug-In . SVG Version: 6.00 Build 0)  -->
<svg version="1.1" id="Слой_1" xmlns="http://www.w3.org/2000/svg" xmlns:xlink="http://www.w3.org/1999/xlink" x="0px" y="0px"
	 viewBox="0 0 343 120" style="enable-background:new 0 0 343 120;" xml:space="preserve">
<style type="text/css">
	.st0{fill:#00CAE5;}
</style>
<path class="st0" d="M342.3,17.2c-0.3-0.3-0.7-0.5-1.1-0.5c-0.6-0.1-1.2,0-1.7,0c-1.1,0-2.1,0-3.2,0c-2.1,0-4.2-0.1-6.4-0.2
	c-8.5-0.3-16.9-1.1-25.3-2.2c-8.4-1.1-16.8-2.7-25-4.6c-4.2-1-8.3-2-12.4-3.2c-1-0.3-2-0.6-3-0.9c-0.8-0.2-1.7-0.4-2.6-0.3
	c-0.8,0.1-1.7,0.4-2.2,1.1c-0.4,0.6-0.4,1.4-0.3,2.1c0.2,0.8,0.6,1.6,1.1,2.3c0.6,0.9,1.3,1.8,1.9,2.7c1.3,1.8,2.5,3.5,3.8,5.3
	c2.6,3.6,5.1,7.1,7.7,10.7c1.2,1.7,2.4,3.4,3.7,5.1c-0.2,0.1-0.4,0.3-0.5,0.4c-1.8,1.5-3.6,3.1-5.2,4.8c-0.7,0.7-1.4,1.5-2,2.3
	c-0.4,0.5-0.8,1.2-0.9,1.8c0,0.6,0.4,0.9,0.9,1.1c0.8,0.4,1.7,0.5,2.6,0.6c2.4,0.3,4.9,0.3,7.4,0.2c0.6,0,1.2,0,1.8-0.1
	c0.1,0,0.2,0,0.3,0c0.2,2.8,0.5,5.7,0.8,8.5c0.3,3.4,0.7,6.9,1,10.3c0.3,3.1,0.6,6.2,0.9,9.4c0.1,1.4,0.2,3,1,4.3
	c0.9,1.4,2.8,1.8,4.2,1c0.7-0.4,1.2-1,1.7-1.7c0.5-0.8,1-1.6,1.5-2.4c1.1-1.7,2.2-3.4,3.4-5c2.3-3.3,4.6-6.5,7-9.7
	c4.8-6.4,9.8-12.5,15.2-18.4c5.4-6,11-11.7,16.8-17.2c1.5-1.4,2.9-2.7,4.4-4c0.7-0.7,1.5-1.3,2.3-2
	C342.1,18.5,342.9,17.9,342.3,17.2z M340.6,17.4L340.6,17.4C340.6,17.4,340.6,17.4,340.6,17.4z M280.8,45.4c-0.1,0-0.1,0-0.2,0
	c0,0,0,0,0,0c-0.1,0-0.2,0-0.3,0c-0.3,0-0.5,0-0.8,0c-1,0-2.1,0-3.1,0c-0.3,0-0.5,0-0.8,0c-0.1,0-0.4,0-0.2,0c-0.1,0-0.3,0-0.4,0
	c-0.5,0-1-0.1-1.5-0.1c-0.1,0-0.2,0-0.3,0c0,0-0.1,0-0.1,0c0,0,0,0,0,0c-0.2,0-0.4-0.1-0.6-0.1c-0.1,0-0.2,0-0.3-0.1
	c0,0-0.1,0-0.1,0c0,0,0,0,0,0c-0.2,0-0.3-0.1-0.5-0.1c-0.1,0-0.1,0-0.2-0.1c0.1,0-0.1,0-0.1,0c-0.1-0.1-0.3-0.1-0.4-0.2
	c0,0,0,0-0.1,0c0,0-0.1-0.1-0.1-0.1c0,0-0.1-0.1-0.1-0.1c0,0-0.1-0.1-0.1-0.1c-0.2-0.4,0.1-0.9,0.2-1.3c0.4-0.7,0.8-1.3,1.3-1.8
	c0.6-0.7,1.3-1.4,2-2.1c1.5-1.5,3.1-2.9,4.8-4.3c0.1,0,0.2-0.1,0.3-0.2c0.9-0.2,1.7-0.4,2.6-0.6c2.5-0.6,4.9-1.1,7.4-1.7
	c3.5-0.8,6.9-1.6,10.4-2.4c4-0.9,7.9-1.9,11.9-2.8c4-1,7.9-1.9,11.9-3c0.3-0.1,0.6-0.2,0.9-0.2c0,0-0.1,0.1-0.2,0.1
	c-0.9,0.4-1.8,0.9-2.6,1.3c-1.8,0.9-3.7,1.8-5.5,2.7c-3.7,1.9-7.5,3.7-11.2,5.6c-3.4,1.7-6.9,3.5-10.3,5.2c-2.7,1.4-5.3,2.7-8,4.1
	c-1.3,0.7-2.7,1.4-4,2.1c-0.3,0-0.5,0.1-0.6,0.2C281.3,45.4,281,45.4,280.8,45.4z M340.4,18.3c-0.4,0.3-0.8,0.7-1.2,1
	c-0.7,0.6-1.4,1.3-2.1,1.9c-5.7,5.2-11.3,10.6-16.6,16.2c-5.3,5.7-10.4,11.5-15.2,17.6c-4.8,6-9.3,12.3-13.6,18.7
	c-0.5,0.8-1.1,1.6-1.6,2.5c-0.4,0.7-0.9,1.4-1.4,2c-0.2,0.2-0.4,0.4-0.7,0.6c-0.2,0.1-0.2,0.1-0.4,0c-0.6-0.3-0.9-1-1.1-1.5
	c-0.5-1.3-0.5-2.8-0.6-4.2c-0.1-1.5-0.3-2.9-0.4-4.4c-0.6-6.5-1.2-13-1.8-19.4c-0.1-1.2-0.3-2.5-0.4-3.7c0.5-0.2,0.9-0.5,1.4-0.7
	c1.2-0.6,2.3-1.2,3.5-1.8c1.7-0.9,3.4-1.7,5-2.6c2.1-1.1,4.1-2.1,6.2-3.2c2.3-1.2,4.6-2.4,6.9-3.5c2.4-1.2,4.9-2.5,7.3-3.7
	c2.4-1.2,4.9-2.4,7.3-3.6c1.2-0.6,2.3-1.2,3.5-1.7c0.3-0.1,0.6-0.3,0.9-0.4c0.2-0.1,0.6-0.3,0.5-0.6c-0.1-0.4-0.6-0.5-1-0.5
	c-0.5,0-1,0.1-1.5,0.2c-2.5,0.7-5.1,1.3-7.6,1.9c-2.6,0.7-5.3,1.3-7.9,1.9c-2.6,0.6-5.2,1.2-7.8,1.9c-2.4,0.6-4.9,1.1-7.3,1.7
	c-2.1,0.5-4.2,1-6.3,1.4c-1.6,0.4-3.3,0.7-4.9,1.1c-0.9,0.2-1.9,0.4-2.8,0.6c-4.9-6.8-9.8-13.6-14.7-20.4c-0.6-0.9-1.3-1.8-1.9-2.6
	c-0.5-0.7-0.9-1.4-1.2-2.1c-0.3-0.7-0.4-1.5,0-2.2c0.4-0.6,0.9-0.6,1.5-0.5c0.8,0.2,1.7,0.4,2.5,0.7c1,0.3,2,0.6,3,0.8
	c2,0.5,4,1.1,6,1.6c8,2,16.1,3.6,24.3,4.9c8.2,1.3,16.4,2.2,24.7,2.7c4.2,0.3,8.3,0.5,12.5,0.5c1,0,2,0,3,0c0.5,0,1,0,1.6,0
	c0.2,0,0.5,0,0.7,0c0,0,0.1,0,0.1,0c0,0,0,0,0,0c0,0,0,0.1,0,0.1C340.8,17.9,340.7,18,340.4,18.3z"/>
<path class="st0" d="M113.9,81.6l0.3,0.9l0,0l0,0L113.9,81.6z M72.6,68.8l-0.8-0.5L72.6,68.8z M22.9,114.2c0.3,0.5,0.1,1.1-0.4,1.4
	s-1.1,0.1-1.4-0.4L22.9,114.2z M248.5,49.6c-0.5,0.1-1-0.3-1.1-0.9c-0.1-0.5,0.3-1,0.9-1.1L248.5,49.6z M241.9,48.3
	c0.6,0,1,0.4,1.1,0.9c0,0.6-0.4,1-0.9,1.1L241.9,48.3z M219.8,49.1c-0.5-0.1-0.9-0.6-0.8-1.2c0.1-0.5,0.6-0.9,1.2-0.8L219.8,49.1z
	 M213.9,45.8c0.5,0.1,0.9,0.7,0.7,1.2c-0.1,0.5-0.7,0.9-1.2,0.7L213.9,45.8z M192.3,41.6c-0.5-0.2-0.8-0.7-0.7-1.2
	c0.2-0.5,0.7-0.8,1.2-0.7L192.3,41.6z M186.6,38c0.5,0.1,0.9,0.7,0.7,1.2c-0.1,0.5-0.7,0.9-1.2,0.7L186.6,38z M164.8,38.2
	c-0.6,0-1-0.4-1-1c0-0.6,0.4-1,1-1L164.8,38.2z M158.4,36.5c0.6,0,1,0.4,1.1,0.9c0,0.6-0.4,1-0.9,1.1L158.4,36.5z M137.3,40.8
	c-0.5,0.1-1.1-0.3-1.1-0.8c-0.1-0.5,0.3-1.1,0.8-1.1L137.3,40.8z M130.8,39.9c0.5-0.1,1.1,0.3,1.2,0.8c0.1,0.5-0.3,1.1-0.8,1.2
	L130.8,39.9z M110.4,46.8c-0.5,0.2-1.1-0.1-1.2-0.7c-0.2-0.5,0.1-1.1,0.7-1.2L110.4,46.8z M103.8,46.9c0.5-0.2,1.1,0.1,1.3,0.6
	c0.2,0.5-0.1,1.1-0.6,1.3L103.8,46.9z M85.4,58c-0.5,0.3-1.1,0.2-1.4-0.3c-0.3-0.5-0.2-1.1,0.3-1.4L85.4,58z M79.2,60.1
	c0.4-0.4,1.1-0.3,1.4,0.1c0.4,0.4,0.3,1.1-0.1,1.4L79.2,60.1z M70.9,78.9c0.2,0.5-0.1,1.1-0.6,1.3c-0.5,0.2-1.1-0.1-1.3-0.6
	L70.9,78.9z M74.2,84.3c-0.5-0.2-0.8-0.8-0.6-1.3c0.2-0.5,0.8-0.8,1.3-0.6L74.2,84.3z M96.5,83.6c0.5-0.1,1,0.3,1.1,0.9
	c0.1,0.5-0.3,1-0.9,1.1L96.5,83.6z M103.2,84.7c-0.5,0.1-1.1-0.3-1.1-0.8c-0.1-0.5,0.3-1.1,0.8-1.1L103.2,84.7z M125.8,75.7
	c0.5-0.2,1.1,0,1.3,0.5c0.2,0.5,0,1.1-0.5,1.3L125.8,75.7z M133.6,73.6c-0.5,0.3-1.1,0.2-1.4-0.3c-0.3-0.5-0.2-1.1,0.3-1.4
	L133.6,73.6z M137.9,52.5c-0.4-0.4-0.5-1-0.1-1.4c0.4-0.4,1-0.5,1.4-0.1L137.9,52.5z M132.5,46.6c0.5,0.3,0.7,0.9,0.4,1.3
	c-0.3,0.5-0.9,0.7-1.3,0.4L132.5,46.6z M106.5,40.1c-0.5-0.1-0.9-0.6-0.8-1.2c0.1-0.5,0.6-0.9,1.2-0.8L106.5,40.1z M99.1,37
	c0.5,0.1,0.9,0.6,0.9,1.1c-0.1,0.5-0.6,0.9-1.1,0.9L99.1,37z M72.5,39.6c-0.5,0.1-1.1-0.3-1.1-0.8c-0.1-0.5,0.3-1.1,0.8-1.1
	L72.5,39.6z M64.4,39.1c0.5-0.1,1.1,0.2,1.2,0.7c0.1,0.5-0.2,1.1-0.7,1.2L64.4,39.1z M40,50.1c-0.5,0.3-1.1,0.1-1.3-0.4
	c-0.3-0.5-0.1-1.1,0.4-1.3L40,50.1z M32.3,52.2c0.5-0.3,1.1-0.1,1.4,0.3c0.3,0.5,0.1,1.1-0.3,1.4L32.3,52.2z M14.6,70
	c-0.3,0.4-1,0.5-1.4,0.2c-0.4-0.3-0.5-1-0.2-1.4L14.6,70z M9.6,75c0.2-0.5,0.7-0.8,1.3-0.6c0.5,0.2,0.8,0.7,0.6,1.3L9.6,75z
	 M14.5,97.8c0.2,0.5,0,1.1-0.5,1.3c-0.5,0.2-1.1,0-1.3-0.5L14.5,97.8z M15.5,104.8c-0.2-0.5,0-1.1,0.5-1.3c0.5-0.2,1.1,0,1.3,0.5
	L15.5,104.8z M259.4,47.7c-3.8,0.9-7.5,1.5-10.9,2l-0.3-2c3.4-0.4,7-1.1,10.7-1.9L259.4,47.7z M242,50.3c-8.3,0.5-15.5-0.1-22.2-1.2
	l0.3-2c6.5,1.1,13.6,1.7,21.7,1.2L242,50.3z M213.5,47.8c-7.7-1.8-14.7-4.2-21.2-6.2l0.6-1.9c6.6,2,13.4,4.3,21.1,6.1L213.5,47.8z
	 M186.1,40c-3.6-0.9-7.1-1.5-10.7-1.7l0.1-2c3.7,0.2,7.4,0.8,11.1,1.7L186.1,40z M175.4,38.3c-2.9-0.2-6.5-0.2-10.6-0.1l-0.1-2
	c4.1-0.1,7.8-0.1,10.8,0.1L175.4,38.3z M158.6,38.5c-6.5,0.4-13.7,1.1-21.3,2.3l-0.3-2c7.6-1.2,14.9-1.9,21.4-2.3L158.6,38.5z
	 M131.1,41.9c-7,1.3-14,2.9-20.8,5l-0.6-1.9c6.8-2.1,14-3.8,21-5L131.1,41.9z M104.5,48.8c-7.1,2.5-13.6,5.6-19.1,9.2l-1.1-1.7
	c5.6-3.7,12.3-6.8,19.5-9.4L104.5,48.8z M80.5,61.7c-2.8,2.4-5.2,4.9-7,7.7l-1.7-1.1c1.9-3,4.4-5.7,7.4-8.2L80.5,61.7z M73.5,69.4
	c-2.9,4.4-3.4,7.5-2.6,9.5L69,79.6c-1.1-2.9-0.2-6.7,2.8-11.3L73.5,69.4z M75,82.5c2.4,1,5.7,1.5,9.4,1.6c3.7,0.1,7.9-0.1,12.1-0.5
	l0.2,2c-4.3,0.5-8.5,0.7-12.4,0.5c-3.8-0.1-7.3-0.7-10.1-1.8L75,82.5z M102.9,82.7c3.8-0.6,7.6-1.3,10.8-2.1l0.5,1.9
	c-3.3,0.8-7.1,1.5-11,2.1L102.9,82.7z M113.6,80.6c3.9-1.3,8.2-3,12.2-5l0.9,1.8c-4.1,2-8.5,3.7-12.5,5.1L113.6,80.6z M132.5,71.9
	c4.5-2.9,7.9-6.2,9.1-9.4c0.6-1.6,0.7-3.2,0.2-4.8c-0.5-1.6-1.7-3.4-3.9-5.2l1.3-1.5c2.3,2,3.8,4,4.5,6.1c0.7,2.1,0.6,4.2-0.2,6.2
	c-1.5,3.9-5.3,7.4-9.9,10.4L132.5,71.9z M131.6,48.4c-3.2-1.7-7.3-3.3-12.2-5l0.6-1.9c5.1,1.7,9.2,3.4,12.5,5.1L131.6,48.4z
	 M119.4,43.4c-4.3-1.4-8.6-2.5-12.8-3.3l0.4-2c4.3,0.8,8.7,1.9,13.1,3.4L119.4,43.4z M98.9,39c-9.3-1-18.2-0.7-26.4,0.6l-0.3-2
	c8.4-1.3,17.4-1.7,26.9-0.6L98.9,39z M64.9,41.1c-9.4,2.2-17.8,5.5-24.8,9.1l-0.9-1.8c7.1-3.7,15.7-7,25.3-9.3L64.9,41.1z
	 M33.3,53.9c-4.4,2.7-8,5.4-10.6,7.8l-1.3-1.5c2.7-2.5,6.4-5.2,10.9-8L33.3,53.9z M22.7,61.7c-3.3,2.9-6,5.5-8,8.3L13,68.8
	c2.2-2.9,5-5.6,8.3-8.6L22.7,61.7z M11.5,75.7c-1.8,5.3-1.3,11.9,3,22.1l-1.8,0.8C8.3,88.1,7.6,81,9.6,75L11.5,75.7z M17.3,103.9
	c1.5,3.1,3.4,6.6,5.5,10.3l-1.7,1c-2.2-3.8-4-7.2-5.6-10.4L17.3,103.9z"/>
</svg>
