<svg width="60" height="60" viewBox="0 0 60 60" fill="none" xmlns="http://www.w3.org/2000/svg">
<circle cx="30" cy="30" r="30" transform="rotate(-180 30 30)" fill="white"/>
<g clip-path="url(#clip0_7_9)">
<path d="M23.6893 39.4394L33.1286 30L23.6893 20.5607C23.4108 20.2788 23.2552 19.8982 23.2564 19.5019C23.2576 19.1057 23.4155 18.726 23.6957 18.4458C23.9759 18.1656 24.3555 18.0077 24.7518 18.0065C25.148 18.0053 25.5287 18.1609 25.8105 18.4394L36.3105 28.9394C36.5918 29.2207 36.7499 29.6022 36.7499 30C36.7499 30.3978 36.5918 30.7794 36.3105 31.0607L25.8105 41.5607C25.5287 41.8392 25.148 41.9948 24.7518 41.9936C24.3555 41.9924 23.9759 41.8344 23.6957 41.5543C23.4155 41.2741 23.2576 40.8944 23.2564 40.4981C23.2551 40.1019 23.4108 39.7213 23.6893 39.4394Z" fill="black"/>
</g>
<defs>
<clipPath id="clip0_7_9">
<rect width="24" height="24" fill="white" transform="translate(18 18)"/>
</clipPath>
</defs>
</svg>
