<svg width="60" height="60" viewBox="0 0 60 60" fill="none" xmlns="http://www.w3.org/2000/svg">
<circle cx="30" cy="30" r="30" fill="white"/>
<g clip-path="url(#clip0_7_8)">
<path d="M36.3107 20.5606L26.8714 30L36.3107 39.4393C36.5892 39.7212 36.7448 40.1018 36.7436 40.4981C36.7424 40.8943 36.5845 41.274 36.3043 41.5542C36.0241 41.8344 35.6445 41.9923 35.2482 41.9935C34.852 41.9947 34.4713 41.8391 34.1895 41.5606L23.6895 31.0606C23.4082 30.7793 23.2501 30.3978 23.2501 30C23.2501 29.6022 23.4082 29.2206 23.6895 28.9393L34.1895 18.4393C34.4713 18.1608 34.852 18.0052 35.2482 18.0064C35.6445 18.0076 36.0241 18.1656 36.3043 18.4457C36.5845 18.7259 36.7424 19.1056 36.7436 19.5019C36.7449 19.8981 36.5892 20.2787 36.3107 20.5606Z" fill="black"/>
</g>
<defs>
<clipPath id="clip0_7_8">
<rect width="24" height="24" fill="white" transform="translate(42 42) rotate(-180)"/>
</clipPath>
</defs>
</svg>
