<svg width="24" height="24" viewBox="0 0 24 24" fill="none" xmlns="http://www.w3.org/2000/svg">
<path d="M1.17161 24.0002C0.939799 24.0002 0.713187 23.9315 0.520433 23.8027C0.327678 23.674 0.177443 23.4909 0.0887282 23.2768C1.37109e-05 23.0626 -0.0231937 22.8269 0.0220414 22.5996C0.0672766 22.3722 0.178922 22.1634 0.342856 21.9995L21.9991 0.34328C22.2189 0.123481 22.517 0 22.8279 0C23.1387 0 23.4368 0.123481 23.6566 0.34328C23.8764 0.563078 23.9999 0.861188 23.9999 1.17203C23.9999 1.48287 23.8764 1.78098 23.6566 2.00078L2.00036 23.657C1.89162 23.766 1.76244 23.8524 1.62021 23.9113C1.47799 23.9702 1.32554 24.0004 1.17161 24.0002Z" fill="black"/>
<path d="M22.8278 24.0002C22.6739 24.0004 22.5214 23.9702 22.3792 23.9113C22.237 23.8524 22.1078 23.766 21.999 23.657L0.342791 2.00078C0.122993 1.78098 -0.000488281 1.48287 -0.000488281 1.17203C-0.000488281 0.861188 0.122993 0.563078 0.342791 0.34328C0.562589 0.123481 0.8607 0 1.17154 0C1.48238 0 1.78049 0.123481 2.00029 0.34328L23.6565 21.9995C23.8205 22.1634 23.9321 22.3722 23.9774 22.5996C24.0226 22.8269 23.9994 23.0626 23.9107 23.2768C23.822 23.4909 23.6717 23.674 23.479 23.8027C23.2862 23.9315 23.0596 24.0002 22.8278 24.0002Z" fill="black"/>
</svg>
