<svg width="1786" height="3834" viewBox="0 0 1786 3834" fill="none" xmlns="http://www.w3.org/2000/svg">
<path d="M1028.01 3772.02C1027.68 3772.43 1027.16 3772.58 1026.66 3772.63C1025.98 3772.7 1025.27 3772.65 1024.58 3772.65C1023.28 3772.66 1021.99 3772.68 1020.7 3772.7C1018.15 3772.75 1015.59 3772.82 1013.04 3772.92C1002.82 3773.34 992.636 3774.23 982.5 3775.59C972.363 3776.96 962.286 3778.79 952.318 3781.09C947.31 3782.24 942.325 3783.51 937.373 3784.9C936.176 3785.24 934.98 3785.59 933.785 3785.93C932.765 3786.22 931.722 3786.43 930.66 3786.35C929.641 3786.27 928.602 3785.91 927.984 3785.05C927.445 3784.3 927.456 3783.32 927.674 3782.47C927.932 3781.49 928.398 3780.58 928.968 3779.75C929.721 3778.65 930.525 3777.59 931.308 3776.5C932.831 3774.39 934.353 3772.27 935.876 3770.16C938.982 3765.85 942.081 3761.55 945.187 3757.25C946.655 3755.21 948.129 3753.16 949.598 3751.12C949.381 3750.96 949.176 3750.75 948.986 3750.59C946.805 3748.74 944.668 3746.84 942.674 3744.79C941.807 3743.89 940.966 3742.97 940.233 3741.96C939.775 3741.33 939.217 3740.54 939.158 3739.74C939.114 3739.05 939.695 3738.63 940.263 3738.38C941.25 3737.93 942.365 3737.75 943.436 3737.62C946.376 3737.25 949.357 3737.25 952.319 3737.34C953.042 3737.36 953.766 3737.38 954.494 3737.41C954.595 3737.42 954.701 3737.42 954.81 3737.42C955.088 3733.99 955.465 3730.56 955.794 3727.14C956.189 3723 956.583 3718.87 956.967 3714.72C957.321 3710.96 957.676 3707.2 958.02 3703.43C958.182 3701.69 958.257 3699.82 959.21 3698.29C960.266 3696.59 962.58 3696.14 964.295 3697.12C965.133 3697.59 965.753 3698.37 966.287 3699.16C966.92 3700.1 967.527 3701.07 968.152 3702.02C969.481 3704.05 970.838 3706.07 972.206 3708.06C974.923 3712.01 977.727 3715.91 980.61 3719.74C986.379 3727.4 992.476 3734.81 998.878 3741.94C1005.33 3749.13 1012.1 3756.03 1019.15 3762.62C1020.9 3764.26 1022.67 3765.87 1024.45 3767.48C1025.35 3768.28 1026.26 3769.09 1027.18 3769.89C1027.79 3770.42 1028.73 3771.14 1028.01 3772.02ZM1025.99 3771.74L1025.98 3771.74C1025.99 3771.75 1025.99 3771.75 1025.99 3771.74ZM953.857 3737.96C953.782 3737.96 953.708 3737.96 953.641 3737.96C953.633 3737.96 953.623 3737.95 953.615 3737.96C953.482 3737.95 953.348 3737.94 953.215 3737.94C952.89 3737.93 952.574 3737.92 952.249 3737.91C950.993 3737.87 949.728 3737.87 948.469 3737.88C948.147 3737.88 947.828 3737.9 947.509 3737.91C947.428 3737.91 947.018 3737.92 947.322 3737.92C947.142 3737.92 946.962 3737.93 946.783 3737.94C946.195 3737.96 945.604 3738 945.017 3738.06C944.905 3738.08 944.783 3738.08 944.671 3738.1C944.615 3738.1 944.559 3738.11 944.503 3738.12C944.48 3738.12 944.462 3738.12 944.455 3738.12C944.2 3738.16 943.945 3738.19 943.7 3738.23C943.583 3738.26 943.463 3738.27 943.345 3738.3C943.289 3738.3 943.228 3738.32 943.174 3738.33C943.174 3738.33 943.174 3738.33 943.166 3738.34C942.966 3738.39 942.756 3738.44 942.558 3738.5C942.481 3738.52 942.398 3738.55 942.323 3738.58C942.436 3738.54 942.24 3738.61 942.204 3738.63C942.048 3738.69 941.895 3738.77 941.745 3738.86C941.724 3738.87 941.703 3738.88 941.684 3738.91C941.637 3738.94 941.583 3738.99 941.538 3739.04C941.5 3739.08 941.454 3739.12 941.424 3739.17C941.412 3739.18 941.356 3739.28 941.352 3739.27C941.143 3739.75 941.415 3740.37 941.647 3740.8C942.076 3741.6 942.657 3742.32 943.247 3743.01C944.005 3743.9 944.826 3744.75 945.656 3745.56C947.496 3747.38 949.432 3749.09 951.406 3750.76C951.545 3750.81 951.67 3750.87 951.743 3750.96C952.777 3751.19 953.807 3751.43 954.842 3751.65C957.803 3752.32 960.764 3752.99 963.728 3753.66C967.915 3754.62 972.102 3755.58 976.287 3756.57C981.071 3757.69 985.849 3758.82 990.625 3759.98C995.411 3761.14 1000.19 3762.32 1004.95 3763.55C1005.31 3763.64 1005.67 3763.74 1006.04 3763.83C1006 3763.78 1005.95 3763.73 1005.85 3763.69C1004.79 3763.16 1003.73 3762.64 1002.66 3762.11C1000.46 3761.02 998.246 3759.92 996.035 3758.82C991.527 3756.57 987.016 3754.31 982.517 3752.03C978.363 3749.93 974.216 3747.82 970.068 3745.71C966.854 3744.07 963.64 3742.43 960.426 3740.79C958.809 3739.96 957.191 3739.13 955.579 3738.29C955.273 3738.25 955.002 3738.17 954.864 3738.03C954.525 3737.99 954.192 3737.98 953.857 3737.96ZM1025.68 3770.66C1025.21 3770.25 1024.74 3769.84 1024.27 3769.43C1023.41 3768.66 1022.55 3767.89 1021.69 3767.13C1014.77 3760.89 1008.11 3754.34 1001.73 3747.55C995.34 3740.73 989.231 3733.64 983.437 3726.31C977.671 3719.03 972.21 3711.5 967.073 3703.76C966.42 3702.77 965.767 3701.78 965.129 3700.78C964.594 3699.96 964.1 3699.07 963.428 3698.35C963.185 3698.09 962.891 3697.82 962.569 3697.67C962.306 3697.55 962.333 3697.53 962.1 3697.65C961.422 3698.01 961.029 3698.79 960.768 3699.48C960.17 3701.07 960.163 3702.86 960.01 3704.54C959.846 3706.3 959.685 3708.07 959.521 3709.83C958.796 3717.64 958.056 3725.44 957.314 3733.24C957.169 3734.73 957.006 3736.22 956.886 3737.71C957.437 3738.01 957.999 3738.29 958.555 3738.58C959.954 3739.3 961.361 3740.03 962.761 3740.75C964.78 3741.79 966.808 3742.82 968.827 3743.86C971.323 3745.13 973.819 3746.4 976.315 3747.67C979.105 3749.09 981.895 3750.51 984.683 3751.92C987.614 3753.39 990.554 3754.88 993.49 3756.35C996.419 3757.82 999.355 3759.28 1002.3 3760.74C1003.7 3761.43 1005.1 3762.13 1006.5 3762.82C1006.85 3762.99 1007.2 3763.17 1007.55 3763.34C1007.84 3763.48 1008.24 3763.65 1008.19 3764.05C1008.11 3764.56 1007.46 3764.65 1007.04 3764.69C1006.42 3764.74 1005.86 3764.6 1005.27 3764.45C1002.23 3763.65 999.172 3762.88 996.12 3762.12C992.936 3761.33 989.739 3760.55 986.544 3759.78C983.411 3759.03 980.28 3758.28 977.143 3757.55C974.209 3756.85 971.278 3756.18 968.345 3755.49C965.811 3754.91 963.279 3754.33 960.746 3753.75C958.768 3753.3 956.791 3752.86 954.814 3752.41C953.69 3752.16 952.558 3751.91 951.433 3751.66C945.517 3759.87 939.594 3768.08 933.68 3776.29C932.914 3777.35 932.156 3778.4 931.393 3779.47C930.809 3780.28 930.272 3781.11 929.922 3782.05C929.615 3782.88 929.439 3783.91 929.938 3784.7C930.385 3785.41 931.023 3785.48 931.748 3785.35C932.764 3785.17 933.766 3784.81 934.761 3784.52C935.943 3784.19 937.133 3783.85 938.317 3783.53C940.717 3782.87 943.132 3782.24 945.547 3781.64C955.214 3779.23 964.98 3777.26 974.822 3775.72C984.671 3774.18 994.59 3773.08 1004.54 3772.42C1009.54 3772.1 1014.55 3771.87 1019.57 3771.77C1020.77 3771.74 1021.96 3771.72 1023.16 3771.71C1023.79 3771.71 1024.42 3771.7 1025.06 3771.7C1025.34 3771.7 1025.62 3771.7 1025.9 3771.7C1025.94 3771.69 1025.97 3771.69 1026 3771.7C1026.01 3771.69 1026.02 3771.7 1026.04 3771.69C1026.06 3771.64 1026.09 3771.59 1026.09 3771.61C1026.2 3771.12 1026.04 3770.98 1025.68 3770.66Z" fill="#00CAE5"/>
<path d="M860.546 48.5011L860.681 49.492L860.546 48.5011ZM952.044 305.463L951.157 305.002L951.082 305.146L951.057 305.306L952.044 305.463ZM823.545 462.463L822.623 462.851L822.734 463.115L822.968 463.28L823.545 462.463ZM989.044 732.464L989.904 732.974L989.044 732.464ZM823.544 1066.96L824.398 1066.44L823.544 1066.96ZM999.044 1352.97L998.232 1352.38L999.044 1352.97ZM799.044 1583.46L798.228 1584.04L799.044 1583.46ZM1011.54 1885.96L1010.69 1885.44L1011.54 1885.96ZM799.045 2158.46L798.454 2159.27L799.045 2158.46ZM999.044 2383.46L998.105 2383.12L999.044 2383.46ZM799.044 2620.96L798.312 2621.64L799.044 2620.96ZM1007.04 2964.96L1007.81 2965.6L1007.04 2964.96ZM1109.04 3526.17L1109.25 3527.15L1109.04 3526.17ZM927.76 3737.14C928.289 3737.29 928.846 3737 929.006 3736.47C929.165 3735.94 928.865 3735.38 928.336 3735.22L927.76 3737.14ZM917.122 3732.04C916.588 3731.9 916.04 3732.21 915.899 3732.75C915.758 3733.28 916.076 3733.83 916.61 3733.97L917.122 3732.04ZM910.07 3732.33C910.607 3732.45 911.146 3732.12 911.274 3731.58C911.401 3731.05 911.069 3730.51 910.532 3730.38L910.07 3732.33ZM887.601 3726.18C887.053 3726.11 886.552 3726.49 886.482 3727.04C886.412 3727.59 886.799 3728.09 887.347 3728.16L887.601 3726.18ZM880.645 3727.41C881.195 3727.46 881.684 3727.06 881.738 3726.51C881.792 3725.96 881.39 3725.47 880.84 3725.42L880.645 3727.41ZM857.592 3724.16C857.04 3724.15 856.585 3724.59 856.576 3725.15C856.567 3725.7 857.007 3726.15 857.559 3726.16L857.592 3724.16ZM850.803 3726.11C851.355 3726.11 851.803 3725.66 851.803 3725.11C851.803 3724.56 851.355 3724.11 850.803 3724.11L850.803 3726.11ZM827.515 3724.62C826.963 3724.65 826.534 3725.11 826.556 3725.66C826.578 3726.21 827.044 3726.64 827.595 3726.62L827.515 3724.62ZM820.833 3726.92C821.385 3726.89 821.81 3726.43 821.784 3725.87C821.757 3725.32 821.289 3724.9 820.737 3724.92L820.833 3726.92ZM797.568 3726.27C797.017 3726.31 796.6 3726.78 796.636 3727.33C796.673 3727.88 797.149 3728.3 797.7 3728.27L797.568 3726.27ZM790.96 3728.73C791.511 3728.69 791.926 3728.21 791.888 3727.66C791.849 3727.11 791.371 3726.69 790.82 3726.73L790.96 3728.73ZM767.63 3728.47C767.08 3728.52 766.669 3729 766.712 3729.55C766.756 3730.1 767.238 3730.51 767.788 3730.47L767.63 3728.47ZM761.061 3731.01C761.611 3730.96 762.021 3730.48 761.977 3729.93C761.932 3729.38 761.45 3728.97 760.899 3729.01L761.061 3731.01ZM737.752 3730.95C737.201 3730.99 736.794 3731.48 736.841 3732.03C736.888 3732.58 737.372 3732.99 737.922 3732.94L737.752 3730.95ZM731.107 3733.52C731.658 3733.48 732.065 3732.99 732.018 3732.44C731.97 3731.89 731.486 3731.48 730.935 3731.53L731.107 3733.52ZM707.851 3733.55C707.301 3733.6 706.895 3734.08 706.943 3734.63C706.992 3735.18 707.477 3735.59 708.027 3735.54L707.851 3733.55ZM701.263 3736.14C701.813 3736.09 702.219 3735.61 702.17 3735.06C702.122 3734.51 701.636 3734.1 701.086 3734.15L701.263 3736.14ZM678.218 3736.2C677.668 3736.25 677.264 3736.74 677.314 3737.29C677.365 3737.84 677.852 3738.24 678.402 3738.19L678.218 3736.2ZM671.89 3738.8C672.439 3738.75 672.843 3738.26 672.792 3737.71C672.74 3737.16 672.252 3736.76 671.702 3736.81L671.89 3738.8ZM649.515 3738.94C648.965 3738.99 648.562 3739.48 648.615 3740.03C648.668 3740.58 649.157 3740.98 649.707 3740.93L649.515 3738.94ZM643.331 3741.54C643.881 3741.48 644.285 3741 644.233 3740.45C644.181 3739.9 643.693 3739.49 643.143 3739.55L643.331 3741.54ZM621.041 3740.92C620.49 3740.87 620.007 3741.28 619.962 3741.83C619.917 3742.38 620.326 3742.86 620.877 3742.91L621.041 3740.92ZM619.33 3737.42C618.927 3737.8 618.905 3738.43 619.282 3738.84C619.659 3739.24 620.292 3739.26 620.696 3738.89L619.33 3737.42ZM637.819 3724.65C638.228 3724.28 638.259 3723.65 637.888 3723.24C637.517 3722.83 636.885 3722.8 636.475 3723.17L637.819 3724.65ZM641.175 3718.71C640.783 3719.1 640.781 3719.73 641.17 3720.13C641.56 3720.52 642.193 3720.52 642.585 3720.13L641.175 3718.71ZM656.986 3702.93C657.297 3702.47 657.18 3701.85 656.724 3701.54C656.267 3701.23 655.645 3701.34 655.334 3701.8L656.986 3702.93ZM658.799 3696.37C658.517 3696.84 658.673 3697.46 659.148 3697.74C659.623 3698.02 660.236 3697.86 660.518 3697.39L658.799 3696.37ZM669.785 3676.91C669.954 3676.38 669.665 3675.82 669.14 3675.65C668.614 3675.48 668.05 3675.77 667.881 3676.29L669.785 3676.91ZM669.652 3670.11C669.517 3670.65 669.842 3671.19 670.378 3671.33C670.913 3671.46 671.457 3671.14 671.592 3670.6L669.652 3670.11ZM674.7 3648.39C674.72 3647.84 674.289 3647.38 673.737 3647.36C673.185 3647.34 672.721 3647.77 672.701 3648.32L674.7 3648.39ZM672.754 3641.83C672.765 3642.38 673.221 3642.82 673.773 3642.81C674.326 3642.79 674.764 3642.34 674.754 3641.79L672.754 3641.83ZM673.9 3618.39C673.952 3617.84 673.548 3617.35 672.998 3617.3C672.448 3617.25 671.96 3617.65 671.909 3618.2L673.9 3618.39ZM673.087 3610.99C672.96 3611.53 673.292 3612.07 673.829 3612.2C674.367 3612.32 674.906 3611.99 675.033 3611.45L673.087 3610.99ZM686.216 3590.35C686.584 3589.94 686.549 3589.3 686.137 3588.94C685.726 3588.57 685.093 3588.6 684.725 3589.02L686.216 3590.35ZM689.905 3583.88C689.491 3584.25 689.452 3584.88 689.818 3585.29C690.183 3585.71 690.815 3585.74 691.229 3585.38L689.905 3583.88ZM711.682 3572.25C712.181 3572.01 712.391 3571.41 712.153 3570.92C711.914 3570.42 711.317 3570.21 710.819 3570.45L711.682 3572.25ZM717.435 3567.5C716.925 3567.71 716.683 3568.3 716.894 3568.81C717.106 3569.32 717.691 3569.56 718.201 3569.35L717.435 3567.5ZM741.47 3561.58C742.003 3561.44 742.319 3560.89 742.175 3560.35C742.032 3559.82 741.483 3559.5 740.95 3559.65L741.47 3561.58ZM747.959 3557.86C747.422 3557.99 747.091 3558.53 747.22 3559.07C747.35 3559.61 747.89 3559.94 748.427 3559.81L747.959 3557.86ZM772.51 3554.96C773.055 3554.87 773.422 3554.35 773.331 3553.81C773.239 3553.26 772.723 3552.89 772.179 3552.98L772.51 3554.96ZM779.371 3551.83C778.825 3551.92 778.45 3552.43 778.533 3552.97C778.616 3553.52 779.126 3553.9 779.672 3553.81L779.371 3551.83ZM804.029 3550.65C804.578 3550.59 804.974 3550.1 804.914 3549.55C804.853 3549 804.359 3548.61 803.81 3548.67L804.029 3550.65ZM811.029 3547.91C810.48 3547.96 810.079 3548.45 810.134 3549C810.189 3549.55 810.68 3549.95 811.229 3549.9L811.029 3547.91ZM835.738 3547.77C836.289 3547.73 836.702 3547.25 836.661 3546.7C836.62 3546.15 836.14 3545.74 835.589 3545.78L835.738 3547.77ZM842.788 3545.26C842.237 3545.3 841.821 3545.78 841.858 3546.33C841.896 3546.88 842.374 3547.3 842.925 3547.26L842.788 3545.26ZM867.539 3545.77C868.09 3545.75 868.513 3545.27 868.484 3544.72C868.455 3544.17 867.984 3543.75 867.433 3543.78L867.539 3545.77ZM874.608 3543.41C874.057 3543.44 873.632 3543.91 873.659 3544.46C873.687 3545.01 874.156 3545.43 874.708 3545.41L874.608 3543.41ZM899.364 3544.29C899.915 3544.27 900.344 3543.8 900.321 3543.25C900.298 3542.7 899.832 3542.27 899.28 3542.29L899.364 3544.29ZM906.462 3542C905.91 3542.02 905.481 3542.49 905.503 3543.04C905.525 3543.59 905.99 3544.02 906.542 3544L906.462 3542ZM931.194 3543.04C931.746 3543.01 932.176 3542.55 932.155 3542C932.133 3541.45 931.669 3541.02 931.117 3541.04L931.194 3543.04ZM938.308 3540.76C937.756 3540.78 937.326 3541.25 937.348 3541.8C937.369 3542.35 937.834 3542.78 938.386 3542.76L938.308 3540.76ZM963.046 3541.76C963.598 3541.74 964.026 3541.27 964.002 3540.72C963.979 3540.17 963.512 3539.74 962.961 3539.77L963.046 3541.76ZM970.143 3539.45C969.591 3539.48 969.164 3539.94 969.188 3540.5C969.213 3541.05 969.68 3541.47 970.232 3541.45L970.143 3539.45ZM994.875 3540.23C995.427 3540.2 995.849 3539.73 995.819 3539.18C995.788 3538.63 995.317 3538.2 994.765 3538.23L994.875 3540.23ZM1001.97 3537.82C1001.41 3537.86 1000.99 3538.33 1001.03 3538.88C1001.06 3539.43 1001.53 3539.85 1002.08 3539.82L1001.97 3537.82ZM1026.69 3538.16C1027.24 3538.12 1027.65 3537.64 1027.61 3537.09C1027.57 3536.54 1027.09 3536.12 1026.54 3536.17L1026.69 3538.16ZM1033.73 3535.59C1033.18 3535.64 1032.77 3536.12 1032.81 3536.67C1032.86 3537.22 1033.34 3537.63 1033.89 3537.58L1033.73 3535.59ZM1058.47 3535.19C1059.02 3535.13 1059.42 3534.64 1059.35 3534.09C1059.29 3533.54 1058.8 3533.15 1058.25 3533.21L1058.47 3535.19ZM1065.37 3532.37C1064.83 3532.44 1064.44 3532.94 1064.5 3533.49C1064.57 3534.03 1065.07 3534.42 1065.62 3534.36L1065.37 3532.37ZM1090.1 3530.83C1090.64 3530.74 1091.01 3530.22 1090.92 3529.68C1090.82 3529.13 1090.31 3528.77 1089.76 3528.86L1090.1 3530.83ZM1096.82 3527.61C1096.27 3527.71 1095.92 3528.24 1096.02 3528.78C1096.12 3529.32 1096.64 3529.68 1097.18 3529.58L1096.82 3527.61ZM1121.68 3524.28C1122.22 3524.15 1122.55 3523.61 1122.42 3523.07C1122.29 3522.53 1121.74 3522.21 1121.21 3522.34L1121.68 3524.28ZM1128.48 3520.49C1127.95 3520.63 1127.63 3521.18 1127.77 3521.72C1127.91 3522.25 1128.45 3522.57 1128.99 3522.43L1128.48 3520.49ZM1153.13 3514.86C1153.64 3514.67 1153.9 3514.09 1153.7 3513.57C1153.5 3513.06 1152.93 3512.8 1152.41 3513L1153.13 3514.86ZM1159.21 3510.16C1158.71 3510.39 1158.49 3510.98 1158.72 3511.49C1158.95 3511.99 1159.54 3512.21 1160.04 3511.98L1159.21 3510.16ZM1180.3 3496.46C1180.57 3495.98 1180.41 3495.37 1179.93 3495.09C1179.46 3494.81 1178.84 3494.97 1178.57 3495.45L1180.3 3496.46ZM1180.86 3488.9C1180.78 3489.45 1181.16 3489.95 1181.7 3490.03C1182.25 3490.12 1182.76 3489.74 1182.84 3489.19L1180.86 3488.9ZM1177.06 3464.3C1176.85 3463.79 1176.26 3463.56 1175.75 3463.78C1175.24 3464 1175.01 3464.58 1175.23 3465.09L1177.06 3464.3ZM1172.23 3458.33C1172.45 3458.83 1173.05 3459.06 1173.55 3458.83C1174.05 3458.61 1174.28 3458.01 1174.05 3457.51L1172.23 3458.33ZM1164.59 3434.13C1164.42 3433.6 1163.86 3433.32 1163.33 3433.49C1162.81 3433.66 1162.52 3434.23 1162.69 3434.75L1164.59 3434.13ZM1160.57 3427.62C1160.71 3428.16 1161.26 3428.47 1161.79 3428.33C1162.33 3428.19 1162.64 3427.64 1162.5 3427.11L1160.57 3427.62ZM1158.88 3402.36C1158.87 3401.81 1158.41 3401.37 1157.86 3401.38C1157.31 3401.4 1156.87 3401.85 1156.88 3402.41L1158.88 3402.36ZM1156.98 3394.95C1156.95 3395.5 1157.37 3395.97 1157.93 3396C1158.48 3396.02 1158.95 3395.6 1158.97 3395.05L1156.98 3394.95ZM1163.12 3370.32C1163.27 3369.78 1162.96 3369.23 1162.43 3369.08C1161.9 3368.93 1161.34 3369.24 1161.19 3369.77L1163.12 3370.32ZM1163.42 3362.67C1163.24 3363.2 1163.52 3363.76 1164.04 3363.94C1164.56 3364.12 1165.13 3363.85 1165.31 3363.32L1163.42 3362.67ZM1174.12 3339.94C1174.26 3339.41 1173.94 3338.86 1173.4 3338.73C1172.87 3338.59 1172.32 3338.91 1172.19 3339.45L1174.12 3339.94ZM1173.32 3332.81C1173.28 3333.36 1173.69 3333.84 1174.24 3333.88C1174.79 3333.92 1175.27 3333.5 1175.31 3332.95L1173.32 3332.81ZM1162.76 3313.15C1162.25 3312.95 1161.67 3313.2 1161.46 3313.71C1161.26 3314.22 1161.51 3314.81 1162.02 3315.01L1162.76 3313.15ZM1155.44 3313.09C1155.98 3313.21 1156.51 3312.86 1156.63 3312.32C1156.74 3311.78 1156.39 3311.25 1155.85 3311.14L1155.44 3313.09ZM1131.76 3309.57C1131.21 3309.58 1130.77 3310.04 1130.79 3310.59C1130.8 3311.14 1131.26 3311.58 1131.81 3311.57L1131.76 3309.57ZM1124.75 3311.84C1125.3 3311.81 1125.72 3311.34 1125.7 3310.79C1125.67 3310.23 1125.2 3309.81 1124.65 3309.84L1124.75 3311.84ZM1100.55 3311.75C1100 3311.8 1099.6 3312.29 1099.65 3312.84C1099.71 3313.39 1100.2 3313.79 1100.74 3313.74L1100.55 3311.75ZM1093.83 3314.45C1094.38 3314.39 1094.78 3313.9 1094.72 3313.35C1094.66 3312.8 1094.17 3312.4 1093.62 3312.46L1093.83 3314.45ZM1069.63 3315.07C1069.08 3315.13 1068.68 3315.62 1068.74 3316.17C1068.8 3316.72 1069.3 3317.11 1069.85 3317.05L1069.63 3315.07ZM1062.87 3317.81C1063.41 3317.75 1063.81 3317.26 1063.75 3316.71C1063.69 3316.16 1063.2 3315.76 1062.65 3315.82L1062.87 3317.81ZM1038.67 3318.21C1038.12 3318.26 1037.72 3318.75 1037.77 3319.3C1037.82 3319.85 1038.3 3320.26 1038.85 3320.21L1038.67 3318.21ZM1031.86 3320.81C1032.41 3320.77 1032.81 3320.28 1032.77 3319.73C1032.72 3319.18 1032.24 3318.77 1031.69 3318.82L1031.86 3320.81ZM1007.66 3320.45C1007.11 3320.48 1006.68 3320.95 1006.71 3321.5C1006.74 3322.05 1007.21 3322.47 1007.76 3322.45L1007.66 3320.45ZM1000.74 3322.76C1001.29 3322.74 1001.72 3322.28 1001.7 3321.72C1001.68 3321.17 1001.22 3320.74 1000.66 3320.76L1000.74 3322.76ZM976.611 3321.16C976.058 3321.15 975.607 3321.6 975.602 3322.15C975.597 3322.7 976.041 3323.15 976.593 3323.16L976.611 3321.16ZM969.552 3323.04C970.104 3323.05 970.563 3322.62 970.576 3322.06C970.59 3321.51 970.154 3321.05 969.601 3321.04L969.552 3323.04ZM945.614 3319.69C945.064 3319.64 944.578 3320.05 944.528 3320.6C944.479 3321.15 944.884 3321.63 945.434 3321.68L945.614 3319.69ZM938.42 3320.97C938.969 3321.03 939.464 3320.64 939.526 3320.09C939.588 3319.54 939.193 3319.05 938.644 3318.99L938.42 3320.97ZM914.925 3315.31C914.384 3315.2 913.856 3315.55 913.747 3316.09C913.638 3316.63 913.989 3317.16 914.53 3317.27L914.925 3315.31ZM907.647 3315.78C908.185 3315.9 908.722 3315.57 908.847 3315.03C908.971 3314.49 908.636 3313.95 908.098 3313.83L907.647 3315.78ZM885.071 3307.16C884.55 3306.97 883.979 3307.25 883.795 3307.77C883.611 3308.29 883.883 3308.86 884.404 3309.04L885.071 3307.16ZM877.795 3306.57C878.308 3306.77 878.889 3306.52 879.093 3306.01C879.296 3305.49 879.044 3304.91 878.531 3304.71L877.795 3306.57ZM856.933 3294.43C856.452 3294.15 855.842 3294.32 855.57 3294.8C855.298 3295.28 855.467 3295.89 855.948 3296.17L856.933 3294.43ZM849.87 3292.55C850.338 3292.84 850.955 3292.7 851.248 3292.23C851.541 3291.76 851.398 3291.15 850.93 3290.85L849.87 3292.55ZM831.712 3276.66C831.295 3276.3 830.663 3276.34 830.301 3276.76C829.939 3277.18 829.984 3277.81 830.401 3278.17L831.712 3276.66ZM825.181 3273.43C825.581 3273.81 826.214 3273.79 826.595 3273.39C826.976 3272.99 826.961 3272.36 826.561 3271.98L825.181 3273.43ZM810.55 3254.14C810.214 3253.7 809.586 3253.62 809.148 3253.95C808.709 3254.29 808.627 3254.92 808.963 3255.35L810.55 3254.14ZM804.843 3249.74C805.16 3250.19 805.784 3250.3 806.236 3249.98C806.688 3249.67 806.798 3249.04 806.481 3248.59L804.843 3249.74ZM793.763 3227.86C793.494 3227.38 792.884 3227.2 792.402 3227.47C791.92 3227.74 791.748 3228.35 792.017 3228.83L793.763 3227.86ZM788.72 3222.8C788.98 3223.29 789.586 3223.47 790.073 3223.21C790.56 3222.95 790.745 3222.34 790.485 3221.86L788.72 3222.8ZM780.049 3200.07C779.836 3199.56 779.25 3199.32 778.74 3199.53C778.231 3199.74 777.991 3200.33 778.204 3200.84L780.049 3200.07ZM775.647 3194.41C775.841 3194.92 776.418 3195.19 776.935 3194.99C777.452 3194.8 777.713 3194.22 777.519 3193.7L775.647 3194.41ZM770.978 3170.76C770.88 3170.21 770.36 3169.85 769.816 3169.95C769.273 3170.05 768.911 3170.57 769.009 3171.11L770.978 3170.76ZM768 3163.97C768.056 3164.52 768.546 3164.92 769.096 3164.87C769.645 3164.81 770.046 3164.32 769.99 3163.77L768 3163.97ZM771.603 3140.28C771.747 3139.74 771.431 3139.19 770.898 3139.05C770.365 3138.91 769.816 3139.22 769.672 3139.76L771.603 3140.28ZM771.961 3133C771.751 3133.51 771.995 3134.1 772.505 3134.31C773.016 3134.52 773.601 3134.27 773.811 3133.76L771.961 3133ZM786.978 3114.19C787.363 3113.8 787.352 3113.16 786.956 3112.78C786.559 3112.39 785.926 3112.4 785.542 3112.8L786.978 3114.19ZM790.666 3107.92C790.252 3108.29 790.213 3108.92 790.578 3109.33C790.944 3109.75 791.576 3109.78 791.99 3109.42L790.666 3107.92ZM811.362 3095.4C811.833 3095.11 811.98 3094.49 811.69 3094.02C811.401 3093.55 810.785 3093.41 810.315 3093.7L811.362 3095.4ZM816.39 3090.09C815.911 3090.36 815.746 3090.97 816.022 3091.45C816.297 3091.93 816.908 3092.1 817.387 3091.82L816.39 3090.09ZM838.65 3080.53C839.144 3080.28 839.344 3079.68 839.096 3079.18C838.849 3078.69 838.248 3078.49 837.754 3078.74L838.65 3080.53ZM844.01 3075.64C843.514 3075.88 843.31 3076.48 843.554 3076.97C843.797 3077.47 844.396 3077.67 844.892 3077.43L844.01 3075.64ZM866.577 3066.9C867.073 3066.66 867.28 3066.06 867.039 3065.56C866.797 3065.07 866.199 3064.86 865.702 3065.1L866.577 3066.9ZM872.06 3062C871.564 3062.24 871.359 3062.84 871.603 3063.33C871.846 3063.83 872.445 3064.03 872.941 3063.79L872.06 3062ZM894.459 3052.92C894.948 3052.67 895.137 3052.06 894.881 3051.57C894.625 3051.08 894.02 3050.89 893.531 3051.15L894.459 3052.92ZM899.725 3047.86C899.239 3048.13 899.056 3048.73 899.318 3049.22C899.579 3049.71 900.186 3049.89 900.672 3049.63L899.725 3047.86ZM921.715 3037.7C922.189 3037.42 922.343 3036.8 922.059 3036.33C921.775 3035.86 921.16 3035.7 920.687 3035.99L921.715 3037.7ZM926.641 3032.35C926.172 3032.65 926.028 3033.26 926.32 3033.73C926.611 3034.2 927.228 3034.34 927.697 3034.05L926.641 3032.35ZM947.857 3020.67C948.307 3020.35 948.413 3019.72 948.093 3019.27C947.773 3018.82 947.148 3018.72 946.698 3019.04L947.857 3020.67ZM952.343 3014.94C951.899 3015.27 951.806 3015.89 952.134 3016.34C952.463 3016.78 953.089 3016.88 953.533 3016.55L952.343 3014.94ZM972.462 3001.44C972.88 3001.08 972.928 3000.45 972.567 3000.03C972.207 2999.61 971.576 2999.57 971.157 2999.93L972.462 3001.44ZM976.383 2995.33C975.972 2995.7 975.939 2996.33 976.308 2996.74C976.678 2997.15 977.31 2997.18 977.72 2996.81L976.383 2995.33ZM995.07 2979.93C995.45 2979.52 995.433 2978.89 995.033 2978.51C994.632 2978.13 993.999 2978.15 993.619 2978.55L995.07 2979.93ZM998.359 2973.43C997.988 2973.84 998.019 2974.48 998.429 2974.85C998.838 2975.22 999.471 2975.19 999.841 2974.78L998.359 2973.43ZM1015.26 2956.18C1015.59 2955.74 1015.5 2955.11 1015.06 2954.78C1014.61 2954.45 1013.99 2954.54 1013.66 2954.99L1015.26 2956.18ZM1017.61 2949.5C1017.3 2949.95 1017.41 2950.57 1017.86 2950.89C1018.32 2951.2 1018.94 2951.09 1019.25 2950.64L1017.61 2949.5ZM1031.42 2930.2C1031.66 2929.71 1031.46 2929.11 1030.97 2928.86C1030.47 2928.62 1029.87 2928.82 1029.63 2929.31L1031.42 2930.2ZM1032.48 2923.15C1032.26 2923.66 1032.49 2924.25 1033 2924.47C1033.51 2924.69 1034.09 2924.45 1034.31 2923.95L1032.48 2923.15ZM1041.42 2901.32C1041.53 2900.78 1041.18 2900.25 1040.63 2900.14C1040.09 2900.04 1039.57 2900.39 1039.46 2900.93L1041.42 2901.32ZM1040.54 2894.16C1040.47 2894.7 1040.86 2895.2 1041.41 2895.27C1041.96 2895.34 1042.46 2894.95 1042.52 2894.4L1040.54 2894.16ZM1042.38 2870.64C1042.31 2870.09 1041.81 2869.71 1041.26 2869.78C1040.71 2869.86 1040.33 2870.36 1040.4 2870.91L1042.38 2870.64ZM1039.25 2864.21C1039.36 2864.75 1039.89 2865.09 1040.43 2864.98C1040.97 2864.87 1041.32 2864.34 1041.21 2863.8L1039.25 2864.21ZM1033.75 2841.24C1033.52 2840.74 1032.93 2840.51 1032.43 2840.74C1031.92 2840.97 1031.7 2841.56 1031.93 2842.06L1033.75 2841.24ZM1028.94 2835.9C1029.19 2836.39 1029.8 2836.58 1030.29 2836.33C1030.78 2836.08 1030.97 2835.47 1030.72 2834.98L1028.94 2835.9ZM1018.22 2814.83C1017.89 2814.38 1017.27 2814.28 1016.82 2814.6C1016.37 2814.93 1016.27 2815.55 1016.59 2816L1018.22 2814.83ZM1012.5 2810.52C1012.84 2810.96 1013.47 2811.04 1013.91 2810.7C1014.34 2810.37 1014.42 2809.74 1014.09 2809.3L1012.5 2810.52ZM998.675 2791.27C998.298 2790.87 997.666 2790.85 997.262 2791.22C996.858 2791.6 996.836 2792.23 997.213 2792.64L998.675 2791.27ZM992.499 2787.69C992.884 2788.09 993.518 2788.1 993.913 2787.71C994.309 2787.33 994.318 2786.69 993.933 2786.3L992.499 2787.69ZM976.918 2769.84C976.511 2769.47 975.879 2769.49 975.505 2769.9C975.132 2770.31 975.16 2770.94 975.567 2771.31L976.918 2769.84ZM970.473 2766.7C970.885 2767.07 971.517 2767.04 971.885 2766.62C972.253 2766.21 972.217 2765.58 971.805 2765.21L970.473 2766.7ZM953.887 2749.79C953.463 2749.44 952.832 2749.49 952.478 2749.92C952.125 2750.34 952.182 2750.97 952.606 2751.33L953.887 2749.79ZM947.306 2746.94C947.733 2747.29 948.363 2747.23 948.713 2746.8C949.064 2746.38 949.002 2745.75 948.575 2745.4L947.306 2746.94ZM930.163 2730.59C929.729 2730.25 929.101 2730.32 928.758 2730.75C928.415 2731.19 928.489 2731.81 928.922 2732.16L930.163 2730.59ZM923.52 2727.9C923.955 2728.24 924.583 2728.17 924.924 2727.73C925.266 2727.3 925.19 2726.67 924.756 2726.33L923.52 2727.9ZM906.13 2711.8C905.694 2711.46 905.066 2711.54 904.727 2711.98C904.388 2712.41 904.467 2713.04 904.903 2713.38L906.13 2711.8ZM899.47 2709.16C899.906 2709.5 900.534 2709.42 900.873 2708.98C901.212 2708.55 901.133 2707.92 900.697 2707.58L899.47 2709.16ZM882.087 2693.06C881.653 2692.72 881.024 2692.79 880.683 2693.23C880.342 2693.66 880.417 2694.29 880.851 2694.63L882.087 2693.06ZM875.442 2690.37C875.875 2690.71 876.504 2690.63 876.846 2690.2C877.189 2689.77 877.116 2689.14 876.683 2688.8L875.442 2690.37ZM858.303 2674.02C857.876 2673.67 857.246 2673.73 856.896 2674.16C856.546 2674.59 856.608 2675.22 857.036 2675.57L858.303 2674.02ZM851.712 2671.18C852.136 2671.53 852.767 2671.47 853.12 2671.05C853.473 2670.62 853.414 2669.99 852.989 2669.64L851.712 2671.18ZM835.067 2654.33C834.652 2653.97 834.02 2654.01 833.655 2654.42C833.29 2654.83 833.33 2655.47 833.744 2655.83L835.067 2654.33ZM828.59 2651.24C829 2651.61 829.633 2651.58 830.002 2651.17C830.372 2650.76 830.339 2650.12 829.928 2649.75L828.59 2651.24ZM812.758 2633.63C812.364 2633.24 811.731 2633.25 811.344 2633.64C810.956 2634.03 810.961 2634.67 811.355 2635.05L812.758 2633.63ZM806.474 2630.17C806.861 2630.57 807.494 2630.57 807.888 2630.19C808.281 2629.8 808.286 2629.16 807.898 2628.77L806.474 2630.17ZM792.091 2611.43C791.744 2611 791.115 2610.93 790.685 2611.27C790.255 2611.62 790.187 2612.25 790.533 2612.68L792.091 2611.43ZM786.333 2607.19C786.656 2607.64 787.282 2607.74 787.729 2607.41C788.177 2607.09 788.277 2606.46 787.953 2606.02L786.333 2607.19ZM776.885 2585.93C776.697 2585.41 776.124 2585.14 775.604 2585.33C775.085 2585.52 774.817 2586.09 775.005 2586.61L776.885 2585.93ZM773.064 2580.03C773.186 2580.57 773.721 2580.91 774.26 2580.79C774.798 2580.67 775.136 2580.13 775.014 2579.59L773.064 2580.03ZM776.15 2557.2C776.334 2556.68 776.061 2556.11 775.541 2555.93C775.02 2555.74 774.449 2556.02 774.265 2556.54L776.15 2557.2ZM777.091 2550.18C776.83 2550.66 777.012 2551.27 777.499 2551.53C777.985 2551.79 778.592 2551.61 778.853 2551.12L777.091 2550.18ZM793.314 2533.47C793.723 2533.1 793.755 2532.47 793.385 2532.06C793.015 2531.65 792.383 2531.62 791.973 2531.99L793.314 2533.47ZM797.206 2527.54C796.775 2527.89 796.705 2528.52 797.05 2528.95C797.396 2529.38 798.025 2529.45 798.456 2529.1L797.206 2527.54ZM817.544 2515.94C818.016 2515.66 818.165 2515.04 817.878 2514.57C817.59 2514.1 816.975 2513.95 816.503 2514.24L817.544 2515.94ZM822.404 2510.73C821.926 2511.01 821.762 2511.62 822.039 2512.1C822.316 2512.58 822.927 2512.74 823.405 2512.47L822.404 2510.73ZM843.878 2501.36C844.369 2501.11 844.562 2500.51 844.309 2500.02C844.056 2499.53 843.452 2499.33 842.962 2499.59L843.878 2501.36ZM849.008 2496.5C848.516 2496.75 848.318 2497.35 848.567 2497.84C848.816 2498.34 849.418 2498.53 849.911 2498.29L849.008 2496.5ZM870.803 2487.91C871.299 2487.66 871.502 2487.06 871.258 2486.57C871.014 2486.07 870.414 2485.87 869.919 2486.11L870.803 2487.91ZM876.039 2483.09C875.544 2483.34 875.341 2483.94 875.586 2484.43C875.831 2484.93 876.43 2485.13 876.926 2484.88L876.039 2483.09ZM897.777 2474.4C898.268 2474.15 898.461 2473.54 898.208 2473.05C897.955 2472.56 897.352 2472.37 896.861 2472.62L897.777 2474.4ZM902.892 2469.48C902.403 2469.74 902.216 2470.34 902.473 2470.83C902.73 2471.32 903.335 2471.51 903.824 2471.25L902.892 2469.48ZM924.278 2459.96C924.755 2459.68 924.916 2459.07 924.638 2458.59C924.36 2458.11 923.747 2457.95 923.27 2458.23L924.278 2459.96ZM929.12 2454.75C928.648 2455.04 928.497 2455.65 928.784 2456.13C929.07 2456.6 929.685 2456.75 930.157 2456.46L929.12 2454.75ZM949.716 2443.61C950.165 2443.28 950.267 2442.66 949.945 2442.21C949.623 2441.76 948.998 2441.66 948.549 2441.98L949.716 2443.61ZM953.98 2437.96C953.541 2438.3 953.457 2438.93 953.792 2439.36C954.127 2439.8 954.754 2439.89 955.193 2439.55L953.98 2437.96ZM972.943 2424.23C973.336 2423.84 973.339 2423.21 972.95 2422.81C972.562 2422.42 971.928 2422.42 971.536 2422.81L972.943 2424.23ZM976.232 2417.94C975.858 2418.34 975.885 2418.98 976.291 2419.35C976.698 2419.72 977.331 2419.7 977.704 2419.29L976.232 2417.94ZM991.889 2400.59C992.175 2400.11 992.024 2399.5 991.552 2399.21C991.079 2398.93 990.464 2399.08 990.178 2399.55L991.889 2400.59ZM993.466 2393.68C993.213 2394.17 993.406 2394.78 993.897 2395.03C994.388 2395.28 994.991 2395.09 995.244 2394.6L993.466 2393.68ZM1003.59 2372.66C1003.74 2372.12 1003.42 2371.57 1002.89 2371.42C1002.36 2371.27 1001.81 2371.58 1001.66 2372.12L1003.59 2372.66ZM1003.32 2365.54C1003.2 2366.08 1003.54 2366.61 1004.07 2366.73C1004.61 2366.86 1005.15 2366.52 1005.27 2365.98L1003.32 2365.54ZM1007.94 2342.75C1007.94 2342.19 1007.5 2341.75 1006.94 2341.75C1006.39 2341.75 1005.94 2342.2 1005.94 2342.75L1007.94 2342.75ZM1005.68 2336.06C1005.72 2336.61 1006.2 2337.02 1006.75 2336.98C1007.3 2336.93 1007.72 2336.45 1007.67 2335.9L1005.68 2336.06ZM1002.6 2313C1002.41 2312.49 1001.83 2312.23 1001.31 2312.42C1000.8 2312.61 1000.53 2313.19 1000.73 2313.71L1002.6 2313ZM998.131 2307.54C998.365 2308.04 998.961 2308.25 999.461 2308.02C999.961 2307.79 1000.18 2307.19 999.943 2306.69L998.131 2307.54ZM987.536 2286.83C987.194 2286.39 986.565 2286.32 986.132 2286.66C985.698 2287 985.624 2287.63 985.965 2288.07L987.536 2286.83ZM981.648 2282.89C982.013 2283.3 982.645 2283.34 983.06 2282.98C983.474 2282.61 983.515 2281.98 983.151 2281.57L981.648 2282.89ZM966.472 2265.23C966.053 2264.87 965.422 2264.92 965.062 2265.34C964.702 2265.76 964.749 2266.39 965.168 2266.75L966.472 2265.23ZM959.979 2262.42C960.409 2262.77 961.038 2262.7 961.386 2262.27C961.733 2261.84 961.667 2261.22 961.237 2260.87L959.979 2262.42ZM942.517 2246.96C942.062 2246.65 941.439 2246.76 941.126 2247.22C940.812 2247.67 940.927 2248.3 941.381 2248.61L942.517 2246.96ZM935.777 2244.81C936.236 2245.12 936.857 2244.99 937.164 2244.53C937.47 2244.07 937.346 2243.45 936.886 2243.15L935.777 2244.81ZM917.244 2230.64C916.773 2230.35 916.158 2230.5 915.869 2230.97C915.58 2231.44 915.728 2232.06 916.199 2232.35L917.244 2230.64ZM910.39 2228.82C910.863 2229.1 911.478 2228.95 911.763 2228.48C912.048 2228 911.896 2227.39 911.423 2227.11L910.39 2228.82ZM891.41 2215.25C890.933 2214.97 890.321 2215.13 890.042 2215.61C889.763 2216.09 889.923 2216.7 890.4 2216.98L891.41 2215.25ZM884.556 2213.56C885.033 2213.84 885.645 2213.68 885.924 2213.2C886.202 2212.73 886.041 2212.11 885.564 2211.84L884.556 2213.56ZM865.503 2200.09C865.027 2199.81 864.414 2199.97 864.133 2200.44C863.852 2200.92 864.01 2201.53 864.486 2201.81L865.503 2200.09ZM858.644 2198.35C859.118 2198.63 859.732 2198.48 860.014 2198C860.297 2197.53 860.141 2196.91 859.667 2196.63L858.644 2198.35ZM839.807 2184.57C839.338 2184.28 838.722 2184.42 838.43 2184.89C838.138 2185.36 838.282 2185.98 838.751 2186.27L839.807 2184.57ZM833.005 2182.66C833.471 2182.96 834.089 2182.82 834.385 2182.35C834.68 2181.89 834.541 2181.27 834.074 2180.97L833.005 2182.66ZM814.656 2168.25C814.199 2167.93 813.577 2168.05 813.267 2168.51C812.956 2168.97 813.074 2169.59 813.53 2169.9L814.656 2168.25ZM807.933 2166.04C808.386 2166.36 809.009 2166.25 809.325 2165.79C809.641 2165.34 809.531 2164.72 809.078 2164.4L807.933 2166.04ZM790.769 2150.38C790.365 2150.01 789.732 2150.03 789.356 2150.44C788.98 2150.84 789.003 2151.47 789.407 2151.85L790.769 2150.38ZM784.51 2146.87C784.877 2147.28 785.51 2147.32 785.922 2146.95C786.333 2146.58 786.369 2145.95 786.001 2145.54L784.51 2146.87ZM775.091 2126.03C774.958 2125.5 774.416 2125.17 773.88 2125.3C773.344 2125.44 773.017 2125.98 773.15 2126.52L775.091 2126.03ZM772.091 2119.69C772.126 2120.24 772.602 2120.66 773.153 2120.63C773.704 2120.59 774.122 2120.12 774.086 2119.56L772.091 2119.69ZM778.681 2097.61C778.911 2097.1 778.69 2096.51 778.188 2096.28C777.686 2096.05 777.093 2096.27 776.863 2096.77L778.681 2097.61ZM779.974 2090.74C779.7 2091.22 779.866 2091.83 780.345 2092.11C780.825 2092.38 781.436 2092.22 781.71 2091.74L779.974 2090.74ZM795.278 2073.19C795.642 2072.78 795.601 2072.15 795.186 2071.78C794.77 2071.42 794.138 2071.46 793.774 2071.88L795.278 2073.19ZM798.296 2066.91C797.917 2067.31 797.935 2067.94 798.337 2068.32C798.739 2068.7 799.372 2068.68 799.75 2068.28L798.296 2066.91ZM816.365 2052.28C816.778 2051.92 816.815 2051.29 816.448 2050.87C816.081 2050.46 815.449 2050.42 815.036 2050.79L816.365 2052.28ZM820.192 2046.29C819.772 2046.65 819.724 2047.28 820.084 2047.7C820.443 2048.12 821.074 2048.17 821.494 2047.81L820.192 2046.29ZM839.347 2033.22C839.782 2032.88 839.858 2032.25 839.517 2031.81C839.176 2031.38 838.547 2031.3 838.113 2031.64L839.347 2033.22ZM843.46 2027.49C843.023 2027.82 842.941 2028.45 843.278 2028.89C843.615 2029.33 844.243 2029.41 844.681 2029.07L843.46 2027.49ZM863.173 2015.17C863.617 2014.84 863.712 2014.21 863.384 2013.77C863.056 2013.33 862.43 2013.23 861.986 2013.56L863.173 2015.17ZM867.429 2009.56C866.984 2009.89 866.887 2010.51 867.213 2010.96C867.539 2011.41 868.164 2011.5 868.61 2011.18L867.429 2009.56ZM887.352 1997.58C887.8 1997.26 887.901 1996.63 887.578 1996.19C887.255 1995.74 886.63 1995.64 886.182 1995.96L887.352 1997.58ZM891.658 1992.01C891.21 1992.33 891.109 1992.96 891.433 1993.4C891.756 1993.85 892.381 1993.95 892.829 1993.63L891.658 1992.01ZM911.578 1980.03C912.024 1979.71 912.121 1979.08 911.795 1978.63C911.469 1978.19 910.844 1978.09 910.398 1978.42L911.578 1980.03ZM915.844 1974.42C915.4 1974.75 915.305 1975.37 915.632 1975.82C915.96 1976.26 916.586 1976.36 917.03 1976.03L915.844 1974.42ZM935.572 1962.14C936.01 1961.8 936.094 1961.17 935.758 1960.74C935.422 1960.3 934.795 1960.21 934.356 1960.55L935.572 1962.14ZM939.704 1956.42C939.268 1956.76 939.19 1957.39 939.529 1957.83C939.867 1958.26 940.496 1958.34 940.932 1958L939.704 1956.42ZM958.997 1943.49C959.421 1943.13 959.478 1942.5 959.124 1942.08C958.77 1941.65 958.14 1941.6 957.716 1941.95L958.997 1943.49ZM962.88 1937.58C962.461 1937.94 962.412 1938.58 962.772 1938.99C963.131 1939.41 963.763 1939.46 964.182 1939.1L962.88 1937.58ZM981.348 1923.55C981.745 1923.16 981.756 1922.53 981.373 1922.13C980.989 1921.74 980.356 1921.73 979.959 1922.11L981.348 1923.55ZM984.788 1917.34C984.399 1917.73 984.402 1918.37 984.795 1918.76C985.188 1919.14 985.821 1919.14 986.209 1918.75L984.788 1917.34ZM1001.75 1901.46C1002.1 1901.03 1002.03 1900.4 1001.6 1900.05C1001.17 1899.71 1000.54 1899.78 1000.19 1900.21L1001.75 1901.46ZM1004.25 1894.94C1003.92 1895.39 1004.02 1896.01 1004.46 1896.34C1004.91 1896.67 1005.53 1896.58 1005.86 1896.13L1004.25 1894.94ZM1017.99 1876C1018.22 1875.5 1018 1874.91 1017.49 1874.68C1016.99 1874.45 1016.4 1874.68 1016.17 1875.18L1017.99 1876ZM1018.7 1868.9C1018.52 1869.42 1018.79 1869.99 1019.31 1870.17C1019.83 1870.36 1020.4 1870.09 1020.59 1869.57L1018.7 1868.9ZM1024.75 1846.28C1024.75 1845.73 1024.31 1845.28 1023.75 1845.27C1023.2 1845.27 1022.75 1845.71 1022.75 1846.27L1024.75 1846.28ZM1022.46 1839.54C1022.51 1840.09 1022.99 1840.49 1023.54 1840.44C1024.09 1840.39 1024.5 1839.9 1024.45 1839.35L1022.46 1839.54ZM1018.73 1816.41C1018.53 1815.9 1017.95 1815.65 1017.44 1815.86C1016.92 1816.06 1016.67 1816.64 1016.88 1817.16L1018.73 1816.41ZM1014.16 1810.96C1014.4 1811.46 1014.99 1811.67 1015.49 1811.43C1015.99 1811.19 1016.2 1810.6 1015.96 1810.1L1014.16 1810.96ZM1003.93 1789.8C1003.62 1789.35 1002.99 1789.24 1002.54 1789.55C1002.09 1789.87 1001.98 1790.5 1002.3 1790.95L1003.93 1789.8ZM998.287 1785.45C998.62 1785.89 999.247 1785.98 999.688 1785.64C1000.13 1785.31 1000.22 1784.68 999.883 1784.24L998.287 1785.45ZM984.803 1766.17C984.432 1765.76 983.8 1765.73 983.391 1766.1C982.982 1766.47 982.951 1767.1 983.322 1767.51L984.803 1766.17ZM978.663 1762.48C979.042 1762.88 979.675 1762.9 980.077 1762.52C980.478 1762.14 980.497 1761.51 980.118 1761.11L978.663 1762.48ZM963.569 1744.44C963.171 1744.06 962.538 1744.07 962.155 1744.47C961.771 1744.87 961.783 1745.5 962.181 1745.88L963.569 1744.44ZM957.245 1741.18C957.646 1741.56 958.279 1741.54 958.658 1741.14C959.038 1740.74 959.019 1740.1 958.618 1739.72L957.245 1741.18ZM941.313 1723.82C940.903 1723.45 940.271 1723.48 939.901 1723.89C939.532 1724.3 939.565 1724.93 939.976 1725.3L941.313 1723.82ZM934.898 1720.76C935.31 1721.12 935.942 1721.09 936.31 1720.67C936.677 1720.26 936.641 1719.63 936.229 1719.26L934.898 1720.76ZM918.637 1703.72C918.222 1703.35 917.59 1703.4 917.226 1703.81C916.861 1704.23 916.902 1704.86 917.317 1705.22L918.637 1703.72ZM912.175 1700.71C912.59 1701.07 913.222 1701.03 913.586 1700.61C913.951 1700.2 913.91 1699.57 913.495 1699.2L912.175 1700.71ZM895.902 1683.69C895.49 1683.33 894.857 1683.36 894.491 1683.78C894.124 1684.19 894.162 1684.82 894.575 1685.19L895.902 1683.69ZM889.458 1680.63C889.87 1681 890.502 1680.97 890.87 1680.55C891.238 1680.14 891.202 1679.51 890.791 1679.14L889.458 1680.63ZM873.433 1663.39C873.028 1663.01 872.395 1663.04 872.02 1663.45C871.645 1663.85 871.67 1664.48 872.076 1664.86L873.433 1663.39ZM867.059 1660.19C867.462 1660.57 868.095 1660.55 868.473 1660.15C868.85 1659.74 868.829 1659.11 868.426 1658.73L867.059 1660.19ZM851.54 1642.49C851.148 1642.1 850.515 1642.1 850.126 1642.5C849.737 1642.89 849.74 1643.52 850.132 1643.91L851.54 1642.49ZM845.292 1639.07C845.681 1639.46 846.314 1639.46 846.706 1639.07C847.099 1638.68 847.103 1638.05 846.714 1637.66L845.292 1639.07ZM830.573 1620.69C830.201 1620.28 829.568 1620.25 829.16 1620.62C828.752 1620.99 828.722 1621.63 829.094 1622.03L830.573 1620.69ZM824.516 1616.94C824.883 1617.35 825.515 1617.39 825.928 1617.02C826.341 1616.66 826.38 1616.03 826.013 1615.61L824.516 1616.94ZM810.965 1597.69C810.622 1597.25 809.993 1597.18 809.56 1597.52C809.127 1597.87 809.054 1598.49 809.396 1598.93L810.965 1597.69ZM805.191 1593.51C805.525 1593.95 806.153 1594.04 806.592 1593.7C807.031 1593.37 807.116 1592.74 806.782 1592.3L805.191 1593.51ZM793.009 1572.62C792.717 1572.15 792.1 1572 791.632 1572.3C791.163 1572.59 791.02 1573.21 791.312 1573.67L793.009 1572.62ZM787.549 1567.33C787.82 1567.81 788.43 1567.98 788.911 1567.71C789.392 1567.44 789.563 1566.83 789.292 1566.35L787.549 1567.33ZM779.739 1544.05C779.594 1543.52 779.045 1543.2 778.512 1543.35C777.979 1543.49 777.664 1544.04 777.809 1544.58L779.739 1544.05ZM776.287 1537.38C776.368 1537.92 776.876 1538.3 777.423 1538.22C777.969 1538.14 778.346 1537.63 778.265 1537.08L776.287 1537.38ZM781.227 1513.54C781.454 1513.03 781.231 1512.44 780.728 1512.21C780.225 1511.99 779.632 1512.21 779.405 1512.71L781.227 1513.54ZM782.98 1506.29C782.674 1506.75 782.799 1507.37 783.259 1507.68C783.719 1507.98 784.34 1507.86 784.645 1507.4L782.98 1506.29ZM801.753 1490.28C802.196 1489.95 802.289 1489.32 801.959 1488.88C801.63 1488.43 801.003 1488.34 800.56 1488.67L801.753 1490.28ZM806.518 1484.5C806.057 1484.8 805.932 1485.42 806.237 1485.88C806.542 1486.34 807.163 1486.47 807.623 1486.16L806.518 1484.5ZM828.884 1473.8C829.372 1473.54 829.56 1472.94 829.302 1472.45C829.045 1471.96 828.44 1471.77 827.952 1472.03L828.884 1473.8ZM834.344 1468.72C833.852 1468.97 833.657 1469.58 833.907 1470.07C834.158 1470.56 834.76 1470.76 835.252 1470.5L834.344 1468.72ZM857.393 1459.56C857.889 1459.31 858.095 1458.72 857.852 1458.22C857.61 1457.72 857.011 1457.52 856.515 1457.76L857.393 1459.56ZM862.983 1454.6C862.487 1454.84 862.283 1455.44 862.526 1455.93C862.769 1456.43 863.368 1456.63 863.864 1456.39L862.983 1454.6ZM885.956 1445.29C886.446 1445.03 886.637 1444.43 886.382 1443.94C886.127 1443.45 885.524 1443.26 885.034 1443.51L885.956 1445.29ZM891.422 1440.15C890.935 1440.41 890.751 1441.01 891.011 1441.5C891.271 1441.99 891.877 1442.17 892.364 1441.91L891.422 1440.15ZM913.908 1429.75C914.382 1429.47 914.535 1428.85 914.251 1428.38C913.967 1427.91 913.353 1427.75 912.88 1428.04L913.908 1429.75ZM918.999 1424.3C918.531 1424.59 918.388 1425.2 918.68 1425.67C918.972 1426.14 919.589 1426.29 920.058 1425.99L918.999 1424.3ZM940.618 1412.17C941.065 1411.85 941.164 1411.22 940.839 1410.78C940.515 1410.33 939.889 1410.23 939.443 1410.56L940.618 1412.17ZM945.203 1406.27C944.764 1406.61 944.679 1407.23 945.014 1407.67C945.349 1408.11 945.976 1408.2 946.415 1407.86L945.203 1406.27ZM965.452 1392.02C965.86 1391.64 965.89 1391.01 965.518 1390.6C965.146 1390.2 964.514 1390.17 964.105 1390.54L965.452 1392.02ZM969.366 1385.61C968.968 1386 968.956 1386.63 969.339 1387.03C969.722 1387.42 970.355 1387.44 970.753 1387.05L969.366 1385.61ZM987.727 1369.03C988.085 1368.61 988.034 1367.98 987.614 1367.62C987.193 1367.26 986.562 1367.31 986.204 1367.73L987.727 1369.03ZM990.777 1362.2C990.432 1362.63 990.501 1363.26 990.932 1363.6C991.363 1363.95 991.992 1363.88 992.338 1363.45L990.777 1362.2ZM1006.82 1343.34C1007.12 1342.88 1006.98 1342.26 1006.52 1341.96C1006.05 1341.66 1005.43 1341.8 1005.13 1342.26L1006.82 1343.34ZM1008.89 1336.2C1008.61 1336.67 1008.76 1337.29 1009.24 1337.57C1009.71 1337.85 1010.32 1337.69 1010.61 1337.22L1008.89 1336.2ZM1021.41 1315.22C1021.61 1314.7 1021.35 1314.13 1020.83 1313.93C1020.32 1313.74 1019.74 1313.99 1019.55 1314.51L1021.41 1315.22ZM1021.79 1307.95C1021.63 1308.48 1021.93 1309.04 1022.46 1309.2C1022.98 1309.36 1023.54 1309.06 1023.7 1308.53L1021.79 1307.95ZM1027.16 1284.1C1027.14 1283.55 1026.68 1283.12 1026.13 1283.14C1025.58 1283.16 1025.14 1283.62 1025.16 1284.17L1027.16 1284.1ZM1024.52 1277.22C1024.61 1277.77 1025.12 1278.14 1025.66 1278.06C1026.21 1277.98 1026.58 1277.47 1026.5 1276.92L1024.52 1277.22ZM1018.24 1253.77C1017.97 1253.29 1017.36 1253.12 1016.88 1253.39C1016.4 1253.67 1016.23 1254.28 1016.51 1254.76L1018.24 1253.77ZM1012.76 1248.8C1013.07 1249.26 1013.69 1249.37 1014.15 1249.06C1014.6 1248.75 1014.72 1248.12 1014.41 1247.67L1012.76 1248.8ZM998.42 1229.04C998.026 1228.66 997.393 1228.66 997.006 1229.06C996.619 1229.45 996.626 1230.08 997.02 1230.47L998.42 1229.04ZM991.889 1225.62C992.297 1225.99 992.93 1225.96 993.302 1225.56C993.674 1225.15 993.646 1224.52 993.238 1224.14L991.889 1225.62ZM974.47 1208.42C974.036 1208.08 973.407 1208.15 973.066 1208.59C972.726 1209.02 972.802 1209.65 973.236 1209.99L974.47 1208.42ZM967.631 1205.65C968.07 1205.99 968.697 1205.9 969.033 1205.46C969.369 1205.03 969.285 1204.4 968.847 1204.06L967.631 1205.65ZM949.287 1189.45C948.842 1189.12 948.216 1189.21 947.888 1189.66C947.56 1190.1 947.655 1190.73 948.099 1191.06L949.287 1189.45ZM942.344 1186.81C942.788 1187.14 943.414 1187.04 943.742 1186.6C944.07 1186.15 943.976 1185.53 943.532 1185.2L942.344 1186.81ZM924.005 1170.6C923.566 1170.26 922.939 1170.35 922.604 1170.78C922.269 1171.22 922.353 1171.85 922.792 1172.19L924.005 1170.6ZM917.17 1167.86C917.607 1168.2 918.235 1168.12 918.573 1167.69C918.912 1167.25 918.833 1166.62 918.396 1166.28L917.17 1167.86ZM899.414 1151.01C898.99 1150.65 898.36 1150.71 898.005 1151.13C897.65 1151.55 897.705 1152.19 898.128 1152.54L899.414 1151.01ZM892.691 1147.92C893.109 1148.28 893.74 1148.23 894.101 1147.81C894.462 1147.39 894.415 1146.76 893.997 1146.4L892.691 1147.92ZM876.013 1130.02C875.616 1129.64 874.983 1129.65 874.599 1130.05C874.216 1130.44 874.227 1131.08 874.624 1131.46L876.013 1130.02ZM869.518 1126.44C869.908 1126.83 870.541 1126.83 870.932 1126.44C871.323 1126.05 871.323 1125.42 870.933 1125.03L869.518 1126.44ZM854.358 1107.26C853.995 1106.84 853.364 1106.8 852.947 1107.16C852.53 1107.52 852.485 1108.16 852.848 1108.57L854.358 1107.26ZM848.222 1103.13C848.575 1103.55 849.205 1103.61 849.63 1103.26C850.055 1102.9 850.113 1102.27 849.76 1101.85L848.222 1103.13ZM834.974 1082.56C834.656 1082.11 834.032 1082 833.581 1082.32C833.129 1082.64 833.021 1083.26 833.339 1083.71L834.974 1082.56ZM829.3 1077.83C829.607 1078.29 830.228 1078.41 830.687 1078.1C831.146 1077.8 831.269 1077.18 830.962 1076.72L829.3 1077.83ZM818.384 1055.88C818.126 1055.39 817.521 1055.21 817.033 1055.47C816.544 1055.72 816.358 1056.33 816.616 1056.82L818.384 1055.88ZM813.414 1050.47C813.652 1050.97 814.25 1051.18 814.748 1050.94C815.246 1050.7 815.456 1050.1 815.217 1049.6L813.414 1050.47ZM806.506 1027.27C806.348 1026.74 805.791 1026.44 805.262 1026.59C804.733 1026.75 804.432 1027.31 804.59 1027.84L806.506 1027.27ZM802.713 1020.88C802.842 1021.42 803.382 1021.75 803.919 1021.62C804.456 1021.49 804.786 1020.95 804.657 1020.41L802.713 1020.88ZM801.35 996.668C801.33 996.116 800.867 995.685 800.315 995.705C799.763 995.724 799.331 996.188 799.351 996.74L801.35 996.668ZM799.312 989.636C799.298 990.188 799.735 990.647 800.287 990.661C800.839 990.675 801.298 990.239 801.312 989.687L799.312 989.636ZM804.419 965.9C804.546 965.363 804.213 964.824 803.676 964.697C803.138 964.57 802.6 964.903 802.473 965.44L804.419 965.9ZM804.306 958.553C804.149 959.082 804.451 959.639 804.981 959.796C805.51 959.952 806.067 959.65 806.224 959.121L804.306 958.553ZM815.028 936.738C815.27 936.242 815.065 935.643 814.569 935.4C814.072 935.158 813.473 935.363 813.231 935.859L815.028 936.738ZM816.477 929.555C816.215 930.041 816.396 930.648 816.881 930.911C817.367 931.174 817.974 930.993 818.237 930.507L816.477 929.555ZM830.973 910.031C831.289 909.579 831.179 908.956 830.727 908.639C830.275 908.322 829.651 908.432 829.334 908.884L830.973 910.031ZM833.494 903.115C833.165 903.559 833.258 904.185 833.701 904.514C834.145 904.843 834.771 904.749 835.1 904.306L833.494 903.115ZM850.241 885.462C850.601 885.043 850.554 884.412 850.136 884.051C849.717 883.691 849.086 883.738 848.725 884.156L850.241 885.462ZM853.385 878.839C853.018 879.251 853.055 879.883 853.467 880.25C853.879 880.618 854.512 880.581 854.879 880.169L853.385 878.839ZM871.39 862.471C871.775 862.074 871.765 861.441 871.369 861.057C870.973 860.672 870.34 860.681 869.955 861.078L871.39 862.471ZM874.92 856.008C874.532 856.401 874.536 857.034 874.929 857.422C875.322 857.81 875.955 857.806 876.343 857.413L874.92 856.008ZM893.552 840.373C893.947 839.988 893.956 839.354 893.57 838.959C893.185 838.563 892.552 838.555 892.156 838.94L893.552 840.373ZM897.232 834.011C896.835 834.395 896.825 835.028 897.21 835.425C897.594 835.822 898.227 835.832 898.624 835.447L897.232 834.011ZM916.054 818.589C916.45 818.205 916.459 817.572 916.075 817.175C915.69 816.779 915.057 816.77 914.661 817.154L916.054 818.589ZM919.728 812.222C919.333 812.608 919.325 813.241 919.711 813.636C920.097 814.031 920.73 814.038 921.125 813.652L919.728 812.222ZM938.33 796.529C938.716 796.135 938.71 795.501 938.316 795.115C937.921 794.728 937.288 794.734 936.902 795.129L938.33 796.529ZM941.81 790.076C941.427 790.474 941.439 791.107 941.837 791.49C942.236 791.872 942.869 791.86 943.251 791.462L941.81 790.076ZM959.716 773.596C960.08 773.181 960.039 772.549 959.623 772.185C959.208 771.821 958.576 771.862 958.212 772.278L959.716 773.596ZM962.826 766.919C962.469 767.341 962.522 767.972 962.944 768.329C963.366 768.685 963.997 768.632 964.353 768.21L962.826 766.919ZM979.349 749.066C979.671 748.617 979.568 747.992 979.119 747.67C978.67 747.349 978.046 747.451 977.724 747.9L979.349 749.066ZM981.729 742.142C981.42 742.6 981.541 743.222 982 743.53C982.458 743.839 983.079 743.718 983.388 743.26L981.729 742.142ZM995.288 722.085C995.494 721.573 995.245 720.99 994.733 720.785C994.22 720.579 993.638 720.827 993.432 721.34L995.288 722.085ZM995.706 714.842C995.547 715.371 995.848 715.928 996.377 716.087C996.906 716.246 997.463 715.945 997.622 715.416L995.706 714.842ZM1001.03 691.493C1001.03 690.941 1000.58 690.494 1000.03 690.494C999.474 690.494 999.026 690.942 999.027 691.494L1001.03 691.493ZM998.767 684.594C998.808 685.145 999.287 685.558 999.838 685.518C1000.39 685.477 1000.8 684.997 1000.76 684.447L998.767 684.594ZM996.376 660.698C996.223 660.167 995.669 659.861 995.139 660.013C994.608 660.166 994.301 660.72 994.454 661.251L996.376 660.698ZM992.38 654.648C992.558 655.17 993.126 655.45 993.649 655.272C994.172 655.094 994.451 654.526 994.273 654.004L992.38 654.648ZM984.934 631.788C984.688 631.293 984.088 631.091 983.594 631.337C983.099 631.582 982.897 632.183 983.143 632.677L984.934 631.788ZM979.959 626.512C980.22 626.999 980.826 627.182 981.312 626.921C981.799 626.66 981.982 626.054 981.721 625.567L979.959 626.512ZM969.371 604.919C969.067 604.457 968.447 604.329 967.986 604.633C967.524 604.936 967.396 605.556 967.7 606.018L969.371 604.919ZM963.814 600.249C964.127 600.704 964.75 600.819 965.205 600.505C965.659 600.191 965.774 599.569 965.46 599.114L963.814 600.249ZM951.161 579.799C950.819 579.366 950.19 579.292 949.757 579.634C949.323 579.976 949.249 580.605 949.592 581.039L951.161 579.799ZM945.218 575.594C945.567 576.021 946.197 576.085 946.625 575.735C947.052 575.386 947.116 574.756 946.767 574.328L945.218 575.594ZM931.103 556.126C930.733 555.716 930.101 555.684 929.691 556.054C929.281 556.424 929.249 557.057 929.619 557.467L931.103 556.126ZM924.909 552.322C925.284 552.727 925.917 552.75 926.322 552.375C926.727 551.999 926.751 551.367 926.375 550.962L924.909 552.322ZM909.682 533.703C909.29 533.313 908.657 533.316 908.268 533.707C907.879 534.099 907.881 534.732 908.273 535.122L909.682 533.703ZM903.293 530.23C903.689 530.615 904.322 530.606 904.707 530.209C905.092 529.813 905.083 529.18 904.687 528.795L903.293 530.23ZM887.17 512.38C886.761 512.009 886.128 512.041 885.758 512.45C885.387 512.86 885.419 513.492 885.828 513.863L887.17 512.38ZM880.636 509.212C881.049 509.579 881.681 509.541 882.048 509.128C882.414 508.714 882.376 508.082 881.963 507.716L880.636 509.212ZM863.754 492.107C863.329 491.754 862.699 491.813 862.346 492.239C861.994 492.664 862.053 493.294 862.478 493.646L863.754 492.107ZM857.052 489.195C857.481 489.543 858.111 489.478 858.459 489.049C858.807 488.62 858.742 487.99 858.313 487.642L857.052 489.195ZM839.454 472.858C839.013 472.525 838.386 472.612 838.053 473.053C837.72 473.493 837.807 474.12 838.248 474.453L839.454 472.858ZM832.621 470.252C833.066 470.58 833.692 470.485 834.02 470.041C834.348 469.597 834.253 468.97 833.809 468.642L832.621 470.252ZM824.004 451.288C824.204 450.773 823.948 450.194 823.433 449.994C822.919 449.794 822.339 450.049 822.139 450.564L824.004 451.288ZM825.975 444.464C825.612 444.88 825.655 445.512 826.071 445.875C826.487 446.238 827.118 446.196 827.482 445.78L825.975 444.464ZM846.243 431.975C846.719 431.695 846.878 431.082 846.598 430.606C846.318 430.13 845.705 429.971 845.229 430.251L846.243 431.975ZM851.249 426.779C850.769 427.052 850.601 427.663 850.874 428.143C851.147 428.623 851.758 428.791 852.238 428.518L851.249 426.779ZM872.779 416.687C873.251 416.402 873.403 415.787 873.118 415.314C872.833 414.841 872.218 414.689 871.745 414.975L872.779 416.687ZM877.609 411.353C877.142 411.648 877.003 412.266 877.299 412.733C877.594 413.199 878.212 413.338 878.679 413.043L877.609 411.353ZM898.139 399.338C898.572 398.995 898.645 398.366 898.302 397.933C897.958 397.5 897.33 397.427 896.897 397.77L898.139 399.338ZM902.198 393.402C901.778 393.762 901.73 394.393 902.089 394.812C902.449 395.232 903.08 395.28 903.5 394.921L902.198 393.402ZM920.386 378.117C920.746 377.698 920.698 377.067 920.279 376.707C919.859 376.347 919.228 376.396 918.868 376.815L920.386 378.117ZM923.206 371.502C922.867 371.938 922.947 372.566 923.383 372.905C923.819 373.244 924.447 373.164 924.786 372.728L923.206 371.502ZM937.721 352.689C937.979 352.2 937.792 351.595 937.303 351.338C936.815 351.08 936.21 351.267 935.952 351.755L937.721 352.689ZM939.001 345.609C938.768 346.109 938.985 346.704 939.486 346.937C939.987 347.17 940.582 346.953 940.815 346.452L939.001 345.609ZM949.024 324.106C949.173 323.574 948.862 323.022 948.33 322.873C947.798 322.725 947.246 323.036 947.098 323.568L949.024 324.106ZM948.803 316.884C948.678 317.422 949.013 317.959 949.551 318.084C950.089 318.209 950.626 317.874 950.751 317.336L948.803 316.884ZM957.049 294.895C957.192 294.361 956.876 293.813 956.343 293.67C955.809 293.527 955.261 293.843 955.118 294.376L957.049 294.895ZM956.596 287.86C956.493 288.402 956.849 288.925 957.391 289.029C957.934 289.132 958.457 288.776 958.561 288.233L956.596 287.86ZM960.991 265.049C961.012 264.498 960.582 264.033 960.03 264.012C959.478 263.991 959.014 264.421 958.992 264.973L960.991 265.049ZM959.152 258.234C959.147 258.786 959.59 259.238 960.142 259.243C960.695 259.248 961.147 258.805 961.152 258.253L959.152 258.234ZM960.415 234.968C960.377 234.417 959.9 234.001 959.349 234.039C958.798 234.077 958.382 234.554 958.419 235.105L960.415 234.968ZM957.892 228.374C957.941 228.924 958.426 229.331 958.976 229.283C959.526 229.235 959.933 228.749 959.885 228.199L957.892 228.374ZM957.157 205.089C957.076 204.543 956.568 204.165 956.022 204.245C955.476 204.326 955.098 204.834 955.178 205.38L957.157 205.089ZM954.138 198.688C954.227 199.233 954.741 199.603 955.286 199.514C955.831 199.424 956.201 198.91 956.112 198.365L954.138 198.688ZM951.734 175.524C951.615 174.985 951.082 174.644 950.542 174.762C950.003 174.881 949.662 175.414 949.781 175.954L951.734 175.524ZM948.277 169.371C948.404 169.909 948.943 170.241 949.481 170.114C950.018 169.987 950.351 169.448 950.223 168.91L948.277 169.371ZM944.207 146.429C944.049 145.9 943.491 145.6 942.962 145.758C942.433 145.917 942.133 146.475 942.292 147.004L944.207 146.429ZM940.292 140.556C940.46 141.082 941.023 141.371 941.549 141.203C942.075 141.034 942.365 140.471 942.196 139.945L940.292 140.556ZM934.309 118.034C934.103 117.522 933.52 117.275 933.008 117.481C932.496 117.688 932.248 118.271 932.455 118.783L934.309 118.034ZM929.864 112.585C930.083 113.092 930.672 113.325 931.179 113.106C931.685 112.886 931.918 112.297 931.699 111.79L929.864 112.585ZM921.357 90.8797C921.084 90.3994 920.474 90.2311 919.994 90.5038C919.513 90.7764 919.345 91.3867 919.618 91.867L921.357 90.8797ZM916.189 86.0958C916.481 86.5647 917.098 86.7083 917.567 86.4165C918.036 86.1248 918.179 85.5081 917.888 85.0392L916.189 86.0958ZM903.824 66.3331C903.448 65.929 902.815 65.9066 902.411 66.2831C902.007 66.6596 901.985 67.2925 902.361 67.6965L903.824 66.3331ZM897.623 62.994C898.03 63.3664 898.663 63.3376 899.035 62.9297C899.408 62.522 899.379 61.8895 898.971 61.5171L897.623 62.994ZM878.996 49.2586C878.472 49.0846 877.906 49.3683 877.732 49.8923C877.557 50.4164 877.841 50.9826 878.365 51.1566L878.996 49.2586ZM871.972 49.5951C872.517 49.6809 873.029 49.3083 873.115 48.7629C873.201 48.2172 872.828 47.7053 872.283 47.6195L871.972 49.5951ZM849.183 48.9717C848.635 49.0393 848.245 49.5384 848.313 50.0865C848.38 50.6345 848.879 51.0241 849.427 50.9568L849.183 48.9717ZM842.882 51.7271C843.431 51.6658 843.826 51.171 843.765 50.6221C843.703 50.0734 843.209 49.6782 842.66 49.7394L842.882 51.7271ZM820.253 51.5164C819.701 51.5361 819.27 51.9994 819.289 52.5514C819.309 53.1033 819.772 53.5347 820.324 53.5153L820.253 51.5164ZM813.727 53.6313C814.279 53.6321 814.727 53.1852 814.728 52.6328C814.729 52.0807 814.282 51.6322 813.73 51.6312L813.727 53.6313ZM791.436 49.7438C790.892 49.6476 790.374 50.0105 790.277 50.5543C790.181 51.0981 790.544 51.617 791.088 51.7133L791.436 49.7438ZM784.598 50.3884C785.136 50.5126 785.673 50.1769 785.797 49.639C785.921 49.1008 785.586 48.5638 785.047 48.4396L784.598 50.3884ZM763.59 41.8732C763.072 41.6828 762.497 41.9488 762.307 42.4674C762.117 42.9857 762.383 43.5603 762.901 43.7507L763.59 41.8732ZM756.745 41.4146C757.259 41.6157 757.839 41.3616 758.04 40.8472C758.241 40.3326 757.987 39.7527 757.473 39.5516L756.745 41.4146ZM736.67 30.895C736.163 30.6752 735.574 30.9078 735.355 31.4143C735.135 31.921 735.367 32.5101 735.874 32.7298L736.67 30.895ZM729.848 30.0982C730.354 30.3205 730.944 30.0906 731.166 29.5848C731.388 29.0793 731.158 28.4892 730.652 28.2672L729.848 30.0982ZM710.04 19.1216C709.535 18.8966 708.944 19.1233 708.719 19.6278C708.494 20.1324 708.721 20.7234 709.225 20.9484L710.04 19.1216ZM703.185 18.2566C703.69 18.4814 704.281 18.2546 704.505 17.7501C704.73 17.2455 704.503 16.6545 703.999 16.4297L703.185 18.2566ZM683.394 7.29093C682.889 7.06824 682.299 7.29735 682.076 7.80251C681.853 8.30791 682.082 8.89833 682.587 9.12104L683.394 7.29093ZM676.494 6.44C676.999 6.66201 677.589 6.43208 677.811 5.92628C678.033 5.42049 677.803 4.83061 677.297 4.6086L676.494 6.44ZM928.336 3735.22C924.502 3734.07 920.784 3733.01 917.122 3732.04L916.61 3733.97C920.247 3734.93 923.943 3735.99 927.76 3737.14L928.336 3735.22ZM910.532 3730.38C902.984 3728.59 895.525 3727.19 887.601 3726.18L887.347 3728.16C895.196 3729.17 902.585 3730.55 910.07 3732.33L910.532 3730.38ZM880.84 3725.42C873.677 3724.72 866.049 3724.3 857.592 3724.16L857.559 3726.16C865.97 3726.3 873.543 3726.71 880.645 3727.41L880.84 3725.42ZM850.803 3724.11C843.691 3724.11 835.99 3724.28 827.515 3724.62L827.595 3726.62C836.049 3726.28 843.723 3726.11 850.803 3726.11L850.803 3724.11ZM820.737 3724.92C813.58 3725.27 805.889 3725.72 797.568 3726.27L797.7 3728.27C806.012 3727.71 813.691 3727.26 820.833 3726.92L820.737 3724.92ZM790.82 3726.73C783.569 3727.24 775.858 3727.82 767.63 3728.47L767.788 3730.47C776.012 3729.82 783.716 3729.24 790.96 3728.73L790.82 3726.73ZM760.899 3729.01C753.588 3729.61 745.885 3730.25 737.752 3730.95L737.922 3732.94C746.053 3732.24 753.753 3731.6 761.061 3731.01L760.899 3729.01ZM730.935 3731.53C723.587 3732.17 715.9 3732.84 707.851 3733.55L708.027 3735.54C716.076 3734.83 723.761 3734.16 731.107 3733.52L730.935 3731.53ZM701.086 3734.15C697.289 3734.48 693.415 3734.83 689.459 3735.18L689.637 3737.17C693.592 3736.82 697.467 3736.48 701.263 3736.14L701.086 3734.15ZM689.459 3735.18C685.52 3735.53 681.775 3735.87 678.218 3736.2L678.402 3738.19C681.957 3737.87 685.7 3737.53 689.637 3737.17L689.459 3735.18ZM671.702 3736.81C663.132 3737.62 655.778 3738.33 649.515 3738.94L649.707 3740.93C655.972 3740.32 663.323 3739.61 671.89 3738.8L671.702 3736.81ZM643.143 3739.55C631.29 3740.66 624.402 3741.19 621.041 3740.92L620.877 3742.91C624.46 3743.2 631.572 3742.64 643.331 3741.54L643.143 3739.55ZM620.696 3738.89C622.176 3737.5 624.526 3735.69 627.516 3733.31C630.484 3730.96 634.028 3728.09 637.819 3724.65L636.475 3723.17C632.733 3726.56 629.229 3729.4 626.272 3731.75C623.338 3734.08 620.887 3735.97 619.33 3737.42L620.696 3738.89ZM642.585 3720.13C647.409 3715.33 652.407 3709.64 656.986 3702.93L655.334 3701.8C650.84 3708.39 645.928 3713.99 641.175 3718.71L642.585 3720.13ZM660.518 3697.39C664.128 3691.32 667.332 3684.51 669.785 3676.91L667.881 3676.29C665.478 3683.75 662.338 3690.41 658.799 3696.37L660.518 3697.39ZM671.592 3670.6C673.303 3663.79 674.409 3656.41 674.7 3648.39L672.701 3648.32C672.415 3656.19 671.33 3663.44 669.652 3670.11L671.592 3670.6ZM674.754 3641.79C674.683 3638.16 674.449 3634.42 674.035 3630.56L672.046 3630.78C672.455 3634.58 672.685 3638.26 672.754 3641.83L674.754 3641.79ZM674.035 3630.56C673.575 3626.28 673.539 3622.22 673.9 3618.39L671.909 3618.2C671.534 3622.18 671.573 3626.37 672.046 3630.78L674.035 3630.56ZM675.033 3611.45C676.926 3603.47 680.733 3596.48 686.216 3590.35L684.725 3589.02C679.037 3595.38 675.063 3602.66 673.087 3610.99L675.033 3611.45ZM691.229 3585.38C696.853 3580.41 703.724 3576.06 711.682 3572.25L710.819 3570.45C702.735 3574.32 695.698 3578.76 689.905 3583.88L691.229 3585.38ZM718.201 3569.35C725.278 3566.41 733.067 3563.84 741.47 3561.58L740.95 3559.65C732.481 3561.93 724.608 3564.53 717.435 3567.5L718.201 3569.35ZM748.427 3559.81C756.035 3557.98 764.084 3556.37 772.51 3554.96L772.179 3552.98C763.715 3554.41 755.619 3556.02 747.959 3557.86L748.427 3559.81ZM779.672 3553.81C787.514 3552.62 795.65 3551.58 804.029 3550.65L803.81 3548.67C795.408 3549.59 787.245 3550.64 779.371 3551.83L779.672 3553.81ZM811.229 3549.9C819.212 3549.1 827.395 3548.4 835.738 3547.77L835.589 3545.78C827.232 3546.4 819.032 3547.1 811.029 3547.91L811.229 3549.9ZM842.925 3547.26C851.006 3546.71 859.223 3546.22 867.539 3545.77L867.433 3543.78C859.109 3544.22 850.882 3544.71 842.788 3545.26L842.925 3547.26ZM874.708 3545.41C882.854 3545 891.084 3544.64 899.364 3544.29L899.28 3542.29C890.997 3542.64 882.762 3543 874.608 3543.41L874.708 3545.41ZM906.542 3544C914.732 3543.67 922.959 3543.35 931.194 3543.04L931.117 3541.04C922.883 3541.35 914.654 3541.67 906.462 3542L906.542 3544ZM938.386 3542.76C946.62 3542.44 954.851 3542.11 963.046 3541.76L962.961 3539.77C954.769 3540.12 946.541 3540.44 938.308 3540.76L938.386 3542.76ZM970.232 3541.45C978.504 3541.08 986.729 3540.68 994.875 3540.23L994.765 3538.23C986.628 3538.68 978.409 3539.08 970.143 3539.45L970.232 3541.45ZM1002.08 3539.82C1010.39 3539.33 1018.61 3538.78 1026.69 3538.16L1026.54 3536.17C1018.47 3536.79 1010.26 3537.33 1001.97 3537.82L1002.08 3539.82ZM1033.89 3537.58C1042.25 3536.88 1050.46 3536.09 1058.47 3535.19L1058.25 3533.21C1050.26 3534.1 1042.07 3534.89 1033.73 3535.59L1033.89 3537.58ZM1065.62 3534.36C1074.03 3533.32 1082.21 3532.16 1090.1 3530.83L1089.76 3528.86C1081.91 3530.18 1073.76 3531.34 1065.37 3532.37L1065.62 3534.36ZM1097.18 3529.58C1101.29 3528.82 1105.32 3528.01 1109.25 3527.15L1108.82 3525.2C1104.91 3526.05 1100.91 3526.86 1096.82 3527.61L1097.18 3529.58ZM1109.25 3527.15C1113.63 3526.19 1117.77 3525.23 1121.68 3524.28L1121.21 3522.34C1117.31 3523.29 1113.19 3524.24 1108.82 3525.2L1109.25 3527.15ZM1128.99 3522.43C1138.5 3519.92 1146.47 3517.41 1153.13 3514.86L1152.41 3513C1145.84 3515.51 1137.94 3518 1128.48 3520.49L1128.99 3522.43ZM1160.04 3511.98C1170.65 3507.16 1177.02 3502.09 1180.3 3496.46L1178.57 3495.45C1175.59 3500.56 1169.66 3505.41 1159.21 3510.16L1160.04 3511.98ZM1182.84 3489.19C1183.94 3481.71 1181.04 3473.5 1177.06 3464.3L1175.23 3465.09C1179.23 3474.34 1181.87 3482.05 1180.86 3488.9L1182.84 3489.19ZM1174.05 3457.51C1170.88 3450.44 1167.41 3442.72 1164.59 3434.13L1162.69 3434.75C1165.55 3443.46 1169.06 3451.27 1172.23 3458.33L1174.05 3457.51ZM1162.5 3427.11C1160.48 3419.53 1159.09 3411.31 1158.88 3402.36L1156.88 3402.41C1157.1 3411.54 1158.52 3419.91 1160.57 3427.62L1162.5 3427.11ZM1158.97 3395.05C1159.35 3387.35 1160.63 3379.13 1163.12 3370.32L1161.19 3369.77C1158.66 3378.72 1157.36 3387.1 1156.98 3394.95L1158.97 3395.05ZM1165.31 3363.32C1166.62 3359.52 1168.16 3355.6 1169.95 3351.58L1168.12 3350.77C1166.31 3354.84 1164.75 3358.81 1163.42 3362.67L1165.31 3363.32ZM1169.95 3351.58C1171.84 3347.32 1173.23 3343.45 1174.12 3339.94L1172.19 3339.45C1171.32 3342.82 1169.98 3346.58 1168.12 3350.77L1169.95 3351.58ZM1175.31 3332.95C1175.66 3327.96 1174.72 3323.85 1172.54 3320.54C1170.37 3317.24 1167.03 3314.85 1162.76 3313.15L1162.02 3315.01C1166.02 3316.6 1168.98 3318.78 1170.87 3321.64C1172.76 3324.5 1173.64 3328.15 1173.32 3332.81L1175.31 3332.95ZM1155.85 3311.14C1149.21 3309.76 1141.08 3309.35 1131.76 3309.57L1131.81 3311.57C1141.06 3311.35 1149.03 3311.76 1155.44 3313.09L1155.85 3311.14ZM1124.65 3309.84C1117.22 3310.22 1109.14 3310.9 1100.55 3311.75L1100.74 3313.74C1109.33 3312.89 1117.37 3312.21 1124.75 3311.84L1124.65 3309.84ZM1093.62 3312.46C1085.97 3313.26 1077.94 3314.16 1069.63 3315.07L1069.85 3317.05C1078.16 3316.15 1086.18 3315.25 1093.83 3314.45L1093.62 3312.46ZM1062.65 3315.82C1054.86 3316.66 1046.85 3317.48 1038.67 3318.21L1038.85 3320.21C1047.05 3319.47 1055.07 3318.64 1062.87 3317.81L1062.65 3315.82ZM1031.69 3318.82C1023.8 3319.48 1015.77 3320.04 1007.66 3320.45L1007.76 3322.45C1015.89 3322.03 1023.94 3321.47 1031.86 3320.81L1031.69 3318.82ZM1000.66 3320.76C992.692 3321.08 984.657 3321.22 976.611 3321.16L976.593 3323.16C984.676 3323.22 992.742 3323.07 1000.74 3322.76L1000.66 3320.76ZM969.601 3321.04C961.586 3320.84 953.574 3320.41 945.614 3319.69L945.434 3321.68C953.442 3322.41 961.498 3322.84 969.552 3323.04L969.601 3321.04ZM938.644 3318.99C930.652 3318.09 922.729 3316.88 914.925 3315.31L914.53 3317.27C922.396 3318.85 930.377 3320.07 938.42 3320.97L938.644 3318.99ZM908.098 3313.83C900.267 3312.02 892.574 3309.81 885.071 3307.16L884.404 3309.04C891.984 3311.72 899.749 3313.95 907.647 3315.78L908.098 3313.83ZM878.531 3304.71C871.106 3301.77 863.889 3298.36 856.933 3294.43L855.948 3296.17C862.99 3300.15 870.29 3303.6 877.795 3306.57L878.531 3304.71ZM850.93 3290.85C844.242 3286.67 837.819 3281.96 831.712 3276.66L830.401 3278.17C836.589 3283.54 843.096 3288.31 849.87 3292.55L850.93 3290.85ZM826.561 3271.98C820.91 3266.6 815.558 3260.67 810.55 3254.14L808.963 3255.35C814.034 3261.97 819.455 3267.98 825.181 3273.43L826.561 3271.98ZM806.481 3248.59C804.207 3245.35 802.013 3241.97 799.902 3238.45L798.186 3239.48C800.321 3243.04 802.542 3246.46 804.843 3249.74L806.481 3248.59ZM799.902 3238.45C797.729 3234.82 795.684 3231.3 793.763 3227.86L792.017 3228.83C793.949 3232.29 796.004 3235.84 798.186 3239.48L799.902 3238.45ZM790.485 3221.86C786.361 3214.12 782.897 3206.87 780.049 3200.07L778.204 3200.84C781.079 3207.71 784.571 3215.02 788.72 3222.8L790.485 3221.86ZM777.519 3193.7C774.391 3185.39 772.241 3177.78 770.978 3170.76L769.009 3171.11C770.298 3178.27 772.484 3186.01 775.647 3194.41L777.519 3193.7ZM769.99 3163.77C769.109 3155.03 769.716 3147.28 771.603 3140.28L769.672 3139.76C767.714 3147.02 767.097 3155.02 768 3163.97L769.99 3163.77ZM773.811 3133.76C776.78 3126.54 781.246 3120.11 786.978 3114.19L785.542 3112.8C779.665 3118.87 775.043 3125.51 771.961 3133L773.811 3133.76ZM791.99 3109.42C797.589 3104.48 804.1 3099.86 811.362 3095.4L810.315 3093.7C802.987 3098.2 796.376 3102.88 790.666 3107.92L791.99 3109.42ZM817.387 3091.82C823.993 3088.02 831.115 3084.3 838.65 3080.53L837.754 3078.74C830.203 3082.52 823.042 3086.26 816.39 3090.09L817.387 3091.82ZM844.892 3077.43C851.847 3074.01 859.094 3070.54 866.577 3066.9L865.702 3065.1C858.234 3068.73 850.969 3072.22 844.01 3075.64L844.892 3077.43ZM872.941 3063.79C879.963 3060.34 887.158 3056.74 894.459 3052.92L893.531 3051.15C886.251 3054.96 879.073 3058.55 872.06 3062L872.941 3063.79ZM900.672 3049.63C907.624 3045.89 914.657 3041.93 921.715 3037.7L920.687 3035.99C913.659 3040.2 906.655 3044.14 899.725 3047.86L900.672 3049.63ZM927.697 3034.05C934.422 3029.87 941.158 3025.43 947.857 3020.67L946.698 3019.04C940.036 3023.77 933.335 3028.19 926.641 3032.35L927.697 3034.05ZM953.533 3016.55C959.901 3011.83 966.224 3006.81 972.462 3001.44L971.157 2999.93C964.959 3005.26 958.674 3010.25 952.343 3014.94L953.533 3016.55ZM977.72 2996.81C983.603 2991.52 989.397 2985.91 995.07 2979.93L993.619 2978.55C987.984 2984.49 982.227 2990.07 976.383 2995.33L977.72 2996.81ZM999.841 2974.78C1002.53 2971.81 1005.19 2968.75 1007.81 2965.6L1006.28 2964.32C1003.67 2967.45 1001.03 2970.48 998.359 2973.43L999.841 2974.78ZM1007.81 2965.6C1010.45 2962.43 1012.94 2959.29 1015.26 2956.18L1013.66 2954.99C1011.36 2958.07 1008.9 2961.18 1006.28 2964.32L1007.81 2965.6ZM1019.25 2950.64C1024.08 2943.69 1028.12 2936.88 1031.42 2930.2L1029.63 2929.31C1026.37 2935.9 1022.38 2942.62 1017.61 2949.5L1019.25 2950.64ZM1034.31 2923.95C1037.64 2916.24 1039.98 2908.7 1041.42 2901.32L1039.46 2900.93C1038.04 2908.17 1035.75 2915.57 1032.48 2923.15L1034.31 2923.95ZM1042.52 2894.4C1043.51 2886.3 1043.43 2878.39 1042.38 2870.64L1040.4 2870.91C1041.42 2878.49 1041.51 2886.23 1040.54 2894.16L1042.52 2894.4ZM1041.21 2863.8C1039.6 2856.12 1037.08 2848.61 1033.75 2841.24L1031.93 2842.06C1035.2 2849.32 1037.68 2856.69 1039.25 2864.21L1041.21 2863.8ZM1030.72 2834.98C1027.19 2828.16 1022.99 2821.45 1018.22 2814.83L1016.59 2816C1021.32 2822.55 1025.46 2829.18 1028.94 2835.9L1030.72 2834.98ZM1014.09 2809.3C1009.39 2803.23 1004.23 2797.22 998.675 2791.27L997.213 2792.64C1002.73 2798.55 1007.85 2804.51 1012.5 2810.52L1014.09 2809.3ZM993.933 2786.3C988.56 2780.77 982.868 2775.29 976.918 2769.84L975.567 2771.31C981.493 2776.75 987.157 2782.2 992.499 2787.69L993.933 2786.3ZM971.805 2765.21C966.031 2760.06 960.04 2754.92 953.887 2749.79L952.606 2751.33C958.746 2756.44 964.719 2761.57 970.473 2766.7L971.805 2765.21ZM948.575 2745.4C942.56 2740.46 936.406 2735.53 930.163 2730.59L928.922 2732.16C935.159 2737.09 941.303 2742.02 947.306 2746.94L948.575 2745.4ZM924.756 2726.33C918.607 2721.5 912.383 2716.66 906.13 2711.8L904.903 2713.38C911.156 2718.24 917.376 2723.07 923.52 2727.9L924.756 2726.33ZM900.697 2707.58C894.496 2702.76 888.279 2697.93 882.087 2693.06L880.851 2694.63C887.048 2699.5 893.269 2704.34 899.47 2709.16L900.697 2707.58ZM876.683 2688.8C870.504 2683.91 864.363 2678.98 858.303 2674.02L857.036 2675.57C863.107 2680.54 869.256 2685.47 875.442 2690.37L876.683 2688.8ZM852.989 2669.64C846.905 2664.58 840.916 2659.49 835.067 2654.33L833.744 2655.83C839.611 2661 845.615 2666.11 851.712 2671.18L852.989 2669.64ZM829.928 2649.75C824.029 2644.44 818.29 2639.07 812.758 2633.63L811.355 2635.05C816.911 2640.52 822.672 2645.91 828.59 2651.24L829.928 2649.75ZM807.898 2628.77C805.131 2625.96 802.422 2623.13 799.777 2620.28L798.312 2621.64C800.97 2624.51 803.693 2627.35 806.474 2630.17L807.898 2628.77ZM799.777 2620.28C796.967 2617.25 794.408 2614.3 792.091 2611.43L790.533 2612.68C792.883 2615.6 795.472 2618.58 798.312 2621.64L799.777 2620.28ZM787.953 2606.02C782.776 2598.86 779.152 2592.19 776.885 2585.93L775.005 2586.61C777.348 2593.08 781.072 2599.92 786.333 2607.19L787.953 2606.02ZM775.014 2579.59C773.184 2571.5 773.711 2564.1 776.15 2557.2L774.265 2556.54C771.696 2563.79 771.152 2571.58 773.064 2580.03L775.014 2579.59ZM778.853 2551.12C782.188 2544.91 787.114 2539.07 793.314 2533.47L791.973 2531.99C785.658 2537.69 780.565 2543.71 777.091 2550.18L778.853 2551.12ZM798.456 2529.1C804.093 2524.59 810.52 2520.23 817.544 2515.94L816.503 2514.24C809.43 2518.55 802.928 2522.96 797.206 2527.54L798.456 2529.1ZM823.405 2512.47C829.86 2508.73 836.728 2505.05 843.878 2501.36L842.962 2499.59C835.795 2503.28 828.896 2506.98 822.404 2510.73L823.405 2512.47ZM849.911 2498.29C856.705 2494.85 863.704 2491.4 870.803 2487.91L869.919 2486.11C862.822 2489.61 855.813 2493.06 849.008 2496.5L849.911 2498.29ZM876.926 2484.88C883.847 2481.46 890.832 2477.98 897.777 2474.4L896.861 2472.62C889.931 2476.19 882.958 2479.67 876.039 2483.09L876.926 2484.88ZM903.824 2471.25C910.743 2467.61 917.595 2463.86 924.278 2459.96L923.27 2458.23C916.618 2462.11 909.792 2465.85 902.892 2469.48L903.824 2471.25ZM930.157 2456.46C936.922 2452.36 943.479 2448.09 949.716 2443.61L948.549 2441.98C942.362 2446.43 935.849 2450.67 929.12 2454.75L930.157 2456.46ZM955.193 2439.55C961.541 2434.71 967.501 2429.61 972.943 2424.23L971.536 2422.81C966.164 2428.12 960.271 2433.16 953.98 2437.96L955.193 2439.55ZM977.704 2419.29C983.101 2413.42 987.881 2407.2 991.889 2400.59L990.178 2399.55C986.248 2406.04 981.551 2412.15 976.232 2417.94L977.704 2419.29ZM995.244 2394.6C997.042 2391.11 998.628 2387.52 999.983 2383.81L998.105 2383.12C996.78 2386.75 995.227 2390.27 993.466 2393.68L995.244 2394.6ZM999.983 2383.81C1001.37 2380 1002.57 2376.29 1003.59 2372.66L1001.66 2372.12C1000.66 2375.7 999.477 2379.36 998.105 2383.12L999.983 2383.81ZM1005.27 2365.98C1007.09 2357.82 1007.96 2350.09 1007.94 2342.75L1005.94 2342.75C1005.96 2349.93 1005.11 2357.51 1003.32 2365.54L1005.27 2365.98ZM1007.67 2335.9C1007.04 2327.82 1005.3 2320.21 1002.6 2313L1000.73 2313.71C1003.36 2320.74 1005.06 2328.16 1005.68 2336.06L1007.67 2335.9ZM999.943 2306.69C996.683 2299.72 992.501 2293.13 987.536 2286.83L985.965 2288.07C990.848 2294.26 994.944 2300.72 998.131 2307.54L999.943 2306.69ZM983.151 2281.57C978.187 2275.92 972.592 2270.5 966.472 2265.23L965.168 2266.75C971.231 2271.96 976.757 2277.32 981.648 2282.89L983.151 2281.57ZM961.237 2260.87C955.387 2256.14 949.12 2251.52 942.517 2246.96L941.381 2248.61C947.952 2253.14 954.177 2257.73 959.979 2262.42L961.237 2260.87ZM936.886 2243.15C930.591 2238.95 924.022 2234.8 917.244 2230.64L916.199 2232.35C922.962 2236.49 929.508 2240.63 935.777 2244.81L936.886 2243.15ZM911.423 2227.11C904.908 2223.18 898.219 2219.24 891.41 2215.25L890.4 2216.98C897.206 2220.96 903.886 2224.9 910.39 2228.82L911.423 2227.11ZM885.564 2211.84C878.959 2207.98 872.257 2204.08 865.503 2200.09L864.486 2201.81C871.246 2205.8 877.953 2209.71 884.556 2213.56L885.564 2211.84ZM859.667 2196.63C853.069 2192.7 846.435 2188.69 839.807 2184.57L838.751 2186.27C845.392 2190.4 852.038 2194.42 858.644 2198.35L859.667 2196.63ZM834.074 2180.97C827.57 2176.86 821.084 2172.62 814.656 2168.25L813.53 2169.9C819.979 2174.29 826.485 2178.54 833.005 2182.66L834.074 2180.97ZM809.078 2164.4C805.911 2162.19 802.762 2159.94 799.635 2157.66L798.454 2159.27C801.594 2161.57 804.755 2163.82 807.933 2166.04L809.078 2164.4ZM799.635 2157.66C796.335 2155.24 793.385 2152.82 790.769 2150.38L789.407 2151.85C792.087 2154.34 795.098 2156.81 798.454 2159.27L799.635 2157.66ZM786.001 2145.54C780.24 2139.09 776.72 2132.58 775.091 2126.03L773.15 2126.52C774.87 2133.43 778.57 2140.22 784.51 2146.87L786.001 2145.54ZM774.086 2119.56C773.624 2112.39 775.266 2105.07 778.681 2097.61L776.863 2096.77C773.343 2104.47 771.602 2112.11 772.091 2119.69L774.086 2119.56ZM781.71 2091.74C785.203 2085.64 789.79 2079.45 795.278 2073.19L793.774 2071.88C788.223 2078.21 783.55 2084.5 779.974 2090.74L781.71 2091.74ZM799.75 2068.28C804.737 2063 810.315 2057.66 816.365 2052.28L815.036 2050.79C808.953 2056.2 803.331 2061.57 798.296 2066.91L799.75 2068.28ZM821.494 2047.81C827.126 2042.98 833.106 2038.11 839.347 2033.22L838.113 2031.64C831.854 2036.55 825.851 2041.44 820.192 2046.29L821.494 2047.81ZM844.681 2029.07C850.662 2024.47 856.849 2019.83 863.173 2015.17L861.986 2013.56C855.655 2018.23 849.456 2022.87 843.46 2027.49L844.681 2029.07ZM868.61 2011.18C874.773 2006.67 881.042 2002.14 887.352 1997.58L886.182 1995.96C879.871 2000.52 873.598 2005.05 867.429 2009.56L868.61 2011.18ZM892.829 1993.63C899.077 1989.12 905.348 1984.59 911.578 1980.03L910.398 1978.42C904.173 1982.97 897.906 1987.5 891.658 1992.01L892.829 1993.63ZM917.03 1976.03C923.291 1971.42 929.493 1966.79 935.572 1962.14L934.356 1960.55C928.289 1965.19 922.098 1969.82 915.844 1974.42L917.03 1976.03ZM940.932 1958C947.127 1953.19 953.173 1948.35 958.997 1943.49L957.716 1941.95C951.912 1946.79 945.885 1951.62 939.704 1956.42L940.932 1958ZM964.182 1939.1C970.202 1933.94 975.952 1928.76 981.348 1923.55L979.959 1922.11C974.596 1927.29 968.876 1932.44 962.88 1937.58L964.182 1939.1ZM986.209 1918.75C991.883 1913.02 997.102 1907.25 1001.75 1901.46L1000.19 1900.21C995.593 1905.94 990.423 1911.65 984.788 1917.34L986.209 1918.75ZM1005.86 1896.13C1008.23 1892.93 1010.41 1889.71 1012.4 1886.49L1010.69 1885.44C1008.74 1888.61 1006.59 1891.78 1004.25 1894.94L1005.86 1896.13ZM1012.4 1886.49C1014.56 1882.97 1016.42 1879.48 1017.99 1876L1016.17 1875.18C1014.63 1878.57 1012.81 1881.99 1010.69 1885.44L1012.4 1886.49ZM1020.59 1869.57C1023.37 1861.71 1024.7 1853.96 1024.75 1846.28L1022.75 1846.27C1022.7 1853.72 1021.41 1861.25 1018.7 1868.9L1020.59 1869.57ZM1024.45 1839.35C1023.73 1831.64 1021.77 1824 1018.73 1816.41L1016.88 1817.16C1019.85 1824.59 1021.76 1832.04 1022.46 1839.54L1024.45 1839.35ZM1015.96 1810.1C1012.72 1803.31 1008.67 1796.55 1003.93 1789.8L1002.3 1790.95C1006.98 1797.63 1010.98 1804.29 1014.16 1810.96L1015.96 1810.1ZM999.883 1784.24C995.339 1778.23 990.281 1772.21 984.803 1766.17L983.322 1767.51C988.768 1773.52 993.786 1779.49 998.287 1785.45L999.883 1784.24ZM980.118 1761.11C974.908 1755.58 969.368 1750.03 963.569 1744.44L962.181 1745.88C967.963 1751.45 973.48 1756.98 978.663 1762.48L980.118 1761.11ZM958.618 1739.72C953.043 1734.46 947.255 1729.16 941.313 1723.82L939.976 1725.3C945.909 1730.64 951.685 1735.93 957.245 1741.18L958.618 1739.72ZM936.229 1719.26C930.475 1714.13 924.594 1708.95 918.637 1703.72L917.317 1705.22C923.273 1710.45 929.149 1715.63 934.898 1720.76L936.229 1719.26ZM913.495 1699.2C907.673 1694.09 901.794 1688.92 895.902 1683.69L894.575 1685.19C900.471 1690.42 906.354 1695.59 912.175 1700.71L913.495 1699.2ZM890.791 1679.14C884.989 1673.96 879.189 1668.71 873.433 1663.39L872.076 1664.86C877.842 1670.19 883.651 1675.44 889.458 1680.63L890.791 1679.14ZM868.426 1658.73C862.726 1653.39 857.083 1647.98 851.54 1642.49L850.132 1643.91C855.691 1649.42 861.348 1654.84 867.059 1660.19L868.426 1658.73ZM846.714 1637.66C841.205 1632.09 835.81 1626.43 830.573 1620.69L829.094 1622.03C834.353 1627.8 839.767 1633.48 845.292 1639.07L846.714 1637.66ZM826.013 1615.61C820.807 1609.74 815.776 1603.76 810.965 1597.69L809.396 1598.93C814.233 1605.04 819.289 1611.04 824.516 1616.94L826.013 1615.61ZM806.782 1592.3C804.413 1589.19 802.104 1586.05 799.86 1582.89L798.228 1584.04C800.486 1587.23 802.808 1590.38 805.191 1593.51L806.782 1592.3ZM799.86 1582.89C797.347 1579.34 795.066 1575.92 793.009 1572.62L791.312 1573.67C793.392 1577.01 795.694 1580.47 798.228 1584.04L799.86 1582.89ZM789.292 1566.35C784.698 1558.18 781.571 1550.79 779.739 1544.05L777.809 1544.58C779.694 1551.51 782.894 1559.06 787.549 1567.33L789.292 1566.35ZM778.265 1537.08C776.948 1528.18 778.089 1520.47 781.227 1513.54L779.405 1512.71C776.099 1520.01 774.917 1528.12 776.287 1537.38L778.265 1537.08ZM784.645 1507.4C788.749 1501.23 794.561 1495.62 801.753 1490.28L800.56 1488.67C793.254 1494.1 787.253 1499.87 782.98 1506.29L784.645 1507.4ZM807.623 1486.16C813.959 1481.96 821.108 1477.9 828.884 1473.8L827.952 1472.03C820.144 1476.14 812.931 1480.24 806.518 1484.5L807.623 1486.16ZM835.252 1470.5C842.253 1466.94 849.672 1463.33 857.393 1459.56L856.515 1457.76C848.799 1461.53 841.363 1465.15 834.344 1468.72L835.252 1470.5ZM863.864 1456.39C871.043 1452.87 878.44 1449.19 885.956 1445.29L885.034 1443.51C877.538 1447.41 870.157 1451.08 862.983 1454.6L863.864 1456.39ZM892.364 1441.91C899.49 1438.11 906.698 1434.08 913.908 1429.75L912.88 1428.04C905.704 1432.34 898.525 1436.35 891.422 1440.15L892.364 1441.91ZM920.058 1425.99C926.954 1421.69 933.831 1417.1 940.618 1412.17L939.443 1410.56C932.698 1415.46 925.861 1420.02 918.999 1424.3L920.058 1425.99ZM946.415 1407.86C952.884 1402.93 959.25 1397.66 965.452 1392.02L964.105 1390.54C957.95 1396.14 951.629 1401.37 945.203 1406.27L946.415 1407.86ZM970.753 1387.05C976.597 1381.43 982.274 1375.43 987.727 1369.03L986.204 1367.73C980.796 1374.09 975.165 1380.03 969.366 1385.61L970.753 1387.05ZM992.338 1363.45C994.901 1360.25 997.41 1356.95 999.856 1353.55L998.232 1352.38C995.806 1355.75 993.319 1359.03 990.777 1362.2L992.338 1363.45ZM999.856 1353.55C1002.36 1350.06 1004.68 1346.66 1006.82 1343.34L1005.13 1342.26C1003.02 1345.55 1000.72 1348.92 998.232 1352.38L999.856 1353.55ZM1010.61 1337.22C1015.21 1329.46 1018.78 1322.15 1021.41 1315.22L1019.55 1314.51C1016.96 1321.32 1013.44 1328.53 1008.89 1336.2L1010.61 1337.22ZM1023.7 1308.53C1026.34 1299.83 1027.43 1291.73 1027.16 1284.1L1025.16 1284.17C1025.42 1291.56 1024.37 1299.44 1021.79 1307.95L1023.7 1308.53ZM1026.5 1276.92C1025.26 1268.71 1022.41 1261.06 1018.24 1253.77L1016.51 1254.76C1020.56 1261.86 1023.32 1269.28 1024.52 1277.22L1026.5 1276.92ZM1014.41 1247.67C1010 1241.26 1004.6 1235.1 998.42 1229.04L997.02 1230.47C1003.14 1236.47 1008.45 1242.53 1012.76 1248.8L1014.41 1247.67ZM993.238 1224.14C987.493 1218.9 981.19 1213.68 974.47 1208.42L973.236 1209.99C979.932 1215.24 986.193 1220.42 991.889 1225.62L993.238 1224.14ZM968.847 1204.06C962.605 1199.29 956.05 1194.44 949.287 1189.45L948.099 1191.06C954.863 1196.05 961.405 1200.89 967.631 1205.65L968.847 1204.06ZM943.532 1185.2C937.155 1180.49 930.621 1175.64 924.005 1170.6L922.792 1172.19C929.42 1177.24 935.965 1182.1 942.344 1186.81L943.532 1185.2ZM918.396 1166.28C912.098 1161.4 905.749 1156.32 899.414 1151.01L898.128 1152.54C904.487 1157.87 910.857 1162.97 917.17 1167.86L918.396 1166.28ZM893.997 1146.4C887.952 1141.19 881.938 1135.74 876.013 1130.02L874.624 1131.46C880.579 1137.21 886.621 1142.68 892.691 1147.92L893.997 1146.4ZM870.933 1125.03C865.293 1119.38 859.751 1113.47 854.358 1107.26L852.848 1108.57C858.274 1114.82 863.848 1120.76 869.518 1126.44L870.933 1125.03ZM849.76 1101.85C844.665 1095.72 839.722 1089.3 834.974 1082.56L833.339 1083.71C838.119 1090.49 843.095 1096.96 848.222 1103.13L849.76 1101.85ZM830.962 1076.72C828.723 1073.37 826.534 1069.95 824.398 1066.44L822.691 1067.49C824.841 1071.01 827.046 1074.46 829.3 1077.83L830.962 1076.72ZM824.398 1066.44C822.228 1062.88 820.225 1059.36 818.384 1055.88L816.616 1056.82C818.477 1060.34 820.5 1063.89 822.691 1067.49L824.398 1066.44ZM815.217 1049.6C811.557 1041.97 808.676 1034.53 806.506 1027.27L804.59 1027.84C806.791 1035.21 809.711 1042.75 813.414 1050.47L815.217 1049.6ZM804.657 1020.41C802.7 1012.29 801.63 1004.39 801.35 996.668L799.351 996.74C799.636 1004.59 800.725 1012.63 802.713 1020.88L804.657 1020.41ZM801.312 989.687C801.517 981.564 802.59 973.644 804.419 965.9L802.473 965.44C800.614 973.312 799.521 981.368 799.312 989.636L801.312 989.687ZM806.224 959.121C808.478 951.504 811.45 944.052 815.028 936.738L813.231 935.859C809.61 943.262 806.596 950.818 804.306 958.553L806.224 959.121ZM818.237 930.507C821.988 923.569 826.267 916.751 830.973 910.031L829.334 908.884C824.591 915.658 820.271 922.541 816.477 929.555L818.237 930.507ZM835.1 904.306C839.814 897.947 844.89 891.672 850.241 885.462L848.725 884.156C843.348 890.397 838.241 896.71 833.494 903.115L835.1 904.306ZM854.879 880.169C860.177 874.22 865.707 868.327 871.39 862.471L869.955 861.078C864.256 866.95 858.707 872.864 853.385 878.839L854.879 880.169ZM876.343 857.413C881.979 851.708 887.739 846.034 893.552 840.373L892.156 838.94C886.339 844.606 880.569 850.29 874.92 856.008L876.343 857.413ZM898.624 835.447C904.424 829.828 910.266 824.207 916.054 818.589L914.661 817.154C908.869 822.775 903.044 828.381 897.232 834.011L898.624 835.447ZM921.125 813.652C926.95 807.963 932.71 802.261 938.33 796.529L936.902 795.129C931.295 800.846 925.546 806.538 919.728 812.222L921.125 813.652ZM943.251 791.462C948.937 785.55 954.453 779.601 959.716 773.596L958.212 772.278C952.974 778.255 947.48 784.181 941.81 790.076L943.251 791.462ZM964.353 768.21C969.684 761.904 974.714 755.53 979.349 749.066L977.724 747.9C973.124 754.314 968.128 760.646 962.826 766.919L964.353 768.21ZM983.388 743.26C985.679 739.859 987.856 736.431 989.904 732.974L988.184 731.954C986.156 735.376 984 738.771 981.729 742.142L983.388 743.26ZM989.904 732.974C992.013 729.415 993.802 725.783 995.288 722.085L993.432 721.34C991.985 724.942 990.241 728.483 988.184 731.954L989.904 732.974ZM997.622 715.416C999.946 707.662 1001.03 699.663 1001.03 691.493L999.027 691.494C999.029 699.485 997.97 707.289 995.706 714.842L997.622 715.416ZM1000.76 684.447C1000.18 676.643 998.679 668.706 996.376 660.698L994.454 661.251C996.724 669.145 998.202 676.945 998.767 684.594L1000.76 684.447ZM994.273 654.004C991.767 646.633 988.62 639.213 984.934 631.788L983.143 632.677C986.795 640.034 989.905 647.372 992.38 654.648L994.273 654.004ZM981.721 625.567C978.022 618.667 973.879 611.772 969.371 604.919L967.7 606.018C972.179 612.828 976.291 619.671 979.959 626.512L981.721 625.567ZM965.46 599.114C960.982 592.62 956.193 586.171 951.161 579.799L949.592 581.039C954.6 587.381 959.363 593.794 963.814 600.249L965.46 599.114ZM946.767 574.328C941.738 568.171 936.496 562.094 931.103 556.126L929.619 557.467C934.992 563.412 940.212 569.464 945.218 575.594L946.767 574.328ZM926.375 550.962C920.923 545.083 915.338 539.321 909.682 533.703L908.273 535.122C913.911 540.722 919.476 546.465 924.909 552.322L926.375 550.962ZM904.687 528.795C898.882 523.155 893.022 517.673 887.17 512.38L885.828 513.863C891.663 519.141 897.506 524.607 903.293 530.23L904.687 528.795ZM881.963 507.716C875.838 502.285 869.744 497.07 863.754 492.107L862.478 493.646C868.451 498.596 874.528 503.796 880.636 509.212L881.963 507.716ZM858.313 487.642C851.842 482.386 845.523 477.443 839.454 472.858L838.248 474.453C844.299 479.025 850.599 483.954 857.052 489.195L858.313 487.642ZM833.809 468.642C830.485 466.19 827.25 463.855 824.121 461.646L822.968 463.28C826.085 465.481 829.309 467.807 832.621 470.252L833.809 468.642ZM824.466 462.075C822.765 458.032 822.746 454.529 824.004 451.288L822.139 450.564C820.673 454.34 820.743 458.383 822.623 462.851L824.466 462.075ZM827.482 445.78C831.503 441.173 838.049 436.796 846.243 431.975L845.229 430.251C837.046 435.065 830.234 439.586 825.975 444.464L827.482 445.78ZM852.238 428.518C858.543 424.933 865.527 421.063 872.779 416.687L871.745 414.975C864.523 419.333 857.578 423.181 851.249 426.779L852.238 428.518ZM878.679 413.043C885.111 408.969 891.682 404.454 898.139 399.338L896.897 397.77C890.508 402.833 883.998 407.307 877.609 411.353L878.679 413.043ZM903.5 394.921C909.348 389.906 915.042 384.346 920.386 378.117L918.868 376.815C913.599 382.957 907.979 388.446 902.198 393.402L903.5 394.921ZM924.786 372.728C929.488 366.669 933.85 360.021 937.721 352.689L935.952 351.755C932.138 358.98 927.841 365.53 923.206 371.502L924.786 372.728ZM940.815 346.452C944.008 339.585 946.779 332.158 949.024 324.106L947.098 323.568C944.881 331.517 942.148 338.841 939.001 345.609L940.815 346.452ZM950.751 317.336C951.626 313.562 952.39 309.659 953.032 305.62L951.057 305.306C950.422 309.3 949.667 313.157 948.803 316.884L950.751 317.336ZM952.932 305.924C954.557 302.797 955.924 299.089 957.049 294.895L955.118 294.376C954.019 298.47 952.698 302.036 951.157 305.002L952.932 305.924ZM958.561 288.233C959.86 281.402 960.662 273.584 960.991 265.049L958.992 264.973C958.666 273.435 957.873 281.149 956.596 287.86L958.561 288.233ZM961.152 258.253C961.222 250.894 960.972 243.083 960.415 234.968L958.419 235.105C958.974 243.174 959.221 250.933 959.152 258.234L961.152 258.253ZM959.885 228.199C959.224 220.678 958.312 212.937 957.157 205.089L955.178 205.38C956.328 213.191 957.236 220.893 957.892 228.374L959.885 228.199ZM956.112 198.365C954.872 190.79 953.41 183.143 951.734 175.524L949.781 175.954C951.449 183.537 952.904 191.148 954.138 198.688L956.112 198.365ZM950.223 168.91C948.427 161.329 946.419 153.803 944.207 146.429L942.292 147.004C944.492 154.338 946.489 161.826 948.277 169.371L950.223 168.91ZM942.196 139.945C939.782 132.412 937.15 125.072 934.309 118.034L932.455 118.783C935.276 125.771 937.891 133.065 940.292 140.556L942.196 139.945ZM931.699 111.79C928.492 104.386 925.041 97.369 921.357 90.8797L919.618 91.867C923.262 98.2854 926.681 105.237 929.864 112.585L931.699 111.79ZM917.888 85.0392C913.504 77.993 908.812 71.6861 903.824 66.3331L902.361 67.6965C907.243 72.9366 911.859 79.1354 916.189 86.0958L917.888 85.0392ZM898.971 61.5171C892.744 55.8322 886.078 51.6119 878.996 49.2586L878.365 51.1566C885.123 53.4022 891.553 57.4526 897.623 62.994L898.971 61.5171ZM872.283 47.6195C868.425 47.0126 864.466 46.9589 860.411 47.5102L860.681 49.492C864.543 48.9668 868.307 49.0186 871.972 49.5951L872.283 47.6195ZM860.411 47.5102C856.477 48.0452 852.743 48.5335 849.183 48.9717L849.427 50.9568C852.997 50.5173 856.74 50.0278 860.681 49.492L860.411 47.5102ZM842.66 49.7394C834.337 50.669 826.998 51.2771 820.253 51.5164L820.324 53.5153C827.136 53.2733 834.528 52.6599 842.882 51.7271L842.66 49.7394ZM813.73 51.6312C805.835 51.6186 798.648 51.02 791.436 49.7438L791.088 51.7133C798.424 53.0114 805.728 53.6185 813.727 53.6313L813.73 51.6312ZM785.047 48.4396C778.305 46.8831 771.345 44.7209 763.59 41.8732L762.901 43.7507C770.711 46.6185 777.753 48.8082 784.598 50.3884L785.047 48.4396ZM757.473 39.5516C751.177 37.092 744.331 34.2182 736.67 30.895L735.874 32.7298C743.546 36.0578 750.417 38.9423 756.745 41.4146L757.473 39.5516ZM730.652 28.2672C724.353 25.5002 717.524 22.4574 710.04 19.1216L709.225 20.9484C716.709 24.2837 723.543 27.329 729.848 30.0982L730.652 28.2672ZM703.999 16.4297C697.609 13.5833 690.763 10.5401 683.394 7.29093L682.587 9.12104C689.952 12.3686 696.796 15.4108 703.185 18.2566L703.999 16.4297ZM677.297 4.6086C673.952 3.14011 670.503 1.63179 666.946 0.0831473L666.148 1.91683C669.703 3.46459 673.15 4.97206 676.494 6.44L677.297 4.6086Z" fill="#00CAE5"/>
</svg>
