<svg width="80" height="80" viewBox="0 0 80 80" fill="none" xmlns="http://www.w3.org/2000/svg">
<path d="M60.6435 49.2581V43.5156C62.3658 43.5628 63.9586 42.0598 63.9606 40.25V37.5109C63.9606 35.7103 62.4958 34.2453 60.695 34.2453H55.4792C55.526 33.9597 55.5067 31.4006 55.51 31.0219H58.3203C60.3702 31.0219 62.0378 29.3542 62.0378 27.3044V24.7859C62.0378 23.0428 60.8317 21.5769 59.2105 21.1769C59.5971 20.5058 59.8003 19.7449 59.7997 18.9705V17.2362C59.8015 16.3527 59.5388 15.4888 59.0454 14.7559C58.5519 14.023 57.8503 13.4546 57.031 13.1239L55.566 8.385C54.0147 3.36953 49.4442 0 44.1935 0H35.806C30.5552 0 25.9847 3.36953 24.4331 8.38516L22.9683 13.1239C22.1489 13.4545 21.4473 14.0229 20.9539 14.7559C20.4604 15.4888 20.1977 16.3527 20.1996 17.2362V18.9705C20.1996 19.7733 20.4147 20.5262 20.7888 21.1769C19.1675 21.5769 17.9614 23.043 17.9614 24.7859V27.3044C17.9614 29.3542 19.6291 31.0219 21.6789 31.0219H24.4892C24.5033 32.148 24.4553 33.1948 24.52 34.2453H19.3044C17.5038 34.2453 16.0388 35.7102 16.0388 37.5109V40.25C16.0205 41.9744 17.5441 43.5409 19.356 43.5156V49.2581C14.8831 50.6641 11.6294 54.8489 11.6294 59.7797V78.8281C11.6294 79.1389 11.7529 79.437 11.9726 79.6568C12.1924 79.8765 12.4905 80 12.8013 80H12.8019C13.1127 80 13.4108 79.8765 13.6305 79.6568C13.8503 79.437 13.9738 79.1389 13.9738 78.8281V59.7802C13.9738 54.9925 17.8689 51.0973 22.6566 51.0973H23.3431V78.8281C23.3431 79.1389 23.4666 79.437 23.6864 79.6568C23.9061 79.8765 24.2042 80 24.515 80C24.8258 80 25.1239 79.8765 25.3437 79.6568C25.5634 79.437 25.6869 79.1389 25.6869 78.8281V69.8753C28.5269 69.3262 30.6788 66.8227 30.6788 63.8248V51.0969H34.9919C35.6169 53.2741 37.6246 54.8722 39.9999 54.8722C42.3752 54.8722 44.3828 53.2739 45.0078 51.0969H49.321V63.8248C49.321 66.8228 51.4728 69.3264 54.3128 69.8753V78.8281C54.3128 79.1389 54.4363 79.437 54.6561 79.6568C54.8758 79.8765 55.1739 80 55.4847 80C55.7955 80 56.0936 79.8765 56.3133 79.6568C56.5331 79.437 56.6566 79.1389 56.6566 78.8281V62.6025C56.6566 62.2917 56.5331 61.9936 56.3133 61.7739C56.0936 61.5541 55.7955 61.4306 55.4847 61.4306C55.1739 61.4306 54.8758 61.5541 54.6561 61.7739C54.4363 61.9936 54.3128 62.2917 54.3128 62.6025V67.4602C52.7781 66.9642 51.6647 65.5225 51.6647 63.8248V49.5216C51.6648 49.4347 51.6994 49.3514 51.7608 49.29C51.8222 49.2286 51.9055 49.194 51.9924 49.1939H53.9852C54.072 49.194 54.1553 49.2286 54.2167 49.29C54.2781 49.3514 54.3127 49.4347 54.3128 49.5216V57.0989C54.3128 57.4097 54.4363 57.7078 54.6561 57.9275C54.8758 58.1473 55.1739 58.2708 55.4847 58.2708C55.7955 58.2708 56.0936 58.1473 56.3133 57.9275C56.5331 57.7078 56.6566 57.4097 56.6566 57.0989V51.0973H57.3431C62.1308 51.0973 66.026 54.9925 66.026 59.7802V78.8281C66.026 79.1389 66.1494 79.437 66.3692 79.6568C66.589 79.8765 66.887 80 67.1978 80H67.1985C67.5093 80 67.8073 79.8765 68.0271 79.6568C68.2469 79.437 68.3703 79.1389 68.3703 78.8281V59.7797C68.37 54.8488 65.1164 50.6641 60.6435 49.2581ZM60.695 36.5891C61.2033 36.5891 61.6169 37.0025 61.6169 37.5109V40.25C61.6169 40.7583 61.2035 41.1719 60.695 41.1719H51.9222C53.3456 39.9772 54.4322 38.395 55.0197 36.5891H60.695ZM59.6942 24.7858V27.3042C59.6942 28.0617 59.078 28.678 58.3205 28.678H55.5102V23.4119H58.3205C59.078 23.412 59.6942 24.0283 59.6942 24.7858ZM35.806 2.34375H44.1935C48.4106 2.34375 52.0811 5.04984 53.3271 9.07734L54.3631 12.4291L46.565 10.5555C42.27 9.52359 37.7294 9.52359 33.4344 10.5555L25.6363 12.4291L26.6724 9.0775C27.9183 5.04984 31.5888 2.34375 35.806 2.34375ZM22.5433 17.2362C22.5433 16.2627 23.2044 15.4238 24.1511 15.1964L33.9819 12.8345C37.9188 11.8886 42.0806 11.8886 46.0175 12.8345L55.8483 15.1964C56.307 15.3054 56.7154 15.5663 57.0072 15.9365C57.299 16.3068 57.4572 16.7648 57.4561 17.2362V18.9705C57.4561 20.1272 56.515 21.0684 55.3581 21.0684H54.5121L47.7735 19.0219C43.5096 17.7269 38.9492 17.5192 34.5855 18.4209C34.4348 18.452 34.2917 18.5125 34.1643 18.599C34.037 18.6854 33.9279 18.7961 33.8434 18.9247C33.7588 19.0532 33.7004 19.1972 33.6716 19.3484C33.6427 19.4996 33.6438 19.6549 33.675 19.8056C33.7061 19.9564 33.7666 20.0995 33.853 20.2268C33.9394 20.3542 34.0501 20.4632 34.1787 20.5478C34.3073 20.6323 34.4513 20.6907 34.6025 20.7196C34.7536 20.7485 34.909 20.7473 35.0597 20.7161C39.0413 19.8933 43.2021 20.0828 47.0924 21.2644L53.1663 23.1091V33.4975C53.1663 37.7283 49.7252 41.1703 45.4949 41.1719H34.5046C30.2742 41.1703 26.8331 37.7281 26.8331 33.4975V23.1091L29.8766 22.1847C30.1739 22.0944 30.4233 21.8896 30.5697 21.6155C30.7161 21.3414 30.7476 21.0203 30.6574 20.723C30.4692 20.1036 29.8146 19.7537 29.1956 19.9422L25.4874 21.0684H24.6413C23.4845 21.0684 22.5433 20.1273 22.5433 18.9705V17.2362ZM21.6789 28.6781C20.9214 28.6781 20.3052 28.0619 20.3052 27.3044V24.7859C20.3052 24.0284 20.9214 23.4122 21.6789 23.4122H24.4892V28.6783H21.6789V28.6781ZM18.3825 40.25V37.5109C18.3825 37.0027 18.796 36.5891 19.3044 36.5891H24.9797C25.5672 38.395 26.6538 39.9772 28.0772 41.1719H19.3044C19.06 41.1716 18.8256 41.0744 18.6528 40.9016C18.48 40.7288 18.3828 40.4944 18.3825 40.25ZM21.6997 43.5156H34.7891V48.7531H30.5647C30.2338 47.6537 29.213 46.8502 28.0072 46.8502H26.0144C24.8086 46.8502 23.7878 47.6537 23.4569 48.7531C22.6313 48.7612 22.7766 48.7264 21.6997 48.7972V43.5156ZM28.3349 63.8248C28.3349 65.5227 27.2216 66.9652 25.6867 67.4609V49.5216C25.6869 49.4347 25.7214 49.3514 25.7828 49.29C25.8443 49.2286 25.9275 49.194 26.0144 49.1939H28.0072C28.0941 49.194 28.1773 49.2286 28.2388 49.29C28.3002 49.3514 28.3347 49.4347 28.3349 49.5216V63.8248ZM39.9997 52.5284C38.4189 52.5284 37.1328 51.2423 37.1328 49.6616V43.5156H42.8664V49.6616C42.8666 51.2423 41.5805 52.5284 39.9997 52.5284ZM53.9849 46.8502H51.9921C50.7863 46.8502 49.7655 47.6537 49.4346 48.7531H45.2102V43.5156H58.2995V48.7972C58.0617 48.7647 57.08 48.7456 56.5424 48.7531C56.2114 47.6537 55.1908 46.8502 53.9849 46.8502Z" fill="#4E7A1A"/>
<path d="M37.9701 7.50391H42.0293C42.3401 7.50391 42.6382 7.38044 42.858 7.16067C43.0777 6.9409 43.2012 6.64283 43.2012 6.33203C43.2012 6.02123 43.0777 5.72316 42.858 5.50339C42.6382 5.28362 42.3401 5.16016 42.0293 5.16016H37.9701C37.6593 5.16016 37.3612 5.28362 37.1415 5.50339C36.9217 5.72316 36.7982 6.02123 36.7982 6.33203C36.7982 6.64283 36.9217 6.9409 37.1415 7.16067C37.3612 7.38044 37.6593 7.50391 37.9701 7.50391ZM39.9998 29.1844C40.3106 29.1844 40.6087 29.0609 40.8284 28.8411C41.0482 28.6214 41.1717 28.3233 41.1717 28.0125V25.4494C41.1717 25.1386 41.0482 24.8405 40.8284 24.6207C40.6087 24.401 40.3106 24.2775 39.9998 24.2775C39.689 24.2775 39.3909 24.401 39.1711 24.6207C38.9514 24.8405 38.8279 25.1386 38.8279 25.4494V28.0125C38.8279 28.3233 38.9514 28.6214 39.1711 28.8411C39.3909 29.0609 39.689 29.1844 39.9998 29.1844ZM37.1395 33.2572C37.9425 33.9262 38.9546 34.2927 39.9998 34.2928C41.0443 34.2921 42.0557 33.9261 42.8589 33.2583C42.9771 33.1598 43.0748 33.039 43.1464 32.9027C43.2179 32.7665 43.2619 32.6175 43.2759 32.4642C43.2899 32.3109 43.2735 32.1564 43.2278 32.0095C43.182 31.8626 43.1078 31.7261 43.0093 31.6078C42.9108 31.4896 42.79 31.3919 42.6538 31.3203C42.5175 31.2487 42.3685 31.2047 42.2152 31.1908C42.062 31.1768 41.9075 31.1931 41.7605 31.2389C41.6136 31.2846 41.4771 31.3589 41.3589 31.4573C40.9783 31.777 40.4966 31.9512 39.9996 31.9491C39.5028 31.9491 39.0206 31.7748 38.6417 31.4583C38.4031 31.2591 38.0952 31.1628 37.7856 31.1906C37.4761 31.2184 37.1903 31.3681 36.991 31.6066C36.7919 31.8451 36.6956 32.1531 36.7235 32.4626C36.7513 32.7722 36.9009 33.058 37.1395 33.2572ZM41.0854 62.1284H38.9142C38.6034 62.1284 38.3053 62.2519 38.0855 62.4717C37.8658 62.6914 37.7423 62.9895 37.7423 63.3003C37.7423 63.6111 37.8658 63.9092 38.0855 64.129C38.3053 64.3487 38.6034 64.4722 38.9142 64.4722H41.0854C41.3962 64.4722 41.6943 64.3487 41.9141 64.129C42.1338 63.9092 42.2573 63.6111 42.2573 63.3003C42.2573 62.9895 42.1338 62.6914 41.9141 62.4717C41.6943 62.2519 41.3962 62.1284 41.0854 62.1284Z" fill="#4E7A1A"/>
</svg>
