<svg width="80" height="80" viewBox="0 0 80 80" fill="none" xmlns="http://www.w3.org/2000/svg">
<path d="M14.15 51.8338C7.58745 51.8338 2.26245 46.4963 2.26245 39.9463C2.26245 39.2588 2.82495 38.6963 3.51245 38.6963H24.8C25.4875 38.6963 26.05 39.2588 26.05 39.9463C26.05 46.5088 20.7125 51.8338 14.15 51.8338ZM4.84995 41.1963C5.46245 45.7838 9.39995 49.3338 14.1625 49.3338C18.925 49.3338 22.8625 45.7838 23.475 41.1963H4.84995Z" fill="#A687DC"/>
<path d="M24.8 41.1961C24.5561 41.1969 24.3172 41.1264 24.1128 40.9931C23.9085 40.8598 23.7476 40.6697 23.65 40.4461L14.15 18.7461L4.65002 40.4461C4.37502 41.0711 3.63752 41.3711 3.00002 41.0836C2.36252 40.8086 2.07502 40.0711 2.35002 39.4336L12.9875 15.1211C13.1875 14.6711 13.6375 14.3711 14.1375 14.3711C14.6375 14.3711 15.0875 14.6711 15.2875 15.1211L25.925 39.4336C26.2 40.0711 25.9125 40.8086 25.275 41.0836C25.1375 41.1586 24.9625 41.1961 24.8 41.1961Z" fill="#A687DC"/>
<path d="M33.2249 16.8837H14.1499C13.4624 16.8837 12.8999 16.3212 12.8999 15.6337C12.8999 12.4837 15.4624 9.92119 18.6124 9.92119H33.2249C33.6249 9.92119 33.9999 10.1087 34.2374 10.4462C34.3536 10.6065 34.43 10.792 34.4604 10.9876C34.4908 11.1832 34.4744 11.3832 34.4124 11.5712C34.0109 12.7633 34.0109 14.0541 34.4124 15.2462C34.4744 15.4342 34.4908 15.6342 34.4604 15.8298C34.43 16.0254 34.3536 16.2109 34.2374 16.3712C34.0124 16.6962 33.6249 16.8837 33.2249 16.8837ZM15.6624 14.3837H31.6749C31.6374 14.0587 31.6124 13.7212 31.6124 13.3962C31.6124 13.0712 31.6374 12.7462 31.6749 12.4212H18.6249C17.2874 12.4212 16.1499 13.2337 15.6624 14.3837ZM65.8499 16.8837H46.7624C46.3624 16.8837 45.9874 16.6962 45.7499 16.3587C45.6337 16.1984 45.5573 16.0129 45.5269 15.8173C45.4965 15.6217 45.5129 15.4217 45.5749 15.2337C45.7749 14.6337 45.8749 14.0087 45.8749 13.3837C45.8749 12.7712 45.7749 12.1462 45.5749 11.5587C45.5142 11.3704 45.4985 11.1705 45.5293 10.9751C45.56 10.7797 45.6362 10.5942 45.7517 10.4336C45.8673 10.2731 46.019 10.1419 46.1945 10.0507C46.3701 9.95954 46.5646 9.91089 46.7624 9.90869H61.3874C64.5374 9.90869 67.0999 12.4712 67.0999 15.6212C67.0999 16.3212 66.5374 16.8837 65.8499 16.8837ZM48.3249 14.3837H64.3499C64.1023 13.8026 63.6897 13.3069 63.1631 12.958C62.6365 12.6092 62.0191 12.4225 61.3874 12.4212H48.3249C48.3624 12.7462 48.3874 13.0712 48.3874 13.3962C48.3874 13.7337 48.3624 14.0587 48.3249 14.3837ZM65.8499 51.8337C59.2874 51.8337 53.9624 46.4962 53.9624 39.9462C53.9624 39.2587 54.5249 38.6962 55.2124 38.6962H76.4999C77.1874 38.6962 77.7499 39.2587 77.7499 39.9462C77.7374 46.5087 72.3999 51.8337 65.8499 51.8337ZM56.5374 41.1962C56.8431 43.4494 57.955 45.5155 59.6673 47.0117C61.3795 48.5079 63.576 49.3329 65.8499 49.3337C70.5999 49.3337 74.5499 45.7837 75.1624 41.1962H56.5374Z" fill="#A687DC"/>
<path d="M76.4875 41.1961C76.2435 41.1969 76.0047 41.1264 75.8003 40.9931C75.596 40.8598 75.4351 40.6697 75.3375 40.4461L65.8375 18.7461L56.3375 40.4461C56.0625 41.0711 55.325 41.3711 54.6875 41.0836C54.05 40.8086 53.7625 40.0711 54.0375 39.4336L64.675 15.1211C64.875 14.6711 65.325 14.3711 65.825 14.3711C66.325 14.3711 66.775 14.6711 66.975 15.1211L77.6125 39.4336C77.8875 40.0711 77.6 40.8086 76.9625 41.0836C76.825 41.1586 76.65 41.1961 76.4875 41.1961ZM43.0625 62.9961H36.9375C36.25 62.9961 35.6875 62.4336 35.6875 61.7461V19.8336C35.6867 19.621 35.7402 19.4118 35.8429 19.2257C35.9457 19.0396 36.0942 18.8828 36.2744 18.7701C36.4547 18.6575 36.6607 18.5927 36.873 18.5819C37.0853 18.5712 37.2968 18.6148 37.4875 18.7086C39.025 19.4711 40.9375 19.4711 42.5125 18.7211C42.7018 18.6282 42.912 18.5862 43.1225 18.5994C43.3329 18.6125 43.5363 18.6803 43.7125 18.7961C44.075 19.0211 44.3 19.4211 44.3 19.8586V61.7461C44.3125 62.4336 43.75 62.9961 43.0625 62.9961ZM38.1875 60.4961H41.8125V21.5836C40.625 21.8461 39.375 21.8461 38.1875 21.5836V60.4961Z" fill="#A687DC"/>
<path d="M54.3625 68.346H25.6375C24.95 68.346 24.3875 67.7835 24.3875 67.096V65.4085C24.3875 64.1056 24.905 62.8561 25.8263 61.9348C26.7476 61.0136 27.9971 60.496 29.3 60.496H50.7C52.0028 60.496 53.2523 61.0136 54.1736 61.9348C55.0949 62.8561 55.6125 64.1056 55.6125 65.4085V67.096C55.6125 67.7835 55.05 68.346 54.3625 68.346ZM26.8875 65.846H53.1125V65.4085C53.1125 64.071 52.025 62.996 50.7 62.996H29.3C27.9625 62.996 26.8875 64.0835 26.8875 65.4085V65.846ZM40 21.7835C38.7375 21.7835 37.4875 21.496 36.3875 20.946C35.3682 20.4601 34.4576 19.7735 33.7101 18.9272C32.9626 18.0809 32.3937 17.0924 32.0374 16.021C31.7499 15.171 31.6125 14.2835 31.6125 13.396C31.6125 12.5085 31.7624 11.6335 32.0374 10.771C33.1624 7.3335 36.35 5.021 39.9875 5.021C43.625 5.021 46.825 7.3335 47.95 10.7835C48.2375 11.6335 48.375 12.5085 48.375 13.396C48.3711 14.2919 48.2277 15.1817 47.95 16.0335C47.5975 17.1103 47.0288 18.1037 46.2786 18.9528C45.5284 19.8018 44.6126 20.4886 43.5875 20.971C42.4874 21.496 41.2375 21.7835 40 21.7835ZM40 7.521C37.45 7.521 35.2 9.146 34.425 11.5585C34.225 12.171 34.125 12.7835 34.125 13.396C34.125 14.021 34.225 14.646 34.425 15.246C34.925 16.771 36.0375 18.021 37.475 18.696C39.0625 19.471 40.9375 19.471 42.525 18.7085C43.2446 18.3708 43.8876 17.8894 44.4143 17.294C44.941 16.6985 45.3402 16.0015 45.5875 15.246C45.7875 14.646 45.8874 14.021 45.8874 13.396C45.8874 12.7835 45.7875 12.1585 45.5875 11.571C45.2033 10.3923 44.4557 9.36554 43.4519 8.63796C42.4481 7.91039 41.2397 7.51937 40 7.521Z" fill="#A687DC"/>
<path d="M65.3125 74.9709H14.6875C14 74.9709 13.4375 74.4084 13.4375 73.7209V71.2459C13.4375 68.2709 15.8625 65.8584 18.825 65.8584H61.1625C62.5914 65.8584 63.9617 66.426 64.972 67.4364C65.9824 68.4467 66.55 69.817 66.55 71.2459V73.7209C66.5625 74.4084 66 74.9709 65.3125 74.9709ZM15.9375 72.4709H64.0625V71.2459C64.0625 69.6459 62.7625 68.3584 61.175 68.3584H18.825C17.225 68.3584 15.9375 69.6584 15.9375 71.2459V72.4709Z" fill="#A687DC"/>
</svg>
