<svg width="80" height="81" viewBox="0 0 80 81" fill="none" xmlns="http://www.w3.org/2000/svg">
<path d="M25.5245 38.0087C25.5851 38.0646 25.6262 38.1384 25.6419 38.2194C25.6577 38.3003 25.6472 38.3841 25.612 38.4587C25.1636 39.3248 24.7914 40.2282 24.4995 41.1587C24.4686 41.2353 24.4148 41.3004 24.3454 41.3452C24.276 41.3899 24.1945 41.4121 24.112 41.4087C23.3517 41.412 22.6236 41.7164 22.0872 42.2552C21.5507 42.794 21.2495 43.5234 21.2495 44.2837V47.7087C21.2495 48.469 21.5507 49.1984 22.0872 49.7372C22.6236 50.276 23.3517 50.5804 24.112 50.5837C24.1945 50.5803 24.276 50.6025 24.3454 50.6472C24.4148 50.692 24.4686 50.7571 24.4995 50.8337C24.7934 51.7514 25.1656 52.6422 25.612 53.4962C25.6472 53.5708 25.6577 53.6546 25.6419 53.7355C25.6262 53.8165 25.5851 53.8903 25.5245 53.9462C24.9894 54.4868 24.6893 55.2168 24.6893 55.9775C24.6893 56.7381 24.9894 57.4681 25.5245 58.0087L27.962 60.4337C28.4994 60.9605 29.222 61.2555 29.9745 61.2555C30.7271 61.2555 31.4496 60.9605 31.987 60.4337C32.043 60.3731 32.1168 60.332 32.1977 60.3163C32.2786 60.3005 32.3625 60.311 32.437 60.3462C33.3021 60.7968 34.2057 61.1691 35.137 61.4587C35.2147 61.488 35.2809 61.5415 35.3259 61.6112C35.3709 61.681 35.3923 61.7634 35.387 61.8462C35.3837 62.228 35.4564 62.6066 35.601 62.9599C35.7455 63.3133 35.959 63.6343 36.229 63.9043C36.4989 64.1742 36.8199 64.3877 37.1733 64.5322C37.5266 64.6768 37.9052 64.7495 38.287 64.7462H41.712C42.4723 64.7462 43.2017 64.445 43.7405 63.9086C44.2793 63.3721 44.5837 62.644 44.587 61.8837C44.5817 61.8009 44.6031 61.7185 44.6481 61.6487C44.6931 61.579 44.7593 61.5255 44.837 61.4962C45.7555 61.2045 46.6465 60.8322 47.4995 60.3837C47.5741 60.3485 47.6579 60.338 47.7388 60.3538C47.8198 60.3695 47.8936 60.4106 47.9495 60.4712C48.4906 60.9958 49.2146 61.2892 49.9683 61.2892C50.7219 61.2892 51.446 60.9958 51.987 60.4712L54.412 58.0462C54.9471 57.5056 55.2473 56.7756 55.2473 56.015C55.2473 55.2543 54.9471 54.5243 54.412 53.9837C54.3515 53.9278 54.3103 53.854 54.2946 53.773C54.2788 53.6921 54.2893 53.6083 54.3245 53.5337C54.7814 52.6571 55.158 51.7408 55.4495 50.7962C55.4826 50.7265 55.5363 50.6687 55.6034 50.6307C55.6705 50.5927 55.7477 50.5763 55.8245 50.5837C56.2062 50.5903 56.5855 50.5209 56.9401 50.3794C57.2947 50.2379 57.6176 50.0272 57.8898 49.7595C58.1621 49.4919 58.3784 49.1727 58.526 48.8206C58.6736 48.4685 58.7496 48.0905 58.7495 47.7087V44.2837C58.7495 43.5234 58.4483 42.794 57.9119 42.2552C57.3754 41.7164 56.6473 41.412 55.887 41.4087C55.8045 41.4121 55.723 41.3899 55.6536 41.3452C55.5842 41.3004 55.5304 41.2353 55.4995 41.1587C55.2056 40.241 54.8334 39.3502 54.387 38.4962C54.3518 38.4216 54.3413 38.3378 54.3571 38.2569C54.3728 38.1759 54.414 38.1021 54.4745 38.0462C55.0096 37.5056 55.3098 36.7756 55.3098 36.015C55.3098 35.2543 55.0096 34.5243 54.4745 33.9837L52.037 31.5587C51.5012 31.0289 50.778 30.7318 50.0245 30.7318C49.271 30.7318 48.5479 31.0289 48.012 31.5587C47.9561 31.6193 47.8823 31.6604 47.8013 31.6761C47.7204 31.6919 47.6366 31.6814 47.562 31.6462C46.697 31.1956 45.7934 30.8233 44.862 30.5337C44.7843 30.5044 44.7181 30.451 44.6731 30.3812C44.6281 30.3114 44.6067 30.2291 44.612 30.1462C44.6153 29.7644 44.5426 29.3858 44.3981 29.0325C44.2535 28.6791 44.04 28.3581 43.7701 28.0882C43.5001 27.8182 43.1791 27.6047 42.8257 27.4602C42.4724 27.3156 42.0938 27.2429 41.712 27.2462H38.287C37.9073 27.2462 37.5314 27.3214 37.181 27.4674C36.8305 27.6135 36.5125 27.8275 36.2452 28.0971C35.9779 28.3667 35.7666 28.6866 35.6236 29.0383C35.4806 29.39 35.4087 29.7666 35.412 30.1462C35.4152 30.2174 35.3965 30.2879 35.3585 30.3482C35.3206 30.4085 35.2651 30.4558 35.1995 30.4837C34.2537 30.772 33.3372 31.1487 32.462 31.6087C32.3875 31.6439 32.3036 31.6544 32.2227 31.6386C32.1418 31.6229 32.068 31.5818 32.012 31.5212C31.471 30.9966 30.7469 30.7032 29.9933 30.7032C29.2396 30.7032 28.5156 30.9966 27.9745 31.5212L25.5495 33.9462C25.0111 34.4835 24.7064 35.2116 24.7017 35.9723C24.697 36.733 24.9927 37.4648 25.5245 38.0087ZM26.887 41.9087C27.1313 41.12 27.445 40.3545 27.8245 39.6212C28.1103 39.0745 28.2136 38.4507 28.1191 37.8411C28.0246 37.2315 27.7374 36.6682 27.2995 36.2337C27.2643 36.2009 27.2362 36.1613 27.217 36.1172C27.1978 36.0731 27.1879 36.0255 27.1879 35.9775C27.1879 35.9294 27.1978 35.8818 27.217 35.8377C27.2362 35.7936 27.2643 35.754 27.2995 35.7212L29.7245 33.2962C29.7573 33.261 29.7969 33.2329 29.841 33.2137C29.8851 33.1945 29.9327 33.1846 29.9808 33.1846C30.0289 33.1846 30.0764 33.1945 30.1205 33.2137C30.1646 33.2329 30.2043 33.261 30.237 33.2962C30.6695 33.7252 31.2276 34.0049 31.8301 34.0949C32.4326 34.1848 33.0481 34.0802 33.587 33.7962C34.3272 33.4095 35.1012 33.0915 35.8995 32.8462C36.4837 32.6621 36.9922 32.2931 37.3484 31.7948C37.7047 31.2966 37.8893 30.696 37.8745 30.0837C37.8745 30.035 37.8843 29.9868 37.9032 29.942C37.9222 29.8972 37.9501 29.8567 37.9851 29.8229C38.0201 29.789 38.0615 29.7626 38.1069 29.7451C38.1524 29.7277 38.2009 29.7195 38.2495 29.7212H41.6745C41.7232 29.7195 41.7716 29.7277 41.8171 29.7451C41.8625 29.7626 41.904 29.789 41.939 29.8229C41.974 29.8567 42.0018 29.8972 42.0208 29.942C42.0398 29.9868 42.0495 30.035 42.0495 30.0837C42.0417 30.6995 42.2319 31.3014 42.5919 31.801C42.952 32.3006 43.4629 32.6713 44.0495 32.8587C44.8382 33.103 45.6037 33.4167 46.337 33.7962C46.8755 34.0821 47.4914 34.1878 48.0943 34.0979C48.6973 34.0079 49.2555 33.7269 49.687 33.2962C49.7198 33.261 49.7594 33.2329 49.8035 33.2137C49.8476 33.1945 49.8952 33.1846 49.9433 33.1846C49.9914 33.1846 50.0389 33.1945 50.083 33.2137C50.1271 33.2329 50.1668 33.261 50.1995 33.2962L52.6245 35.7212C52.6601 35.7551 52.6884 35.7958 52.7077 35.8409C52.727 35.886 52.737 35.9346 52.737 35.9837C52.737 36.0328 52.727 36.0814 52.7077 36.1265C52.6884 36.1716 52.6601 36.2123 52.6245 36.2462C52.1877 36.6787 51.901 37.2399 51.8065 37.8473C51.712 38.4547 51.8147 39.0764 52.0995 39.6212C52.479 40.3545 52.7928 41.12 53.037 41.9087C53.2244 42.4953 53.5951 43.0062 54.0947 43.3663C54.5943 43.7264 55.1963 43.9165 55.812 43.9087C55.8607 43.9087 55.9089 43.9185 55.9537 43.9374C55.9985 43.9564 56.039 43.9843 56.0729 44.0193C56.1067 44.0543 56.1331 44.0957 56.1506 44.1411C56.1681 44.1866 56.1762 44.2351 56.1745 44.2837V47.7087C56.1746 47.7601 56.1642 47.811 56.1438 47.8582C56.1234 47.9054 56.0935 47.9479 56.056 47.9831C56.0185 48.0183 55.9741 48.0454 55.9257 48.0627C55.8773 48.08 55.8258 48.0871 55.7745 48.0837C55.1681 48.0751 54.5751 48.2627 54.084 48.6186C53.5929 48.9746 53.2301 49.4797 53.0495 50.0587C52.8033 50.8566 52.4853 51.6306 52.0995 52.3712C51.8137 52.9179 51.7105 53.5417 51.8049 54.1513C51.8994 54.7609 52.1866 55.3242 52.6245 55.7587C52.6597 55.7915 52.6878 55.8311 52.707 55.8752C52.7262 55.9193 52.7361 55.9669 52.7361 56.015C52.7361 56.063 52.7262 56.1106 52.707 56.1547C52.6878 56.1988 52.6597 56.2385 52.6245 56.2712L50.1995 58.6962C50.1668 58.7314 50.1271 58.7595 50.083 58.7787C50.0389 58.7979 49.9914 58.8078 49.9433 58.8078C49.8952 58.8078 49.8476 58.7979 49.8035 58.7787C49.7594 58.7595 49.7198 58.7314 49.687 58.6962C49.2555 58.2655 48.6973 57.9846 48.0943 57.8946C47.4914 57.8046 46.8755 57.9103 46.337 58.1962C45.6037 58.5757 44.8382 58.8895 44.0495 59.1337C43.4629 59.3211 42.952 59.6918 42.5919 60.1914C42.2319 60.691 42.0417 61.293 42.0495 61.9087C42.0495 61.9574 42.0398 62.0056 42.0208 62.0504C42.0018 62.0952 41.974 62.1357 41.939 62.1696C41.904 62.2034 41.8625 62.2298 41.8171 62.2473C41.7716 62.2647 41.7232 62.2729 41.6745 62.2712H38.287C38.2384 62.2729 38.1899 62.2647 38.1444 62.2473C38.099 62.2298 38.0576 62.2034 38.0226 62.1696C37.9876 62.1357 37.9597 62.0952 37.9408 62.0504C37.9218 62.0056 37.912 61.9574 37.912 61.9087C37.9198 61.293 37.7297 60.691 37.3696 60.1914C37.0096 59.6918 36.4986 59.3211 35.912 59.1337C35.1233 58.8895 34.3578 58.5757 33.6245 58.1962C33.2177 57.9754 32.7623 57.8595 32.2995 57.8587C31.5407 57.8609 30.8132 58.1618 30.2745 58.6962C30.2418 58.7314 30.2021 58.7595 30.158 58.7787C30.1139 58.7979 30.0663 58.8078 30.0183 58.8078C29.9702 58.8078 29.9226 58.7979 29.8785 58.7787C29.8344 58.7595 29.7948 58.7314 29.762 58.6962L27.337 56.2712C27.3015 56.2374 27.2732 56.1966 27.2538 56.1515C27.2345 56.1064 27.2245 56.0578 27.2245 56.0087C27.2245 55.9596 27.2345 55.911 27.2538 55.8659C27.2732 55.8208 27.3015 55.7801 27.337 55.7462C27.7738 55.3137 28.0605 54.7525 28.155 54.1451C28.2495 53.5377 28.1468 52.916 27.862 52.3712C27.4825 51.6379 27.1688 50.8724 26.9245 50.0837C26.7371 49.4971 26.3664 48.9862 25.8668 48.6261C25.3672 48.2661 24.7653 48.0759 24.1495 48.0837C24.1008 48.0837 24.0527 48.074 24.0078 48.055C23.963 48.036 23.9225 48.0082 23.8887 47.9732C23.8548 47.9382 23.8284 47.8967 23.8109 47.8513C23.7935 47.8058 23.7853 47.7573 23.787 47.7087V44.2837C23.7853 44.2351 23.7935 44.1866 23.8109 44.1411C23.8284 44.0957 23.8548 44.0543 23.8887 44.0193C23.9225 43.9843 23.963 43.9564 24.0078 43.9374C24.0527 43.9185 24.1008 43.9087 24.1495 43.9087C24.7589 43.9085 25.3524 43.7146 25.8444 43.3551C26.3365 42.9957 26.7016 42.4892 26.887 41.9087Z" fill="#B8D600"/>
<path d="M39.9995 57.246C42.2246 57.246 44.3996 56.5862 46.2497 55.35C48.0997 54.1139 49.5417 52.3568 50.3932 50.3012C51.2446 48.2455 51.4674 45.9835 51.0333 43.8012C50.5993 41.6189 49.5278 39.6144 47.9545 38.041C46.3811 36.4677 44.3766 35.3962 42.1943 34.9622C40.012 34.5281 37.75 34.7509 35.6943 35.6023C33.6387 36.4538 31.8816 37.8958 30.6455 39.7458C29.4093 41.5959 28.7495 43.7709 28.7495 45.996C28.7495 48.9797 29.9348 51.8412 32.0446 53.9509C34.1543 56.0607 37.0158 57.246 39.9995 57.246ZM39.9995 37.246C41.7301 37.246 43.4218 37.7592 44.8608 38.7206C46.2997 39.6821 47.4212 41.0487 48.0835 42.6475C48.7457 44.2464 48.919 46.0057 48.5814 47.703C48.2438 49.4004 47.4104 50.9595 46.1867 52.1832C44.963 53.4069 43.4039 54.2402 41.7066 54.5779C40.0092 54.9155 38.2499 54.7422 36.651 54.0799C35.0522 53.4177 33.6856 52.2962 32.7242 50.8572C31.7627 49.4183 31.2495 47.7266 31.2495 45.996C31.2495 43.6753 32.1714 41.4497 33.8123 39.8088C35.4533 38.1679 37.6789 37.246 39.9995 37.246ZM3.74951 77.246H18.7495C19.081 77.246 19.399 77.1143 19.6334 76.8799C19.8678 76.6455 19.9995 76.3275 19.9995 75.996V60.996C19.9995 60.6645 19.8678 60.3465 19.6334 60.1121C19.399 59.8777 19.081 59.746 18.7495 59.746H3.74951C3.41799 59.746 3.10005 59.8777 2.86563 60.1121C2.63121 60.3465 2.49951 60.6645 2.49951 60.996V75.996C2.49951 76.3275 2.63121 76.6455 2.86563 76.8799C3.10005 77.1143 3.41799 77.246 3.74951 77.246ZM4.99951 62.246H17.4995V74.746H4.99951V62.246ZM77.4995 68.496C77.4995 66.5182 76.913 64.5848 75.8142 62.9403C74.7154 61.2958 73.1536 60.0141 71.3263 59.2572C69.4991 58.5003 67.4884 58.3023 65.5486 58.6881C63.6088 59.074 61.827 60.0264 60.4284 61.4249C59.0299 62.8234 58.0775 64.6053 57.6917 66.5451C57.3058 68.4849 57.5038 70.4956 58.2607 72.3228C59.0176 74.1501 60.2993 75.7119 61.9438 76.8107C63.5883 77.9095 65.5217 78.496 67.4995 78.496C70.1517 78.496 72.6952 77.4424 74.5706 75.5671C76.4459 73.6917 77.4995 71.1482 77.4995 68.496ZM59.9995 68.496C59.9995 67.0126 60.4394 65.5626 61.2635 64.3292C62.0876 63.0958 63.2589 62.1345 64.6294 61.5669C65.9998 60.9992 67.5078 60.8507 68.9627 61.1401C70.4175 61.4295 71.7539 62.1438 72.8028 63.1927C73.8517 64.2416 74.566 65.5779 74.8554 67.0328C75.1448 68.4877 74.9963 69.9957 74.4286 71.3661C73.861 72.7366 72.8997 73.9079 71.6663 74.732C70.4329 75.5561 68.9829 75.996 67.4995 75.996C65.5104 75.996 63.6027 75.2058 62.1962 73.7993C60.7897 72.3928 59.9995 70.4851 59.9995 68.496ZM28.912 22.871C29.0221 23.0617 29.1807 23.22 29.3717 23.3298C29.5627 23.4395 29.7792 23.4969 29.9995 23.496H49.9995C50.2198 23.4969 50.4364 23.4395 50.6273 23.3298C50.8183 23.22 50.9769 23.0617 51.087 22.871C51.1967 22.681 51.2545 22.4654 51.2545 22.246C51.2545 22.0266 51.1967 21.811 51.087 21.621L41.087 4.12099C40.978 3.92862 40.8199 3.76861 40.6288 3.65728C40.4378 3.54596 40.2206 3.4873 39.9995 3.4873C39.7784 3.4873 39.5612 3.54596 39.3702 3.65728C39.1791 3.76861 39.021 3.92862 38.912 4.12099L28.912 21.621C28.8023 21.811 28.7445 22.0266 28.7445 22.246C28.7445 22.4654 28.8023 22.681 28.912 22.871ZM39.9995 7.24599L47.8495 20.996H32.1495L39.9995 7.24599ZM24.3495 71.9835L23.0995 74.1835C23.937 74.646 24.812 75.071 25.687 75.4335L26.712 73.146C25.937 72.821 25.137 72.421 24.3495 71.9835ZM54.262 75.471L53.237 73.1835C45.6291 76.5657 37.0157 76.91 29.162 74.146L28.337 76.5085C32.0842 77.8256 36.0276 78.4977 39.9995 78.496C44.9143 78.5091 49.7757 77.478 54.262 75.471ZM71.3995 51.921C71.1745 52.7335 70.9245 53.546 70.6495 54.3335L73.012 55.1585C73.312 54.3085 73.5745 53.446 73.812 52.571L71.3995 51.921ZM72.4995 43.496C72.4986 45.5168 72.3145 47.5334 71.9495 49.521L74.4495 49.971C76.0646 41.3026 74.3483 32.3441 69.6438 24.8865C64.9393 17.4288 57.5933 12.0216 49.0745 9.74599L48.4245 12.1585C55.3235 14.0102 61.4203 18.0833 65.7721 23.7478C70.1238 29.4123 72.4882 36.3528 72.4995 43.496ZM31.5745 12.096L30.9245 9.74599C30.062 9.98349 29.187 10.246 28.337 10.546L29.162 12.9085C29.9995 12.571 30.762 12.321 31.5745 12.096ZM9.91201 55.796C6.71528 47.9797 6.68643 39.2261 9.83156 31.3889C12.9767 23.5517 19.0488 17.2465 26.762 13.8085L25.737 11.521C17.4386 15.2352 10.9074 22.0275 7.52122 30.465C4.13501 38.9026 4.1586 48.3255 7.58701 56.746L9.91201 55.796Z" fill="#B8D600"/>
</svg>
