<svg width="80" height="81" viewBox="0 0 80 81" fill="none" xmlns="http://www.w3.org/2000/svg">
<g clip-path="url(#clip0_468_248)">
<path d="M1.96122 50.8508C2.40122 51.1548 2.86255 51.4228 3.34522 51.6508C3.92255 51.9454 4.88789 52.4388 4.95589 52.7854C5.04122 53.2401 4.98655 53.7108 4.79989 54.1348C4.60122 54.5614 4.39189 54.9281 4.21322 55.2454C3.72389 56.1068 2.90789 57.5508 4.13989 58.5588C4.42789 58.8254 4.92522 59.2108 5.37989 59.5588C5.04577 60.1422 4.89436 60.8124 4.94522 61.4828C5.01589 62.0081 5.29855 62.4801 5.72789 62.7894C6.02789 63.0028 6.34922 63.1894 6.66122 63.3694C7.44522 63.8161 7.75189 64.0241 7.86122 64.4361C7.93322 64.9788 7.88255 65.5294 7.71455 66.0508C7.6317 66.3966 7.56364 66.7458 7.51055 67.0974C7.37722 68.3134 7.53322 69.5441 7.96122 70.6894C8.25264 71.7234 8.86958 72.6359 9.72053 73.2916C10.5715 73.9473 11.6111 74.3112 12.6852 74.3294C13.0519 74.3281 13.4159 74.2894 13.7746 74.2148C17.5836 73.312 21.3371 72.1888 25.0159 70.8508C28.0186 72.6134 29.9172 77.9734 30.4119 79.9854C30.4839 80.2742 30.6505 80.5306 30.8851 80.7138C31.1198 80.8969 31.4089 80.9963 31.7066 80.9961L65.1732 80.9028C65.3824 80.9024 65.5885 80.8528 65.7749 80.758C65.9613 80.6632 66.1228 80.5259 66.2464 80.3572C66.3699 80.1885 66.4521 79.9931 66.4861 79.7867C66.5202 79.5804 66.5053 79.3689 66.4426 79.1694C66.1128 78.2661 65.6582 77.4134 65.0919 76.6361C64.7716 76.1762 64.483 75.6951 64.2279 75.1961C63.6252 73.9734 63.1212 72.7028 62.7226 71.4001C61.962 68.8232 61.4341 66.1833 61.1452 63.5121C60.6772 59.5231 61.282 55.4814 62.8972 51.8041C63.8839 49.7641 65.0972 47.8441 66.5186 46.0801C67.3186 45.0001 68.1492 43.8814 68.8946 42.7068C70.1761 40.716 71.1052 38.5195 71.6412 36.2134C71.715 35.8713 71.6512 35.5139 71.4637 35.2184C71.2763 34.9228 70.9801 34.7128 70.6392 34.6337C70.2983 34.5546 69.9399 34.6127 69.6414 34.7955C69.343 34.9783 69.1284 35.2711 69.0439 35.6108C68.5751 37.6234 67.7632 39.5403 66.6439 41.2774C65.9519 42.3721 65.1519 43.4494 64.3772 44.4921C62.8344 46.4172 61.5178 48.5132 60.4532 50.7388C58.6476 54.8513 57.9728 59.3715 58.4986 63.8321C58.8052 66.6654 59.3692 69.4641 60.1799 72.1961C60.6179 73.6305 61.1713 75.027 61.8346 76.3721C62.1386 76.9721 62.4839 77.5521 62.8679 78.1054L62.9572 78.2388L32.7146 78.3294C31.8283 75.1667 30.2214 72.2523 28.0199 69.8148L29.2199 69.3974C30.1159 69.0841 30.7919 68.8481 31.1412 68.7308C36.8506 66.9108 39.7066 64.3108 39.6279 60.9974C39.6261 60.8223 39.5891 60.6492 39.5192 60.4886C39.4493 60.328 39.3479 60.183 39.2209 60.0623C39.094 59.9416 38.9441 59.8475 38.7802 59.7858C38.6163 59.724 38.4416 59.6958 38.2666 59.7028C37.9131 59.7112 37.5775 59.8596 37.3335 60.1153C37.0895 60.3711 36.957 60.7134 36.9652 61.0668C36.9972 62.4308 35.8732 64.4281 30.3306 66.1934C29.9679 66.3094 29.2639 66.5534 28.3426 66.8774C27.3519 67.2228 26.0959 67.6628 24.7092 68.1334H24.6999C20.9502 69.5084 17.1243 70.6659 13.2412 71.6001C12.6432 71.7125 12.0248 71.5911 11.5137 71.2609C11.0027 70.9307 10.6378 70.4168 10.4946 69.8254C10.2078 69.0729 10.0952 68.2651 10.1652 67.4628C10.2039 67.1961 10.2666 66.9161 10.3279 66.6441C10.6116 65.7134 10.6575 64.7264 10.4612 63.7734C10.2698 63.17 9.95104 62.6147 9.52638 62.1452C9.10173 61.6757 8.58115 61.3029 7.99989 61.0521L7.71322 60.8881C7.85694 60.5962 8.02935 60.3192 8.22789 60.0614C8.33846 59.921 8.41966 59.7598 8.46667 59.5873C8.51367 59.4148 8.52553 59.2347 8.50152 59.0576C8.47751 58.8805 8.41814 58.71 8.32692 58.5562C8.23571 58.4025 8.11452 58.2687 7.97055 58.1628C7.65189 57.9281 6.90389 57.3628 6.34389 56.9174C6.40789 56.8014 6.47722 56.6734 6.54522 56.5588C6.75455 56.1908 6.99455 55.7588 7.22655 55.2694C7.64922 54.3361 7.77322 53.2934 7.58122 52.2868C7.26255 50.6601 5.70389 49.8628 4.56655 49.2814C4.18338 49.0991 3.81591 48.8855 3.46789 48.6428C3.18216 48.4514 2.91439 48.2345 2.66789 47.9948C2.66789 47.7921 2.88522 47.3028 3.89989 46.0668C6.28579 42.9927 8.33109 39.6688 9.99989 36.1534C10.3132 35.6028 10.4892 34.9841 10.5146 34.3508C10.4455 33.6877 10.2352 33.0471 9.89785 32.4721C9.56044 31.8971 9.10376 31.4011 8.55855 31.0174C8.01855 30.5214 7.50789 30.0548 7.45055 29.6614C7.46389 29.3348 7.53589 29.0134 7.66655 28.7134C7.88389 28.1428 8.13589 27.5828 8.38655 27.0214C8.94922 25.8628 9.39589 24.6521 9.71989 23.4068C10.0266 21.9134 10.4266 20.4388 10.9199 18.9961C11.9708 16.095 13.5982 13.4368 15.7039 11.1814C18.2532 8.48144 22.2666 6.5721 27.6532 5.50277C31.7736 4.59816 35.9545 3.99567 40.1626 3.7001C41.5784 3.62714 42.9977 3.65744 44.4092 3.79077C44.584 3.80705 44.7602 3.78876 44.9279 3.73693C45.0956 3.6851 45.2514 3.60076 45.3865 3.48871C45.5215 3.37666 45.6332 3.2391 45.7151 3.08389C45.7971 2.92868 45.8476 2.75885 45.8639 2.5841C45.8802 2.40936 45.8619 2.23312 45.8101 2.06544C45.7582 1.89776 45.6739 1.74194 45.5618 1.60686C45.4498 1.47178 45.3122 1.3601 45.157 1.27818C45.0018 1.19626 44.832 1.14572 44.6572 1.12944C43.1165 0.988265 41.5677 0.95752 40.0226 1.03744C35.6839 1.33877 31.3746 1.95744 27.1266 2.8881C21.1146 4.0881 16.7452 6.1961 13.7639 9.3481C11.4097 11.8648 9.58991 14.8325 8.41455 18.0721C7.87422 19.6486 7.43554 21.2581 7.10122 22.8908C6.81625 23.9378 6.43322 24.9556 5.95722 25.9308C5.69055 26.5374 5.41589 27.1441 5.17589 27.7748C4.87244 28.4797 4.74786 29.2487 4.81322 30.0134C5.08903 31.2036 5.7808 32.2561 6.76389 32.9814C7.41722 33.5801 7.84789 34.0014 7.85322 34.3694C7.80469 34.5718 7.72841 34.7666 7.62655 34.9481C6.03021 38.3102 4.07388 41.4893 1.79189 44.4294C0.826554 45.6068 -0.186779 46.9788 0.0252209 48.3521C0.309221 49.4108 1.00655 50.3121 1.96122 50.8508Z" fill="#FF6133"/>
<path d="M15.9172 20.8481C16.7198 18.6214 17.9652 16.5814 19.5758 14.8481C21.3532 12.9668 24.4265 11.5814 28.7118 10.7294C29.0587 10.6607 29.3641 10.4569 29.5608 10.163C29.7574 9.86903 29.8293 9.50901 29.7605 9.16211C29.6917 8.81521 29.4879 8.50983 29.194 8.31317C28.9001 8.11651 28.5401 8.04466 28.1932 8.11344C23.3545 9.07611 19.8038 10.7241 17.6385 13.0121C15.7779 15.0091 14.341 17.3621 13.4145 19.9294C12.9652 21.2614 12.6012 22.6201 12.3198 23.9974L14.9238 24.5748C15.1794 23.3136 15.5111 22.0691 15.9172 20.8481ZM43.8118 8.46278L43.0118 12.4521C42.2412 12.7054 41.4905 13.0174 40.7665 13.3854L37.3812 11.1188C36.868 10.7827 36.2547 10.6339 35.6446 10.6972C35.0345 10.7606 34.4649 11.0324 34.0318 11.4668L31.8185 13.6788C31.3759 14.1133 31.0986 14.6885 31.0344 15.3054C30.9701 15.9224 31.1229 16.5424 31.4665 17.0588L33.7225 20.4281C33.3545 21.1521 33.0425 21.9028 32.7892 22.6734L28.8052 23.4734C28.2014 23.5954 27.6585 23.9226 27.2686 24.3995C26.8788 24.8764 26.666 25.4735 26.6665 26.0894V29.2361C26.6661 29.8511 26.8782 30.4473 27.267 30.9238C27.6558 31.4003 28.1973 31.7278 28.7998 31.8508L32.7892 32.6508C33.0425 33.4214 33.3545 34.1721 33.7225 34.8961L31.4558 38.2814C31.1198 38.7946 30.9709 39.4079 31.0343 40.018C31.0977 40.6281 31.3695 41.1977 31.8038 41.6308L34.0172 43.8441C34.4526 44.2848 35.0275 44.5607 35.6437 44.6246C36.2599 44.6886 36.8792 44.5367 37.3958 44.1948L40.7652 41.9388C41.4892 42.3068 42.2398 42.6188 43.0105 42.8721L43.8105 46.8561C43.9322 47.4601 44.2593 48.0033 44.7362 48.3935C45.2131 48.7836 45.8104 48.9965 46.4265 48.9961H49.5732C50.1881 48.9965 50.7844 48.7844 51.2609 48.3956C51.7374 48.0069 52.0648 47.4653 52.1878 46.8628L52.9878 42.8734C53.7585 42.6201 54.5092 42.3081 55.2332 41.9401L58.6185 44.2068C59.1316 44.5428 59.7449 44.6917 60.355 44.6283C60.9651 44.5649 61.5347 44.2931 61.9678 43.8588L64.1798 41.6468C64.6224 41.2122 64.8997 40.637 64.964 40.0201C65.0282 39.4032 64.8754 38.7832 64.5318 38.2668L62.2758 34.8974C62.6438 34.1734 62.9558 33.4228 63.2092 32.6521L67.1932 31.8521C67.9852 31.6921 68.6598 31.1814 69.0292 30.4628L71.0385 31.8094C71.4252 32.0534 71.8745 32.1828 72.3332 32.1841C72.6496 32.1842 72.963 32.1217 73.2552 32.0002C73.5474 31.8787 73.8127 31.7006 74.0358 31.4761L75.8092 29.7028C76.2005 29.3095 76.4449 28.7937 76.5014 28.2418C76.558 27.6899 76.4232 27.1353 76.1198 26.6708L74.3998 24.0974C74.6493 23.596 74.8649 23.0784 75.0452 22.5481L78.0625 21.9468C78.6098 21.8393 79.1026 21.5445 79.4561 21.113C79.8097 20.6816 80.0019 20.1405 79.9998 19.5828V17.0761C80.0018 16.5203 79.8108 15.981 79.4594 15.5504C79.108 15.1197 78.6181 14.8244 78.0732 14.7148L75.0425 14.1108C74.8637 13.5804 74.6489 13.0627 74.3998 12.5614L76.1465 9.95744C76.7518 9.00411 76.6132 7.75744 75.8132 6.96011L74.0398 5.18678C73.6467 4.79524 73.1309 4.55071 72.5789 4.49415C72.0269 4.43759 71.4722 4.57244 71.0078 4.87611L68.4345 6.59611C67.9331 6.34662 67.4155 6.13103 66.8852 5.95078L66.2825 2.93344C66.175 2.38635 65.8804 1.89376 65.4493 1.54023C65.0181 1.18671 64.4774 0.994324 63.9198 0.996109H61.4132C60.8574 0.994147 60.3181 1.18516 59.8874 1.53654C59.4568 1.88792 59.1614 2.37788 59.0518 2.92278L58.4478 5.95344C57.9173 6.13358 57.3997 6.34964 56.8985 6.60011L54.2945 4.85344C53.8314 4.56012 53.2821 4.4333 52.7373 4.49389C52.1925 4.55449 51.6845 4.79887 51.2972 5.18678L50.0972 6.38678C49.9248 6.35082 49.7493 6.33162 49.5732 6.32944H46.4265C45.8115 6.32901 45.2153 6.54115 44.7388 6.92992C44.2623 7.3187 43.9348 7.86022 43.8118 8.46278ZM64.1958 13.6894L63.5732 13.0668C64.6989 13.2175 65.7466 13.7255 66.5621 14.516C67.3775 15.3066 67.9178 16.338 68.1033 17.4586C68.2889 18.5791 68.1099 19.7296 67.5928 20.7408C67.0756 21.752 66.2476 22.5706 65.2305 23.0761L63.2065 22.6761C62.9533 21.9049 62.6412 21.1543 62.2732 20.4308L64.5398 17.0454C64.8771 16.5325 65.027 15.9189 64.9644 15.3082C64.9017 14.6976 64.6302 14.1272 64.1958 13.6934V13.6894ZM53.0358 7.21478L56.0838 9.26278C56.2932 9.4032 56.5382 9.48138 56.7902 9.48822C57.0423 9.49506 57.2911 9.4303 57.5078 9.30144C58.2711 8.85224 59.092 8.50909 59.9478 8.28144C60.1876 8.2167 60.4045 8.08628 60.5741 7.90488C60.7437 7.72349 60.8593 7.49833 60.9078 7.25478L61.6238 3.66278H63.7092L64.4252 7.26278C64.4737 7.50633 64.5893 7.73149 64.7589 7.91288C64.9285 8.09428 65.1454 8.22469 65.3852 8.28944C66.2412 8.51611 67.0625 8.86011 67.8252 9.30944C68.0426 9.43713 68.2919 9.50052 68.5439 9.49226C68.796 9.484 69.0405 9.40443 69.2492 9.26278L72.2972 7.21744L73.7772 8.69744L71.7332 11.7468C71.5927 11.9562 71.5146 12.2011 71.5077 12.4532C71.5009 12.7052 71.5656 12.954 71.6945 13.1708C72.1438 13.9334 72.4865 14.7548 72.7145 15.6108C72.7792 15.8505 72.9097 16.0674 73.0911 16.237C73.2725 16.4067 73.4976 16.5222 73.7412 16.5708L77.3412 17.2868V19.3721L73.7478 20.0881C73.5043 20.1366 73.2791 20.2522 73.0977 20.4218C72.9163 20.5915 72.7859 20.8084 72.7212 21.0481C72.4935 21.904 72.1504 22.7249 71.7012 23.4881C71.5723 23.7048 71.5075 23.9537 71.5144 24.2057C71.5212 24.4578 71.5994 24.7027 71.7398 24.9121L73.7852 27.9601L72.3052 29.4401L69.3332 27.4521V26.0894C69.3332 25.3094 68.9918 24.5668 68.3998 24.0588C69.5472 22.9535 70.3375 21.53 70.6691 19.9717C71.0007 18.4134 70.8583 16.7916 70.2603 15.3149C69.6622 13.8382 68.636 12.5743 67.3135 11.6858C65.9911 10.7973 64.433 10.3249 62.8398 10.3294C62.0337 10.3345 61.2333 10.4659 60.4678 10.7188C59.8164 10.6239 59.1526 10.7699 58.6012 11.1294L55.2345 13.3854C54.511 13.0174 53.7604 12.7054 52.9892 12.4521L52.1892 8.46811C52.1656 8.36128 52.1348 8.25616 52.0972 8.15344L53.0358 7.21478ZM45.4665 13.7654L46.4265 8.99611H49.5732L50.5318 13.7694C50.5807 14.0123 50.6963 14.2368 50.8656 14.4177C51.035 14.5986 51.2513 14.7287 51.4905 14.7934C52.5918 15.0908 53.6505 15.5294 54.6385 16.1001C54.8543 16.2253 55.1009 16.2874 55.3503 16.2794C55.5997 16.2714 55.8418 16.1936 56.0492 16.0548L60.0838 13.3561L62.3185 15.5788L59.6118 19.6174C59.473 19.8248 59.3952 20.0669 59.3872 20.3163C59.3792 20.5657 59.4413 20.8123 59.5665 21.0281C60.1372 22.0161 60.5758 23.0748 60.8732 24.1761C60.9379 24.4153 61.068 24.6317 61.2489 24.801C61.4298 24.9703 61.6543 25.0859 61.8972 25.1348L66.6665 26.0881V29.2361L61.8932 30.1948C61.6503 30.2436 61.4258 30.3592 61.2449 30.5286C61.064 30.6979 60.9339 30.9143 60.8692 31.1534C60.5722 32.2551 60.1329 33.3133 59.5625 34.3014C59.4373 34.5173 59.3752 34.7639 59.3832 35.0133C59.3912 35.2626 59.469 35.5048 59.6078 35.7121L62.3065 39.7468L60.0838 41.9814L56.0452 39.2748C55.8378 39.136 55.5957 39.0582 55.3463 39.0501C55.0969 39.0421 54.8503 39.1043 54.6345 39.2294C53.6464 39.7999 52.5881 40.2391 51.4865 40.5361C51.2473 40.6009 51.031 40.731 50.8616 40.9119C50.6923 41.0927 50.5767 41.3172 50.5278 41.5601L49.5732 46.3294H46.4265L45.4678 41.5561C45.419 41.3132 45.3034 41.0887 45.134 40.9079C44.9647 40.727 44.7483 40.5969 44.5092 40.5321C43.4075 40.2351 42.3493 39.7959 41.3612 39.2254C41.1453 39.1003 40.8987 39.0381 40.6493 39.0462C40.4 39.0542 40.1578 39.132 39.9505 39.2708L35.9158 41.9694L33.6812 39.7468L36.3878 35.7081C36.5266 35.5008 36.6044 35.2586 36.6125 35.0093C36.6205 34.7599 36.5583 34.5133 36.4332 34.2974C35.8627 33.3093 35.4235 32.2511 35.1265 31.1494C35.0617 30.9103 34.9316 30.6939 34.7507 30.5246C34.5699 30.3552 34.3454 30.2396 34.1025 30.1908L29.3332 29.2361V26.0894L34.1065 25.1308C34.3494 25.0819 34.5739 24.9663 34.7548 24.797C34.9356 24.6277 35.0657 24.4113 35.1305 24.1721C35.4278 23.0708 35.8665 22.0121 36.4372 21.0241C36.5623 20.8083 36.6245 20.5617 36.6165 20.3123C36.6084 20.0629 36.5306 19.8208 36.3918 19.6134L33.6932 15.5788L35.9158 13.3441L39.9545 16.0508C40.1618 16.1896 40.404 16.2674 40.6533 16.2754C40.9027 16.2834 41.1493 16.2213 41.3652 16.0961C42.3533 15.5257 43.4115 15.0864 44.5132 14.7894C44.7513 14.7238 44.9666 14.5933 45.1349 14.4125C45.3033 14.2317 45.4181 14.0077 45.4665 13.7654Z" fill="#FF6133"/>
<path d="M47.9998 36.9963C49.8458 36.9963 51.6503 36.4489 53.1852 35.4233C54.72 34.3978 55.9163 32.9401 56.6227 31.2346C57.3291 29.5292 57.514 27.6526 57.1538 25.8421C56.7937 24.0316 55.9048 22.3686 54.5995 21.0633C53.2942 19.758 51.6312 18.8691 49.8207 18.5089C48.0102 18.1488 46.1336 18.3336 44.4281 19.0401C42.7227 19.7465 41.265 20.9427 40.2395 22.4776C39.2139 24.0125 38.6665 25.817 38.6665 27.6629C38.6693 30.1374 39.6536 32.5097 41.4033 34.2595C43.153 36.0092 45.5254 36.9934 47.9998 36.9963ZM47.9998 20.9963C49.7679 20.9963 51.4636 21.6986 52.7139 22.9489C53.9641 24.1991 54.6665 25.8948 54.6665 27.6629C54.6665 29.431 53.9641 31.1267 52.7139 32.377C51.4636 33.6272 49.7679 34.3296 47.9998 34.3296C46.2317 34.3296 44.536 33.6272 43.2858 32.377C42.0355 31.1267 41.3332 29.431 41.3332 27.6629C41.3332 25.8948 42.0355 24.1991 43.2858 22.9489C44.536 21.6986 46.2317 20.9963 47.9998 20.9963Z" fill="#FF6133"/>
<path d="M47.9998 28.9963C48.7362 28.9963 49.3332 28.3993 49.3332 27.6629C49.3332 26.9265 48.7362 26.3296 47.9998 26.3296C47.2635 26.3296 46.6665 26.9265 46.6665 27.6629C46.6665 28.3993 47.2635 28.9963 47.9998 28.9963Z" fill="#FF6133"/>
<path d="M11.9998 30.3293C12.7362 30.3293 13.3332 29.7323 13.3332 28.9959C13.3332 28.2596 12.7362 27.6626 11.9998 27.6626C11.2635 27.6626 10.6665 28.2596 10.6665 28.9959C10.6665 29.7323 11.2635 30.3293 11.9998 30.3293Z" fill="#FF6133"/>
</g>
<defs>
<clipPath id="clip0_468_248">
<rect width="80" height="80" fill="white" transform="translate(0 0.996094)"/>
</clipPath>
</defs>
</svg>
