<svg width="80" height="81" viewBox="0 0 80 81" fill="none" xmlns="http://www.w3.org/2000/svg">
<path d="M17.4405 30.4898H35.0827C35.2074 30.4897 35.3307 30.4647 35.4456 30.4163C35.5605 30.3679 35.6646 30.2972 35.7519 30.2082C35.8391 30.1192 35.9078 30.0137 35.9539 29.8979C35.9999 29.7821 36.0225 29.6582 36.0202 29.5336L35.9343 25.0477C37.3827 25.493 38.964 25.3539 40.328 24.618C42.0968 23.6633 43.1515 21.8852 43.1515 19.8633C43.1515 17.7633 41.9905 15.8305 40.1218 14.8211C38.7858 14.0992 37.3046 13.9383 35.9421 14.332L36.0202 11.043C36.0265 10.7898 35.9296 10.5461 35.753 10.3664C35.6658 10.2769 35.5616 10.2058 35.4465 10.1572C35.3313 10.1087 35.2077 10.0836 35.0827 10.0836H31.0515C31.128 9.71172 31.1671 9.32891 31.1671 8.94141C31.1671 5.85234 28.6546 3.33984 25.5655 3.33984C22.4765 3.33984 19.964 5.85234 19.964 8.94141C19.964 9.33047 20.003 9.71172 20.0796 10.0836H17.4405C16.1562 10.0836 15.1108 11.1289 15.1108 12.4133V28.1586C15.1108 29.4445 16.1562 30.4898 17.4405 30.4898ZM16.9858 12.4148C16.9858 12.1633 17.1905 11.9602 17.4405 11.9602H21.3905C21.7155 11.9602 22.0171 11.7914 22.1874 11.5164C22.2711 11.3803 22.3189 11.2252 22.3263 11.0656C22.3336 10.906 22.3004 10.7471 22.2296 10.6039C21.9702 10.0852 21.839 9.52578 21.839 8.94297C21.839 6.88828 23.5108 5.21641 25.5655 5.21641C27.6202 5.21641 29.2921 6.88828 29.2921 8.94297C29.2921 9.52734 29.1608 10.0852 28.9015 10.6039C28.7562 10.8945 28.7718 11.2398 28.9437 11.5164C29.0275 11.6523 29.1448 11.7644 29.2843 11.8421C29.4238 11.9198 29.5809 11.9604 29.7405 11.9602H34.1233L34.0327 15.7805C34.0287 15.9513 34.0714 16.1201 34.1562 16.2685C34.241 16.4169 34.3647 16.5393 34.514 16.6227C34.8187 16.7914 35.1921 16.7789 35.4827 16.5867C36.603 15.8523 38.003 15.8102 39.2296 16.4727C40.5108 17.1648 41.2749 18.4336 41.2749 19.8648C41.2749 21.2055 40.6046 22.3383 39.4358 22.9695C38.1937 23.6398 36.678 23.5695 35.4812 22.7852C35.3383 22.6919 35.1728 22.6393 35.0023 22.6331C34.8318 22.6269 34.6629 22.6672 34.5136 22.7498C34.3644 22.8324 34.2404 22.9541 34.1552 23.1018C34.0699 23.2495 34.0265 23.4177 34.0296 23.5883L34.1249 28.6164H17.4374C17.1858 28.6164 16.9827 28.4117 16.9827 28.1617V12.4148H16.9858ZM49.2718 22.9695C48.0296 23.6398 46.514 23.5695 45.3187 22.7852C45.1758 22.6919 45.0103 22.6393 44.8398 22.6331C44.6693 22.6269 44.5004 22.6672 44.3511 22.7498C44.2019 22.8324 44.0779 22.9541 43.9927 23.1018C43.9074 23.2495 43.864 23.4177 43.8671 23.5883L43.9812 29.5727C43.9857 29.8183 44.0865 30.0523 44.2618 30.2244C44.4371 30.3965 44.673 30.4929 44.9187 30.493H48.9499C48.8733 30.8648 48.8343 31.2477 48.8343 31.6352C48.8343 34.7242 51.3468 37.2367 54.4358 37.2367C57.5249 37.2367 60.0374 34.7242 60.0374 31.6352C60.0374 31.2461 59.9983 30.8648 59.9218 30.493H62.5608C63.8452 30.493 64.8905 29.4477 64.8905 28.1633V12.4148C64.8905 11.1305 63.8452 10.0852 62.5608 10.0852H44.9171C44.4077 10.0852 43.9921 10.4914 43.9796 11.0008L43.8655 15.782C43.8615 15.9529 43.9042 16.1216 43.989 16.27C44.0738 16.4185 44.1975 16.5409 44.3468 16.6242C44.6515 16.793 45.0249 16.7805 45.3155 16.5883C46.4358 15.8539 47.8358 15.8117 49.0624 16.4742C50.3437 17.1664 51.1077 18.4352 51.1077 19.8664C51.1108 21.207 50.4405 22.3383 49.2718 22.9695ZM52.9858 19.8648C52.9858 17.7648 51.8249 15.832 49.9562 14.8227C48.6202 14.1008 47.139 13.9414 45.7765 14.3336L45.8327 11.9602H62.5593C62.8108 11.9602 63.014 12.1648 63.014 12.4148V28.1602C63.014 28.4117 62.8093 28.6148 62.5593 28.6148H58.6093C58.2843 28.6148 57.9827 28.7836 57.8124 29.0586C57.7287 29.1947 57.6809 29.3498 57.6735 29.5094C57.6662 29.669 57.6994 29.8279 57.7702 29.9711C58.0296 30.4898 58.1608 31.0492 58.1608 31.632C58.1608 33.6867 56.489 35.3586 54.4343 35.3586C52.3796 35.3586 50.7077 33.6867 50.7077 31.632C50.7077 31.0477 50.839 30.4898 51.0983 29.9711C51.2437 29.6805 51.228 29.3352 51.0562 29.0586C50.9723 28.9227 50.855 28.8106 50.7155 28.7329C50.576 28.6552 50.4189 28.6146 50.2593 28.6148H45.8374L45.7702 25.0477C47.2187 25.493 48.7999 25.3539 50.164 24.618C51.9296 23.6648 52.9858 21.8867 52.9858 19.8648ZM64.5921 54.8836C65.603 54.1867 66.4265 53.1633 67.0155 51.8477C68.4874 48.5508 68.1093 44.1133 66.1733 41.9555C64.8124 40.4383 63.1624 39.7305 60.9812 39.7305C58.7937 39.7305 57.1405 40.4367 55.7796 41.9555C53.8437 44.1133 53.4671 48.5508 54.9374 51.8477C55.5249 53.1633 56.3483 54.1852 57.3593 54.8836C53.828 55.1914 50.703 57.6414 49.3015 61.1633C47.6515 60.293 45.7999 59.8055 43.8468 59.8055H43.7593C45.4937 58.9336 46.8858 57.4133 47.8202 55.3195C49.7499 50.9945 49.2671 45.1883 46.7437 42.3742C44.9796 40.4086 42.839 39.493 40.0062 39.493C37.1655 39.493 35.0202 40.4086 33.2562 42.3742C30.7327 45.1867 30.2499 50.9945 32.1796 55.318C33.114 57.4117 34.5062 58.932 36.2421 59.8039H36.153C34.1999 59.8039 32.3483 60.2914 30.6983 61.1617C29.2968 57.6414 26.1718 55.1914 22.6405 54.8836C23.6499 54.1867 24.4733 53.1648 25.0608 51.8492C26.5327 48.5523 26.1546 44.1148 24.2187 41.957C22.8577 40.4398 21.2077 39.732 19.0265 39.732C16.839 39.732 15.1858 40.4383 13.8249 41.957C11.889 44.1148 11.5108 48.5523 12.9827 51.8492C13.5702 53.1664 14.3952 54.1883 15.4062 54.8867C10.4671 55.3055 6.56396 59.8055 6.56396 65.2789V66.4211C6.56396 68.0414 7.80303 69.3602 9.32803 69.3602H24.1702C23.7804 70.7031 23.5831 72.0946 23.5843 73.493V75.0273C23.5843 77.0273 25.1062 78.6539 26.9749 78.6539H53.0218C54.8921 78.6539 56.4124 77.0273 56.4124 75.0273V73.493C56.4124 72.0523 56.2062 70.6648 55.8265 69.3602H70.6686C72.1921 69.3602 73.4327 68.0414 73.4327 66.4211V65.2789C73.4343 59.8008 69.5312 55.3023 64.5921 54.8836ZM33.8921 54.5523C32.2921 50.9664 32.6468 45.8602 34.653 43.6242C36.0733 42.0414 37.6749 41.3648 40.0077 41.3648C42.2999 41.3648 43.9468 42.0617 45.3483 43.6242C47.353 45.8602 47.7093 50.9664 46.1077 54.5523C45.2468 56.482 43.4874 58.7836 40.0015 58.7836C36.514 58.7852 34.7546 56.4836 33.8921 54.5523ZM56.6499 51.082C55.4921 48.4883 55.7374 44.8086 57.1749 43.207C58.1827 42.0836 59.3202 41.6055 60.9812 41.6055C62.6358 41.6055 63.7702 42.0852 64.778 43.207C66.2155 44.8086 66.4608 48.4898 65.303 51.0836C64.6905 52.4555 63.4436 54.0914 60.9765 54.0914C58.5093 54.0898 57.2624 52.4539 56.6499 51.082ZM14.6968 51.082C13.539 48.4883 13.7843 44.8086 15.2218 43.207C16.2296 42.0836 17.3671 41.6055 19.028 41.6055C20.6827 41.6055 21.8171 42.0852 22.8249 43.207C24.2624 44.8086 24.5077 48.4898 23.3499 51.0836C22.7374 52.4555 21.4905 54.0914 19.0249 54.0914C16.5562 54.0898 15.3093 52.4539 14.6968 51.082ZM9.32959 67.482C8.84834 67.482 8.44053 66.9945 8.44053 66.418V65.2758C8.44053 60.5602 11.903 56.7242 16.1593 56.7242H21.8843C25.0562 56.7242 27.9327 58.9383 29.078 62.1836C27.2843 63.518 25.8233 65.3445 24.8608 67.4836H9.32959V67.482ZM54.539 75.0258C54.539 75.9914 53.8593 76.7773 53.0233 76.7773H26.9765C26.1405 76.7773 25.4608 75.9914 25.4608 75.0258V73.4914C25.4608 66.9773 30.2577 61.6789 36.1546 61.6789H43.8468C49.7437 61.6789 54.5405 66.9773 54.5405 73.4914V75.0258H54.539ZM71.5593 66.418C71.5593 66.9945 71.153 67.482 70.6702 67.482H55.1374C54.1733 65.343 52.7124 63.5164 50.9202 62.182C52.0655 58.9367 54.9436 56.7227 58.114 56.7227H63.839C68.0952 56.7227 71.5577 60.5586 71.5577 65.2742V66.418H71.5593Z" fill="#33FFDF"/>
</svg>
