<svg width="82" height="81" viewBox="0 0 82 81" fill="none" xmlns="http://www.w3.org/2000/svg">
<g clip-path="url(#clip0_468_1782)">
<path d="M80.9873 28.0017C80.8553 25.7202 78.1418 23.9375 72.7149 22.5774C72.8976 22.1774 73.0002 21.7614 73.0016 21.3293V12.0009H72.9789C72.5015 4.22983 40.6573 4.00049 36.9998 4.00049C33.3423 4.00049 1.49807 4.22983 1.02071 12.0009H0.998047V21.3333C1.00471 23.8668 4.27421 25.8496 9.13844 27.3256C9.07177 27.547 9.03177 27.7723 9.01844 28.0017H8.99844V37.3181C3.75818 38.6675 1.14072 40.4249 1.01138 42.669H0.998047V52.0015C1.00205 53.7656 2.59279 55.2617 5.19559 56.5084C5.09691 56.7791 5.03558 57.0551 5.01824 57.3378H4.99824V66.6702C5.00891 71.1051 14.9947 73.8586 26.0899 75.144C26.1713 75.16 26.2459 75.1933 26.3326 75.1933C26.358 75.1933 26.3793 75.18 26.4046 75.1786C28.5434 75.42 30.7168 75.608 32.8676 75.7427C32.9129 75.748 32.9529 75.7693 32.9996 75.7693C33.0249 75.7693 33.0449 75.756 33.0689 75.7547C35.7095 75.917 38.3544 76.0001 41 76.004C43.5135 76.004 46.2003 75.92 48.9311 75.7533C48.9551 75.7547 48.9764 75.768 49.0004 75.768C49.0471 75.768 49.0871 75.7453 49.1324 75.7413C51.2911 75.6075 53.4461 75.4194 55.5954 75.1773C55.6207 75.1773 55.642 75.1906 55.6674 75.1906C55.7541 75.1906 55.8287 75.1573 55.9101 75.1413C67.0053 73.8559 76.9898 71.1011 77.0018 66.6649V57.3364H76.9804C76.8871 55.7017 75.4937 54.3376 72.7416 53.1976C72.9096 52.8122 73.0016 52.4122 73.0016 51.9975V43.2824C77.7885 41.8103 80.9953 39.8409 81.002 37.3301V28.0017H80.9873ZM70.1908 52.4309L69.7361 52.8295C69.036 53.4469 67.8693 54.0696 66.3346 54.6696V48.312C67.92 47.76 69.2694 47.1479 70.3348 46.4772V51.9948C70.3278 52.1507 70.2779 52.3015 70.1908 52.4309ZM40.368 58.6272C40.1733 58.6325 39.9773 58.6352 39.7813 58.6392C39.3053 58.6485 38.8172 58.6512 38.3345 58.6552V51.9948L39.4346 51.9788L39.6466 51.9748C40.9893 51.9495 42.3321 51.9082 43.6681 51.8468V58.5045C42.5687 58.5607 41.4685 58.6016 40.368 58.6272ZM34.545 58.6458C33.9343 58.6352 33.3263 58.6205 32.7223 58.6018L32.4983 58.5938C31.7716 58.5698 31.0502 58.5392 30.3341 58.5045V51.8482C31.7441 51.9137 33.155 51.9577 34.5664 51.9802L35.6664 51.9962V58.6605C35.4077 58.6578 35.149 58.6578 34.8917 58.6538C34.7744 58.6512 34.661 58.6472 34.545 58.6458ZM10.4612 55.6057C10.4182 55.5926 10.3751 55.5802 10.3318 55.5683V49.1267C11.5772 49.4627 12.916 49.7694 14.332 50.0481V56.5564C13.108 56.2964 11.9786 56.023 10.9505 55.743C10.7879 55.6963 10.6199 55.6523 10.4612 55.6057ZM38.5665 66.6475L39.6666 66.6635V73.3292C37.8879 73.3129 36.1097 73.2613 34.333 73.1745V66.5169C35.7434 66.582 37.1548 66.6255 38.5665 66.6475ZM43.6455 66.6435C44.9882 66.6182 46.3309 66.5769 47.667 66.5155V73.1732C45.9549 73.2572 44.1762 73.3105 42.3334 73.3279V66.6622C42.7708 66.6579 43.2081 66.6517 43.6455 66.6435ZM54.334 66.0409V72.6625C53.0526 72.7972 51.7192 72.9159 50.3338 73.0132V66.3635C51.6688 66.2768 53.0023 66.1692 54.334 66.0409ZM57.0008 65.7528C58.3379 65.5927 59.6716 65.4051 61.001 65.1901V71.7371C59.7449 71.9585 58.4102 72.1625 57.0008 72.3478V65.7528ZM63.6678 64.7141C65.0114 64.453 66.3455 64.1457 67.668 63.7927V70.2344C66.4799 70.5771 65.1425 70.9091 63.6678 71.2224V64.7141ZM18.3322 64.7141V71.2224C16.9876 70.9405 15.6533 70.6109 14.332 70.2344V63.7927C15.5774 64.1288 16.9162 64.4368 18.3322 64.7141ZM20.999 65.1915C22.2898 65.4008 23.6245 65.5888 24.9992 65.7542V72.3492C23.6615 72.1747 22.3278 71.9711 20.999 71.7385V65.1915ZM27.666 66.0409C28.9977 66.169 30.3313 66.277 31.6662 66.3649V73.0145C30.3309 72.9207 28.9973 72.8038 27.666 72.6638V66.0409ZM24.3579 58.0671L23.9525 58.0258L23.6658 57.9951V51.3748C24.9975 51.503 26.3311 51.611 27.666 51.6988V58.3431C26.5622 58.2653 25.4593 58.1733 24.3579 58.0671ZM20.999 51.0855V57.6804C19.6613 57.506 18.3276 57.3023 16.9988 57.0697V50.5228C18.2896 50.7321 19.6243 50.9214 20.999 51.0855ZM47.2216 58.2805L46.3336 58.3471V51.6975C47.6686 51.6103 49.0022 51.5023 50.3338 51.3735V57.9951C49.2978 58.1051 48.2603 58.2003 47.2216 58.2805ZM53.0006 57.6804V51.0855C54.3377 50.9253 55.6714 50.7377 57.0008 50.5228V57.0697C55.7447 57.2911 54.41 57.4964 53.0006 57.6804ZM59.6676 50.0467C61.0112 49.7856 62.3453 49.4783 63.6678 49.1254V55.567C62.4797 55.9097 61.1423 56.2417 59.6676 56.5551V50.0467ZM41.4334 43.9558C40.4511 43.9303 39.4692 43.8934 38.4879 43.8451L38.3332 43.8384V37.1808C39.7432 37.2463 41.1541 37.2903 42.5654 37.3128L43.6655 37.3288V43.9864C43.0161 43.9798 42.3614 43.9771 41.728 43.9624L41.4334 43.9558ZM10.3318 24.9002V18.4585C11.5772 18.7945 12.916 19.1012 14.332 19.3799V25.8882L13.8387 25.7842C12.6605 25.5273 11.491 25.2324 10.3318 24.9002ZM34.5664 21.312L35.6664 21.328V27.9857C33.8877 27.9709 32.1095 27.9202 30.3328 27.8337V21.1813C31.7432 21.2464 33.1546 21.29 34.5664 21.312ZM39.6453 21.308C40.988 21.2827 42.3307 21.2413 43.6668 21.18V27.8323C43.4401 27.843 43.2228 27.859 42.9948 27.8697L42.9374 27.8723C42.0427 27.9123 41.1307 27.9417 40.2066 27.963L39.7746 27.9723C39.2999 27.9817 38.8146 27.983 38.3332 27.9883V21.328L39.4333 21.312L39.6453 21.308ZM70.0294 21.9774L69.9921 21.9694L69.5067 22.3467C68.8027 22.8947 67.7213 23.4494 66.3346 23.9855V17.6425C67.92 17.0905 69.2694 16.4784 70.3348 15.8077V21.3253C70.3348 21.528 70.2281 21.7467 70.0294 21.9774ZM53.0006 27.0043V20.4173C54.3377 20.2571 55.6714 20.0695 57.0008 19.8546V26.3909C55.7367 26.6149 54.406 26.8203 53.0006 27.0043ZM59.6676 25.8776V19.3799C61.0112 19.1188 62.3453 18.8115 63.6678 18.4585V24.8855C62.473 25.2335 61.1277 25.5655 59.6676 25.8776ZM50.3338 20.7053V27.319C49.0457 27.455 47.7123 27.5736 46.3336 27.6723V21.0293C47.6685 20.9415 49.0021 20.8335 50.3338 20.7053ZM23.6658 27.3216V20.7053C24.9975 20.8335 26.3311 20.9415 27.666 21.0293V27.667C26.3308 27.574 24.9972 27.4589 23.6658 27.3216ZM20.999 20.4173V27.0056C20.735 26.9709 20.4603 26.9429 20.199 26.9069L19.6976 26.8336C18.942 26.7248 18.1877 26.607 17.4348 26.4803L16.9988 26.4029V19.8559C18.2896 20.0639 19.6243 20.2533 20.999 20.4173ZM35.3357 43.6544L34.7957 43.6144C33.9423 43.5478 33.1089 43.4744 32.2956 43.3931L31.7729 43.3397C31.7369 43.3357 31.7022 43.3304 31.6662 43.3277V36.7061C32.9979 36.8342 34.3315 36.9423 35.6664 37.0301V43.6758L35.3357 43.6544ZM26.526 42.6584C25.9979 42.5744 25.5019 42.4837 24.9992 42.3957V35.8567C26.2899 36.0661 27.6247 36.2541 28.9994 36.4194V43.0144C28.1735 42.9058 27.349 42.7871 26.526 42.6584ZM22.3324 35.3794V41.877C20.9872 41.5924 19.6529 41.2584 18.3322 40.8756V34.458C19.5776 34.794 20.9164 35.102 22.3324 35.3794ZM15.6654 33.6433V39.9782C13.5693 39.1689 12.2173 38.3422 11.7772 37.6061L11.6879 37.4568C11.6799 37.4155 11.6666 37.3715 11.6652 37.3301V31.8085C12.7306 32.4792 14.08 33.0912 15.6654 33.6433ZM47.6457 37.3088C48.9884 37.2834 50.3311 37.2421 51.6672 37.1808V43.8318C49.9151 43.9184 48.1337 43.9664 46.3336 43.9851V37.3288L47.4337 37.3128L47.6457 37.3088ZM64.8772 42.425C63.9317 42.5903 62.9835 42.7396 62.033 42.8731C61.6957 42.9211 61.345 42.9624 61.0023 43.0064V36.4181C62.3394 36.2579 63.6731 36.0703 65.0025 35.8554V42.4024L64.8772 42.425ZM55.8487 43.5638C55.3514 43.6051 54.838 43.6318 54.334 43.6678V37.0301C55.669 36.9429 57.0025 36.8349 58.3342 36.7061V43.3211C57.5595 43.4024 56.7861 43.4837 55.9901 43.5504L55.8487 43.5638ZM71.0868 41.0636C70.0596 41.3426 69.0255 41.5951 67.9853 41.821C67.8826 41.8437 67.7733 41.8637 67.6693 41.8863V35.3807C69.0129 35.1196 70.3471 34.8123 71.6695 34.4593V40.901L71.0868 41.0636ZM78.3205 28.0883C78.1978 28.9937 76.1457 30.1978 72.4829 31.3298C67.7653 32.7872 60.3836 34.122 51.0285 34.5353C50.5498 34.5553 50.0724 34.5753 49.5844 34.5913C49.1857 34.6046 48.7857 34.6166 48.379 34.6273C47.275 34.6513 46.1549 34.6687 45.0002 34.6687C43.8455 34.6687 42.7254 34.6513 41.6214 34.626C41.216 34.6167 40.816 34.6033 40.416 34.59C39.9266 34.5753 39.4493 34.554 38.9719 34.534C29.6168 34.1206 22.2338 32.7859 17.5175 31.3285C13.884 30.2058 11.8359 29.011 11.6839 28.1097C11.6906 28.0843 11.6906 28.063 11.7066 28.031C11.7972 28.0537 11.8986 28.0723 11.9906 28.095C12.5119 28.219 13.0466 28.339 13.5907 28.4537C16.2401 29.0244 19.1763 29.4924 22.3044 29.8498C22.3151 29.8498 22.3231 29.8551 22.3324 29.8551L22.3391 29.8538C24.4699 30.0964 26.6806 30.2871 28.9501 30.4218C28.9674 30.4218 28.9821 30.4311 28.9994 30.4311C29.0087 30.4311 29.0154 30.4258 29.0247 30.4258C32.393 30.6247 35.7675 30.6985 39.1412 30.6471C48.8297 30.4978 57.8088 29.3457 64.0571 27.5603C64.3451 27.479 64.6265 27.395 64.9038 27.311C65.0732 27.259 65.2465 27.2083 65.4105 27.1563C65.8932 27.0016 66.3559 26.8429 66.8026 26.6776L67.0306 26.5896C67.408 26.4469 67.7706 26.2989 68.1173 26.1482C68.2173 26.1042 68.32 26.0616 68.4173 26.0176C68.7867 25.8509 69.144 25.6802 69.4747 25.5029C69.6241 25.4242 69.7534 25.3429 69.8934 25.2629C70.0516 25.1732 70.2076 25.0798 70.3614 24.9828C70.4454 24.9295 70.5454 24.8788 70.6254 24.8255C76.5951 26.1202 78.1685 27.5363 78.3205 28.0883ZM36.9998 6.66729C58.9862 6.66729 70.1068 10.1288 70.3148 12.1156C70.1534 13.0169 68.1067 14.2077 64.4825 15.3277C59.7649 16.7851 52.3832 18.1198 43.0281 18.5332C42.5494 18.5532 42.0721 18.5732 41.584 18.5892C40.0565 18.6393 38.5282 18.6656 36.9998 18.6679C35.8451 18.6679 34.725 18.6505 33.621 18.6252C33.2156 18.6159 32.8156 18.6025 32.4156 18.5892C31.9262 18.5745 31.4489 18.5532 30.9715 18.5332C21.6164 18.1198 14.2334 16.7851 9.51713 15.3277C5.89162 14.2077 3.84619 13.0169 3.68484 12.1156C3.89286 10.1288 15.0134 6.66729 36.9998 6.66729ZM3.66484 21.3293V15.8077C4.73023 16.4784 6.07963 17.0905 7.66504 17.6425V24.0268C5.07158 23.0548 3.66751 22.08 3.66484 21.3293ZM10.1238 39.7822C10.1438 39.8036 10.1745 39.8222 10.1945 39.8436C12.0199 41.6863 15.8001 43.1344 20.5057 44.2145L20.8377 44.2891C21.183 44.3665 21.5337 44.4425 21.8884 44.5158C26.2099 45.4358 31.3689 46.1012 36.9891 46.4306L36.9985 46.4319L37.0038 46.4306C38.8092 46.5359 40.656 46.6092 42.5414 46.6412C44.3022 46.6786 46.0636 46.6768 47.8243 46.6359C49.5684 46.5999 51.2872 46.5279 52.9819 46.4292C52.9886 46.4292 52.9939 46.4332 53.0006 46.4332C53.0126 46.4332 53.0219 46.4266 53.0339 46.4266C58.6689 46.0945 63.9558 45.4225 68.4267 44.4558C67.4586 44.9625 66.1332 45.4865 64.4825 45.9972C59.5022 47.5359 51.5485 48.9374 41.44 49.2627C41.14 49.272 40.844 49.2827 40.54 49.2907C40.2133 49.2987 39.8813 49.304 39.5493 49.3107C38.7106 49.324 37.8665 49.336 36.9998 49.336C35.8451 49.336 34.725 49.3187 33.621 49.2934C33.2156 49.284 32.8156 49.2707 32.4156 49.2574C31.9262 49.2427 31.4489 49.2214 30.9715 49.2014C21.6164 48.788 14.2334 47.4533 9.51713 45.9959C5.85028 44.8625 3.79818 43.6571 3.67951 42.7517C3.82752 42.2504 5.17558 40.9956 10.1238 39.7822ZM3.66484 51.9975V46.4759C4.73023 47.1466 6.07963 47.7586 7.66504 48.3106V54.6696L6.90367 54.3736L6.88767 54.3896C4.79423 53.5216 3.66751 52.6695 3.66484 51.9975ZM7.66504 66.6649V61.1433C8.73042 61.814 10.0798 62.426 11.6652 62.978V69.3624C9.07177 68.3903 7.66771 67.4156 7.66504 66.6649ZM70.3348 69.3624V62.9794C71.9202 62.4273 73.2696 61.8153 74.335 61.1446V66.6622C74.3336 67.4129 72.9282 68.389 70.3348 69.3624ZM74.3176 57.4391C74.1723 58.3418 72.1242 59.5392 68.4827 60.6646C63.7651 62.122 56.3834 63.4567 47.0283 63.8701C46.5496 63.8901 46.0722 63.9101 45.5842 63.9261C45.1855 63.9394 44.7855 63.9514 44.3788 63.9621C43.2748 63.9861 42.1547 64.0034 41 64.0034C39.8453 64.0034 38.7239 63.9861 37.6185 63.9607C37.2172 63.9514 36.8211 63.9381 36.4251 63.9248C35.9331 63.9087 35.4531 63.8887 34.9717 63.8687C25.6166 63.4554 18.2349 62.1207 13.5173 60.6633C9.99049 59.5739 7.95305 58.4165 7.69704 57.5231C8.65116 57.8549 9.6177 58.1498 10.5945 58.4071C10.8079 58.4645 11.0265 58.5192 11.2452 58.5752C16.1015 59.8192 22.3004 60.7006 28.9927 61.0966L28.9994 61.0979L29.0034 61.0966C31.0702 61.2193 33.181 61.2953 35.3144 61.3206C35.8824 61.3313 36.4464 61.3366 36.9998 61.3366C37.7345 61.3366 38.4865 61.3273 39.2479 61.314C41.1636 61.2832 43.0783 61.2112 44.9909 61.0979L45.0015 61.1006C45.0082 61.1006 45.0122 61.0966 45.0189 61.0966C47.2327 60.9641 49.4425 60.7715 51.6459 60.5192C51.6539 60.5192 51.6605 60.5232 51.6685 60.5232C51.6979 60.5232 51.7219 60.5086 51.7512 60.5059C54.5181 60.1911 57.2701 59.7569 59.9996 59.2045C63.9371 58.3965 67.3453 57.3498 69.6841 56.0524C69.8121 55.983 69.9321 55.911 70.0534 55.8404C70.2014 55.7523 70.3428 55.663 70.4801 55.5723C70.6081 55.4897 70.7561 55.4097 70.8735 55.3257C73.5056 56.2644 74.231 57.1044 74.3176 57.4391ZM74.335 40.0276V33.6446C75.9204 33.0926 77.2698 32.4805 78.3352 31.8098V37.3274C78.3338 38.0782 76.9284 39.0542 74.335 40.0276Z" fill="#4AC256"/>
</g>
<defs>
<clipPath id="clip0_468_1782">
<rect width="80.0039" height="80.0039" fill="white" transform="translate(0.998047)"/>
</clipPath>
</defs>
</svg>
