<svg width="80" height="81" viewBox="0 0 80 81" fill="none" xmlns="http://www.w3.org/2000/svg">
<g clip-path="url(#clip0_468_311)">
<path d="M54.0077 38.6207H47.2917V31.9047C47.3007 30.5502 46.21 29.4446 44.8554 29.4355H35.16C33.8054 29.4355 32.7073 30.5337 32.7073 31.8882V38.6043H26.0077C24.6532 38.5952 23.5476 39.6858 23.5386 41.0403V50.736C23.5386 52.0905 24.6367 53.1886 25.9912 53.1886H32.7073V59.8882C32.6982 61.2428 33.789 62.3483 35.1435 62.3574H44.8225C46.1771 62.3574 47.2752 61.2592 47.2752 59.9047V53.1886H53.9913C55.3458 53.1977 56.4513 52.1069 56.4604 50.7524V41.0734C56.4604 39.7189 55.3624 38.6207 54.0077 38.6207ZM53.1682 49.8965H45.6456C45.209 49.8965 44.7903 50.0699 44.4816 50.3786C44.1729 50.6873 43.9995 51.106 43.9995 51.5425V59.0652H35.9995V51.5425C35.9995 51.106 35.8261 50.6873 35.5174 50.3786C35.2086 50.0699 34.79 49.8965 34.3534 49.8965H26.8308V41.9129H34.3534C34.79 41.9129 35.2086 41.7395 35.5174 41.4308C35.8261 41.1221 35.9995 40.7034 35.9995 40.2668V32.7277H43.983V40.2504C43.983 40.6869 44.1564 41.1056 44.4652 41.4143C44.7739 41.723 45.1925 41.8965 45.6291 41.8965H53.1682V49.8965Z" fill="#FF3333"/>
<path d="M68.6415 17.1229H55.0777V11.3287C55.1631 8.68463 53.0888 6.47188 50.4448 6.38649C50.3101 6.38213 50.1753 6.38343 50.0407 6.3904H29.9584C27.3164 6.25274 25.0631 8.28278 24.9252 10.9246C24.9182 11.0591 24.9169 11.194 24.9213 11.3287V17.09H11.3575C6.12297 17.09 -0.000488281 20.0694 -0.000488281 28.448V64.2505C-0.000488281 72.6291 6.12297 75.6085 11.3575 75.6085H68.6415C73.8761 75.6085 79.9995 72.6291 79.9995 64.2505V28.4809C79.9995 20.1023 73.8925 17.1229 68.6415 17.1229ZM28.2135 11.3287C28.2135 10.8513 28.2135 9.56735 29.9748 9.56735H50.0407C51.802 9.56735 51.802 10.8348 51.802 11.3287V17.09H28.2135V11.3287ZM76.7073 64.2505C76.7073 71.5262 71.0777 72.3163 68.6415 72.3163H11.3575C8.93778 72.3163 3.29169 71.5262 3.29169 64.2505V28.4809C3.29169 21.2052 8.92132 20.4151 11.3575 20.4151H68.6415C71.0612 20.4151 76.7073 21.2052 76.7073 28.4809V64.2505Z" fill="#FF3333"/>
</g>
<defs>
<clipPath id="clip0_468_311">
<rect width="80" height="80" fill="white" transform="translate(-0.000488281 0.996094)"/>
</clipPath>
</defs>
</svg>
