<svg width="80" height="80" viewBox="0 0 80 80" fill="none" xmlns="http://www.w3.org/2000/svg">
<mask id="mask0_468_192" style="mask-type:luminance" maskUnits="userSpaceOnUse" x="0" y="0" width="80" height="80">
<path d="M0 0.000228882H79.9998V80H0V0.000228882Z" fill="white"/>
</mask>
<g mask="url(#mask0_468_192)">
<path d="M57.9687 1.17194H41.5475C37.343 1.17194 33.9346 4.5699 33.9346 8.7616V22.8125" stroke="#FF9900" stroke-width="2.5" stroke-miterlimit="10" stroke-linecap="round" stroke-linejoin="round"/>
<path d="M37.0842 42.0315C38.3383 42.9377 39.8803 43.4721 41.5477 43.4721H55.8101V50.3877L64.851 43.4721H68.7515C72.956 43.4721 76.3644 40.074 76.3644 35.8823V8.76172C76.3644 4.57002 72.956 1.17206 68.7515 1.17206H65.3124" stroke="#FF9900" stroke-width="2.5" stroke-miterlimit="10" stroke-linecap="round" stroke-linejoin="round"/>
<path d="M49.2832 32.3474L50.0679 32.9825C51.3119 33.9896 52.864 34.5391 54.4646 34.5391H65.6039C66.6599 34.5391 67.5102 33.6583 67.4599 32.5913C67.4128 31.5919 67.4621 22.4905 67.4621 21.4644C67.4621 20.4382 66.6302 19.6063 65.6039 19.6063L58.0502 19.5835L58.9751 17.3932C59.4492 16.2703 59.6579 15.0533 59.5851 13.8366C59.5122 12.6199 59.1598 11.4365 58.5551 10.3782C58.4728 10.2343 58.3625 10.1084 58.2306 10.008C58.0988 9.90754 57.9481 9.83466 57.7875 9.79366C57.6269 9.75265 57.4597 9.74436 57.2958 9.76927C57.132 9.79418 56.9748 9.85179 56.8337 9.93867C56.6538 10.0493 56.5054 10.2042 56.4024 10.3885C56.2994 10.5729 56.2453 10.7805 56.2454 10.9916C56.2454 12.9557 55.5282 14.8524 54.2287 16.3252L49.4121 21.7753" stroke="#FF9900" stroke-width="2.5" stroke-miterlimit="10" stroke-linecap="round" stroke-linejoin="round"/>
<path d="M49.14 34.0234H42.8369V19.8414H49.14V34.0234Z" stroke="#FF9900" stroke-width="2.5" stroke-miterlimit="10" stroke-linecap="round" stroke-linejoin="round"/>
<path d="M3.6355 37.8124V49.6376C3.6355 52.9431 6.3233 55.6228 9.63907 55.6228H21.4242V61.1274L28.5537 55.6228" stroke="#FF9900" stroke-width="2.5" stroke-miterlimit="10" stroke-linecap="round" stroke-linejoin="round"/>
<path d="M36.9162 51.0938C37.0353 50.6176 37.0954 50.1286 37.0951 49.6378V28.2508C37.0951 24.9454 34.4071 22.2657 31.0915 22.2657H9.63892C6.3233 22.2657 3.6355 24.9454 3.6355 28.2508V30.7813" stroke="#FF9900" stroke-width="2.5" stroke-miterlimit="10" stroke-linecap="round" stroke-linejoin="round"/>
<path d="M12.498 36.6724H28.2324" stroke="#FF9900" stroke-width="2.5" stroke-miterlimit="10" stroke-linecap="round" stroke-linejoin="round"/>
<path d="M12.498 41.8745H28.2324" stroke="#FF9900" stroke-width="2.5" stroke-miterlimit="10" stroke-linecap="round" stroke-linejoin="round"/>
<path d="M24.2673 31.4063L21.666 47.1406" stroke="#FF9900" stroke-width="2.5" stroke-miterlimit="10" stroke-linecap="round" stroke-linejoin="round"/>
<path d="M19.0646 31.4063L16.4634 47.1406" stroke="#FF9900" stroke-width="2.5" stroke-miterlimit="10" stroke-linecap="round" stroke-linejoin="round"/>
<path d="M52.9686 61.2501V55.4971C52.9686 53.1515 51.0611 51.2498 48.7081 51.2498H33.4844C31.1315 51.2498 29.2241 53.1515 29.2241 55.4971V70.6744C29.2241 73.0202 31.1315 74.9217 33.4844 74.9217H41.8477V78.8281L46.9072 74.9217H48.7081C51.0611 74.9217 52.9686 73.0202 52.9686 70.6744V68.5938" stroke="#FF9900" stroke-width="2.5" stroke-miterlimit="10" stroke-linecap="round" stroke-linejoin="round"/>
<path d="M41.0963 68.2427C44.7597 66.3007 46.6577 64.6482 46.6577 62.0882C46.6577 58.5571 42.3322 57.6743 41.0963 60.3227C39.6838 57.586 35.5349 58.5571 35.5349 62.0882C35.5349 64.6482 37.4329 66.3007 41.0963 68.2427Z" stroke="#FF9900" stroke-width="2.5" stroke-miterlimit="10" stroke-linecap="round" stroke-linejoin="round"/>
</g>
</svg>
