<svg width="80" height="81" viewBox="0 0 80 81" fill="none" xmlns="http://www.w3.org/2000/svg">
<g clip-path="url(#clip0_468_294)">
<path d="M18.9049 26.9337C15.4588 26.9337 12.6548 29.7376 12.6548 33.1837C12.6548 36.6298 15.4588 39.4338 18.9049 39.4338C22.3516 39.4338 25.1549 36.6298 25.1549 33.1837C25.1549 29.7376 22.3516 26.9337 18.9049 26.9337ZM18.9049 36.3087C17.1819 36.3087 15.7798 34.9067 15.7798 33.1837C15.7798 31.4607 17.1819 30.0587 18.9049 30.0587C20.6285 30.0587 22.0299 31.4607 22.0299 33.1837C22.0299 34.9067 20.6285 36.3087 18.9049 36.3087ZM42.3426 25.3711C42.3426 21.925 39.5393 19.1211 36.0925 19.1211C32.6464 19.1211 29.8425 21.925 29.8425 25.3711C29.8425 28.8173 32.6464 31.6212 36.0925 31.6212C39.5393 31.6212 42.3426 28.8173 42.3426 25.3711ZM32.9675 25.3711C32.9675 23.6482 34.3695 22.2461 36.0925 22.2461C37.8161 22.2461 39.2175 23.6482 39.2175 25.3711C39.2175 27.0941 37.8161 28.4962 36.0925 28.4962C34.3695 28.4962 32.9675 27.0941 32.9675 25.3711ZM7.96729 51.9338C7.96729 55.38 10.7712 58.1839 14.2173 58.1839C17.6641 58.1839 20.4674 55.38 20.4674 51.9338C20.4674 48.4877 17.6641 45.6838 14.2173 45.6838C10.7712 45.6838 7.96729 48.4877 7.96729 51.9338ZM14.2173 48.8088C15.9409 48.8088 17.3424 50.2109 17.3424 51.9338C17.3424 53.6568 15.9409 55.0589 14.2173 55.0589C12.4944 55.0589 11.0923 53.6568 11.0923 51.9338C11.0923 50.2109 12.4944 48.8088 14.2173 48.8088ZM22.0299 64.4339C22.0299 67.8801 24.8338 70.684 28.2799 70.684C31.7267 70.684 34.53 67.8801 34.53 64.4339C34.53 60.9878 31.7267 58.1839 28.2799 58.1839C24.8338 58.1839 22.0299 60.9878 22.0299 64.4339ZM31.405 64.4339C31.405 66.1569 30.0036 67.559 28.2799 67.559C26.557 67.559 25.1549 66.1569 25.1549 64.4339C25.1549 62.711 26.557 61.3089 28.2799 61.3089C30.0036 61.3089 31.405 62.711 31.405 64.4339Z" fill="#D75AF7"/>
<path d="M64.2637 15.8559C64.2637 12.1383 58.8545 3.42897 57.7699 1.7213C57.6288 1.49924 57.434 1.31638 57.2034 1.18969C56.9728 1.06301 56.714 0.996582 56.4509 0.996582C56.1879 0.996582 55.929 1.06301 55.6985 1.18969C55.4679 1.31638 55.2731 1.49924 55.132 1.7213C54.184 3.2135 49.9367 10.0495 48.8776 14.2317C39.057 10.1973 28.8207 10.3071 19.8321 14.5911C10.8945 18.851 3.68692 27.1371 1.13315 37.5694C0.927369 38.408 1.44081 39.2533 2.27879 39.4585C2.40379 39.4889 2.52894 39.5035 2.65176 39.5035C3.35489 39.5035 3.99396 39.0257 4.16849 38.3121C6.38819 29.2434 12.747 21.4296 21.1766 17.4119C29.7001 13.35 39.4939 13.4298 48.8398 17.6169C49.3299 19.7378 50.6929 21.5591 52.5679 22.6346C51.6481 25.9824 50.9315 31.0637 50.5243 37.1892C50.359 39.6758 50.2473 42.3155 50.1923 45.0487C44.2591 48.4534 40.3516 54.9316 40.8411 62.6691C41.0266 65.5927 41.3068 70.011 36.7036 74.0236C33.4154 76.8905 28.576 77.6783 24.0746 76.0805C12.9014 72.115 4.81849 61.9532 3.48114 50.1917C3.38426 49.334 2.60832 48.7189 1.75269 48.8153C0.895025 48.9129 0.279239 49.6868 0.376271 50.5443C1.8766 63.7433 10.856 74.7047 23.0296 79.0255C28.5949 81.0011 34.6209 79.9849 38.7574 76.3789C44.5227 71.3526 44.1565 65.5751 43.9594 62.4708C43.5951 56.7047 46.1079 51.8267 50.1551 48.8024V48.8087C50.1551 56.2091 50.7221 70.7118 53.1075 77.4739C53.4467 78.437 54.3495 80.9963 56.4052 80.9963C58.4614 80.9963 59.3642 78.437 59.7036 77.4739C62.0741 70.7539 62.6552 56.3581 62.6552 48.8085C62.6552 47.7362 62.646 46.6809 62.6283 45.6512C63.1105 45.6445 63.5994 45.6438 64.0944 45.6518C67.0535 45.6951 69.7413 43.8946 70.7895 41.1669C73.6612 33.6864 68.3235 26.2351 62.0277 21.3266C63.461 19.8665 64.2639 17.902 64.2637 15.8559ZM56.4511 5.5543C58.705 9.37026 61.1386 14.1365 61.1386 15.8559C61.1386 18.5689 58.8844 20.6032 56.3527 20.5466C53.8344 20.4897 51.7636 18.4346 51.7636 15.8559C51.7636 14.1365 54.1964 9.37026 56.4511 5.5543ZM56.4511 23.6685C56.7269 23.6685 57.0014 23.6526 57.273 23.6238C58.0386 26.4852 58.672 30.8462 59.0669 35.9989C57.2995 36.2245 55.5104 36.2206 53.744 35.9872C54.1389 30.8353 54.7737 26.4762 55.5403 23.6147C55.8412 23.6501 56.1452 23.6685 56.4509 23.6685H56.4511ZM56.4052 77.2955C53.8808 71.8958 53.2801 55.6322 53.2801 48.809C53.2801 47.9362 53.3003 46.0141 53.3009 46.0093C53.3368 43.6296 53.4175 41.3186 53.5389 39.1128C54.5049 39.2328 55.4775 39.2929 56.4509 39.293C57.3958 39.293 58.34 39.2361 59.2733 39.1233C59.3656 40.8237 59.4323 42.5253 59.4733 44.2277C59.5113 45.6938 59.5302 47.2349 59.5302 48.809C59.5302 55.8452 58.8949 71.9712 56.4052 77.2955ZM67.872 40.0468C67.2921 41.5555 65.7918 42.5554 64.1433 42.5279C63.6123 42.5194 63.0812 42.5192 62.5502 42.5272C62.4899 40.7157 62.4019 38.9322 62.2877 37.2074C62.2872 37.197 62.2854 37.1866 62.2841 37.1761C61.9368 31.9473 61.3632 27.4801 60.6313 24.2049C66.9552 29.3234 69.714 35.2487 67.872 40.0468Z" fill="#D75AF7"/>
<path d="M3.27979 44.1216C3.27979 44.9846 2.58041 45.6841 1.71729 45.6841C0.854785 45.6841 0.154785 44.9846 0.154785 44.1216C0.154785 43.2586 0.854785 42.5591 1.71729 42.5591C2.58041 42.5591 3.27979 43.2586 3.27979 44.1216Z" fill="#D75AF7"/>
</g>
<defs>
<clipPath id="clip0_468_294">
<rect width="80" height="80" fill="white" transform="translate(-0.000488281 0.996094)"/>
</clipPath>
</defs>
</svg>
