<svg width="80" height="80" viewBox="0 0 80 80" fill="none" xmlns="http://www.w3.org/2000/svg">
<g clip-path="url(#clip0_468_276)">
<mask id="mask0_468_276" style="mask-type:luminance" maskUnits="userSpaceOnUse" x="-1" y="0" width="81" height="80">
<path d="M-0.000488281 0.000236511H79.9993V80H-0.000488281V0.000236511Z" fill="white"/>
</mask>
<g mask="url(#mask0_468_276)">
<path d="M20.7808 57.8115L27.4689 40.2511C27.6056 39.9169 28.0786 39.9164 28.2159 40.2503L34.8432 57.8115" stroke="#5ED500" stroke-width="2.5" stroke-miterlimit="10" stroke-linecap="round" stroke-linejoin="round"/>
<path d="M22.8667 53.438H32.7912" stroke="#5ED500" stroke-width="2.5" stroke-miterlimit="10" stroke-linecap="round" stroke-linejoin="round"/>
<path d="M41.7183 15.2344H62.6557" stroke="#5ED500" stroke-width="2.5" stroke-miterlimit="10" stroke-linecap="round" stroke-linejoin="round"/>
<path d="M55.9568 15.2344V16.7477C55.9568 24.6321 50.0881 31.2836 42.2651 32.2656" stroke="#5ED500" stroke-width="2.5" stroke-miterlimit="10" stroke-linecap="round" stroke-linejoin="round"/>
<path d="M48.417 15.2344V16.7477C48.417 24.6321 54.2857 31.2836 62.1087 32.2656" stroke="#5ED500" stroke-width="2.5" stroke-miterlimit="10" stroke-linecap="round" stroke-linejoin="round"/>
<path d="M52.187 15.2344V9.60939" stroke="#5ED500" stroke-width="2.5" stroke-miterlimit="10" stroke-linecap="round" stroke-linejoin="round"/>
<path d="M45.1557 1.56264H32.6617C28.9478 1.56264 25.937 4.57342 25.937 8.28747V33.5877C25.937 37.3018 28.9478 40.3125 32.6617 40.3125H59.9994L71.712 50.3125V40.3125C75.4261 40.3125 78.4369 37.3018 78.4369 33.5877V8.28747C78.4369 4.57342 75.4261 1.56264 71.712 1.56264H59.2182" stroke="#5ED500" stroke-width="2.5" stroke-miterlimit="10" stroke-linecap="round" stroke-linejoin="round"/>
<path d="M54.0619 40.3126V61.7127C54.0619 65.4268 51.0511 68.4375 47.337 68.4375H19.9995L8.28684 78.4375V68.4375C4.57278 68.4375 1.56201 65.4268 1.56201 61.7127V36.4125C1.56201 32.6984 4.57278 29.6876 8.28684 29.6876H25.9369" stroke="#5ED500" stroke-width="2.5" stroke-miterlimit="10" stroke-linecap="round" stroke-linejoin="round"/>
</g>
</g>
<defs>
<clipPath id="clip0_468_276">
<rect width="80" height="80" fill="white" transform="translate(-0.000488281)"/>
</clipPath>
</defs>
</svg>
