<svg width="100" height="100" viewBox="0 0 100 100" fill="none" xmlns="http://www.w3.org/2000/svg">
<g clip-path="url(#clip0_468_1605)">
<path d="M77.7776 100H22.2222C16.2868 100 10.7063 97.6885 6.50885 93.491C2.31155 89.294 0 83.7134 0 77.7776V72.2219C0 69.1535 2.48718 66.6661 5.55559 66.6661C8.624 66.6661 11.1112 69.1535 11.1112 72.2219V77.7776C11.1112 80.7455 12.267 83.5356 14.3653 85.6341C16.4642 87.7328 19.2543 88.8888 22.2222 88.8888H77.7776C80.7453 88.8888 83.5355 87.7328 85.6341 85.6341C87.7328 83.5353 88.8888 80.7451 88.8888 77.7776V72.2219C88.8888 69.1535 91.376 66.6661 94.4442 66.6661C97.5124 66.6661 100 69.1535 100 72.2219V77.7776C100 83.713 97.6885 89.2933 93.491 93.491C89.2935 97.6885 83.713 100 77.7776 100ZM49.9999 77.7775C48.5492 77.7794 47.1557 77.212 46.1189 76.1973L46.1185 76.197L46.1075 76.1861L46.1044 76.183C46.1013 76.1803 46.0985 76.1774 46.0956 76.1744L46.09 76.1688C46.088 76.1668 46.0859 76.1648 46.0838 76.1628L46.0718 76.1508L23.8494 53.9282C21.6799 51.7587 21.6799 48.2411 23.8494 46.0714C26.0189 43.9019 29.5368 43.9017 31.7063 46.0714L44.4445 58.8096V5.55559C44.4443 2.48718 46.9315 0 49.9999 0C53.0683 0 55.5557 2.48718 55.5557 5.55559V58.8094L68.2937 46.0714C70.463 43.9019 73.9813 43.9019 76.1506 46.0714C78.3201 48.2409 78.3201 51.7587 76.1506 53.9282L53.9282 76.1504L53.9162 76.1624L53.91 76.1684L53.9044 76.1741C53.9016 76.1772 53.8985 76.1799 53.8958 76.1826L53.8925 76.1857C53.889 76.1894 53.8854 76.193 53.8817 76.1966L53.8813 76.197C53.8201 76.2565 53.7582 76.3144 53.695 76.3707C53.2415 76.7759 52.7241 77.1035 52.1638 77.34L52.1583 77.3424C52.1562 77.3431 52.1544 77.3443 52.1523 77.3449C51.471 77.6314 50.7391 77.7785 49.9999 77.7775Z" fill="#00CAE5"/>
</g>
<defs>
<clipPath id="clip0_468_1605">
<rect width="100" height="100" fill="white"/>
</clipPath>
</defs>
</svg>
