<svg width="82" height="81" viewBox="0 0 82 81" fill="none" xmlns="http://www.w3.org/2000/svg">
<g clip-path="url(#clip0_468_214)">
<mask id="path-1-outside-1_468_214" maskUnits="userSpaceOnUse" x="3.37549" y="-0.845215" width="75" height="82" fill="black">
<rect fill="white" x="3.37549" y="-0.845215" width="75" height="82"/>
<path d="M77.267 52.4558L76.4857 50.8776C75.6575 49.2056 74.8137 47.4712 73.9387 45.7836C73.1105 44.221 73.048 42.8616 73.7512 41.6115C76.47 36.7206 74.8918 29.4078 71.9073 24.7357C68.2353 18.8448 62.2818 14.8133 55.5315 13.3445V11.1725C55.5315 10.7038 55.1409 10.3131 54.6721 10.3131H49.6875C49.2187 10.3131 48.8281 10.7038 48.8281 11.1725C48.8281 12.9226 47.4061 14.3602 45.6404 14.3602C43.8903 14.3602 42.4684 12.9382 42.4684 11.1725C42.4684 10.7038 42.0777 10.3131 41.609 10.3131H36.6243C36.1556 10.3131 35.7649 10.7038 35.7649 11.1725V14.9696C30.4365 15.954 30.4365 23.6419 35.7649 24.6263V28.3609H32.421C31.4366 23.0325 23.7643 23.0325 22.7799 28.3609H18.5766C18.1078 28.3609 17.7172 28.7515 17.7172 29.2203V33.4236C12.3732 34.408 12.3732 42.0959 17.7172 43.0647V47.268C17.7172 47.7368 18.1078 48.1275 18.5766 48.1275H20.9361C24.6081 54.3309 30.2959 60.5499 27.9677 68.1753L22.7487 78.5977C22.4518 79.1446 22.8893 79.8634 23.5143 79.8478H52.9376C53.3127 79.8478 53.6564 79.5977 53.7658 79.2227L54.5471 76.5663C55.8909 72.9724 58.6723 73.5037 61.9224 73.8162C66.5946 74.4569 72.6886 74.2225 71.2354 67.6909C70.8604 66.3002 72.5011 65.1595 72.6261 63.6438C72.7511 63.0813 72.4698 62.5032 72.5636 62.0656C72.673 61.8781 73.173 61.675 73.3761 61.3937C74.4856 60.2687 73.798 58.2217 73.9074 56.831C73.923 56.831 74.0012 56.7685 74.2668 56.7373C76.2356 56.6904 78.517 54.784 77.267 52.4558ZM33.4523 19.7979C33.4523 18.0479 34.8743 16.6259 36.6243 16.6259C37.0931 16.6259 37.4838 16.2353 37.4838 15.7665V12.0319H40.8277C41.8121 17.376 49.5 17.3603 50.4844 12.0319H53.8127V15.7509C53.8439 16.6572 54.6565 16.5947 55.3128 16.6728C59.0004 17.4853 58.4692 22.9075 54.6721 22.97C54.2033 22.97 53.8127 23.3606 53.8127 23.8294V28.3609H50.4688C49.4843 23.0325 41.7965 23.0325 40.812 28.3609H37.4681V23.8294C37.4681 23.3606 37.0775 22.97 36.6087 22.97C34.8743 22.9856 33.4523 21.548 33.4523 19.7979ZM36.6243 35.0643C37.0931 35.0643 37.4838 34.6737 37.4838 34.2049V30.0797H41.609C42.0777 30.0797 42.4684 29.6891 42.4684 29.2203C42.5778 25.0326 48.7187 25.0326 48.8281 29.2203C48.8281 29.6891 49.2187 30.0797 49.6875 30.0797H53.8127V33.4236C48.4687 34.408 48.4687 42.0959 53.8127 43.0647V46.4086H50.4688C49.4843 41.0802 41.7965 41.0802 40.812 46.4086H37.4681V42.2834C37.4681 41.8146 37.0775 41.424 36.6087 41.424C32.4366 41.3146 32.4366 35.1737 36.6243 35.0643ZM23.5612 46.4086H19.436V42.2834C19.436 41.8146 19.0454 41.424 18.5766 41.424C14.3733 41.3146 14.3733 35.1737 18.5766 35.0643C19.0454 35.0643 19.436 34.6737 19.436 34.2049V30.0797H23.5612C24.03 30.0797 24.4206 29.6891 24.4206 29.2203C24.53 25.0326 30.6709 25.0326 30.7803 29.2203C30.7803 29.6891 31.1709 30.0797 31.6397 30.0797H35.7649V33.4236C30.4365 34.408 30.4365 42.0803 35.7649 43.0647V46.4086H31.6397C31.1553 46.4086 30.7803 46.7993 30.7803 47.268C30.6709 51.4714 24.5456 51.4714 24.4362 47.268C24.4206 46.7993 24.0456 46.4086 23.5612 46.4086ZM75.7981 54.1434C75.5169 54.6747 75.0481 54.909 74.0637 55.034C70.9385 55.4559 72.8292 58.4717 72.1417 60.2062C71.7354 60.5499 71.2823 60.6906 70.9698 61.4094C70.6572 62.1594 70.9385 62.7688 70.9229 63.3938C70.5322 65.0345 68.9697 66.019 69.5634 68.1597C70.8291 73.0506 65.3445 72.4411 62.0787 72.0974C56.3753 71.3473 53.6877 72.2068 52.2814 78.1133H24.9363L29.5771 68.8316C31.6866 62.5032 28.4521 56.3466 25.1238 51.4714C27.9677 53.2371 31.9522 51.362 32.4366 48.1118H41.6246C42.0934 48.1118 42.484 47.7212 42.484 47.2524C42.4527 44.1429 46.6248 42.9241 48.2968 45.4711C48.6406 45.9711 48.8437 46.5805 48.8437 47.2368C48.8437 47.7056 49.2187 48.0962 49.7031 48.0962H54.6877C55.1565 48.0962 55.5471 47.7056 55.5471 47.2368V42.2522C55.5159 41.3615 54.6877 41.4084 54.0471 41.3302C50.3438 40.5177 50.875 35.0956 54.6877 35.0487C55.1565 35.0487 55.5471 34.658 55.5471 34.1893V24.6107C60.0317 23.8294 61.063 17.7041 57.0316 15.4852C62.5944 17.1416 67.3446 20.6886 70.4541 25.642C73.0949 29.7984 74.6262 36.5175 72.2511 40.7677C70.0791 44.2835 73.5793 48.315 74.9543 51.6276L75.7356 53.2058C75.97 53.7059 75.9075 53.9559 75.7981 54.1434ZM17.0765 23.3294C16.2483 19.251 22.2018 17.8135 23.2643 21.8918C23.3737 22.3606 23.8425 22.6418 24.2956 22.5325L29.1552 21.4074C29.6084 21.3136 29.9053 20.8292 29.7959 20.3761L28.5771 15.1258C28.4677 14.6571 27.9989 14.3758 27.5458 14.4852C23.4362 15.3134 22.0455 9.35994 26.1082 8.28176C26.5613 8.188 26.8582 7.70361 26.7489 7.25046L25.7176 2.78149C25.6082 2.31272 25.1394 2.03145 24.6863 2.14083L20.5923 3.094C18.436 -1.87499 10.9512 -0.140528 11.2012 5.28161L7.10727 6.23478C6.6385 6.34416 6.35724 6.79731 6.46662 7.26608L7.32603 10.9694C2.34141 13.1414 4.07587 20.6105 9.51364 20.3761L10.5606 24.8607C10.6543 25.3138 11.1387 25.6107 11.5919 25.5013L16.4515 24.3763C16.9046 24.2513 17.1859 23.7825 17.0765 23.3294ZM12.0294 23.6106L10.9981 19.2042C10.8887 18.7354 10.4199 18.4541 9.96679 18.5635C8.26358 18.9542 6.54474 17.8916 6.13847 16.1884C5.74783 14.4852 6.81038 12.7664 8.52922 12.3757C8.99799 12.2663 9.27925 11.8132 9.16987 11.3444L8.34171 7.70361L12.3575 6.76606C12.8263 6.65668 13.1076 6.20353 12.9982 5.73476C12.1544 1.62518 18.1234 0.250116 19.186 4.29719C19.2954 4.76596 19.7641 5.04723 20.2173 4.93785L24.2331 4.0003L24.905 6.87544C19.936 9.0318 21.6861 16.5322 27.0926 16.2821L27.9364 19.923L24.6863 20.673C22.5143 15.6884 15.0295 17.4697 15.2952 22.8606L12.0294 23.6106Z"/>
</mask>
<path d="M77.267 52.4558L76.4857 50.8776C75.6575 49.2056 74.8137 47.4712 73.9387 45.7836C73.1105 44.221 73.048 42.8616 73.7512 41.6115C76.47 36.7206 74.8918 29.4078 71.9073 24.7357C68.2353 18.8448 62.2818 14.8133 55.5315 13.3445V11.1725C55.5315 10.7038 55.1409 10.3131 54.6721 10.3131H49.6875C49.2187 10.3131 48.8281 10.7038 48.8281 11.1725C48.8281 12.9226 47.4061 14.3602 45.6404 14.3602C43.8903 14.3602 42.4684 12.9382 42.4684 11.1725C42.4684 10.7038 42.0777 10.3131 41.609 10.3131H36.6243C36.1556 10.3131 35.7649 10.7038 35.7649 11.1725V14.9696C30.4365 15.954 30.4365 23.6419 35.7649 24.6263V28.3609H32.421C31.4366 23.0325 23.7643 23.0325 22.7799 28.3609H18.5766C18.1078 28.3609 17.7172 28.7515 17.7172 29.2203V33.4236C12.3732 34.408 12.3732 42.0959 17.7172 43.0647V47.268C17.7172 47.7368 18.1078 48.1275 18.5766 48.1275H20.9361C24.6081 54.3309 30.2959 60.5499 27.9677 68.1753L22.7487 78.5977C22.4518 79.1446 22.8893 79.8634 23.5143 79.8478H52.9376C53.3127 79.8478 53.6564 79.5977 53.7658 79.2227L54.5471 76.5663C55.8909 72.9724 58.6723 73.5037 61.9224 73.8162C66.5946 74.4569 72.6886 74.2225 71.2354 67.6909C70.8604 66.3002 72.5011 65.1595 72.6261 63.6438C72.7511 63.0813 72.4698 62.5032 72.5636 62.0656C72.673 61.8781 73.173 61.675 73.3761 61.3937C74.4856 60.2687 73.798 58.2217 73.9074 56.831C73.923 56.831 74.0012 56.7685 74.2668 56.7373C76.2356 56.6904 78.517 54.784 77.267 52.4558ZM33.4523 19.7979C33.4523 18.0479 34.8743 16.6259 36.6243 16.6259C37.0931 16.6259 37.4838 16.2353 37.4838 15.7665V12.0319H40.8277C41.8121 17.376 49.5 17.3603 50.4844 12.0319H53.8127V15.7509C53.8439 16.6572 54.6565 16.5947 55.3128 16.6728C59.0004 17.4853 58.4692 22.9075 54.6721 22.97C54.2033 22.97 53.8127 23.3606 53.8127 23.8294V28.3609H50.4688C49.4843 23.0325 41.7965 23.0325 40.812 28.3609H37.4681V23.8294C37.4681 23.3606 37.0775 22.97 36.6087 22.97C34.8743 22.9856 33.4523 21.548 33.4523 19.7979ZM36.6243 35.0643C37.0931 35.0643 37.4838 34.6737 37.4838 34.2049V30.0797H41.609C42.0777 30.0797 42.4684 29.6891 42.4684 29.2203C42.5778 25.0326 48.7187 25.0326 48.8281 29.2203C48.8281 29.6891 49.2187 30.0797 49.6875 30.0797H53.8127V33.4236C48.4687 34.408 48.4687 42.0959 53.8127 43.0647V46.4086H50.4688C49.4843 41.0802 41.7965 41.0802 40.812 46.4086H37.4681V42.2834C37.4681 41.8146 37.0775 41.424 36.6087 41.424C32.4366 41.3146 32.4366 35.1737 36.6243 35.0643ZM23.5612 46.4086H19.436V42.2834C19.436 41.8146 19.0454 41.424 18.5766 41.424C14.3733 41.3146 14.3733 35.1737 18.5766 35.0643C19.0454 35.0643 19.436 34.6737 19.436 34.2049V30.0797H23.5612C24.03 30.0797 24.4206 29.6891 24.4206 29.2203C24.53 25.0326 30.6709 25.0326 30.7803 29.2203C30.7803 29.6891 31.1709 30.0797 31.6397 30.0797H35.7649V33.4236C30.4365 34.408 30.4365 42.0803 35.7649 43.0647V46.4086H31.6397C31.1553 46.4086 30.7803 46.7993 30.7803 47.268C30.6709 51.4714 24.5456 51.4714 24.4362 47.268C24.4206 46.7993 24.0456 46.4086 23.5612 46.4086ZM75.7981 54.1434C75.5169 54.6747 75.0481 54.909 74.0637 55.034C70.9385 55.4559 72.8292 58.4717 72.1417 60.2062C71.7354 60.5499 71.2823 60.6906 70.9698 61.4094C70.6572 62.1594 70.9385 62.7688 70.9229 63.3938C70.5322 65.0345 68.9697 66.019 69.5634 68.1597C70.8291 73.0506 65.3445 72.4411 62.0787 72.0974C56.3753 71.3473 53.6877 72.2068 52.2814 78.1133H24.9363L29.5771 68.8316C31.6866 62.5032 28.4521 56.3466 25.1238 51.4714C27.9677 53.2371 31.9522 51.362 32.4366 48.1118H41.6246C42.0934 48.1118 42.484 47.7212 42.484 47.2524C42.4527 44.1429 46.6248 42.9241 48.2968 45.4711C48.6406 45.9711 48.8437 46.5805 48.8437 47.2368C48.8437 47.7056 49.2187 48.0962 49.7031 48.0962H54.6877C55.1565 48.0962 55.5471 47.7056 55.5471 47.2368V42.2522C55.5159 41.3615 54.6877 41.4084 54.0471 41.3302C50.3438 40.5177 50.875 35.0956 54.6877 35.0487C55.1565 35.0487 55.5471 34.658 55.5471 34.1893V24.6107C60.0317 23.8294 61.063 17.7041 57.0316 15.4852C62.5944 17.1416 67.3446 20.6886 70.4541 25.642C73.0949 29.7984 74.6262 36.5175 72.2511 40.7677C70.0791 44.2835 73.5793 48.315 74.9543 51.6276L75.7356 53.2058C75.97 53.7059 75.9075 53.9559 75.7981 54.1434ZM17.0765 23.3294C16.2483 19.251 22.2018 17.8135 23.2643 21.8918C23.3737 22.3606 23.8425 22.6418 24.2956 22.5325L29.1552 21.4074C29.6084 21.3136 29.9053 20.8292 29.7959 20.3761L28.5771 15.1258C28.4677 14.6571 27.9989 14.3758 27.5458 14.4852C23.4362 15.3134 22.0455 9.35994 26.1082 8.28176C26.5613 8.188 26.8582 7.70361 26.7489 7.25046L25.7176 2.78149C25.6082 2.31272 25.1394 2.03145 24.6863 2.14083L20.5923 3.094C18.436 -1.87499 10.9512 -0.140528 11.2012 5.28161L7.10727 6.23478C6.6385 6.34416 6.35724 6.79731 6.46662 7.26608L7.32603 10.9694C2.34141 13.1414 4.07587 20.6105 9.51364 20.3761L10.5606 24.8607C10.6543 25.3138 11.1387 25.6107 11.5919 25.5013L16.4515 24.3763C16.9046 24.2513 17.1859 23.7825 17.0765 23.3294ZM12.0294 23.6106L10.9981 19.2042C10.8887 18.7354 10.4199 18.4541 9.96679 18.5635C8.26358 18.9542 6.54474 17.8916 6.13847 16.1884C5.74783 14.4852 6.81038 12.7664 8.52922 12.3757C8.99799 12.2663 9.27925 11.8132 9.16987 11.3444L8.34171 7.70361L12.3575 6.76606C12.8263 6.65668 13.1076 6.20353 12.9982 5.73476C12.1544 1.62518 18.1234 0.250116 19.186 4.29719C19.2954 4.76596 19.7641 5.04723 20.2173 4.93785L24.2331 4.0003L24.905 6.87544C19.936 9.0318 21.6861 16.5322 27.0926 16.2821L27.9364 19.923L24.6863 20.673C22.5143 15.6884 15.0295 17.4697 15.2952 22.8606L12.0294 23.6106Z" fill="#67C8FF"/>
<path d="M77.267 52.4558L76.4857 50.8776C75.6575 49.2056 74.8137 47.4712 73.9387 45.7836C73.1105 44.221 73.048 42.8616 73.7512 41.6115C76.47 36.7206 74.8918 29.4078 71.9073 24.7357C68.2353 18.8448 62.2818 14.8133 55.5315 13.3445V11.1725C55.5315 10.7038 55.1409 10.3131 54.6721 10.3131H49.6875C49.2187 10.3131 48.8281 10.7038 48.8281 11.1725C48.8281 12.9226 47.4061 14.3602 45.6404 14.3602C43.8903 14.3602 42.4684 12.9382 42.4684 11.1725C42.4684 10.7038 42.0777 10.3131 41.609 10.3131H36.6243C36.1556 10.3131 35.7649 10.7038 35.7649 11.1725V14.9696C30.4365 15.954 30.4365 23.6419 35.7649 24.6263V28.3609H32.421C31.4366 23.0325 23.7643 23.0325 22.7799 28.3609H18.5766C18.1078 28.3609 17.7172 28.7515 17.7172 29.2203V33.4236C12.3732 34.408 12.3732 42.0959 17.7172 43.0647V47.268C17.7172 47.7368 18.1078 48.1275 18.5766 48.1275H20.9361C24.6081 54.3309 30.2959 60.5499 27.9677 68.1753L22.7487 78.5977C22.4518 79.1446 22.8893 79.8634 23.5143 79.8478H52.9376C53.3127 79.8478 53.6564 79.5977 53.7658 79.2227L54.5471 76.5663C55.8909 72.9724 58.6723 73.5037 61.9224 73.8162C66.5946 74.4569 72.6886 74.2225 71.2354 67.6909C70.8604 66.3002 72.5011 65.1595 72.6261 63.6438C72.7511 63.0813 72.4698 62.5032 72.5636 62.0656C72.673 61.8781 73.173 61.675 73.3761 61.3937C74.4856 60.2687 73.798 58.2217 73.9074 56.831C73.923 56.831 74.0012 56.7685 74.2668 56.7373C76.2356 56.6904 78.517 54.784 77.267 52.4558ZM33.4523 19.7979C33.4523 18.0479 34.8743 16.6259 36.6243 16.6259C37.0931 16.6259 37.4838 16.2353 37.4838 15.7665V12.0319H40.8277C41.8121 17.376 49.5 17.3603 50.4844 12.0319H53.8127V15.7509C53.8439 16.6572 54.6565 16.5947 55.3128 16.6728C59.0004 17.4853 58.4692 22.9075 54.6721 22.97C54.2033 22.97 53.8127 23.3606 53.8127 23.8294V28.3609H50.4688C49.4843 23.0325 41.7965 23.0325 40.812 28.3609H37.4681V23.8294C37.4681 23.3606 37.0775 22.97 36.6087 22.97C34.8743 22.9856 33.4523 21.548 33.4523 19.7979ZM36.6243 35.0643C37.0931 35.0643 37.4838 34.6737 37.4838 34.2049V30.0797H41.609C42.0777 30.0797 42.4684 29.6891 42.4684 29.2203C42.5778 25.0326 48.7187 25.0326 48.8281 29.2203C48.8281 29.6891 49.2187 30.0797 49.6875 30.0797H53.8127V33.4236C48.4687 34.408 48.4687 42.0959 53.8127 43.0647V46.4086H50.4688C49.4843 41.0802 41.7965 41.0802 40.812 46.4086H37.4681V42.2834C37.4681 41.8146 37.0775 41.424 36.6087 41.424C32.4366 41.3146 32.4366 35.1737 36.6243 35.0643ZM23.5612 46.4086H19.436V42.2834C19.436 41.8146 19.0454 41.424 18.5766 41.424C14.3733 41.3146 14.3733 35.1737 18.5766 35.0643C19.0454 35.0643 19.436 34.6737 19.436 34.2049V30.0797H23.5612C24.03 30.0797 24.4206 29.6891 24.4206 29.2203C24.53 25.0326 30.6709 25.0326 30.7803 29.2203C30.7803 29.6891 31.1709 30.0797 31.6397 30.0797H35.7649V33.4236C30.4365 34.408 30.4365 42.0803 35.7649 43.0647V46.4086H31.6397C31.1553 46.4086 30.7803 46.7993 30.7803 47.268C30.6709 51.4714 24.5456 51.4714 24.4362 47.268C24.4206 46.7993 24.0456 46.4086 23.5612 46.4086ZM75.7981 54.1434C75.5169 54.6747 75.0481 54.909 74.0637 55.034C70.9385 55.4559 72.8292 58.4717 72.1417 60.2062C71.7354 60.5499 71.2823 60.6906 70.9698 61.4094C70.6572 62.1594 70.9385 62.7688 70.9229 63.3938C70.5322 65.0345 68.9697 66.019 69.5634 68.1597C70.8291 73.0506 65.3445 72.4411 62.0787 72.0974C56.3753 71.3473 53.6877 72.2068 52.2814 78.1133H24.9363L29.5771 68.8316C31.6866 62.5032 28.4521 56.3466 25.1238 51.4714C27.9677 53.2371 31.9522 51.362 32.4366 48.1118H41.6246C42.0934 48.1118 42.484 47.7212 42.484 47.2524C42.4527 44.1429 46.6248 42.9241 48.2968 45.4711C48.6406 45.9711 48.8437 46.5805 48.8437 47.2368C48.8437 47.7056 49.2187 48.0962 49.7031 48.0962H54.6877C55.1565 48.0962 55.5471 47.7056 55.5471 47.2368V42.2522C55.5159 41.3615 54.6877 41.4084 54.0471 41.3302C50.3438 40.5177 50.875 35.0956 54.6877 35.0487C55.1565 35.0487 55.5471 34.658 55.5471 34.1893V24.6107C60.0317 23.8294 61.063 17.7041 57.0316 15.4852C62.5944 17.1416 67.3446 20.6886 70.4541 25.642C73.0949 29.7984 74.6262 36.5175 72.2511 40.7677C70.0791 44.2835 73.5793 48.315 74.9543 51.6276L75.7356 53.2058C75.97 53.7059 75.9075 53.9559 75.7981 54.1434ZM17.0765 23.3294C16.2483 19.251 22.2018 17.8135 23.2643 21.8918C23.3737 22.3606 23.8425 22.6418 24.2956 22.5325L29.1552 21.4074C29.6084 21.3136 29.9053 20.8292 29.7959 20.3761L28.5771 15.1258C28.4677 14.6571 27.9989 14.3758 27.5458 14.4852C23.4362 15.3134 22.0455 9.35994 26.1082 8.28176C26.5613 8.188 26.8582 7.70361 26.7489 7.25046L25.7176 2.78149C25.6082 2.31272 25.1394 2.03145 24.6863 2.14083L20.5923 3.094C18.436 -1.87499 10.9512 -0.140528 11.2012 5.28161L7.10727 6.23478C6.6385 6.34416 6.35724 6.79731 6.46662 7.26608L7.32603 10.9694C2.34141 13.1414 4.07587 20.6105 9.51364 20.3761L10.5606 24.8607C10.6543 25.3138 11.1387 25.6107 11.5919 25.5013L16.4515 24.3763C16.9046 24.2513 17.1859 23.7825 17.0765 23.3294ZM12.0294 23.6106L10.9981 19.2042C10.8887 18.7354 10.4199 18.4541 9.96679 18.5635C8.26358 18.9542 6.54474 17.8916 6.13847 16.1884C5.74783 14.4852 6.81038 12.7664 8.52922 12.3757C8.99799 12.2663 9.27925 11.8132 9.16987 11.3444L8.34171 7.70361L12.3575 6.76606C12.8263 6.65668 13.1076 6.20353 12.9982 5.73476C12.1544 1.62518 18.1234 0.250116 19.186 4.29719C19.2954 4.76596 19.7641 5.04723 20.2173 4.93785L24.2331 4.0003L24.905 6.87544C19.936 9.0318 21.6861 16.5322 27.0926 16.2821L27.9364 19.923L24.6863 20.673C22.5143 15.6884 15.0295 17.4697 15.2952 22.8606L12.0294 23.6106Z" stroke="#67C8FF" mask="url(#path-1-outside-1_468_214)"/>
</g>
<defs>
<clipPath id="clip0_468_214">
<rect width="80.0039" height="80.0039" fill="white" transform="translate(0.997559)"/>
</clipPath>
</defs>
</svg>
