<svg width="370" height="231" viewBox="0 0 370 231" fill="none" xmlns="http://www.w3.org/2000/svg">
<rect x="3.5" y="3.5" width="363" height="224" rx="16.5" fill="white"/>
<path d="M238.515 121.493C237.008 119.987 235.006 119.157 232.875 119.157H232.686C230.652 119.158 228.848 120.162 227.742 121.699L215.868 109.825L213.451 91.7018C212.386 83.7134 205.505 77.689 197.44 77.689C195.225 77.689 193.423 79.4911 193.423 81.7062V85.853C193.423 90.4973 189.645 94.2764 185 94.2764C180.355 94.2764 176.576 90.4976 176.576 85.853V81.7062C176.576 79.4909 174.774 77.689 172.553 77.689C164.494 77.689 157.613 83.7134 156.548 91.7018L154.132 109.825L142.261 121.696C142.067 121.427 141.852 121.175 141.617 120.941C140.467 119.79 138.938 119.157 137.31 119.157H137.309C132.808 119.158 129.146 122.821 129.146 127.322C129.146 131.742 132.678 135.35 137.067 135.48C135.96 137.032 135.365 138.892 135.367 140.799C135.367 145.873 139.495 150 144.568 150H225.432C230.505 150 234.633 145.873 234.633 140.799C234.633 138.818 234.001 136.983 232.932 135.48C237.321 135.352 240.853 131.729 240.853 127.291V127.135C240.853 125.004 240.023 123 238.515 121.493ZM201.799 114.166L202.47 108.469L203.089 111.569C203.644 114.355 205.013 116.913 207.023 118.919L219.702 131.598H205.179L202.136 119.429C201.705 117.71 201.591 115.926 201.799 114.166ZM172.559 81.5766C172.631 81.5766 172.689 81.6347 172.689 81.7062V85.853C172.689 92.6412 178.212 98.164 185 98.164C191.788 98.164 197.311 92.6412 197.311 85.853V81.7062C197.311 81.6888 197.315 81.6716 197.322 81.6556C197.329 81.6396 197.339 81.6251 197.351 81.6131C197.364 81.601 197.379 81.5916 197.395 81.5853C197.411 81.579 197.429 81.5761 197.446 81.5766C198.908 81.5766 200.319 81.8405 201.631 82.3212L197.938 113.712C197.674 115.939 197.819 118.196 198.364 120.371L201.171 131.598H168.829L171.635 120.371C172.181 118.196 172.325 115.939 172.062 113.712L168.369 82.3219C169.711 81.8291 171.13 81.5768 172.559 81.5766ZM167.531 108.469L168.201 114.166C168.409 115.926 168.295 117.71 167.864 119.429L164.821 131.598H150.297L162.976 118.919C164.987 116.913 166.356 114.355 166.91 111.569L167.531 108.469ZM137.311 131.598C134.953 131.598 133.035 129.68 133.035 127.322C133.035 124.964 134.952 123.046 137.311 123.045C137.899 123.045 138.453 123.274 138.869 123.69C139.074 123.894 139.237 124.137 139.347 124.405C139.458 124.672 139.515 124.959 139.514 125.248C139.514 125.633 139.628 126.009 139.842 126.328C140.055 126.648 140.359 126.897 140.714 127.044C141.069 127.191 141.46 127.23 141.837 127.155C142.214 127.08 142.561 126.895 142.832 126.623L157.346 112.109C157.648 111.807 157.842 111.414 157.899 110.991L160.402 92.2155C160.82 89.0841 162.416 86.3527 164.704 84.4404L166.062 95.9873L163.098 110.806C162.694 112.839 161.695 114.706 160.228 116.17L144.8 131.598H137.311V131.598ZM176.836 146.112H144.568C141.638 146.112 139.255 143.729 139.255 140.799C139.255 137.869 141.638 135.486 144.568 135.486H158.175V136.436C158.175 139.312 160.136 141.757 162.944 142.381L176.835 145.469V146.112H176.836ZM176.836 141.486L163.788 138.586C163.297 138.48 162.858 138.208 162.544 137.816C162.23 137.425 162.06 136.937 162.063 136.436V135.486H176.836V141.486ZM225.432 146.112H180.724V135.486H225.432C228.362 135.486 230.745 137.87 230.745 140.799C230.745 143.729 228.362 146.112 225.432 146.112ZM236.965 127.291C236.965 129.666 235.049 131.598 232.693 131.598H225.2L209.772 116.17C208.305 114.706 207.306 112.839 206.902 110.806L203.938 95.9871L205.296 84.4402C207.584 86.3524 209.18 89.0841 209.598 92.2158L212.101 110.991C212.157 111.414 212.352 111.807 212.653 112.109L227.168 126.623C227.439 126.895 227.786 127.08 228.163 127.154C228.54 127.229 228.931 127.191 229.286 127.044C229.641 126.897 229.944 126.648 230.158 126.328C230.372 126.009 230.486 125.633 230.486 125.249C230.486 124.034 231.474 123.046 232.689 123.045H232.875C233.968 123.045 234.995 123.471 235.767 124.243C236.148 124.622 236.45 125.073 236.656 125.569C236.862 126.066 236.967 126.598 236.966 127.136V127.291H236.965ZM192.937 40.083C193.088 39.4584 193.164 38.8167 193.164 38.164C193.164 33.6626 189.502 30 185 30C180.498 30 176.836 33.6626 176.836 38.1642C176.836 38.8174 176.914 39.4587 177.064 40.0826C170.806 43.061 166.468 49.4452 166.468 56.8252V58.7299C166.468 59.2434 166.672 59.7361 167.034 60.1003C167.396 60.4645 167.887 60.6707 168.401 60.6738C168.527 60.6736 169.327 60.6736 170.615 60.5904V63.0457C170.615 70.9774 177.068 77.4302 185 77.4302C192.931 77.4302 199.384 70.9774 199.384 63.0457V60.6258C200.088 60.7638 200.823 60.8428 201.587 60.8428C202.103 60.8428 202.597 60.638 202.962 60.2735C203.326 59.9089 203.531 59.4145 203.531 58.8989V56.8254C203.531 49.4456 199.194 43.0615 192.937 40.083ZM185 33.8876C187.358 33.8876 189.276 35.8059 189.276 38.164C189.276 38.3742 189.257 38.5809 189.227 38.7858C187.842 38.4596 186.423 38.2945 185 38.2936C183.546 38.2936 182.132 38.4673 180.773 38.7855C180.742 38.5798 180.725 38.3721 180.724 38.164C180.724 35.8062 182.642 33.8876 185 33.8876ZM195.497 63.0455C195.497 68.8334 190.788 73.5422 185 73.5422C179.212 73.5422 174.503 68.8334 174.503 63.0455V60.1941C178.871 59.5934 184.966 58.2398 190.719 55.1866C191.717 56.3377 193.35 57.9523 195.497 59.1621L195.497 63.0455ZM192.835 51.5955C192.558 51.1833 192.134 50.8924 191.65 50.7825C191.166 50.6727 190.659 50.7522 190.231 51.0047C182.814 55.3877 174.143 56.448 170.357 56.7042C170.422 48.6853 176.966 42.1814 185 42.1814C193.032 42.1814 199.574 48.6818 199.643 56.6981C195.604 55.6366 192.866 51.642 192.835 51.5955Z" fill="#00CAE5"/>
<path d="M155.975 177.2H159.839V188.144L167.855 177.2H171.503V194H167.663V183.08L159.647 194H155.975V177.2ZM163.727 176.12C160.655 176.12 159.103 174.896 159.071 172.448H161.735C161.767 173.616 162.431 174.2 163.727 174.2C164.367 174.2 164.855 174.056 165.191 173.768C165.527 173.464 165.703 173.024 165.719 172.448H168.383C168.367 173.648 167.975 174.56 167.207 175.184C166.439 175.808 165.279 176.12 163.727 176.12ZM181.446 194.192C180.086 194.192 178.862 193.912 177.774 193.352C176.702 192.776 175.862 191.984 175.254 190.976C174.646 189.968 174.342 188.824 174.342 187.544C174.342 186.264 174.646 185.12 175.254 184.112C175.862 183.104 176.702 182.32 177.774 181.76C178.862 181.184 180.086 180.896 181.446 180.896C182.806 180.896 184.022 181.184 185.094 181.76C186.166 182.32 187.006 183.104 187.614 184.112C188.222 185.12 188.526 186.264 188.526 187.544C188.526 188.824 188.222 189.968 187.614 190.976C187.006 191.984 186.166 192.776 185.094 193.352C184.022 193.912 182.806 194.192 181.446 194.192ZM181.446 191.12C182.406 191.12 183.19 190.8 183.798 190.16C184.422 189.504 184.734 188.632 184.734 187.544C184.734 186.456 184.422 185.592 183.798 184.952C183.19 184.296 182.406 183.968 181.446 183.968C180.486 183.968 179.694 184.296 179.07 184.952C178.446 185.592 178.134 186.456 178.134 187.544C178.134 188.632 178.446 189.504 179.07 190.16C179.694 190.8 180.486 191.12 181.446 191.12ZM201.445 184.16H194.821V194H191.101V181.088H201.445V184.16ZM208.445 180.896C210.445 180.896 211.981 181.376 213.053 182.336C214.125 183.28 214.661 184.712 214.661 186.632V194H211.157V192.392C210.453 193.592 209.141 194.192 207.221 194.192C206.229 194.192 205.365 194.024 204.629 193.688C203.909 193.352 203.357 192.888 202.973 192.296C202.589 191.704 202.397 191.032 202.397 190.28C202.397 189.08 202.845 188.136 203.741 187.448C204.653 186.76 206.053 186.416 207.941 186.416H210.917C210.917 185.6 210.669 184.976 210.173 184.544C209.677 184.096 208.933 183.872 207.941 183.872C207.253 183.872 206.573 183.984 205.901 184.208C205.245 184.416 204.685 184.704 204.221 185.072L202.877 182.456C203.581 181.96 204.421 181.576 205.397 181.304C206.389 181.032 207.405 180.896 208.445 180.896ZM208.157 191.672C208.797 191.672 209.365 191.528 209.861 191.24C210.357 190.936 210.709 190.496 210.917 189.92V188.6H208.349C206.813 188.6 206.045 189.104 206.045 190.112C206.045 190.592 206.229 190.976 206.597 191.264C206.981 191.536 207.501 191.672 208.157 191.672Z" fill="black"/>
<rect x="3.5" y="3.5" width="363" height="224" rx="16.5" stroke="#FFE600" stroke-width="7"/>
</svg>
