<svg width="370" height="231" viewBox="0 0 370 231" fill="none" xmlns="http://www.w3.org/2000/svg">
<rect x="3.5" y="3.5" width="363" height="224" rx="16.5" fill="white"/>
<path d="M240.084 56.2417H234.455V51.5642C234.455 47.8558 231.438 44.8389 227.73 44.8389H222.365C218.657 44.8389 215.64 47.8558 215.64 51.5642V70.8196H206.65V65.65C206.65 61.8981 203.598 58.846 199.846 58.846C198.428 58.8448 197.044 59.2901 195.893 60.1187C194.797 57.8281 192.456 56.2417 189.752 56.2417C187.195 56.2417 184.964 57.6592 183.801 59.7496C182.653 58.864 181.216 58.3345 179.657 58.3345C177.29 58.3345 175.204 59.5503 173.985 61.3889C172.794 60.3677 171.249 59.7489 169.562 59.7489C165.81 59.7489 162.758 62.801 162.758 66.5529V70.8201H154.36V65.8613C154.36 64.8909 153.574 64.1046 152.604 64.1046C151.634 64.1046 150.847 64.8909 150.847 65.8613V106.669C150.847 108.441 149.406 109.881 147.635 109.881H142.27C140.499 109.881 139.058 108.441 139.058 106.669V51.5642C139.058 49.793 140.499 48.3521 142.27 48.3521H147.635C149.406 48.3521 150.846 49.793 150.846 51.5642V58.3747C150.846 59.3451 151.633 60.1314 152.603 60.1314C153.573 60.1314 154.36 59.3451 154.36 58.3747V51.5642C154.36 47.8558 151.343 44.8389 147.635 44.8389H142.27C138.561 44.8389 135.545 47.8558 135.545 51.5642V56.2417H129.916C127.205 56.2417 125 58.4469 125 61.1572V97.0759C125 99.7865 127.205 101.992 129.916 101.992H135.545V106.669C135.545 110.377 138.562 113.394 142.27 113.394H147.635C151.343 113.394 154.36 110.377 154.36 106.669V87.4137H160.379V90.6213C160.381 92.2739 160.955 93.875 162.004 95.1522L167.459 101.785V133.406C167.459 134.376 168.245 135.162 169.216 135.162C170.186 135.162 170.972 134.376 170.972 133.406V101.155C170.972 100.748 170.831 100.354 170.572 100.039L164.717 92.9201C164.184 92.2722 163.893 91.4598 163.892 90.6213V87.4137L197.113 87.6168C198.083 87.6168 198.87 86.8305 198.87 85.8601C198.87 84.8898 198.083 84.1035 197.113 84.1035H189.121C187.472 84.1035 186.13 82.7619 186.13 81.1133C186.13 79.4644 187.472 78.1228 189.121 78.1228H204.225C205.262 78.1228 206.107 78.9669 206.107 80.0047V90.6211C206.107 91.4575 205.814 92.2742 205.283 92.9199L199.427 100.039C199.169 100.353 199.027 100.748 199.027 101.155V105.788C199.027 106.758 199.814 107.545 200.784 107.545C201.754 107.545 202.54 106.758 202.54 105.788V101.785L207.996 95.152C209.044 93.8747 209.618 92.2737 209.62 90.6211V87.4135H215.64V106.669C215.64 110.377 218.657 113.394 222.365 113.394H227.73C231.438 113.394 234.455 110.377 234.455 106.669V101.991H240.084C242.794 101.991 244.999 99.7862 244.999 97.0756V61.1572C245 58.4469 242.795 56.2417 240.084 56.2417ZM129.916 98.4784C129.544 98.4779 129.187 98.33 128.925 98.0671C128.662 97.8042 128.514 97.4477 128.513 97.0759V61.1572C128.514 60.7854 128.662 60.429 128.925 60.1661C129.187 59.9032 129.544 59.7554 129.916 59.755H135.545V98.4784H129.916ZM199.846 62.3592C201.661 62.3592 203.137 63.8355 203.137 65.65V72.19C203.137 73.1175 202.743 73.9902 202.07 74.6097H197.622C197.286 74.3023 197.018 73.9284 196.835 73.5119C196.651 73.0954 196.556 72.6453 196.555 72.19V65.65C196.555 63.8355 198.031 62.3592 199.846 62.3592ZM186.46 63.0457C186.46 61.2313 187.937 59.755 189.751 59.755C191.566 59.755 193.042 61.2313 193.042 63.0457V72.19C193.042 73.1175 192.648 73.9902 191.975 74.6097H189.121C188.636 74.6097 188.164 74.6648 187.709 74.766C187.319 74.4593 187.004 74.068 186.788 73.6218C186.572 73.1755 186.46 72.686 186.46 72.19L186.46 63.0457ZM176.365 65.1382C176.365 63.3238 177.842 61.8475 179.656 61.8475C181.471 61.8475 182.947 63.3238 182.947 65.1382V72.1898C182.947 74.0045 181.471 75.4808 179.656 75.4808C177.842 75.4808 176.365 74.0045 176.365 72.1898V65.1382ZM166.27 66.5527C166.27 64.7382 167.747 63.2619 169.561 63.2619C171.376 63.2619 172.852 64.7382 172.852 66.5527V72.19C172.852 74.0048 171.376 75.481 169.561 75.481C167.747 75.481 166.27 74.0048 166.27 72.19V66.5527ZM154.36 74.3329H163.105C164.005 77.0376 166.558 78.9941 169.561 78.9941C171.562 78.9941 173.364 78.1256 174.61 76.7465C175.856 78.1253 177.656 78.9941 179.656 78.9941C181.106 78.9941 182.447 78.5343 183.551 77.759C182.939 78.7707 182.616 79.9308 182.618 81.1133C182.618 82.1101 182.844 83.0551 183.246 83.9002H154.36V74.3329ZM209.621 83.9004V80.0049C209.621 77.6778 208.139 75.6902 206.07 74.9348C206.157 74.7383 206.234 74.5374 206.302 74.3329H215.64V83.9004H209.621ZM241.487 97.0759C241.486 97.4477 241.338 97.8042 241.075 98.0671C240.813 98.33 240.456 98.4779 240.084 98.4784H234.455V93.4019C234.455 92.4316 233.669 91.6453 232.699 91.6453C231.729 91.6453 230.942 92.4316 230.942 93.4019V106.669C230.942 108.44 229.501 109.881 227.73 109.881H222.365C220.594 109.881 219.154 108.44 219.154 106.669V51.5642C219.154 49.793 220.595 48.3521 222.365 48.3521H227.73C229.501 48.3521 230.942 49.793 230.942 51.5642V85.9156C230.942 86.886 231.729 87.6723 232.699 87.6723C233.669 87.6723 234.455 86.886 234.455 85.9156V59.755H240.084C240.456 59.7554 240.813 59.9032 241.075 60.1661C241.338 60.429 241.486 60.7854 241.487 61.1572V97.0759Z" fill="#00CAE5"/>
<path d="M200.784 111.518C200.318 111.518 199.872 111.703 199.542 112.032C199.213 112.362 199.028 112.808 199.028 113.274V133.405C199.028 134.376 199.814 135.162 200.784 135.162C201.754 135.162 202.541 134.376 202.541 133.405V113.274C202.541 112.304 201.755 111.518 200.784 111.518Z" fill="#00CAE5"/>
<path d="M157.496 185.552C157.496 187.776 156.736 189.528 155.216 190.808C153.712 192.072 151.544 192.776 148.712 192.92V194.744H145.136V192.896C142.288 192.736 140.104 192.024 138.584 190.76C137.08 189.48 136.328 187.744 136.328 185.552C136.328 183.344 137.08 181.616 138.584 180.368C140.104 179.104 142.288 178.384 145.136 178.208V176.48H148.712V178.184C151.544 178.344 153.712 179.064 155.216 180.344C156.736 181.624 157.496 183.36 157.496 185.552ZM148.712 189.872C150.408 189.712 151.672 189.28 152.504 188.576C153.336 187.856 153.752 186.84 153.752 185.528C153.752 182.968 152.072 181.544 148.712 181.256V189.872ZM140.096 185.552C140.096 188.08 141.776 189.52 145.136 189.872V181.256C143.424 181.416 142.152 181.848 141.32 182.552C140.504 183.24 140.096 184.24 140.096 185.552ZM160.116 181.088H163.836V188.768L170.124 181.088H173.556V194H169.836V186.32L163.572 194H160.116V181.088ZM188.003 184.16H183.635V194H179.915V184.16H175.547V181.088H188.003V184.16ZM189.999 181.088H193.719V186.128H199.335V181.088H203.079V194H199.335V189.176H193.719V194H189.999V181.088ZM219.215 187.592C219.215 187.64 219.191 187.976 219.143 188.6H209.375C209.551 189.4 209.967 190.032 210.623 190.496C211.279 190.96 212.095 191.192 213.071 191.192C213.743 191.192 214.335 191.096 214.847 190.904C215.375 190.696 215.863 190.376 216.311 189.944L218.303 192.104C217.087 193.496 215.311 194.192 212.975 194.192C211.519 194.192 210.231 193.912 209.111 193.352C207.991 192.776 207.127 191.984 206.519 190.976C205.911 189.968 205.607 188.824 205.607 187.544C205.607 186.28 205.903 185.144 206.495 184.136C207.103 183.112 207.927 182.32 208.967 181.76C210.023 181.184 211.199 180.896 212.495 180.896C213.759 180.896 214.903 181.168 215.927 181.712C216.951 182.256 217.751 183.04 218.327 184.064C218.919 185.072 219.215 186.248 219.215 187.592ZM212.519 183.728C211.671 183.728 210.959 183.968 210.383 184.448C209.807 184.928 209.455 185.584 209.327 186.416H215.687C215.559 185.6 215.207 184.952 214.631 184.472C214.055 183.976 213.351 183.728 212.519 183.728ZM228.229 194.192C226.853 194.192 225.613 193.912 224.509 193.352C223.421 192.776 222.565 191.984 221.941 190.976C221.333 189.968 221.029 188.824 221.029 187.544C221.029 186.264 221.333 185.12 221.941 184.112C222.565 183.104 223.421 182.32 224.509 181.76C225.613 181.184 226.853 180.896 228.229 180.896C229.589 180.896 230.773 181.184 231.781 181.76C232.805 182.32 233.549 183.128 234.013 184.184L231.109 185.744C230.437 184.56 229.469 183.968 228.205 183.968C227.229 183.968 226.421 184.288 225.781 184.928C225.141 185.568 224.821 186.44 224.821 187.544C224.821 188.648 225.141 189.52 225.781 190.16C226.421 190.8 227.229 191.12 228.205 191.12C229.485 191.12 230.453 190.528 231.109 189.344L234.013 190.928C233.549 191.952 232.805 192.752 231.781 193.328C230.773 193.904 229.589 194.192 228.229 194.192Z" fill="black"/>
<rect x="3.5" y="3.5" width="363" height="224" rx="16.5" stroke="#FFE600" stroke-width="7"/>
</svg>
