<?xml version="1.0" standalone="no"?>
<!DOCTYPE svg PUBLIC "-//W3C//DTD SVG 1.1//EN" "http://www.w3.org/Graphics/SVG/1.1/DTD/svg11.dtd" >
<svg xmlns="http://www.w3.org/2000/svg" xmlns:xlink="http://www.w3.org/1999/xlink" version="1.1">
<metadata>
Created by FontForge 20170812 at Thu Mar  1 20:21:10 2018
 By www-data
</metadata>
<defs>
<font id="Columbina" horiz-adv-x="537" >
  <font-face 
    font-family="Columbina"
    font-weight="500"
    font-stretch="normal"
    units-per-em="1000"
    panose-1="2 0 5 0 0 0 0 0 0 0"
    ascent="800"
    descent="-200"
    x-height="506"
    cap-height="700"
    bbox="-35 -182 1122 896"
    underline-thickness="50"
    underline-position="-125"
    unicode-range="U+0020-2122"
  />
<missing-glyph horiz-adv-x="214" 
 />
    <glyph glyph-name=".notdef" horiz-adv-x="214" 
 />
    <glyph glyph-name="exclam" unicode="!" horiz-adv-x="275" 
d="M136 688q37 0 61.5 -26t24.5 -62q0 -52 -20 -155t-45 -265h-38q-12 82 -24 148t-21.5 118t-15.5 90t-6 64q0 18 7 34t18.5 28t26.5 19t32 7zM56 76q0 36 23.5 61t57.5 25t58 -25t24 -61q0 -18 -6.5 -33.5t-17.5 -27t-26 -18t-32 -6.5t-31.5 6.5t-25.5 18t-17.5 27
t-6.5 33.5z" />
    <glyph glyph-name="quotedbl" unicode="&#x22;" horiz-adv-x="415" 
d="M181 612q0 -30 -14 -77t-60 -110q-43 63 -56.5 110t-13.5 77q0 45 18.5 70t51.5 25t53.5 -25t20.5 -70zM378 612q0 -30 -14 -77t-60 -110q-42 63 -55.5 110t-13.5 77q0 45 18.5 70t50.5 25q33 0 53.5 -25t20.5 -70z" />
    <glyph glyph-name="numbersign" unicode="#" horiz-adv-x="514" 
d="M110 284l31 127h-87q11 19 15 37.5t4 39.5h87l26 107h82l-26 -107h97l26 107h82l-26 -107h87q-19 -34 -19 -77h-87l-31 -127h88q-18 -35 -18 -77h-89l-23 -96h-82l23 96h-97l-23 -96h-82l23 96h-85q19 37 19 77h85zM192 284h97l31 127h-97z" />
    <glyph glyph-name="dollar" unicode="$" horiz-adv-x="611" 
d="M363 741v-47q28 -6 55 -16.5t48.5 -26t34.5 -36t13 -46.5t-17 -43.5t-40 -17.5q-24 0 -41.5 20.5t-18.5 47.5q-3 50 -34 68v-188q36 -13 70 -32.5t60.5 -48t43 -67.5t16.5 -90q0 -37 -13.5 -72t-38.5 -64t-60 -49.5t-78 -28.5v-79h-39v75q-5 -1 -8.5 -1h-8.5q-13 0 -16 1
v-75h-38v78q-38 6 -74 20t-64.5 35.5t-46 49.5t-17.5 61q0 30 18.5 50t44.5 20q45 0 70 -32t29 -83q2 -29 12 -45.5t28 -24.5v263q-42 15 -76 34t-58.5 43t-38 54t-13.5 66q0 72 49 121t137 61v45h38v-41h13h10t10 -1v42h39zM461 164q0 40 -23 66.5t-75 48.5v-226
q43 11 70.5 38.5t27.5 72.5zM174 576q0 -29 16 -47.5t63 -35.5v157q-30 -7 -54.5 -23.5t-24.5 -50.5zM291 305v-259h33v248zM322 470q1 -1 2 -1v185q-5 0 -10 0.5t-10 0.5h-13v-176z" />
    <glyph glyph-name="percent" unicode="%" horiz-adv-x="639" 
d="M485 700l-145 -362l-1 -5q0 -5 4.5 -9t9.5 -4q4 0 6 3q20 31 50.5 49.5t66.5 18.5q30 0 56.5 -13t46 -35t30.5 -51.5t11 -63.5t-11 -64t-30.5 -52.5t-46 -35.5t-56.5 -13t-56 13t-45.5 35.5t-31 52.5t-11.5 64v17q0 6 -5 11.5t-10 5.5q-8 0 -9 -7l-103 -255h-57l152 379
q0 5 -10 5q-20 -32 -50.5 -52t-68.5 -20q-30 0 -56 13t-45.5 35.5t-31 52.5t-11.5 64t11.5 63.5t31 51.5t45.5 34.5t56 12.5q21 0 36 -4.5t28 -10.5t26 -10.5t31 -4.5q12 0 31 5.5t39.5 17t38.5 28.5t27 40h57zM316 477q0 -7 -0.5 -13.5t-1.5 -11.5q0 -6 13 -6l64 163
q-25 -21 -52 -28.5t-47 -7.5h-5q29 -41 29 -96zM212 539q0 26 -9.5 43t-31.5 17t-31.5 -17t-9.5 -43v-127q0 -26 9.5 -43t31.5 -17t31.5 17t9.5 43v127zM517 290q0 26 -9.5 43t-31.5 17t-31.5 -17t-9.5 -43v-126q0 -26 9.5 -42.5t31.5 -16.5t31.5 16.5t9.5 42.5v126z" />
    <glyph glyph-name="ampersand" unicode="&#x26;" horiz-adv-x="817" 
d="M218 416q-20 29 -28 50.5t-8 38.5q0 30 15 57.5t41.5 49t61.5 34t75 12.5q37 0 69.5 -11t57 -30t38.5 -45t14 -55q0 -20 -7 -37.5t-19 -30t-28.5 -20t-35.5 -7.5q-15 0 -29 6t-24.5 16t-16.5 23t-6 28q0 27 15 32q10 -13 28 -13q13 0 22.5 11t9.5 28q0 24 -21 39.5
t-47 15.5q-29 0 -49.5 -20t-20.5 -43q0 -9 5 -23.5t13 -30.5t18 -33t21 -32l160 -223q57 48 91 95t47 110q24 -46 59.5 -88.5t72.5 -71.5h-28q-26 0 -56 -6.5t-59 -18t-54.5 -27t-43.5 -33.5l38 -52q26 -35 63.5 -66t82.5 -45h-309q11 8 21.5 20t10.5 26q0 11 -6 20t-14 17
q-24 -19 -53 -38.5t-60.5 -35t-64.5 -25.5t-65 -10t-64 15.5t-58.5 40t-43 55.5t-16.5 63q0 39 13.5 76t40 68t65.5 54t90 35zM266 349q-49 -17 -73 -39.5t-24 -56.5q0 -28 13 -57t36 -52.5t54 -38.5t68 -15q7 0 18.5 3t24 8t24 11t20.5 13z" />
    <glyph glyph-name="quoteright" unicode="&#x2019;" horiz-adv-x="211" 
d="M97 710q21 0 37 -10t27 -25.5t16.5 -33.5t5.5 -34q0 -29 -9.5 -57.5t-26.5 -51t-41 -36t-52 -13.5q7 13 16 28.5t9 40.5q0 16 -8 27.5t-17.5 24t-17.5 28.5t-8 42q0 16 7 29t17.5 22t22.5 14t22 5z" />
    <glyph glyph-name="parenleft" unicode="(" horiz-adv-x="328" 
d="M222 348q0 -109 26.5 -204t75.5 -173l-6 -7q-55 28 -100 68t-77 89t-49.5 106t-17.5 119q0 60 17 116.5t48.5 105.5t75 89t97.5 68q5 -7 7 -8q-46 -76 -71.5 -169.5t-25.5 -199.5z" />
    <glyph glyph-name="parenright" unicode=")" horiz-adv-x="328" 
d="M106 348q0 106 -25.5 199.5t-71.5 169.5q2 1 7 8q54 -28 97.5 -68t75 -89t48.5 -105.5t17 -116.5q0 -62 -17.5 -119t-49.5 -106t-77 -89t-100 -68l-6 7q49 78 75.5 173t26.5 204z" />
    <glyph glyph-name="asterisk" unicode="*" horiz-adv-x="428" 
d="M214 752q20 -2 40.5 -17.5t28.5 -29.5q-16 -27 -22.5 -52t-6.5 -60q32 11 53 25.5t42 37.5q16 -4 37 -18.5t28 -30.5q1 -3 1 -14q0 -19 -7 -38t-17 -28q-19 4 -46 4q-17 0 -33.5 -2.5t-36.5 -8.5q21 -26 41 -42.5t49 -29.5v-4q0 -8 -2 -18t-5.5 -20.5t-8.5 -19.5t-11 -15
q-9 -5 -21.5 -7.5t-24.5 -2.5q-23 0 -38 7q-3 31 -12.5 55t-29.5 52q-18 -27 -27 -51t-13 -55q-15 -7 -42 -7q-22 0 -40 8q-13 12 -20.5 34t-7.5 39v7q29 12 49 28.5t40 43.5q-19 5 -35 8t-33 3q-11 0 -22.5 -1.5t-23.5 -3.5q-8 11 -16.5 31.5t-8.5 37.5q0 7 1 9
q4 9 12 17.5t17.5 16t19 12t17.5 6.5q21 -23 43.5 -37.5t54.5 -26.5q-2 34 -8.5 59t-21.5 52q4 7 12 15t17 14.5t19 11.5t19 6z" />
    <glyph glyph-name="plus" unicode="+" horiz-adv-x="403" 
d="M163 541h77v-153h153q-18 -35 -18 -77h-135v-153h-77v153h-153q10 19 14 37t4 40h135v153z" />
    <glyph glyph-name="comma" unicode="," horiz-adv-x="230" 
d="M34 77q0 34 24.5 57.5t57.5 23.5q35 0 57.5 -28t22.5 -68q0 -34 -10 -63.5t-25 -53.5t-32.5 -43t-32.5 -32q-12 -9 -17 -9q-18 0 -18 18q0 3 4 11t9 19t9 24t4 26q0 18 -8.5 30t-18 24t-18 26.5t-8.5 37.5z" />
    <glyph glyph-name="hyphen" unicode="-" horiz-adv-x="372" 
d="M354 346q-19 -34 -19 -77h-315q10 19 14.5 37t4.5 40h315z" />
    <glyph glyph-name="period" unicode="." horiz-adv-x="234" 
d="M35 73q0 35 24 60t59 25t59.5 -25t24.5 -60q0 -36 -24.5 -60.5t-59.5 -24.5t-59 24.5t-24 60.5z" />
    <glyph glyph-name="slash" unicode="/" horiz-adv-x="480" 
d="M505 783l-422 -867h-108l422 867h108z" />
    <glyph glyph-name="zero" unicode="0" horiz-adv-x="595" 
d="M290 679q58 0 105.5 -22t81.5 -67t53 -113t19 -159q0 -57 -15.5 -115t-47 -105t-79.5 -76.5t-112 -29.5q-53 0 -98.5 22t-79 65.5t-52.5 108t-19 149.5q0 55 15 115t45.5 110.5t76 83.5t107.5 33zM370 118q66 0 101 41t35 110q0 57 -25 107t-64.5 88t-89 60t-98.5 22
q-35 0 -61 -11.5t-43.5 -31t-26 -45t-8.5 -53.5q0 -50 25 -101t65 -92t90 -67.5t100 -26.5z" />
    <glyph glyph-name="one" unicode="1" horiz-adv-x="292" 
d="M79 501q0 50 -9.5 76.5t-41.5 44.5q55 6 97.5 23.5t87.5 57.5v-607q0 -35 8 -56t28 -40h-203q18 18 25.5 45.5t7.5 57.5v398z" />
    <glyph glyph-name="two" unicode="2" horiz-adv-x="608" 
d="M35 495q0 27 16.5 59t48.5 60t79.5 47t109.5 19q57 0 105.5 -16.5t84 -45t55.5 -66.5t20 -81q0 -20 -4 -42t-15 -46t-31.5 -50.5t-53.5 -55.5q-15 -13 -39.5 -32t-52.5 -38.5t-55.5 -38t-48.5 -30.5h100q54 0 100 7.5t83 33.5l15 -6q-28 -35 -49 -81.5t-30 -91.5h-431
q67 54 127.5 109.5t108.5 115.5q26 33 49 63.5t40 62.5t27 66.5t10 75.5q0 30 -9 56t-25 45.5t-37.5 31t-46.5 11.5q-18 0 -34 -7.5t-28 -20.5t-19 -30.5t-7 -36.5v-44q0 -38 -26.5 -64t-64.5 -26q-30 0 -51 25t-21 62z" />
    <glyph glyph-name="three" unicode="3" horiz-adv-x="588" 
d="M264 -8q-49 0 -90.5 12.5t-72 34.5t-48 53t-17.5 69q0 43 24 73t63 30q26 0 47.5 -18.5t21.5 -47.5q0 -23 -7.5 -36.5t-17 -23.5t-17 -21t-7.5 -29q0 -13 8 -23.5t20.5 -18t27.5 -12t29 -4.5q43 0 75 19t52.5 48.5t30.5 64.5t10 67q0 25 -8.5 49.5t-25.5 43.5t-42 30.5
t-58 11.5h-34v36h24q19 0 38.5 7t34.5 20t24.5 31t9.5 40t-10.5 40.5t-28 32t-40 20.5t-47.5 7q-45 0 -76.5 -20.5t-48.5 -46.5l-17 19q11 34 32.5 59.5t49.5 42t59.5 25t63.5 8.5q93 0 146.5 -38.5t53.5 -107.5q0 -50 -29 -81.5t-101 -58.5q37 -7 71 -21.5t59.5 -37.5
t40.5 -55t15 -73q0 -46 -20 -86t-57.5 -70t-91 -47t-119.5 -17z" />
    <glyph glyph-name="four" unicode="4" horiz-adv-x="570" 
d="M206 691q41 0 61 -29t20 -66q0 -35 -14.5 -80t-35 -88.5t-41.5 -80t-34 -54.5l-73 -98h239v349q0 20 -3 40.5t-14 34.5q40 10 80 29.5t74 40.5v-494q19 0 31 7t24 21v-110q-10 14 -24 23.5t-31 9.5v-25q0 -33 10.5 -61.5t33.5 -53.5q-12 1 -24 1.5t-25 0.5
q-17 0 -42.5 -3t-52.5 -9t-52 -14.5t-41 -18.5l-15 7q38 35 53.5 82t15.5 93h-316l64 108q7 13 16.5 37.5t17.5 52t13.5 54t5.5 43.5q0 23 -1.5 41t-3.5 34.5t-3.5 33t-1.5 36.5q0 45 22 75.5t67 30.5z" />
    <glyph glyph-name="five" unicode="5" horiz-adv-x="556" 
d="M160 687q35 -26 80 -42t84 -16q42 0 80.5 10.5t80.5 39.5l2 -3q-9 -36 -29.5 -67.5t-50 -54.5t-66.5 -36t-78 -13q-30 0 -60.5 5.5t-54.5 17.5l-39 -111q23 13 63.5 21t78.5 8q52 0 101 -17t86 -46.5t59.5 -70t22.5 -87.5q0 -48 -24 -91.5t-63 -76.5t-89.5 -52.5
t-103.5 -19.5q-66 0 -121.5 16.5t-92.5 42.5q-4 1 -4 7q0 12 10 12q4 0 11 -4t17.5 -8.5t26 -8t37.5 -3.5q49 0 92 17.5t75.5 47.5t51 70.5t18.5 86.5q0 27 -13 51.5t-35 42.5t-52 28.5t-63 10.5q-51 0 -85.5 -13.5t-66.5 -39.5l-7 1z" />
    <glyph glyph-name="six" unicode="6" horiz-adv-x="624" 
d="M394 707q-61 -20 -103 -56t-68.5 -79.5t-38 -90t-11.5 -86.5q0 -68 22.5 -128.5t57.5 -106.5t77 -73t80 -27q18 0 34.5 7.5t28.5 21t19 32t7 39.5q0 47 -17 87t-47 69t-69.5 45t-84.5 16q-17 0 -33.5 -2t-33.5 -5l-5 18q30 8 57 17t53 22t53 32t57 47q66 -38 108 -103
t42 -152q0 -57 -19.5 -105.5t-53.5 -84t-80 -55.5t-98 -20q-57 0 -107.5 24.5t-89 67.5t-61 101.5t-22.5 127.5q0 67 23.5 134.5t67 125t105.5 100t140 60.5z" />
    <glyph glyph-name="seven" unicode="7" horiz-adv-x="518" 
d="M515 665q-13 -37 -37 -75t-52 -75.5t-54 -61.5q-31 -29 -52 -68.5t-21 -84.5q0 -24 6 -48.5t13 -49t13 -50t6 -51.5q0 -24 -7.5 -44.5t-20 -36t-30 -24.5t-36.5 -9q-21 0 -40 10.5t-33 29t-22 43t-8 53.5q0 46 13 89t32 79t39 63.5t35 42.5l121 131h-198q-42 0 -78 -11.5
t-73 -34.5l-18 -11l-10 10q11 16 22 37t21 45t17 50t10 52h442z" />
    <glyph glyph-name="eight" unicode="8" horiz-adv-x="612" 
d="M318 688q5 -2 5 -10q0 -7 -7 -7q-6 0 -13 2t-15 2q-36 0 -63 -23.5t-27 -61.5q0 -42 44.5 -80t116.5 -68q21 11 37.5 27.5t16.5 39.5q0 33 -22 56.5t-53 23.5q-28 0 -59 -27l-3 1q0 27 10.5 48.5t27 37t36.5 23.5t40 8q27 0 51.5 -10.5t43 -28t29 -39.5t10.5 -46
q0 -25 -10 -46.5t-26 -39t-37 -30.5t-43 -21q36 -13 66 -33.5t51.5 -45.5t33 -53.5t11.5 -58.5q0 -60 -20 -104.5t-54.5 -74.5t-81.5 -45t-100 -15q-57 0 -107 15.5t-86.5 43t-57.5 65t-21 81.5q0 28 9.5 55.5t28 51.5t44.5 42.5t59 28.5q-33 26 -59.5 67.5t-26.5 91.5
q0 28 12 58t33.5 55t50.5 41t64 16q31 0 61 -13zM137 251q0 -42 24 -79t61 -64t80 -43t82 -16q24 0 44 7t34.5 19t22 27.5t7.5 33.5q0 24 -10 44t-28 37t-42 31t-51 26q-43 18 -76.5 35t-61.5 37q-42 -17 -64 -40t-22 -55z" />
    <glyph glyph-name="nine" unicode="9" horiz-adv-x="595" 
d="M282 681q57 0 107.5 -24t87.5 -67t58.5 -103t21.5 -131q0 -63 -22.5 -129t-65 -123.5t-103.5 -101.5t-137 -63l-15 20q36 12 75.5 36t72.5 62t54.5 90.5t21.5 120.5q0 50 -19 108.5t-51 108.5t-74 83.5t-88 33.5q-45 0 -68.5 -27.5t-23.5 -72.5q0 -42 17.5 -81t48 -69
t71 -48t86.5 -18q14 0 29 2.5t29 5.5l3 -12q-66 -17 -122 -46.5t-93 -75.5q-23 13 -49 36.5t-48.5 56t-37.5 72t-15 84.5q0 58 19.5 107.5t53.5 86t79.5 57.5t96.5 21z" />
    <glyph glyph-name="colon" unicode=":" horiz-adv-x="230" 
d="M35 311q0 35 24 60t59 25t59.5 -25t24.5 -60q0 -36 -24.5 -60.5t-59.5 -24.5t-59 24.5t-24 60.5zM35 73q0 35 24 60t59 25t59.5 -25t24.5 -60q0 -36 -24.5 -60.5t-59.5 -24.5t-59 24.5t-24 60.5z" />
    <glyph glyph-name="semicolon" unicode=";" horiz-adv-x="230" 
d="M35 311q0 35 24 60t59 25t59.5 -25t24.5 -60q0 -36 -24.5 -60.5t-59.5 -24.5t-59 24.5t-24 60.5zM34 79q0 16 6.5 30.5t18 25t26 17t31.5 6.5q35 0 57.5 -28t22.5 -68q0 -29 -10 -57.5t-25 -54t-32.5 -46.5t-32.5 -34q-12 -9 -17 -9q-18 0 -18 18q0 3 4 11t9 19t9 24
t4 26q0 18 -8.5 30t-18 24t-18 27t-8.5 39z" />
    <glyph glyph-name="less" unicode="&#x3c;" horiz-adv-x="373" 
d="M301 567l46 -83l-190 -159l190 -159l-46 -83l-285 241z" />
    <glyph glyph-name="equal" unicode="=" horiz-adv-x="456" 
d="M420 302q-19 -34 -19 -77h-365q10 19 14.5 37t4.5 40h365zM420 462q-19 -34 -19 -77h-365q10 19 14.5 37t4.5 40h365z" />
    <glyph glyph-name="greater" unicode="&#x3e;" horiz-adv-x="363" 
d="M26 170l180 155l-180 155l45 83l276 -238l-276 -238z" />
    <glyph glyph-name="question" unicode="?" horiz-adv-x="462" 
d="M197 185q-14 45 -20.5 76t-6.5 57q0 31 15.5 69t48.5 77q17 20 30 45t13 51q0 15 -5.5 30t-16.5 27.5t-27 20t-37 7.5q-36 0 -55.5 -18.5t-19.5 -43.5q0 -9 6.5 -19t17.5 -10q9 0 18 4q8 -5 13.5 -17t5.5 -28q0 -29 -20 -48.5t-49 -19.5q-18 0 -32 7.5t-24 19.5
t-15.5 27.5t-5.5 32.5q0 34 14.5 62.5t39.5 49.5t59 32.5t72 11.5q44 0 82.5 -13t67.5 -35.5t45.5 -54t16.5 -68.5q0 -53 -27.5 -86.5t-74.5 -65.5q-43 -29 -69.5 -63t-26.5 -63q0 -26 5 -54h-38zM134 79q0 18 6.5 33t17.5 26.5t26 18t32 6.5t32 -6.5t26 -18t17.5 -26.5
t6.5 -33t-6.5 -33.5t-17.5 -27t-26 -18t-32 -6.5t-32 6.5t-26 18t-17.5 27t-6.5 33.5z" />
    <glyph glyph-name="at" unicode="@" horiz-adv-x="668" 
d="M380 272q-11 -16 -26.5 -24.5t-41.5 -8.5q-29 0 -49 10.5t-33 28t-19 39.5t-6 45q0 35 10 68.5t29.5 59.5t46.5 42t62 16q18 0 33.5 -7t22.5 -24q5 7 19 19t34 12t39 -13q-5 -5 -9 -12.5t-8 -35.5l-16 -112q0 -3 -1 -10t-1.5 -14.5t-1.5 -14.5t-1 -10q0 -23 7 -31t18 -8
q43 0 43 186q0 81 -50.5 127.5t-135.5 46.5q-44 0 -81 -14t-64 -43.5t-42.5 -76t-15.5 -111.5q0 -51 21 -98.5t58 -84.5t86 -59.5t106 -22.5q34 0 61 4t52 14t49 26.5t51 40.5q-12 -43 -38.5 -76.5t-63 -57t-80 -35.5t-89.5 -12q-75 0 -134 24.5t-100 67t-62.5 100
t-21.5 124.5q0 82 26 144t70.5 103t103 62t123.5 21q49 0 86 -12.5t66.5 -27.5t53 -27.5t47.5 -12.5q11 0 22 3q6 -29 8.5 -51t2.5 -39q0 -84 -17.5 -138t-45.5 -86t-62.5 -44.5t-68.5 -12.5q-26 0 -46.5 9t-25.5 24zM386 453q1 5 1.5 13.5t0.5 10.5q0 29 -23 29
q-17 0 -29 -15t-19.5 -39t-11.5 -54t-4 -60q0 -26 10 -38.5t23 -12.5q14 0 22 7t12 30z" />
    <glyph glyph-name="A" unicode="A" horiz-adv-x="692" 
d="M3 0q40 46 74 125.5t59 182.5l90 363q-6 2 -10 2q-20 0 -43.5 -17t-34.5 -43q-10 -23 -21.5 -34.5t-32.5 -11.5q-13 0 -22.5 10.5t-9.5 24.5q0 22 15.5 43.5t41 38t57 26.5t63.5 10q17 0 37 -3.5t40.5 -9t40.5 -13t38 -15.5q21 -10 38 -19t34 -15.5t35 -10.5t41 -4h11v-9
q-28 -22 -28 -68q0 -20 6 -48l90 -381q6 -23 12 -40.5t15 -32t21 -27t29 -24.5h-251q36 36 36 78q0 11 -2.5 28.5t-7.5 34.5l-30 126h-254q-6 -20 -8.5 -45.5t-2.5 -43.5q0 -49 14.5 -97.5t45.5 -80.5h-226zM420 320l-36 139q-22 85 -50 137t-57 63l-86 -339h229z" />
    <glyph glyph-name="B" unicode="B" horiz-adv-x="726" 
d="M89 595q-15 -6 -28.5 -18t-21.5 -21l-7 49q26 35 65.5 58.5t81.5 37.5t83 20t70 6q76 0 136.5 -15.5t103 -41t65.5 -58.5t23 -67q0 -55 -46.5 -93t-134.5 -49q43 -8 83.5 -23t72.5 -39t51.5 -58t19.5 -79q0 -51 -24 -89t-64 -63.5t-92 -38.5t-107 -13h-378q15 13 24 27
t14.5 34t7.5 47.5t2 66.5v420zM309 53q63 0 109 10t72 35q49 46 49 117q0 63 -41.5 101t-107.5 52q-27 5 -56 7t-60 2h-50v-324h85zM224 422h55q35 0 71.5 3.5t66 16.5t48.5 38t19 67q0 15 -7 31.5t-20.5 32.5t-34 29.5t-46.5 21.5q-21 7 -43.5 9.5t-36.5 2.5
q-30 0 -49 -4.5t-23 -8.5v-239z" />
    <glyph glyph-name="C" unicode="C" horiz-adv-x="706" 
d="M391 -20q-61 0 -125.5 19t-118 63t-87.5 115.5t-34 176.5q0 64 22 129t64 117.5t102 86t136 33.5q35 0 63 -6t50.5 -15t40 -19.5t30.5 -19.5q32 -23 53.5 -33t45.5 -10q13 0 28 5q3 -7 6 -22.5t3 -34.5q0 -46 -13 -92t-40 -83t-68 -60t-98 -23q-36 0 -66 11t-52 30
t-34 44.5t-12 54.5q0 35 17.5 62.5t52.5 27.5q25 0 40 -15t15 -38t-14 -36.5t-34 -13.5q-9 0 -18 3t-14 5q0 -33 21 -52.5t56 -19.5q26 0 46 11t33.5 29.5t20.5 43t7 51.5q0 38 -12 69.5t-34 54.5t-53 35.5t-68 12.5q-48 0 -85.5 -22t-63.5 -58.5t-39.5 -85t-13.5 -101.5
q0 -68 25 -126t68.5 -101t101 -67.5t123.5 -24.5q23 0 52 4t60 15t62.5 29.5t59.5 48.5q-9 -43 -36.5 -80.5t-68.5 -66t-93 -45t-110 -16.5z" />
    <glyph glyph-name="D" unicode="D" horiz-adv-x="725" 
d="M46 0q7 5 15 15t14 22.5t10 27t4 27.5v521q-16 -7 -29.5 -21.5t-22.5 -38.5l-12 42q15 30 41.5 53t61 39t75.5 24.5t85 8.5q105 0 182 -33.5t128 -87t76 -119.5t25 -132q0 -71 -28.5 -134.5t-77.5 -111t-115 -75t-141 -27.5h-291zM251 35q61 0 114.5 25t93 68t62.5 100.5
t23 122.5q0 73 -21.5 133t-58 102.5t-83.5 66t-98 23.5q-15 0 -30.5 -1.5t-28.5 -6.5v-633h27z" />
    <glyph glyph-name="E" unicode="E" horiz-adv-x="705" 
d="M224 43h61q49 0 86.5 9t67.5 22.5t54.5 29t49 29t50.5 22.5t59 9q10 0 24 -3.5t18 -9.5q-27 -38 -52.5 -84t-45.5 -97q-21 11 -46.5 17t-53.5 9t-57 3.5t-57 0.5h-335q13 7 27.5 25t14.5 46v541q0 32 -15 55t-31 33h184q57 0 113.5 1t104 4t82 8t46.5 14q8 -24 19.5 -49
t24 -49t26 -45t25.5 -36q-11 -7 -22 -10t-33 -3q-33 0 -67.5 13.5t-54.5 32.5q-24 22 -48.5 36.5t-54.5 23.5t-69.5 13.5t-94.5 5.5v-234h92q26 0 56 3.5t59.5 12.5t56.5 23.5t46 36.5q5 -60 29 -119.5t61 -104.5l-26 -22q-24 22 -53.5 40.5t-61 32.5t-62 23.5t-56.5 12.5
q-20 2 -50 3.5t-57 1.5h-18.5t-15.5 -1v-326z" />
    <glyph glyph-name="F" unicode="F" horiz-adv-x="661" 
d="M48 0q18 19 29.5 47.5t11.5 59.5v502q0 13 -4 27t-10 26.5t-12.5 22t-12.5 15.5h408q36 0 66.5 6.5t52.5 23.5q5 -29 14.5 -59t21 -57.5t23 -49.5t20.5 -35q-12 -5 -26 -5q-30 0 -70 15t-78 46q-14 12 -32 24t-39.5 22.5t-46 17t-51.5 6.5h-89v-226q11 -2 24 -3.5
t29 -1.5q40 0 78 2.5t71 9t59.5 18.5t43.5 30l7 -1q9 -60 34 -115t57 -103l-17 -14q-44 34 -84.5 56t-84.5 36.5t-96.5 23.5t-120.5 16v-286q0 -29 11.5 -54t37.5 -43h-225z" />
    <glyph glyph-name="G" unicode="G" horiz-adv-x="750" 
d="M694 3q-35 17 -70 17q-26 0 -47.5 -5.5t-45.5 -11.5t-53 -11.5t-70 -5.5q-79 0 -148.5 30.5t-121.5 80t-82 113.5t-30 130q0 88 29 158.5t75 119.5t103.5 75.5t113.5 26.5q30 0 54 -6t45.5 -13.5t43 -13.5t45.5 -6q17 0 33 7.5t32 16.5q13 -45 38 -92.5t58 -79.5
q-14 -5 -26 -7t-26 -2q-18 0 -37.5 6t-39 16.5t-37 24t-31.5 28.5q-39 41 -74.5 57.5t-83.5 16.5q-37 0 -69 -17.5t-56 -48t-38 -73t-14 -92.5q0 -87 27 -160.5t68.5 -127t91.5 -83t95 -29.5q37 0 65.5 4t41.5 15l-19 211h-71q-35 0 -58.5 8t-38.5 21.5t-21.5 30.5t-6.5 35
q0 38 22 62t53 24q29 0 48 -15.5t19 -41.5q0 -17 -10 -30t-26 -13q-14 0 -25 9t-11 23q0 17 8 23q-1 1 -7 1q-8 0 -16 -11t-8 -31q0 -22 17.5 -36t54.5 -14h253q-17 -14 -28 -35t-11 -50q0 -5 0.5 -9.5t1.5 -9.5z" />
    <glyph glyph-name="H" unicode="H" horiz-adv-x="705" 
d="M486 315l-26 286q-4 58 -47 99h224q-25 -28 -32 -57t-7 -50v-4l42 -488q1 -10 4.5 -24t9.5 -29t14.5 -28t18.5 -20h-222q17 14 28 41t11 51v7l-14 163h-276l-13 -145q-1 -3 -1 -15q0 -34 12 -61t29 -41h-222q11 14 25 39.5t18 61.5l46 488q0 4 0.5 7.5t0.5 7.5
q0 20 -6 44.5t-32 51.5h224q-11 -11 -18.5 -21t-13.5 -22t-10 -27t-7 -36l-28 -279h268z" />
    <glyph glyph-name="I" unicode="I" horiz-adv-x="313" 
d="M42 0q14 13 23 23.5t14.5 23.5t7.5 30.5t2 44.5v479q0 32 -8 54.5t-32 44.5h230q-23 -13 -39 -40.5t-16 -62.5v-494q0 -34 11 -63t40 -40h-233z" />
    <glyph glyph-name="J" unicode="J" horiz-adv-x="488" 
d="M446 700q-11 -9 -19.5 -24.5t-14.5 -33.5t-9.5 -36t-3.5 -32v-289q0 -37 1.5 -59t5.5 -36t11 -22.5t17 -18.5q-7 -32 -26 -61.5t-48.5 -52.5t-70 -36.5t-90.5 -13.5q-40 0 -75.5 9t-62.5 24t-42.5 35t-15.5 42q0 26 15.5 41.5t42.5 15.5q26 0 49 -17.5t41 -55.5
q10 -20 24 -39t34 -19q29 0 42 27.5t13 61.5v501q0 24 -10.5 47t-38.5 42h231z" />
    <glyph glyph-name="K" unicode="K" horiz-adv-x="743" 
d="M266 700q-42 -33 -42 -75v-221l91 117q26 34 63 71t79 68t86 51.5t83 20.5q45 0 74 -21t29 -55q0 -17 -7.5 -32t-20.5 -26t-30 -17.5t-35 -6.5q-21 0 -36 5t-28.5 11.5t-28.5 11.5t-36 5q-26 0 -51 -15t-53 -44l240 -443q6 -12 16.5 -27t23 -29.5t27.5 -27.5t30 -21h-274
q14 7 27.5 19.5t13.5 32.5q0 8 -5.5 23.5t-19.5 40.5l-176 322l-82 -119v-236q0 -24 11 -46.5t30 -36.5h-217q41 23 41 88v517q0 42 -11 63t-33 32h221z" />
    <glyph glyph-name="L" unicode="L" horiz-adv-x="649" 
d="M554 -29q-32 16 -66 22.5t-88 6.5h-357q20 14 33 37t13 60v510q0 38 -12.5 58.5t-32.5 34.5h217q-6 -4 -13 -14.5t-12 -24t-8.5 -28.5t-3.5 -29v-556h66q35 0 65 9t56.5 22t49 27.5t42.5 25.5q29 17 55.5 24.5t46.5 7.5q30 0 41 -7q-12 -16 -25.5 -38.5t-26.5 -47.5
t-23.5 -51t-16.5 -49z" />
    <glyph glyph-name="M" unicode="M" horiz-adv-x="841" 
d="M353 700q-14 -13 -23 -30t-9 -39q0 -11 1.5 -18.5t5.5 -18.5l103 -267l104 329q-4 10 -17 21.5t-32 22.5h273q-29 -13 -40.5 -36t-11.5 -50q0 -6 0.5 -17t0.5 -16l53 -398q9 -72 24.5 -114.5t52.5 -68.5h-249q18 17 28.5 40.5t10.5 51.5q0 6 -0.5 12t-0.5 11l-67 467
l-167 -534l-206 511l-25 -201q-2 -15 -4 -33t-3.5 -36t-2.5 -34t-1 -26q0 -25 3.5 -57.5t10.5 -65t17 -61t23 -45.5h-202q13 25 27 53.5t27.5 69.5t27 100t25.5 145l39 266q-29 36 -66 66h270z" />
    <glyph glyph-name="N" unicode="N" horiz-adv-x="722" 
d="M230 466q-23 38 -41 65.5t-37 50.5v-269q0 -66 7.5 -116.5t19 -88t26 -64t28.5 -44.5h-207q17 22 31.5 50t25.5 65t17.5 85t6.5 112v319q-8 10 -19.5 20.5t-23.5 20t-24 17t-20 11.5h302q-12 -12 -16 -24t-4 -26q0 -40 28 -83l241 -395v82q0 63 -1 111t-3.5 86.5t-8.5 70
t-15.5 60t-23.5 57t-34 61.5h212q-28 -35 -45 -71.5t-26 -76t-12.5 -82t-5.5 -89.5q-1 -24 -2 -56t-1.5 -66.5t-0.5 -68v-61.5q6 -8 18.5 -20t26.5 -24.5t28.5 -23.5t24.5 -16q-17 -6 -39.5 -16t-45 -22t-42.5 -25t-32 -25z" />
    <glyph glyph-name="O" unicode="O" horiz-adv-x="764" 
d="M25 322q0 85 25.5 153.5t79.5 119.5q14 14 33.5 30.5t35.5 29.5q10 9 19 9t14 -4q-1 -2 -7 -9t-11 -12q-29 -33 -47.5 -79t-18.5 -118q0 -66 25 -137t68 -129.5t99.5 -96.5t119.5 -38q28 0 62 11t62.5 36.5t48 67t19.5 102.5q0 55 -17.5 113t-51.5 105.5t-84 78
t-115 30.5q-33 0 -58 -10t-42 -27t-25.5 -39.5t-8.5 -47.5q0 -17 5.5 -34t16 -30.5t25.5 -22t35 -8.5q29 0 48 16.5t19 45.5q0 9 -5 16.5t-12 8.5q-2 -10 -8 -17t-17 -7q-13 0 -22.5 10t-9.5 23q0 17 14 30.5t32 13.5q15 0 28 -7t22.5 -18.5t15 -26t5.5 -29.5
q0 -23 -9.5 -41t-25 -31.5t-34.5 -20.5t-38 -7q-34 0 -62 14.5t-48.5 38t-31.5 53.5t-11 61q0 46 20.5 87.5t54 72.5t75.5 49.5t85 18.5q73 0 132 -29t101 -78.5t64.5 -114t22.5 -136.5q0 -57 -17.5 -123.5t-59 -124t-110.5 -95.5t-172 -38q-80 0 -144.5 29t-110.5 77
t-71.5 109t-26.5 126z" />
    <glyph glyph-name="P" unicode="P" horiz-adv-x="633" 
d="M395 700q55 0 97.5 -14t71.5 -37.5t44 -54.5t15 -65q0 -39 -13 -68t-33.5 -50.5t-44.5 -35.5t-45 -22q-38 -14 -77 -29.5t-71 -42.5q-23 -20 -31.5 -38t-8.5 -35q12 9 32 9q19 0 32.5 -13t13.5 -30q0 -20 -15 -34t-39 -14q-28 0 -48 25t-20 63q0 41 25.5 73t85.5 71
q25 17 44 32t32.5 32.5t20.5 39.5t7 52q0 31 -15 58.5t-41 47.5t-61.5 31.5t-77.5 11.5q-28 0 -51 -4v-507q0 -37 4 -62t12 -42.5t20.5 -28t30.5 -19.5h-254q26 12 39 43.5t13 73.5v472q0 38 -9.5 67t-32.5 44h348z" />
    <glyph glyph-name="Q" unicode="Q" horiz-adv-x="763" 
d="M258 257q48 29 95 60.5t93 64.5q-1 -5 -2.5 -13.5t-1.5 -13.5q0 -10 1.5 -20t9.5 -23q10 -17 31 -37.5t59 -52.5l67 -58q16 30 22.5 59t6.5 49q0 63 -28.5 122.5t-73 105t-99.5 73t-108 27.5q-45 0 -77.5 -15t-61.5 -47l-7 5q2 26 19 58t46.5 60t70.5 47t92 19
q62 0 117.5 -29t97 -78.5t66 -116t24.5 -141.5q0 -58 -21.5 -114.5t-57.5 -107.5q30 -26 57.5 -42t59.5 -24q-17 -11 -34.5 -25t-34 -31t-31.5 -36t-27 -38q-8 20 -15.5 34.5t-16.5 26.5t-19.5 22.5t-24.5 22.5q-45 -34 -94 -53t-100 -19q-70 0 -130.5 27.5t-105.5 74.5
t-70.5 110t-25.5 135q0 126 53.5 220.5t161.5 151.5l15 -13q-54 -42 -80.5 -108t-26.5 -144q0 -83 31 -151.5t76.5 -117t96.5 -75t92 -26.5q44 0 77 16l-89 79q-27 24 -54 44t-43 31q-22 14 -41 19t-37 6z" />
    <glyph glyph-name="R" unicode="R" horiz-adv-x="700" 
d="M415 0q28 31 28 61q0 13 -4.5 26.5t-16.5 36.5l-133 248h-65v-266q0 -47 11 -69t33 -37h-226q18 11 32.5 38.5t14.5 69.5v497q0 21 -1 35.5t-5 24.5t-11 18t-19 17h374q56 0 102 -11t78.5 -31t50.5 -48.5t18 -63.5q0 -45 -22 -76t-56.5 -50.5t-76 -29.5t-81.5 -13
l159 -272q20 -35 44.5 -61.5t46.5 -43.5h-275zM224 418q11 -1 22.5 -1h22.5q24 0 47 0.5t44 1.5q31 1 57.5 7t45.5 18t30 30t11 44q0 31 -16.5 56.5t-47.5 43t-74 27t-96 9.5h-46v-236z" />
    <glyph glyph-name="S" unicode="S" horiz-adv-x="685" 
d="M12 146q15 12 49 12q38 0 76 -21t86 -55q31 -23 70.5 -41t90.5 -18q34 0 65.5 8.5t55.5 25.5t38.5 42.5t14.5 58.5q0 39 -21 64.5t-55.5 42.5t-78.5 29t-89.5 24.5t-89.5 28t-78.5 40t-55.5 61t-21 90.5q0 36 15.5 69t43 58t66 40t83.5 15q28 0 51.5 -5t46.5 -11
t47.5 -11t54.5 -5q14 0 29 3.5t23 8.5q17 -32 40 -65t43 -61q-7 -6 -18.5 -8t-19.5 -2q-33 0 -65 13.5t-68 40.5q-30 23 -69.5 42t-84.5 19q-18 0 -36.5 -6t-32.5 -17.5t-23 -29t-9 -41.5q0 -34 20 -55t53 -34.5t75.5 -23t86 -20.5t86 -27t75.5 -43t53 -67.5t20 -101.5
q0 -59 -22.5 -102.5t-60 -72.5t-86.5 -43.5t-101 -14.5q-30 0 -67.5 7t-67.5 16q-54 17 -82 17q-24 0 -44 -5t-35 -11q-7 17 -16 36.5t-19.5 39t-21.5 37t-20 29.5z" />
    <glyph glyph-name="T" unicode="T" horiz-adv-x="662" 
d="M452 700q48 0 85 10.5t59 25.5q1 -21 7.5 -49t15.5 -56t19.5 -53.5t20.5 -43.5q-13 -5 -23 -5q-15 0 -31.5 5t-33.5 14t-32 20.5t-27 25.5q-29 34 -59 53t-50 19v-570q0 -23 10 -52.5t33 -43.5h-235q27 19 42 44t15 53v569q-15 0 -32.5 -8t-35 -20.5t-35 -28t-33.5 -31.5
q-25 -24 -56 -36.5t-55 -12.5q-11 0 -18 6q11 19 23.5 45t23.5 53.5t20 55t13 48.5q15 -10 49 -23.5t80 -13.5h240z" />
    <glyph glyph-name="U" unicode="U" horiz-adv-x="645" 
d="M53 149q0 15 3.5 50.5t8.5 81.5t11.5 98t11.5 99.5t8.5 86t3.5 57.5q0 54 -46 78h247q-26 -15 -37.5 -37.5t-19.5 -60.5q-1 -7 -5.5 -40t-11 -78.5t-13 -98t-12.5 -99t-10 -82t-4 -46.5q0 -60 45.5 -95.5t118.5 -35.5q37 0 71 8t59.5 24.5t40.5 40t15 55.5q0 42 -7 93
t-13 94q-12 86 -24 145.5t-25.5 100.5t-30.5 67t-39 45h203q-31 -35 -42 -76.5t-11 -80.5q0 -54 6 -106.5t12.5 -102.5t12.5 -97t6 -91q0 -42 -21.5 -72.5t-59 -50t-88 -28.5t-107.5 -9t-104.5 10.5t-81 31.5t-52.5 51.5t-19 69.5z" />
    <glyph glyph-name="V" unicode="V" horiz-adv-x="671" 
d="M248 700q-18 -15 -25 -27.5t-7 -33.5q0 -8 3 -18.5t8 -24.5l162 -424l41 131q9 30 18 64t16.5 69t12.5 70t5 67q0 35 -10.5 65.5t-40.5 61.5h199q8 0 11.5 -5t3.5 -11q0 -3 -2.5 -8.5t-7.5 -10.5q-14 -15 -30.5 -45t-33 -66.5t-31.5 -75t-26 -69.5l-94 -274
q26 -32 62 -57t75 -36q-72 -7 -132.5 -26t-96.5 -46q-15 42 -31.5 83.5t-32.5 80t-30.5 73t-25.5 61.5l-144 344q-7 18 -13 29.5t-12.5 21t-15 18t-20.5 19.5h245z" />
    <glyph glyph-name="W" unicode="W" horiz-adv-x="1013" 
d="M235 700q-16 -14 -23 -31t-7 -31q0 -7 1 -18.5t9 -31.5l142 -398l179 482l203 -484l45 158q17 57 27.5 114t10.5 93q0 56 -15 89.5t-38 57.5h241q-21 -18 -36.5 -34t-28 -34t-23.5 -40.5t-23 -52.5q-11 -26 -20 -50.5t-17.5 -50t-17.5 -53.5t-20 -62l-58 -187
q17 -39 45.5 -61t59.5 -39q-26 -3 -52.5 -9t-52 -15t-48.5 -20t-41 -24q-33 88 -69.5 179.5t-72.5 182.5q-10 25 -21 49.5t-22 48.5l-109 -291q6 -17 19 -32.5t29 -29.5t33.5 -25.5t31.5 -19.5q-69 -3 -121.5 -19.5t-84.5 -42.5q-12 45 -33 102t-39 110l-132 363
q-19 54 -38.5 94t-44.5 63h232z" />
    <glyph glyph-name="X" unicode="X" horiz-adv-x="713" 
d="M311 700l2 -4q-23 -14 -23 -41q0 -11 4.5 -24t11.5 -24l93 -153l32 42q30 42 42 77.5t12 55.5q0 17 -5.5 35t-16.5 33l2 3h230l2 -4q-15 -12 -36 -29.5t-43 -37t-42.5 -40t-35.5 -38.5l-115 -138l171 -280q24 -40 53 -74t61 -59h-274q9 10 17.5 23.5t8.5 33.5q0 17 -6 33
t-20 39l-103 168q-26 -28 -47 -60t-38 -63q-11 -21 -16.5 -43.5t-5.5 -43.5q0 -23 11.5 -46t24.5 -41h-259q34 33 67 67.5t69 74.5t76.5 88.5t89.5 109.5l-117 190q-31 51 -62 94.5t-73 70.5v5h258z" />
    <glyph glyph-name="Y" unicode="Y" horiz-adv-x="649" 
d="M255 700q-32 -20 -32 -46q0 -7 1 -13t3.5 -15t8 -21.5t14.5 -31.5l116 -245l70 144q13 26 22.5 62.5t9.5 65.5q0 9 -3 22t-8 26.5t-12 27t-14 24.5h214l1 -3q-18 -18 -37.5 -41.5t-38.5 -50.5t-36 -56.5t-32 -58.5l-117 -231v-156q0 -81 67 -103h-254q12 5 21.5 16
t16 25.5t10.5 31t4 31.5v151l-145 294q-14 29 -24.5 49t-21.5 36.5t-24 31.5t-32 34h252z" />
    <glyph glyph-name="Z" unicode="Z" horiz-adv-x="609" 
d="M112 726q15 -8 27 -13t23.5 -8t24 -4t28.5 -1h391q-31 -42 -61 -84.5t-57 -87.5l-287 -475h61q29 0 52 4t44 11.5t41 18.5t43 25q26 17 56.5 29.5t65.5 13.5q25 0 42 -11q-29 -40 -50.5 -79t-41.5 -92q-18 14 -46 20.5t-54 6.5h-411q34 45 63.5 89t60.5 96l275 467h-26
q-54 0 -99 -21.5t-83 -53.5q-23 -18 -49 -30.5t-55 -12.5q-11 0 -21 3t-19 6q23 45 40 91.5t22 91.5z" />
    <glyph glyph-name="bracketleft" unicode="[" horiz-adv-x="385" 
d="M140 -112q-19 0 -19 19v819q0 19 19 19h210v-19q-14 -2 -30.5 -5.5t-31.5 -14.5t-25 -31.5t-10 -56.5v-603q0 -30 10 -49.5t25 -32t31.5 -18.5t30.5 -8v-19h-210z" />
    <glyph glyph-name="backslash" unicode="\" horiz-adv-x="483" 
d="M471 54q-17 -10 -24.5 -16.5t-12.5 -14.5t-11 -19.5t-21 -32.5l-392 658q5 5 16 14.5t23 21.5t24 24.5t18 23.5z" />
    <glyph glyph-name="bracketright" unicode="]" horiz-adv-x="385" 
d="M245 745q19 0 19 -19v-819q0 -19 -19 -19h-210v19q13 2 30 5.5t32 14.5t25 31.5t10 56.5v603q0 30 -10 49.5t-25 32t-32 18.5t-30 8v19h210z" />
    <glyph glyph-name="asciicircum" unicode="^" 
d="M268 725l225 -190l-49 -51l-176 123l-175 -123l-49 51z" />
    <glyph glyph-name="underscore" unicode="_" horiz-adv-x="514" 
d="M514 -17v-77h-514v77h514z" />
    <glyph glyph-name="quoteleft" unicode="&#x2018;" horiz-adv-x="211" 
d="M115 449q-21 0 -37 10t-27 26t-17 34t-6 35q0 29 9.5 57t26.5 50t41 35.5t53 13.5q-7 -13 -16 -28t-9 -41q0 -16 8 -27.5t17 -24t17 -28.5t8 -42q0 -16 -7 -29t-17.5 -22t-22 -14t-21.5 -5z" />
    <glyph glyph-name="a" unicode="a" horiz-adv-x="521" 
d="M74 362q-2 -5 -8 -5q-2 0 -4 3t-2 6q0 19 12 46t37 52t63 43t91 18q31 0 60.5 -6.5t53.5 -21t39.5 -37t18.5 -53.5l30 -309q1 -13 5 -28t11 -28.5t16 -24t21 -13.5l-1 -4h-172l-8 19q-38 -22 -64 -29.5t-56 -7.5q-43 0 -78 12t-59.5 33t-38 48.5t-13.5 59.5q0 43 18 77
t52 63.5t82 56t108 55.5q-8 23 -34.5 34.5t-54.5 11.5q-38 0 -73 -21t-52 -50zM303 344q-35 -21 -59 -41t-39 -42t-21.5 -47t-6.5 -56q0 -18 6.5 -38.5t18.5 -38.5t29 -30t39 -12q39 0 63 26z" />
    <glyph glyph-name="b" unicode="b" horiz-adv-x="542" 
d="M27 708q45 7 87 18t85 32v-303q28 27 62 45t77 18q34 0 64.5 -18.5t53 -49t36 -70.5t13.5 -83q0 -66 -19.5 -123.5t-52.5 -99.5t-77.5 -66t-95.5 -24q-24 0 -44.5 6t-38.5 13.5t-34 13.5t-31 6q-14 0 -27 -5t-26 -13l-5 2q5 20 9 45t4 51v498q0 38 -7 62.5t-33 44.5z
M199 102q0 -39 11.5 -58.5t38.5 -19.5q24 0 43 16.5t32 47t20 73.5t7 96q0 37 -4 70t-13.5 58t-25 39.5t-38.5 14.5q-22 0 -41 -18t-30 -38v-281z" />
    <glyph glyph-name="c" unicode="c" horiz-adv-x="491" 
d="M266 524q81 0 129 -32t48 -86q0 -42 -26.5 -65.5t-64.5 -23.5q-34 0 -60.5 23.5t-26.5 65.5q0 23 7.5 40.5t19.5 30.5q-4 0 -9 0.5t-10 0.5q-48 0 -78.5 -40.5t-30.5 -109.5q0 -54 18.5 -102t50 -84t74 -57t90.5 -21q19 0 36 6.5t28 14.5l5 -2l1 -5q-27 -45 -80 -70.5
t-122 -25.5q-47 0 -88 22t-72.5 61t-49.5 92t-18 115q0 52 17 98t48 80.5t72.5 54t91.5 19.5z" />
    <glyph glyph-name="d" unicode="d" horiz-adv-x="543" 
d="M226 -17q-41 0 -75.5 20t-60 54.5t-39.5 80.5t-14 99q0 43 11 94t35.5 95t63 73t93.5 29q32 0 55 -12t49 -38v106q0 27 -1.5 47t-7 35t-16 26.5t-28.5 20.5q45 8 92.5 18.5t92.5 26.5v-656q0 -21 3.5 -36t10 -27t16.5 -22t23 -21q-14 2 -42 3t-56 1h-82l-2 40
q-32 -29 -57.5 -43t-63.5 -14zM183 284q0 -33 5 -72.5t17 -74t31 -58t48 -23.5q25 0 42 19.5t17 51.5v270q0 19 -6.5 34t-17 25t-23 15t-24.5 5q-27 0 -44.5 -12.5t-27.5 -37t-13.5 -60.5t-3.5 -82z" />
    <glyph glyph-name="e" unicode="e" horiz-adv-x="513" 
d="M37 259q0 48 15.5 96t44.5 86.5t70 63t92 24.5q47 0 86 -20t66.5 -53t43 -76t15.5 -88q0 -14 -1 -17h-306q11 -46 35.5 -82.5t56 -62t67 -39.5t69.5 -14q32 0 59.5 9.5t50.5 25.5q-15 -34 -47 -61t-71 -41q-23 -8 -47.5 -14.5t-47.5 -6.5q-55 0 -101 22.5t-79.5 60
t-52 86t-18.5 101.5zM148 376q0 -36 5 -58v-4h169q0 27 -5 55.5t-15.5 52t-27 38.5t-39.5 15q-33 0 -60 -25t-27 -74z" />
    <glyph glyph-name="f" unicode="f" horiz-adv-x="288" 
d="M78 458h-58v48h58q0 25 -6 39.5t-13 26.5t-13 26t-6 39q0 28 13.5 49t35 35.5t48.5 21.5t53 7q27 0 51.5 -8t42.5 -22.5t28.5 -33t10.5 -39.5q0 -27 -16.5 -46t-39.5 -19q-21 0 -36.5 14t-15.5 34q0 11 1 17.5t2.5 11.5t3 10.5t1.5 14.5q0 13 -11 21t-27 8
q-17 0 -26.5 -11.5t-9.5 -28.5q0 -15 9.5 -29.5t21 -30.5t21 -33.5t9.5 -37.5v-36h54v-48h-54v-378q0 -9 3 -20t9.5 -22.5t16 -21.5t22.5 -16h-240q12 7 22.5 18t18 23.5t12 25.5t4.5 24v367z" />
    <glyph glyph-name="g" unicode="g" horiz-adv-x="553" 
d="M26 -103q0 14 10 25t24 11q20 0 42 -13q38 -23 74 -36t89 -13q18 0 38.5 4.5t37.5 14t28.5 25t11.5 38.5q0 16 -9 33t-26 25v50q-6 -12 -17 -24.5t-26.5 -23t-35 -17.5t-43.5 -7q-46 0 -81 21.5t-58.5 55t-35.5 75.5t-12 83q0 57 19 114t58 99q37 40 74.5 60t85.5 20
q24 0 44 -6t39 -12.5t37.5 -12.5t39.5 -6q20 0 34 5.5t41 25.5l3 -3q-8 -13 -14 -31.5t-10.5 -38.5t-7 -41.5t-2.5 -40.5v-254q0 -16 6 -29t13.5 -26.5t13.5 -28.5t6 -36q0 -81 -64.5 -115.5t-187.5 -34.5q-54 0 -98 2.5t-75.5 9t-48.5 19.5t-17 34zM181 278q0 -26 2 -58.5
t11.5 -61.5t29 -48.5t54.5 -19.5q12 0 24 5.5t21.5 16.5t16 27t6.5 37v200q0 45 -17 70.5t-55 25.5q-21 0 -37 -12q-17 -11 -28 -31t-17 -44.5t-8.5 -52t-2.5 -54.5z" />
    <glyph glyph-name="h" unicode="h" 
d="M70 640q0 26 -13.5 43t-33.5 25q46 5 93 16.5t86 33.5v-308q23 30 57 50.5t76 20.5q69 0 103.5 -32.5t34.5 -92.5v-300q0 -28 10.5 -55.5t36.5 -40.5h-198q10 13 14.5 33t4.5 39v298q0 21 -5.5 35.5t-14.5 23.5t-19.5 13t-20.5 4q-14 0 -28 -5.5t-25 -17.5t-18.5 -30.5
t-7.5 -45.5v-244q0 -40 13.5 -63.5t36.5 -39.5h-232q16 13 33 36.5t17 54.5v549z" />
    <glyph glyph-name="i" unicode="i" horiz-adv-x="269" 
d="M70 404q0 26 -11.5 48.5t-37.5 33.5q51 5 93.5 18t87.5 31v-428q0 -41 12.5 -64t38.5 -43h-235v4q22 11 37 31.5t15 43.5v325zM54 663q0 33 22.5 56.5t54.5 23.5q33 0 56 -23.5t23 -56.5t-23 -56t-56 -23q-32 0 -54.5 23t-22.5 56z" />
    <glyph glyph-name="j" unicode="j" horiz-adv-x="264" 
d="M54 663q0 33 22.5 56.5t54.5 23.5q33 0 56 -23.5t23 -56.5t-23 -56t-56 -23q-32 0 -54.5 23t-22.5 56zM199 -56q0 -38 -16 -60.5t-40 -34.5t-52 -16t-53 -4q-20 0 -32 4q12 4 23 10t19.5 16.5t13.5 27t5 40.5v463q0 37 -14 58t-43 30q48 7 94.5 21.5t94.5 34.5v-590z" />
    <glyph glyph-name="k" unicode="k" 
d="M199 250l87 89q18 18 31 42t13 50q0 23 -16 41.5t-35 30.5v3h246l2 -7q-37 -26 -83 -62.5t-112 -102.5l130 -248q17 -33 33 -51t39 -35h-238q13 10 20.5 19t7.5 24q0 7 -4 21t-11 26l-76 145l-34 -30v-113q0 -32 10.5 -54t27.5 -32v-6h-218l-1 5q24 8 36.5 34.5
t12.5 64.5v513q0 33 -10.5 52.5t-30.5 32.5v4q42 4 85 17.5t88 34.5v-508z" />
    <glyph glyph-name="l" unicode="l" horiz-adv-x="272" 
d="M20 715q37 5 84 14.5t98 28.5v-665q0 -29 8 -49t37 -44h-227q15 10 32.5 33.5t17.5 59.5v548q0 25 -11 42t-39 32z" />
    <glyph glyph-name="m" unicode="m" horiz-adv-x="782" 
d="M70 344q0 42 -1.5 67.5t-7 42t-16 26t-29.5 19.5q29 2 52.5 5t45 7.5t43 10.5t45.5 13v-79q7 10 19.5 21t28.5 20t34.5 14.5t39.5 5.5q57 0 89 -19t50 -62q22 36 50.5 58.5t76.5 22.5q63 0 95.5 -35.5t32.5 -86.5v-308q0 -31 11 -50.5t31 -36.5h-199q11 13 18 31.5
t7 37.5v298q0 37 -15.5 50.5t-36.5 13.5q-33 0 -49 -19t-25 -57v-264q0 -30 10.5 -52t34.5 -39h-219q22 17 32 41.5t10 49.5v270q0 36 -13.5 53t-35.5 17q-59 0 -77 -77v-274q0 -31 6 -48.5t20 -31.5h-203q23 20 34.5 40.5t11.5 51.5z" />
    <glyph glyph-name="n" unicode="n" horiz-adv-x="532" 
d="M70 398q0 24 -11 48.5t-29 38.5v5q46 6 88 16.5t84 27.5v-80q29 28 62.5 46.5t75.5 18.5q21 0 43.5 -6.5t41.5 -21t31 -37.5t12 -56v-326q0 -20 10.5 -38.5t25.5 -33.5h-194q10 13 18 35t8 50v278q0 45 -16 63t-39 18q-14 0 -27 -5.5t-23.5 -14t-18 -19.5t-10.5 -21v-308
q0 -29 13 -46.5t27 -29.5h-221q21 18 35 45t14 65v288z" />
    <glyph glyph-name="o" unicode="o" horiz-adv-x="541" 
d="M36 252q0 57 18.5 106t50 86t74.5 58t91 21t90.5 -21t74.5 -57.5t51 -85.5t19 -105q0 -55 -19 -103.5t-51.5 -85t-75 -57.5t-89.5 -21q-48 0 -91 20t-74.5 55.5t-50 84t-18.5 105.5zM192 134q0 -34 6.5 -56.5t17.5 -35.5t25 -18.5t29 -5.5q14 0 28 6t25.5 19.5t18.5 35.5
t7 55v30.5v48.5t-0.5 57t-0.5 55.5v43.5v22q0 42 -18 69t-60 27q-39 0 -58.5 -27t-19.5 -69v-257z" />
    <glyph glyph-name="p" unicode="p" horiz-adv-x="534" 
d="M199 450q40 28 78 48t76 20q30 0 56.5 -15.5t46 -42t30.5 -62.5t11 -76q0 -71 -27.5 -125t-71 -93.5t-96.5 -66.5t-103 -44v-74q0 -25 10.5 -46t37.5 -36h-231q23 12 37 37.5t14 51.5v471q0 29 -10.5 50t-29.5 36q43 9 86.5 22t85.5 28v-83zM199 35q40 16 69.5 42
t49.5 58.5t30 68.5t10 72q0 24 -7 50.5t-19.5 48.5t-30 36.5t-38.5 14.5q-16 0 -34 -3.5t-30 -13.5v-374z" />
    <glyph glyph-name="q" unicode="q" horiz-adv-x="550" 
d="M508 507q-14 -20 -19.5 -44t-5.5 -72v-473q0 -19 4 -31.5t11 -21t17 -15t22 -13.5h-226q22 18 31 34.5t9 44.5v113q-25 -25 -55 -36.5t-62 -11.5q-41 0 -77 19t-62.5 52t-42 77.5t-15.5 94.5q0 65 19.5 119t53.5 93t80 60.5t99 21.5q32 0 54 -5t38.5 -11.5t30 -11.5
t27.5 -5q17 0 33.5 8.5t28.5 19.5zM351 392q0 40 -19.5 62t-46.5 22q-40 -1 -67.5 -48.5t-27.5 -134.5q0 -51 9 -94t24.5 -75t36.5 -50t44 -18q26 0 47 18v318z" />
    <glyph glyph-name="r" unicode="r" horiz-adv-x="449" 
d="M26 470q45 11 89.5 27t86.5 38v-125q25 42 57.5 73.5t76.5 31.5q18 0 35.5 -6t31.5 -17.5t22.5 -27t8.5 -34.5q0 -33 -22 -54.5t-53 -21.5q-12 0 -21.5 3.5t-18.5 7.5t-20 7.5t-26 3.5q-12 0 -24.5 -6.5t-23 -19.5t-17 -34t-6.5 -49v-177q0 -32 8 -53.5t32 -36.5h-213
q16 11 28.5 32.5t12.5 53.5v309q0 15 -5 27t-12 21.5t-14.5 16t-12.5 10.5z" />
    <glyph glyph-name="s" unicode="s" horiz-adv-x="509" 
d="M9 106q6 5 23.5 8.5t28.5 3.5q33 0 60 -16t54 -34.5t57 -34.5t69 -16q38 0 59.5 18t21.5 53q0 20 -14 36t-31 26q-20 12 -47.5 22.5t-56 21t-56.5 21t-50 22.5q-38 20 -62.5 50t-24.5 84q0 34 11.5 61.5t32.5 47.5t50 31t64 11q19 0 35.5 -4t32 -8.5t30 -8t29.5 -3.5
q17 0 31.5 4t25.5 9q4 -10 11 -24t15.5 -28.5t16.5 -27.5t14 -21q-6 -6 -16.5 -9t-19.5 -3q-31 0 -55 13.5t-46.5 29.5t-46 29.5t-52.5 13.5q-32 0 -52 -15t-20 -38q0 -13 5.5 -24.5t21.5 -23.5t46 -24t79 -26q89 -26 141 -68t52 -112q0 -42 -15.5 -73.5t-42 -52.5t-61 -32
t-72.5 -11q-22 0 -39 3t-31.5 7t-28 7t-29.5 3q-17 0 -36 -6.5t-34 -14.5q-13 29 -34 62.5t-44 60.5z" />
    <glyph glyph-name="t" unicode="t" horiz-adv-x="296" 
d="M69 458h-63q60 36 106.5 80.5t88.5 101.5v-134h68v-48h-68v-346q0 -25 10.5 -40.5t28.5 -15.5q9 0 18.5 5t20.5 19q2 -10 2 -13q0 -17 -10.5 -31.5t-26.5 -25t-35 -16.5t-35 -6q-43 0 -74 24t-31 81v365z" />
    <glyph glyph-name="u" unicode="u" horiz-adv-x="543" 
d="M70 415q0 23 -15 46t-38 32v5q17 2 41 6t49.5 9.5t50 11.5t44.5 12v-387q0 -26 5 -41.5t13 -23.5t19.5 -11t24.5 -3q36 0 58 21t22 59v273q0 21 -10 39.5t-40 29.5v5q45 4 92.5 14.5t89.5 24.5v-423q0 -25 3 -41.5t9.5 -29t16 -22.5t22.5 -21h-162q-14 0 -21 6.5t-7 25.5
v17q-42 -41 -75.5 -53t-64.5 -12q-20 0 -42.5 6t-41 20.5t-31 37.5t-12.5 57v310z" />
    <glyph glyph-name="v" unicode="v" horiz-adv-x="574" 
d="M72 422q-8 20 -28 45t-41 39h249q-11 -8 -23 -23.5t-12 -29.5q0 -12 2.5 -23.5t11.5 -33.5l115 -275l22 64q14 42 27 92t13 101q0 48 -13.5 80t-28.5 48h205q-29 -27 -57 -77t-53.5 -111t-48 -125.5t-40.5 -120.5q8 -23 26.5 -42t35.5 -30q-51 0 -91 -9t-79 -21z" />
    <glyph glyph-name="w" unicode="w" horiz-adv-x="782" 
d="M252 506v-6q-13 -9 -24 -24t-11 -39q0 -13 3 -28t11 -39l75 -231l123 354h6l127 -355q15 37 25.5 67t17.5 57t10 53.5t3 56.5q0 36 -13 72t-34 57l1 5h206l1 -5q-18 -22 -39.5 -55.5t-41.5 -78.5q-11 -25 -26.5 -62t-31.5 -77t-31 -79t-25 -68q7 -18 13.5 -30.5t14 -21.5
t17 -16t21.5 -13q-80 -9 -171 -38l-94 271l-56 -153q12 -34 25.5 -53t36.5 -31q-43 0 -88 -7.5t-80 -22.5l-146 437q-12 37 -28 59t-46 40v4h249z" />
    <glyph glyph-name="x" unicode="x" 
d="M312 330q25 29 39 53t14 55q0 18 -9 34t-22 30l1 4h178v-12q-34 -26 -65 -59t-59 -67l-58 -70l79 -136q21 -36 37.5 -61t31 -43t27.5 -30.5t28 -24.5v-3h-249l-1 5q14 8 21 16t7 26q0 14 -8.5 32.5t-21.5 40.5l-41 72q-23 -29 -38 -57t-15 -54q0 -21 9.5 -42.5
t23.5 -32.5l-2 -6h-214l-2 6q36 26 64.5 53t55.5 59l99 112l-94 158q-25 40 -52 62.5t-53 30.5q23 5 42 9.5t38 10t40 13t48 18.5z" />
    <glyph glyph-name="y" unicode="y" horiz-adv-x="553" 
d="M72 -96q0 16 6.5 28t16 19.5t20.5 11t20 3.5q17 0 27.5 -4.5t19 -10.5t18 -10.5t23.5 -4.5q13 0 25.5 15.5t20.5 35.5l-191 416q-11 24 -33 45.5t-44 26.5q45 10 87.5 22.5t82.5 32.5q9 -28 18.5 -49t21.5 -47l129 -285q36 80 48 128t12 80q0 51 -15 85.5t-44 63.5h210
q-28 -38 -51.5 -81.5t-46.5 -100.5l-134 -331q-11 -28 -27 -57t-36 -52.5t-44.5 -38.5t-52.5 -15q-39 0 -63 19t-24 55z" />
    <glyph glyph-name="z" unicode="z" horiz-adv-x="520" 
d="M426 -37q-12 17 -42 27t-67 10h-317q18 19 39 44.5t41 52t37 50t26 37.5l188 288h-27q-31 0 -60 -13.5t-54 -33.5q-20 -17 -42 -28.5t-48 -11.5q-10 0 -16 2.5t-11 4.5q18 31 29 70.5t17 82.5q26 -24 53.5 -31.5t74.5 -7.5h266q-18 -21 -42 -53.5t-61 -86t-91 -133.5
t-131 -196h53q29 0 57 9.5t53 23.5q13 8 29.5 16t34 15t34 11t30.5 4q12 0 22.5 -2.5t15.5 -6.5q-8 -9 -21 -26t-26.5 -37t-25.5 -41.5t-18 -39.5z" />
    <glyph glyph-name="braceleft" unicode="{" horiz-adv-x="297" 
d="M284 752q4 0 6 -8.5t2 -13.5t-2 -13t-6 -9q-26 -3 -41 -11.5t-22.5 -20.5t-9.5 -27t-2 -30q0 -22 2.5 -42t6 -39.5t6 -40t2.5 -44.5q0 -37 -18 -68t-60 -41q42 -5 60 -36.5t18 -73.5q0 -23 -2.5 -42t-6 -38t-6 -40t-2.5 -47q0 -15 2.5 -29.5t10 -26.5t22.5 -20.5
t40 -11.5q4 -1 6 -9.5t2 -13.5t-2 -13t-6 -8q-21 0 -51 3.5t-58 16t-47.5 36t-19.5 64.5q0 8 1.5 33t4 54t4 56t1.5 40q0 10 -1.5 22.5t-9.5 24.5t-24.5 22t-46.5 14q-5 1 -8.5 10.5t-3.5 11.5q0 3 3 12.5t9 10.5q30 3 46.5 12.5t24.5 22t9.5 25.5t1.5 23q0 13 -1.5 39.5
t-4 55.5t-4 54t-1.5 34q0 40 19.5 64t47.5 36.5t58 16t51 3.5z" />
    <glyph glyph-name="bar" unicode="|" horiz-adv-x="282" 
d="M93 700h96v-700h-96v700z" />
    <glyph glyph-name="braceright" unicode="}" horiz-adv-x="297" 
d="M13 752q21 0 51 -3.5t58 -16t47.5 -36.5t19.5 -64q0 -9 -1.5 -34t-4 -54t-4 -55.5t-1.5 -39.5q0 -10 1.5 -23t9.5 -25.5t24.5 -22t46.5 -12.5q6 -1 9 -10.5t3 -12.5q0 -2 -3.5 -11.5t-8.5 -10.5q-30 -4 -46.5 -14t-24.5 -22t-9.5 -24.5t-1.5 -22.5q0 -13 1.5 -40t4 -56
t4 -54t1.5 -33q0 -41 -19.5 -64.5t-47.5 -36t-58 -16t-51 -3.5q-5 0 -6.5 8.5t-1.5 13.5t1.5 13t6.5 9q25 3 40 11.5t22.5 20.5t9.5 26.5t2 29.5q0 24 -2.5 45t-5.5 40.5t-5.5 39t-2.5 42.5q0 41 18.5 73t58.5 37q-40 10 -58.5 40.5t-18.5 68.5q0 24 2.5 44.5t5.5 40
t5.5 39.5t2.5 42q0 15 -2 30t-9.5 27t-22.5 20.5t-40 11.5q-5 1 -6.5 9.5t-1.5 13.5t1.5 13t6.5 8z" />
    <glyph glyph-name="asciitilde" unicode="~" horiz-adv-x="487" 
d="M56 302q30 26 60.5 41.5t65.5 15.5q19 0 35 -7t31.5 -16t31 -16t34.5 -7t33 3.5t26.5 10.5t26 18.5t31.5 27.5v-99q-30 -26 -59 -42t-63 -16q-23 0 -40 7.5t-32 16t-29.5 16t-32.5 7.5q-32 0 -58 -14t-61 -46v99z" />
    <glyph glyph-name="section" unicode="&#xa7;" horiz-adv-x="545" 
d="M234 713q21 0 36.5 -4t29.5 -8.5t27.5 -8t29.5 -3.5t31 3t25 9q10 -24 22.5 -48t29.5 -47q-17 -9 -38 -9q-26 0 -49 12t-46.5 26t-48 26t-52.5 12q-26 0 -46 -10.5t-20 -39.5q0 -34 24.5 -52.5t60.5 -30.5t79 -22.5t79 -29.5t60.5 -51t24.5 -86q0 -37 -13 -64t-36 -45
q22 -18 35.5 -39t13.5 -64q0 -38 -16.5 -67t-43 -48.5t-60.5 -29.5t-70 -10q-24 0 -40 3t-29 6.5t-26.5 6.5t-31.5 3q-17 0 -33.5 -5t-25.5 -10q-12 29 -32.5 62.5t-37.5 54.5q25 11 52 11q23 0 44.5 -15t46.5 -33t54.5 -33t68.5 -15q43 0 74.5 21.5t31.5 61.5
q0 36 -25.5 55.5t-64 31.5t-83 20.5t-83 23t-64 40t-25.5 71.5q0 45 24.5 72t60.5 45q-33 16 -59 45t-26 79q0 25 12 48.5t33 40.5t50.5 27.5t64.5 10.5zM419 316q0 31 -20 50.5t-51 32.5t-69 22.5t-75 22.5q-14 -8 -26.5 -23.5t-12.5 -35.5q0 -30 24 -46.5t59.5 -27t77 -20
t77.5 -26.5q16 22 16 51z" />
    <glyph glyph-name="currency" unicode="&#xa4;" horiz-adv-x="541" 
d="M271 640q-21 0 -39.5 -11t-32 -30.5t-21.5 -45.5t-8 -55q0 -30 8 -56.5t21.5 -46t32 -31t39.5 -11.5t39 11.5t31.5 31t21 46t7.5 56.5q0 29 -7.5 55t-21 45.5t-31.5 30.5t-39 11zM156 668q24 18 55 25t60 7q28 0 59 -7.5t55 -25.5l39 49q11 14 27 14q14 0 26 -12t12 -26
q0 -15 -11 -26l-44 -43q20 -24 31.5 -57t11.5 -68q0 -36 -11 -69.5t-31 -57.5l43 -42q10 -11 10 -22q0 -15 -13 -27.5t-29 -12.5q-13 0 -22 11l-39 50q-24 -19 -55 -27t-59 -8q-29 0 -60 7.5t-55 26.5l-40 -49q-8 -11 -23 -11t-28 12.5t-13 29.5q0 10 10 20l46 40
q-20 24 -32.5 58.5t-12.5 70.5q0 35 13 68.5t33 57.5l-47 42q-9 9 -9 18q0 17 14.5 29.5t29.5 12.5q12 0 19 -10z" />
    <glyph glyph-name="quotesingle" unicode="'" horiz-adv-x="218" 
d="M181 627q0 -42 -14 -91t-60 -111q-43 62 -56.5 111t-13.5 91q0 33 18.5 56.5t51.5 23.5t53.5 -23.5t20.5 -56.5z" />
    <glyph glyph-name="quotedblleft" unicode="&#x201c;" horiz-adv-x="403" 
d="M115 447q-21 0 -37 10t-27 26t-17 34t-6 35q0 29 9.5 57t26.5 50t41 35.5t53 13.5q-7 -13 -16 -28t-9 -41q0 -16 8 -27.5t17.5 -24t17.5 -28.5t8 -42q0 -16 -7 -29t-17.5 -22t-22.5 -14t-22 -5zM306 455q-21 0 -37 10t-27.5 25.5t-17 33.5t-5.5 35q0 29 9.5 57t26.5 50.5
t41 36t53 13.5q-7 -13 -16 -28.5t-9 -40.5q0 -16 8 -27.5t17.5 -24t17.5 -28.5t8 -42q0 -16 -7 -29t-17.5 -22t-22.5 -14t-22 -5z" />
    <glyph glyph-name="guilsinglleft" unicode="&#x2039;" horiz-adv-x="338" 
d="M20 344l264 228l34 -63l-201 -184l201 -184l-34 -63l-264 226v40z" />
    <glyph glyph-name="guilsinglright" unicode="&#x203a;" horiz-adv-x="338" 
d="M318 304l-263 -226l-35 63l202 184l-202 184l35 63l263 -228v-40z" />
    <glyph glyph-name="endash" unicode="&#x2013;" horiz-adv-x="500" 
d="M489 346q-19 -34 -19 -77h-460q10 19 14.5 37t4.5 40h460z" />
    <glyph glyph-name="dagger" unicode="&#x2020;" horiz-adv-x="543" 
d="M190 476q-21 0 -39.5 -5t-36.5 -15t-36.5 -24.5t-40.5 -33.5l-9 9q15 33 26 76.5t15 91.5q10 -12 20.5 -20t27 -13t42 -7.5t64.5 -2.5q0 24 -2 44.5t-6.5 38.5t-12 35.5t-17.5 36.5q5 9 15 19t22 19t25 15t24 7q12 -1 26 -7t26 -15t22 -19t15 -19q-11 -19 -18 -36.5
t-11.5 -35.5t-6.5 -38.5t-2 -44.5q38 0 63 2.5t41.5 7.5t27 13t20.5 20q3 -48 14 -91.5t27 -76.5l-10 -9q-43 38 -76.5 58t-75.5 20h-31q0 -36 1.5 -64t5 -51.5t9.5 -44.5t15 -42q-4 -85 -24.5 -190t-57.5 -205q-18 49 -31.5 101t-23.5 103.5t-15.5 100t-7.5 90.5
q8 21 14 42t9.5 44.5t5 51.5t1.5 64h-33z" />
    <glyph glyph-name="daggerdbl" unicode="&#x2021;" horiz-adv-x="543" 
d="M505 398q-43 38 -76.5 58t-75.5 20h-33q0 -17 1 -38t4.5 -42.5t9 -43t14.5 -38.5q-9 -18 -14.5 -39t-9 -43t-4.5 -43t-1 -38h33q42 0 75.5 20t76.5 58l10 -9q-16 -33 -27 -76.5t-14 -91.5q-10 12 -20.5 20t-27.5 13t-42 7.5t-64 2.5q0 -24 2 -44.5t6.5 -38.5t11.5 -35.5
t18 -36.5q-5 -9 -14.5 -19t-21.5 -18.5t-25.5 -15t-25.5 -7.5q-11 1 -24 7.5t-25 15t-22 18.5t-15 19q10 19 17.5 36.5t12 35.5t6.5 38.5t2 44.5q-39 0 -64.5 -2.5t-42 -7.5t-27 -13t-20.5 -20q-4 48 -15 91.5t-26 76.5l9 9q22 -19 40.5 -33.5t36.5 -24.5t36.5 -15t39.5 -5
h33q0 17 -1 38t-4 43t-8 43t-13 39q8 17 13 38.5t8 43t4 42.5t1 38h-33q-21 0 -39.5 -5t-36.5 -15t-36.5 -24.5t-40.5 -33.5l-9 9q15 33 26 76.5t15 91.5q10 -12 20.5 -20t27 -13t42 -7.5t64.5 -2.5q0 24 -2 44.5t-6.5 38.5t-12 35.5t-17.5 36.5q5 9 15 19t22 19t25 15t24 7
q12 -1 25.5 -7t25.5 -15t21.5 -19t14.5 -19q-11 -19 -18 -36.5t-11.5 -35.5t-6.5 -38.5t-2 -44.5q39 0 64 2.5t42 7.5t27.5 13t20.5 20q3 -48 14 -91.5t27 -76.5z" />
    <glyph glyph-name="periodcentered" unicode="&#xb7;" horiz-adv-x="200" 
d="M100 432q33 0 57.5 -24t24.5 -58t-24.5 -57.5t-57.5 -23.5q-34 0 -57.5 23.5t-23.5 57.5t23.5 58t57.5 24z" />
    <glyph glyph-name="paragraph" unicode="&#xb6;" horiz-adv-x="673" 
d="M584 102q0 -30 14 -58.5t34 -43.5h-104v663h-43v-663h-120q27 15 45.5 45t18.5 90v61q0 18 -19 36t-42 28l-123 53q-57 25 -98 47.5t-67 47.5t-38 54t-12 68q0 46 21.5 78.5t55.5 52.5t75.5 29.5t80.5 9.5h362q-17 -11 -29 -37t-12 -56v-505zM429 658q-18 5 -48 5
q-33 0 -68 -8.5t-64 -27t-47.5 -47.5t-18.5 -70q0 -60 29.5 -99t86.5 -67l130 -64v378z" />
    <glyph glyph-name="bullet" unicode="&#x2022;" horiz-adv-x="359" 
d="M56 354q0 25 9.5 48t26.5 39.5t39 26.5t48 10q25 0 48 -10t39.5 -26.5t26.5 -39.5t10 -48q0 -26 -10 -48t-26.5 -39t-39.5 -26.5t-48 -9.5q-26 0 -48 9.5t-39 26.5t-26.5 39t-9.5 48z" />
    <glyph glyph-name="quotesinglbase" unicode="&#x201a;" horiz-adv-x="211" 
d="M97 146q21 0 37 -10t27 -25.5t16.5 -33.5t5.5 -34q0 -29 -9.5 -57.5t-26.5 -51t-41 -36t-52 -13.5q7 13 16 28.5t9 40.5q0 16 -8 27.5t-17.5 24t-17.5 28.5t-8 42q0 16 7 29t17.5 22t22.5 14t22 5z" />
    <glyph glyph-name="quotedblbase" unicode="&#x201e;" horiz-adv-x="403" 
d="M288 152q21 0 37 -10t27 -26t17 -34.5t6 -34.5q0 -29 -9.5 -57t-26.5 -50t-41 -35.5t-53 -13.5q7 13 16 28t9 41q0 16 -8 27.5t-17.5 24t-17.5 28.5t-8 42q0 16 7 29t17.5 22t22.5 14t22 5zM97 144q21 0 37 -10t27.5 -25.5t17 -34t5.5 -34.5q0 -29 -9.5 -57t-26.5 -50.5
t-41 -36t-53 -13.5q7 13 16 28.5t9 40.5q0 16 -8 27.5t-17.5 24t-17.5 28.5t-8 42q0 16 7 29t17.5 22t22.5 14t22 5z" />
    <glyph glyph-name="quotedblright" unicode="&#x201d;" horiz-adv-x="403" 
d="M288 716q21 0 37 -10t27 -26t17 -34.5t6 -34.5q0 -29 -9.5 -57t-26.5 -50t-41 -35.5t-53 -13.5q7 13 16 28t9 41q0 16 -8 27.5t-17.5 24t-17.5 28.5t-8 42q0 16 7 29t17.5 22t22.5 14t22 5zM97 708q21 0 37 -10t27.5 -25.5t17 -34t5.5 -34.5q0 -29 -9.5 -57t-26.5 -50.5
t-41 -36t-53 -13.5q7 13 16 28.5t9 40.5q0 16 -8 27.5t-17.5 24t-17.5 28.5t-8 42q0 16 7 29t17.5 22t22.5 14t22 5z" />
    <glyph glyph-name="ellipsis" unicode="&#x2026;" horiz-adv-x="828" 
d="M334 73q0 35 24 60t59 25t59.5 -25t24.5 -60q0 -36 -24.5 -60.5t-59.5 -24.5t-59 24.5t-24 60.5zM598 73q0 35 24 60t59 25t59.5 -25t24.5 -60q0 -36 -24.5 -60.5t-59.5 -24.5t-59 24.5t-24 60.5zM69 73q0 35 24 60t59 25t59.5 -25t24.5 -60q0 -36 -24.5 -60.5
t-59.5 -24.5t-59 24.5t-24 60.5z" />
    <glyph glyph-name="perthousand" unicode="&#x2030;" horiz-adv-x="921" 
d="M757 391q30 0 56.5 -12.5t46 -34.5t31 -52t11.5 -64t-11.5 -64t-31 -52.5t-46 -35.5t-56.5 -13t-56.5 13t-46 35.5t-31 52.5t-11.5 64q0 18 2 33.5t10 32.5q0 6 -6 6h-32q-6 0 -6 -6q13 -30 13 -66q0 -34 -11 -64t-30.5 -52.5t-46 -35.5t-56.5 -13t-56.5 13t-46 35.5
t-31 52.5t-11.5 64v17q0 6 -4.5 11.5t-10.5 5.5q-5 0 -9 -7l-102 -255h-37l151 379q0 5 -9 5q-20 -32 -51 -52t-68 -20q-30 0 -56 13t-45.5 35.5t-31 52.5t-11.5 64t11.5 63.5t31 51.5t45.5 34.5t56 12.5q55 0 90 -35q5 -5 21 -5q15 0 36.5 7t43 20.5t39.5 32t27 41.5h37
l-145 -362l-1 -5q0 -5 4.5 -9t9.5 -4q3 0 5 3q20 31 50.5 49.5t67.5 18.5q32 0 60.5 -15t48.5 -41q6 -8 18.5 -12t26.5 -4q31 0 47 19q21 24 48 38.5t59 14.5zM308 477q0 -7 -0.5 -13.5t-1.5 -11.5q0 -2 4.5 -4t8.5 -2l69 176q-11 -12 -26 -21t-30 -15t-27.5 -9.5
t-19.5 -3.5h-6q29 -41 29 -96zM215 559q0 26 -14.5 43t-36.5 17t-36.5 -17t-14.5 -43v-166q0 -26 14.5 -43t36.5 -17t36.5 17t14.5 43v166zM500 310q0 26 -14.5 43t-36.5 17t-37 -17t-15 -43v-166q0 -26 15 -42.5t37 -16.5t36.5 16.5t14.5 42.5v166zM808 311
q0 26 -14.5 42.5t-36.5 16.5t-36.5 -16.5t-14.5 -42.5v-167q0 -26 14 -42.5t37 -16.5q22 0 36.5 16.5t14.5 42.5v167z" />
    <glyph glyph-name="grave" unicode="`" horiz-adv-x="412" 
d="M168 574l-154 148q33 0 66 2t65 8l141 -158h-118z" />
    <glyph glyph-name="emdash" unicode="&#x2014;" horiz-adv-x="1000" 
d="M989 346q-19 -34 -19 -77h-960q10 19 14.5 37t4.5 40h960z" />
    <glyph glyph-name="logicalnot" unicode="&#xac;" horiz-adv-x="518" 
d="M500 518v-272h-77v195h-405v77h482z" />
    <glyph glyph-name="mu" unicode="&#xb5;" horiz-adv-x="558" 
d="M67 506q32 0 64 3t64 17v-367q0 -49 20 -68.5t51 -19.5q12 0 26 8.5t26 23.5t19.5 35t7.5 43v325q33 0 65 3t63 17v-391q0 -45 10 -62t29 -17q10 0 19.5 5t19.5 19q2 -6 2 -12q0 -19 -11.5 -33.5t-28 -25t-35 -16t-33.5 -5.5q-40 0 -65.5 18t-33.5 50q-3 -18 -13 -31.5
t-23 -22.5t-27 -13.5t-26 -4.5q-27 0 -47 9.5t-34.5 24.5t-23.5 34.5t-14 40.5h-4q0 -31 9.5 -63t21 -62.5t21 -59.5t9.5 -54q-24 0 -41.5 -2.5t-31.5 -7.5t-27 -11.5t-28 -14.5v688z" />
    <glyph glyph-name="trademark" unicode="&#x2122;" horiz-adv-x="747" 
d="M246 699q23 0 40.5 5t28.5 13q1 -10 4.5 -23.5t7.5 -27t9 -26t9 -20.5q-3 -3 -11 -3q-14 0 -33 7t-30 21q-14 16 -26.5 22t-21.5 6v-263q0 -11 4.5 -24.5t15.5 -21.5h-129q27 19 27 46v263q-15 0 -30 -10.5t-31 -25.5q-12 -11 -29 -15.5t-28 -4.5q-3 0 -5 1l-4 2
q6 9 11.5 21.5t11 26t9.5 26.5t7 23q7 -5 23 -11.5t38 -6.5h132zM486 700q-15 -14 -15 -33q0 -9 3 -18l46 -124l50 158q-3 10 -16 17h137q-14 -6 -19.5 -17t-5.5 -24q0 -8 0.5 -18.5t2.5 -18.5l24 -170q5 -35 11.5 -54.5t23.5 -32.5h-129q19 16 19 41q0 11 -1 14l-29 209
l-76 -256l-105 260l-12 -97q-2 -11 -4 -33t-2 -44q0 -20 6.5 -48.5t19.5 -45.5h-105q6 12 12.5 25.5t13.5 33t13.5 47.5t12.5 70l18 127q-11 15 -31 32h137z" />
    <glyph glyph-name="plusminus" unicode="&#xb1;" horiz-adv-x="403" 
d="M163 562h77v-153h153q-18 -35 -18 -77h-135v-153h-77v153h-153q10 19 14 37t4 40h135v153zM369 144q-19 -35 -19 -77h-308q10 19 14.5 37t4.5 40h308z" />
    <glyph glyph-name="brokenbar" unicode="&#xa6;" horiz-adv-x="243" 
d="M74 278h95v-278h-95v278zM74 700h95v-279h-95v279z" />
    <glyph glyph-name="degree" unicode="&#xb0;" horiz-adv-x="337" 
d="M168 721q27 0 51 -10t42 -28t28.5 -42t10.5 -51t-10.5 -51t-28.5 -41.5t-42 -28t-51 -10.5t-51 10.5t-41.5 28t-28 41.5t-10.5 51t10.5 51t28 42t41.5 28t51 10zM168 677q-35 0 -59.5 -25.5t-24.5 -61.5t24.5 -61.5t59.5 -25.5q18 0 33.5 7t27 18.5t18 27.5t6.5 34
t-6.5 34t-18 27.5t-27 18.5t-33.5 7z" />
    <glyph glyph-name="registered" unicode="&#xae;" horiz-adv-x="569" 
d="M283 758q54 0 102 -20.5t84 -56.5t56.5 -84t20.5 -102t-20.5 -102t-56.5 -84t-84 -56.5t-102 -20.5t-102 20.5t-84 56.5t-56.5 84t-20.5 102t20.5 102t56.5 84t84 56.5t102 20.5zM283 721q-47 0 -88 -17.5t-72 -48.5t-48.5 -72t-17.5 -88t17.5 -88t48.5 -72t72 -48.5
t88 -17.5q48 0 90 18.5t73 50.5h-124q13 14 13 27q0 5 -2 11t-7 16l-59 99h-28v-107q0 -20 4.5 -29.5t14.5 -16.5h-116q8 5 14.5 17t6.5 30v218q0 19 -2.5 26.5t-13.5 15.5h181q49 0 79 -19.5t30 -58.5q0 -18 -7.5 -31.5t-20 -22.5t-28.5 -14t-34 -6l70 -109q17 -28 33 -41
q28 30 43.5 68.5t15.5 83.5q0 47 -17.5 88t-48.5 72t-72 48.5t-88 17.5zM239 521h22t20 1q28 1 46 10.5t18 32.5q0 28 -28.5 39t-77.5 11v-94z" />
    <glyph glyph-name="copyright" unicode="&#xa9;" horiz-adv-x="731" 
d="M366 670q66 0 124 -25t101 -68.5t68 -101.5t25 -124t-25 -124.5t-68 -101.5t-101 -68t-124 -25t-124.5 25t-101.5 68t-68 101.5t-25 124.5t25 124t68 101.5t101.5 68.5t124.5 25zM366 615q-55 0 -103 -21t-84 -57t-57 -84t-21 -102q0 -55 21 -103t57 -84t84 -57t103 -21
q54 0 102 21t84 57t57 84t21 103q0 54 -21 102t-57 84t-84 57t-102 21zM378 154q-33 0 -67.5 10.5t-63 34t-46.5 61.5t-18 94q0 34 12 69t34 63t54 45.5t73 17.5q18 0 30.5 -3t22.5 -6t18.5 -6t19.5 -3q17 0 32 12q4 -14 12 -29.5t17.5 -30t18.5 -25.5t16 -17
q-17 -15 -39 -15q-14 0 -33.5 8t-36.5 26q-17 17 -33 26.5t-45 9.5q-18 0 -34 -9t-28 -24t-19 -35.5t-7 -43.5q0 -72 39.5 -111t109.5 -39q25 0 57.5 9.5t61.5 41.5q-4 -23 -18 -46.5t-35 -42.5t-48 -30.5t-57 -11.5z" />
    <glyph glyph-name="Acy" unicode="&#x410;" horiz-adv-x="692" 
d="M3 0q40 46 74 125.5t59 182.5l90 363q-6 2 -10 2q-20 0 -43.5 -17t-34.5 -43q-10 -23 -21.5 -34.5t-32.5 -11.5q-13 0 -22.5 10.5t-9.5 24.5q0 22 15.5 43.5t41 38t57 26.5t63.5 10q17 0 37 -3.5t40.5 -9t40.5 -13t38 -15.5q21 -10 38 -19t34 -15.5t35 -10.5t41 -4h11v-9
q-28 -22 -28 -68q0 -20 6 -48l90 -381q6 -23 12 -40.5t15 -32t21 -27t29 -24.5h-251q36 36 36 78q0 11 -2.5 28.5t-7.5 34.5l-30 126h-254q-6 -20 -8.5 -45.5t-2.5 -43.5q0 -49 14.5 -97.5t45.5 -80.5h-226zM420 320l-36 139q-22 85 -50 137t-57 63l-86 -339h229z" />
    <glyph glyph-name="Becy" unicode="&#x411;" horiz-adv-x="726" 
d="M224 422h55q34 0 79 -2.5t92.5 -10.5t93.5 -22.5t82 -39t58 -59.5t22 -84q0 -51 -24 -89t-64 -63.5t-92 -38.5t-107 -13h-378q15 13 24 27t14.5 34t7.5 47.5t2 66.5v434q0 13 -4 27t-10 26.5t-12.5 22t-12.5 15.5h408q36 0 66.5 6.5t52.5 23.5q5 -29 14.5 -59t21 -57.5
t23 -49.5t20.5 -35q-12 -5 -26 -5q-30 0 -70 15t-78 46q-14 12 -32 24t-39.5 22.5t-46 17t-51.5 6.5h-89v-233zM309 53q63 0 109 10t72 35q49 46 49 117q0 63 -41.5 101t-107.5 52q-27 5 -56 7t-60 2h-50v-324h85z" />
    <glyph glyph-name="Vecy" unicode="&#x412;" horiz-adv-x="726" 
d="M89 595q-15 -6 -28.5 -18t-21.5 -21l-7 49q26 35 65.5 58.5t81.5 37.5t83 20t70 6q76 0 136.5 -15.5t103 -41t65.5 -58.5t23 -67q0 -55 -46.5 -93t-134.5 -49q43 -8 83.5 -23t72.5 -39t51.5 -58t19.5 -79q0 -51 -24 -89t-64 -63.5t-92 -38.5t-107 -13h-378q15 13 24 27
t14.5 34t7.5 47.5t2 66.5v420zM309 53q63 0 109 10t72 35q49 46 49 117q0 63 -41.5 101t-107.5 52q-27 5 -56 7t-60 2h-50v-324h85zM224 422h55q35 0 71.5 3.5t66 16.5t48.5 38t19 67q0 15 -7 31.5t-20.5 32.5t-34 29.5t-46.5 21.5q-21 7 -43.5 9.5t-36.5 2.5
q-30 0 -49 -4.5t-23 -8.5v-239z" />
    <glyph glyph-name="Gecy" unicode="&#x413;" horiz-adv-x="661" 
d="M48 0q18 19 29.5 47.5t11.5 59.5v502q0 13 -4 27t-10 26.5t-12.5 22t-12.5 15.5h408q36 0 66.5 6.5t52.5 23.5q5 -29 14.5 -59t21 -57.5t23 -49.5t20.5 -35q-12 -5 -26 -5q-30 0 -70 15t-78 46q-14 12 -32 24t-39.5 22.5t-46 17t-51.5 6.5h-89v-558q0 -29 11.5 -54
t37.5 -43h-225z" />
    <glyph glyph-name="Gheupturncy" unicode="&#x490;" horiz-adv-x="628" 
d="M224 97q0 -29 11.5 -54t37.5 -43h-225q18 19 29.5 47.5t11.5 59.5v502q0 13 -4 27t-10 26.5t-12.5 22t-12.5 15.5h263q27 0 51.5 6.5t46 17t39.5 22.5t32 24q38 31 78 46t70 15q14 0 26 -5q-9 -13 -20.5 -35t-23 -49.5t-21 -57.5t-14.5 -59q-22 17 -52.5 23.5t-66.5 6.5
h-234v-558z" />
    <glyph glyph-name="Decy" unicode="&#x414;" horiz-adv-x="686" 
d="M12 54q10 -5 24.5 -9t35.5 -4h7q27 69 47 146.5t33.5 151t20 135.5t6.5 99t-15 72.5t-56 54.5h504q-16 -7 -30 -18.5t-24.5 -32t-16.5 -52.5t-6 -80v-407q2 -38 15.5 -55t32 -20.5t39 3.5t35.5 18l5 -2q-5 -26 -7.5 -54.5t-0.5 -57t9.5 -55.5t22.5 -49v-5q-42 9 -68.5 25
t-44.5 34.5t-29.5 37.5t-22 34.5t-24 25.5t-34.5 10h-291q-21 0 -33.5 -10t-22.5 -25.5t-20 -34.5t-27 -37.5t-43 -34.5t-68 -25v5q30 51 33 108.5t-9 118.5l5 2q9 -9 18 -13zM238 566q-6 -82 -15 -150.5t-21.5 -130.5t-29.5 -121t-39 -123l274 1v613h-86q-35 0 -57.5 -24.5
t-25.5 -64.5z" />
    <glyph glyph-name="Iecy" unicode="&#x415;" horiz-adv-x="691" 
d="M224 43h38q49 0 86.5 9t67.5 22.5t54.5 29t49 29t50.5 22.5t59 9q10 0 24 -3.5t18 -9.5q-27 -38 -52.5 -84t-45.5 -97q-21 11 -46.5 17t-53.5 9t-57 3.5t-57 0.5h-312q13 7 27.5 25t14.5 46v541q0 32 -15 55t-31 33h184q34 0 90.5 1t104 4t82 8t46.5 14q8 -24 19.5 -49
t24 -49t26 -45t25.5 -36q-11 -7 -22 -10t-33 -3q-33 0 -67.5 13.5t-54.5 32.5q-24 22 -48.5 36.5t-54.5 23.5t-69.5 13.5t-71.5 5.5v-234h69q26 0 56 3.5t59.5 12.5t56.5 23.5t46 36.5q5 -60 29 -119.5t61 -104.5l-26 -22q-24 22 -53.5 40.5t-61 32.5t-62 23.5t-56.5 12.5
q-20 2 -50 3.5t-34 1.5h-18.5t-15.5 -1v-326z" />
    <glyph glyph-name="Zecy" unicode="&#x417;" horiz-adv-x="606" 
d="M272 -14q-54 0 -99.5 13t-79 36t-52.5 56t-19 72q0 46 25 76.5t70 30.5q29 0 52.5 -19t23.5 -49q0 -24 -8.5 -38t-18 -25t-18 -22.5t-8.5 -30.5q0 -13 8.5 -24t22 -19.5t30 -13t32.5 -4.5q48 0 82.5 18.5t57 47.5t33.5 64t11 69q0 26 -8 51t-24.5 44t-42.5 30.5t-62 11.5
h-78v38h81q43 0 73.5 38.5t30.5 111.5q0 51 -20.5 85.5t-67.5 34.5q-26 0 -42 -8t-28.5 -20t-23 -25.5t-25.5 -25.5t-36 -20t-54 -8q-34 0 -57 16q26 30 54 69.5t45 88.5q18 -8 44 -13t50.5 -8t43 -4.5t21.5 -1.5q130 0 188 -42t58 -115q0 -24 -7.5 -49t-24 -47t-44 -40
t-66.5 -28q41 -7 76.5 -20.5t61.5 -36t40.5 -55.5t14.5 -79t-22.5 -84.5t-63.5 -66.5t-99.5 -44t-130.5 -16z" />
    <glyph glyph-name="Ishortcy" unicode="&#x419;" horiz-adv-x="722" 
d="M509 605q-1 30 -9 52t-31 43h230q-23 -13 -39 -40.5t-16 -62.5v-494q0 -34 11 -63t40 -40h-233q14 13 23 23.5t14.5 23.5t7.5 30.5t2 44.5v378l-285 -401q0 -32 11 -60t40 -39h-233q14 13 23 23.5t14.5 23.5t7.5 30.5t2 44.5v479q0 32 -8 54.5t-32 44.5h230
q-23 -13 -39 -40.5t-16 -62.5v-399l285 401v6zM208 844q0 25 16.5 38.5t35.5 13.5q34 0 46.5 -17t14.5 -39q4 -31 17.5 -43t37.5 -12q50 0 58 55q2 21 14.5 38.5t50.5 17.5q17 0 32.5 -14.5t15.5 -37.5q0 -26 -15.5 -43t-41 -27t-55.5 -14.5t-59 -4.5t-59 4.5t-54 14.5
t-39.5 27t-15.5 43z" />
    <glyph glyph-name="Emcy" unicode="&#x41c;" horiz-adv-x="841" 
d="M353 700q-14 -13 -23 -30t-9 -39q0 -11 1.5 -18.5t5.5 -18.5l103 -267l104 329q-4 10 -17 21.5t-32 22.5h273q-29 -13 -40.5 -36t-11.5 -50q0 -6 0.5 -17t0.5 -16l53 -398q9 -72 24.5 -114.5t52.5 -68.5h-249q18 17 28.5 40.5t10.5 51.5q0 6 -0.5 12t-0.5 11l-67 467
l-167 -534l-206 511l-25 -201q-2 -15 -4 -33t-3.5 -36t-2.5 -34t-1 -26q0 -25 3.5 -57.5t10.5 -65t17 -61t23 -45.5h-202q13 25 27 53.5t27.5 69.5t27 100t25.5 145l39 266q-29 36 -66 66h270z" />
    <glyph glyph-name="Ency" unicode="&#x41d;" horiz-adv-x="705" 
d="M486 315l-26 286q-4 58 -47 99h224q-25 -28 -32 -57t-7 -50v-4l42 -488q1 -10 4.5 -24t9.5 -29t14.5 -28t18.5 -20h-222q17 14 28 41t11 51v7l-14 163h-276l-13 -145q-1 -3 -1 -15q0 -34 12 -61t29 -41h-222q11 14 25 39.5t18 61.5l46 488q0 4 0.5 7.5t0.5 7.5
q0 20 -6 44.5t-32 51.5h224q-11 -11 -18.5 -21t-13.5 -22t-10 -27t-7 -36l-28 -279h268z" />
    <glyph glyph-name="Ocy" unicode="&#x41e;" horiz-adv-x="764" 
d="M25 322q0 85 25.5 153.5t79.5 119.5q14 14 33.5 30.5t35.5 29.5q10 9 19 9t14 -4q-1 -2 -7 -9t-11 -12q-29 -33 -47.5 -79t-18.5 -118q0 -66 25 -137t68 -129.5t99.5 -96.5t119.5 -38q28 0 62 11t62.5 36.5t48 67t19.5 102.5q0 55 -17.5 113t-51.5 105.5t-84 78
t-115 30.5q-33 0 -58 -10t-42 -27t-25.5 -39.5t-8.5 -47.5q0 -17 5.5 -34t16 -30.5t25.5 -22t35 -8.5q29 0 48 16.5t19 45.5q0 9 -5 16.5t-12 8.5q-2 -10 -8 -17t-17 -7q-13 0 -22.5 10t-9.5 23q0 17 14 30.5t32 13.5q15 0 28 -7t22.5 -18.5t15 -26t5.5 -29.5
q0 -23 -9.5 -41t-25 -31.5t-34.5 -20.5t-38 -7q-34 0 -62 14.5t-48.5 38t-31.5 53.5t-11 61q0 46 20.5 87.5t54 72.5t75.5 49.5t85 18.5q73 0 132 -29t101 -78.5t64.5 -114t22.5 -136.5q0 -57 -17.5 -123.5t-59 -124t-110.5 -95.5t-172 -38q-80 0 -144.5 29t-110.5 77
t-71.5 109t-26.5 126z" />
    <glyph glyph-name="Ercy" unicode="&#x420;" horiz-adv-x="633" 
d="M395 700q55 0 97.5 -14t71.5 -37.5t44 -54.5t15 -65q0 -39 -13 -68t-33.5 -50.5t-44.5 -35.5t-45 -22q-38 -14 -77 -29.5t-71 -42.5q-23 -20 -31.5 -38t-8.5 -35q12 9 32 9q19 0 32.5 -13t13.5 -30q0 -20 -15 -34t-39 -14q-28 0 -48 25t-20 63q0 41 25.5 73t85.5 71
q25 17 44 32t32.5 32.5t20.5 39.5t7 52q0 31 -15 58.5t-41 47.5t-61.5 31.5t-77.5 11.5q-28 0 -51 -4v-507q0 -37 4 -62t12 -42.5t20.5 -28t30.5 -19.5h-254q26 12 39 43.5t13 73.5v472q0 38 -9.5 67t-32.5 44h348z" />
    <glyph glyph-name="Escy" unicode="&#x421;" horiz-adv-x="706" 
d="M391 -20q-61 0 -125.5 19t-118 63t-87.5 115.5t-34 176.5q0 64 22 129t64 117.5t102 86t136 33.5q35 0 63 -6t50.5 -15t40 -19.5t30.5 -19.5q32 -23 53.5 -33t45.5 -10q13 0 28 5q3 -7 6 -22.5t3 -34.5q0 -46 -13 -92t-40 -83t-68 -60t-98 -23q-36 0 -66 11t-52 30
t-34 44.5t-12 54.5q0 35 17.5 62.5t52.5 27.5q25 0 40 -15t15 -38t-14 -36.5t-34 -13.5q-9 0 -18 3t-14 5q0 -33 21 -52.5t56 -19.5q26 0 46 11t33.5 29.5t20.5 43t7 51.5q0 38 -12 69.5t-34 54.5t-53 35.5t-68 12.5q-48 0 -85.5 -22t-63.5 -58.5t-39.5 -85t-13.5 -101.5
q0 -68 25 -126t68.5 -101t101 -67.5t123.5 -24.5q23 0 52 4t60 15t62.5 29.5t59.5 48.5q-9 -43 -36.5 -80.5t-68.5 -66t-93 -45t-110 -16.5z" />
    <glyph glyph-name="Tecy" unicode="&#x422;" horiz-adv-x="662" 
d="M452 700q48 0 85 10.5t59 25.5q1 -21 7.5 -49t15.5 -56t19.5 -53.5t20.5 -43.5q-13 -5 -23 -5q-15 0 -31.5 5t-33.5 14t-32 20.5t-27 25.5q-29 34 -59 53t-50 19v-570q0 -23 10 -52.5t33 -43.5h-235q27 19 42 44t15 53v569q-15 0 -32.5 -8t-35 -20.5t-35 -28t-33.5 -31.5
q-25 -24 -56 -36.5t-55 -12.5q-11 0 -18 6q11 19 23.5 45t23.5 53.5t20 55t13 48.5q15 -10 49 -23.5t80 -13.5h240z" />
    <glyph glyph-name="Ucy" unicode="&#x423;" horiz-adv-x="669" 
d="M693 701q-23 -19 -40 -35.5t-31.5 -34.5t-28 -40.5t-28.5 -53.5q-28 -56 -54 -115t-53.5 -119t-58.5 -119.5t-69 -114.5q-33 -48 -77 -67.5t-91 7.5q-36 22 -48.5 56t-6.5 65.5t28 54.5t56 24q30 1 47 -18.5t18 -51.5q0 -27 7 -33.5t17.5 0.5t22.5 23.5t23 36.5
q-64 113 -108 193t-74.5 135t-50 89.5t-33 56t-24 34.5t-22.5 25h252q-32 -20 -32 -46q0 -9 0.5 -18.5t7.5 -25.5q1 -4 5 -12.5t19 -37t46.5 -85.5t88.5 -158q15 32 29 64t25 61.5t18.5 55t10.5 45.5q8 53 -6 90.5t-38 67.5z" />
    <glyph glyph-name="Efcy" unicode="&#x424;" horiz-adv-x="902" 
d="M335 0q13 12 22 22.5t14.5 23.5t8 30t2.5 42v11q-17 -14 -47 -27t-76 -13q-48 0 -89 20t-71 55.5t-47 83t-17 102.5t17 102t47 81.5t71 54t89 19.5q44 0 75 -13t48 -27v34q0 32 -8 54.5t-32 44.5h230q-23 -13 -39 -40.5t-16 -62.5v-28q17 14 47 28.5t79 14.5
q48 0 89 -20.5t71 -55.5t47 -82.5t17 -102.5t-17 -102t-47 -81.5t-71 -54t-89 -19.5q-46 0 -77.5 14t-48.5 28v-33q0 -34 11 -63t40 -40h-233zM603 561q-30 0 -52.5 -11t-33.5 -20v-358q11 -9 33.5 -19t52.5 -10q59 0 90 52.5t31 155.5q0 102 -31 156t-90 54zM299 139
q28 0 49 9.5t34 18.5v363q-12 9 -33.5 18t-49.5 9q-59 0 -90 -52t-31 -155q0 -102 31 -156.5t90 -54.5z" />
    <glyph glyph-name="Hacy" unicode="&#x425;" horiz-adv-x="713" 
d="M311 700l2 -4q-23 -14 -23 -41q0 -11 4.5 -24t11.5 -24l93 -153l32 42q30 42 42 77.5t12 55.5q0 17 -5.5 35t-16.5 33l2 3h230l2 -4q-15 -12 -36 -29.5t-43 -37t-42.5 -40t-35.5 -38.5l-115 -138l171 -280q24 -40 53 -74t61 -59h-274q9 10 17.5 23.5t8.5 33.5q0 17 -6 33
t-20 39l-103 168q-26 -28 -47 -60t-38 -63q-11 -21 -16.5 -43.5t-5.5 -43.5q0 -23 11.5 -46t24.5 -41h-259q34 33 67 67.5t69 74.5t76.5 88.5t89.5 109.5l-117 190q-31 51 -62 94.5t-73 70.5v5h258z" />
    <glyph glyph-name="Checy" unicode="&#x427;" horiz-adv-x="654" 
d="M400 0q14 13 23 23.5t14.5 23.5t7.5 30.5t2 44.5v205q-29 -8 -63 -11t-69 -3q-57 0 -105.5 10t-84 30t-55 50t-18.5 69q1 38 6 71.5t7 77.5q2 55 -44 78h247q-26 -15 -37.5 -37.5t-19.5 -60.5q-3 -23 -7.5 -52.5t-4.5 -63.5q0 -60 42.5 -92t115.5 -32q23 0 46.5 3
t43.5 10v226q0 32 -8 54.5t-32 44.5h230q-23 -13 -39 -40.5t-16 -62.5v-493q0 -34 11 -63t40 -40h-233z" />
    <glyph glyph-name="Iacy" unicode="&#x42f;" horiz-adv-x="693" 
d="M25 0q25 16 52 46t57 90l120 236q-42 2 -82.5 10.5t-72 28t-51 50.5t-19.5 78q0 34 15.5 63.5t48.5 51t84 34t122 12.5h353q-12 -9 -19 -17t-11 -18t-5 -24.5t-1 -35.5v-497q0 -42 14.5 -69.5t32.5 -38.5h-226q22 15 33 37t11 69v266h-75l-120 -248q-11 -23 -14 -36.5
t-3 -26.5q0 -30 28 -61h-272zM481 654h-76q-100 0 -152 -25t-52 -88q0 -31 12.5 -54t40.5 -38.5t74 -23t113 -7.5h40v236z" />
    <glyph glyph-name="Softsigncy" unicode="&#x42c;" horiz-adv-x="726" 
d="M217 431h55q34 0 79 -3t92.5 -12t93.5 -25t82 -41t58 -61t22 -85q0 -51 -24 -89t-64 -63.5t-92 -38.5t-107 -13h-378q15 13 24 27t14.5 34t7.5 47.5t2 66.5v434q0 13 -4 27t-10 26.5t-12.5 22t-12.5 15.5h207q-11 -11 -22 -34.5t-11 -65.5v-169zM302 53q49 0 91 7.5
t73 26t48.5 49.5t17.5 79q0 51 -25.5 82.5t-64.5 49t-85.5 24t-89.5 6.5h-50v-324h85z" />
    <glyph glyph-name="Hardsigncy" unicode="&#x42a;" horiz-adv-x="937" 
d="M320 609q0 3 -0.5 10.5t-2.5 15.5t-5 14t-8 6q-16 0 -34 -7t-35.5 -17.5t-32 -23t-23.5 -22.5q-38 -31 -78 -46t-70 -15q-13 0 -26 5q9 12 21 34t23.5 50t21 58t13.5 59q22 -17 52.5 -23.5t66.5 -6.5h285q-11 -11 -22 -34.5t-11 -65.5v-169h35q34 0 79 -3t92.5 -12
t93.5 -25t82 -41t58 -61t22 -85q0 -51 -24 -89t-64 -63.5t-92 -38.5t-107 -13h-358q15 13 24 27t14.5 34t7.5 47.5t2 66.5v434zM520 53q49 0 91 7.5t73 26t48.5 49.5t17.5 79q0 51 -25.5 82.5t-64.5 49t-85.5 24t-89.5 6.5h-30v-324h65z" />
    <glyph glyph-name="Yerucy" unicode="&#x42b;" horiz-adv-x="961" 
d="M206 422h48q29 0 70.5 -2.5t87 -10.5t90 -22.5t80 -39t57.5 -59.5t22 -84q0 -51 -24 -89t-64 -63.5t-92 -38.5t-107 -13h-351q15 13 24 27t14.5 34t7.5 47.5t2 66.5v434q0 13 -4 27t-10 26.5t-12.5 22t-12.5 15.5h207q-11 -11 -22 -34.5t-11 -65.5v-178zM697 0
q14 13 23 23.5t14.5 23.5t7.5 30.5t2 44.5v479q0 32 -8 54.5t-32 44.5h230q-23 -13 -39 -40.5t-16 -62.5v-494q0 -34 11 -63t40 -40h-233zM264 53q63 0 109 10t72 35q49 46 49 117q0 63 -41.5 101t-107.5 52q-27 5 -50 7t-72 2h-17v-324h58z" />
    <glyph glyph-name="Ereversedcy" unicode="&#x42d;" horiz-adv-x="669" 
d="M338 674q-25 0 -44.5 -4t-37 -13t-34 -22.5t-34.5 -32.5q-31 -32 -66 -47t-60 -15q-8 0 -21.5 1.5t-24.5 6.5q23 24 49.5 71t40.5 101q14 -11 28.5 -17t32.5 -6t35 3t36.5 7t43 7t55.5 3q78 0 135.5 -30.5t94.5 -81t55 -116.5t18 -136q0 -111 -30.5 -183t-79.5 -113.5
t-109.5 -58t-121.5 -16.5q-54 0 -102.5 15t-87 41t-64.5 62.5t-34 78.5q26 -29 54.5 -48t58 -29.5t57.5 -14.5t53 -4q70 0 126.5 23.5t95.5 65.5t60 100t21 127v14q-11 -24 -26 -44.5t-34 -36.5t-40 -25t-44 -9q-26 0 -49.5 9.5t-44.5 21t-40 21.5t-37.5 12t-36 -7.5
t-34.5 -37.5l-19 8q10 20 24 44.5t32.5 45.5t43.5 35.5t57 14.5q27 0 50 -10t44 -22.5t40.5 -22.5t39.5 -10q28 0 47 22t19 69q-17 85 -65 134t-126 49z" />
    <glyph glyph-name="Icy" unicode="&#x406;" horiz-adv-x="313" 
d="M42 0q14 13 23 23.5t14.5 23.5t7.5 30.5t2 44.5v479q0 32 -8 54.5t-32 44.5h230q-23 -13 -39 -40.5t-16 -62.5v-494q0 -34 11 -63t40 -40h-233z" />
    <glyph glyph-name="Yicy" unicode="&#x407;" horiz-adv-x="313" 
d="M42 0q14 13 23 23.5t14.5 23.5t7.5 30.5t2 44.5v479q0 32 -8 54.5t-32 44.5h230q-23 -13 -39 -40.5t-16 -62.5v-494q0 -34 11 -63t40 -40h-233zM248 870q25 0 42.5 -17.5t17.5 -43.5q0 -25 -17.5 -42t-42.5 -17t-42.5 17t-17.5 42q0 26 17.5 43.5t42.5 17.5zM62 870
q25 0 42.5 -17t17.5 -42q0 -26 -17.5 -43.5t-42.5 -17.5t-42.5 17.5t-17.5 43.5q0 25 17.5 42t42.5 17z" />
    <glyph glyph-name="Jecy" unicode="&#x408;" horiz-adv-x="488" 
d="M446 700q-11 -9 -19.5 -24.5t-14.5 -33.5t-9.5 -36t-3.5 -32v-289q0 -37 1.5 -59t5.5 -36t11 -22.5t17 -18.5q-7 -32 -26 -61.5t-48.5 -52.5t-70 -36.5t-90.5 -13.5q-40 0 -75.5 9t-62.5 24t-42.5 35t-15.5 42q0 26 15.5 41.5t42.5 15.5q26 0 49 -17.5t41 -55.5
q10 -20 24 -39t34 -19q29 0 42 27.5t13 61.5v501q0 24 -10.5 47t-38.5 42h231z" />
    <glyph glyph-name="Iucy" unicode="&#x42e;" horiz-adv-x="990" 
d="M214 103q0 -34 11 -63t40 -40h-223q14 13 23 23.5t14.5 23.5t7.5 30.5t2 44.5v479q0 32 -8 54.5t-32 44.5h220q-23 -13 -39 -40.5t-16 -62.5v-170h88q2 15 5.5 29.5t8.5 29.5q20 67 62.5 120t111.5 91l15 -13q-47 -48 -65 -107.5t-18 -132.5q0 -95 26 -169.5t65.5 -126
t86 -78.5t87.5 -27q46 0 81.5 15.5t59 43t35.5 65t12 80.5q0 82 -19 147.5t-53 111.5t-80.5 70t-100.5 24q-32 0 -54.5 -4t-39 -11.5t-30 -19t-28.5 -27.5l-7 5q2 26 13.5 58t36 60t63 47t95.5 19q72 0 128.5 -35t94.5 -92t56.5 -128.5t15.5 -144.5t-28.5 -141.5
t-75.5 -117.5q-43 -42 -103 -65.5t-138 -23.5q-80 0 -142 33.5t-103 88.5t-61.5 125t-17.5 144h-83v-267z" />
    <glyph glyph-name="Yatcy" unicode="&#x462;" horiz-adv-x="851" 
d="M232 175v414q-26 -4 -56 -27t-56 -49q-22 -20 -49.5 -31t-48.5 -11q-9 0 -16 5q10 16 21 39t20.5 47t17.5 47.5t12 41.5q13 -8 43 -20t70 -12h42q-1 11 -4 24q-4 14 -10 26.5t-12.5 22t-12.5 15.5h207q-11 -11 -22 -35q-10 -20 -11 -53h35q43 0 75.5 9t51.5 22
q1 -18 6.5 -42t14 -48.5t17.5 -47t18 -37.5q-5 -2 -10 -3t-10 -1q-26 0 -57.5 16.5t-52.5 39.5q-23 26 -46.5 42.5t-41.5 19.5v-158h15q34 0 79 -3t92.5 -12t93.5 -25t82 -41t58 -61t22 -85q0 -51 -24 -89t-64 -63.5t-92 -38.5t-107 -13h-338q15 13 24 27t14.5 34t7.5 47.5
t2 66.5zM412 53q49 0 91 7.5t73 26t48.5 49.5t17.5 79q0 51 -25.5 82.5t-64.5 49t-85.5 24t-89.5 6.5h-10v-324h45z" />
    <glyph glyph-name="Izhitsacy" unicode="&#x474;" horiz-adv-x="809" 
d="M248 700q-18 -15 -25 -27.5t-7 -33.5q0 -8 3 -18.5t8 -24.5l162 -424l115 368q16 52 36 85.5t44.5 53t53 27.5t61.5 8q25 0 44 -7.5t31.5 -19t19 -24.5t6.5 -25q0 -36 -23 -59t-61 -23q-19 0 -31.5 6t-23 12.5t-20 12.5t-21.5 6t-22.5 -7t-22.5 -27t-26.5 -56t-34.5 -94
l-94 -274q26 -32 62 -57t75 -36q-72 -7 -132.5 -26t-96.5 -46q-15 42 -31.5 83.5t-32.5 80t-30.5 73t-25.5 61.5l-144 344q-7 18 -13 29.5t-12.5 21t-15 18t-20.5 19.5h245z" />
    <glyph glyph-name="yicy" unicode="&#x457;" horiz-adv-x="269" 
d="M70 404q0 26 -11.5 48.5t-37.5 33.5q51 5 93.5 18t87.5 31v-428q0 -41 12.5 -64t38.5 -43h-235v4q22 11 37 31.5t15 43.5v325zM221 675q23 0 40 -16.5t17 -39.5t-17 -38.5t-40 -15.5t-38.5 15.5t-15.5 38.5t15.5 39.5t38.5 16.5zM45 675q23 0 39.5 -15.5t16.5 -38.5
t-16.5 -39.5t-39.5 -16.5t-38.5 16.5t-15.5 39.5t15.5 38.5t38.5 15.5z" />
    <glyph glyph-name="yatcy" unicode="&#x463;" horiz-adv-x="721" 
d="M156 715q37 5 84 14.5t98 28.5v-235h23q43 0 75.5 9t51.5 22q1 -18 4.5 -42t9.5 -48.5t13 -47t16 -37.5q-29 -12 -54 0t-48.5 33.5t-46 44.5t-44.5 32v-167h94q48 0 93 -6.5t80 -24.5t56.5 -49.5t21.5 -80.5q0 -43 -21 -73.5t-56 -50t-80 -28.5t-93 -9h-277
q15 10 32.5 33.5t17.5 59.5v400q-17 -2 -33 -13.5t-32 -26.5t-31.5 -31.5t-32.5 -28.5t-35.5 -16.5t-38.5 3.5q10 16 19 39t17 47t14 47.5t10 41.5q13 -8 43 -20t70 -12h30v118q0 25 -11 42t-39 32zM384 48q34 0 61 5t45.5 17.5t28 34.5t9.5 57q0 30 -12 51.5t-32 35
t-46.5 19.5t-56.5 6h-43v-226h46z" />
    <glyph glyph-name="fitacy" unicode="&#x473;" horiz-adv-x="541" 
d="M36 252q0 57 18.5 106t50 86t74.5 58t91 21t90.5 -21t74.5 -57.5t51 -85.5t19 -105q0 -55 -19 -103.5t-51.5 -85t-75 -57.5t-89.5 -21q-48 0 -91 20t-74.5 55.5t-50 84t-18.5 105.5zM192 293h156v98q0 42 -18 69t-60 27q-39 0 -58.5 -27t-19.5 -69v-98zM349 245h-157
v-111q0 -34 6.5 -56.5t17.5 -35.5t25 -18.5t29 -5.5q14 0 28 6t25.5 19.5t18.5 35.5t7 55v111z" />
    <glyph glyph-name="izhitsacy" unicode="&#x475;" horiz-adv-x="657" 
d="M72 422q-8 20 -28 45t-41 39h249q-11 -8 -23 -23.5t-12 -29.5q0 -12 2.5 -23.5t11.5 -33.5l115 -275l79 217q16 45 30.5 74.5t27.5 49.5q4 7 12 16.5t20 18.5t29 15.5t38 6.5q28 0 47.5 -18t19.5 -47q0 -24 -17.5 -45t-42.5 -21t-42.5 17.5t-17.5 43.5q0 2 2 12
q-10 -12 -21.5 -32t-29 -62t-43.5 -112.5t-65 -182.5q8 -23 26.5 -42t35.5 -30q-51 0 -91 -9t-79 -21z" />
    <glyph glyph-name="acy" unicode="&#x430;" horiz-adv-x="521" 
d="M74 362q-2 -5 -8 -5q-2 0 -4 3t-2 6q0 19 12 46t37 52t63 43t91 18q31 0 60.5 -6.5t53.5 -21t39.5 -37t18.5 -53.5l30 -309q1 -13 5 -28t11 -28.5t16 -24t21 -13.5l-1 -4h-172l-8 19q-38 -22 -64 -29.5t-56 -7.5q-43 0 -78 12t-59.5 33t-38 48.5t-13.5 59.5q0 43 18 77
t52 63.5t82 56t108 55.5q-8 23 -34.5 34.5t-54.5 11.5q-38 0 -73 -21t-52 -50zM303 344q-35 -21 -59 -41t-39 -42t-21.5 -47t-6.5 -56q0 -18 6.5 -38.5t18.5 -38.5t29 -30t39 -12q39 0 63 26z" />
    <glyph glyph-name="vecy" unicode="&#x432;" horiz-adv-x="579" 
d="M67 404q-11 -5 -20 -13.5t-15 -15.5l-5 45q19 25 47.5 43.5t62.5 30.5t70.5 18t71.5 6q54 0 97 -10t73 -27t46 -39.5t16 -47.5q0 -90 -125 -107q30 -6 58.5 -16.5t50.5 -27.5t35.5 -41t13.5 -57q0 -39 -18 -66.5t-47.5 -45t-67.5 -25.5t-78 -8h-300q10 9 17 19t10.5 24.5
t5 34t1.5 47.5v279zM245 48q34 0 61 4t45.5 16t28 33t9.5 56q0 30 -15.5 50.5t-39.5 33t-54 18t-60 5.5h-21v-216h46zM199 306h25q25 0 49 3t43.5 12t31.5 26t12 46q0 21 -11 35.5t-28 24t-37.5 13.5t-38.5 4q-21 0 -32.5 -3t-13.5 -6v-155z" />
    <glyph glyph-name="gecy" unicode="&#x433;" horiz-adv-x="521" 
d="M67 437q0 26 -11.5 48.5t-37.5 33.5h350q26 0 47 4t40 16q3 -21 11 -44t17.5 -44.5t19 -38.5t15.5 -26q-5 -2 -12 -3t-12 -1q-22 0 -50.5 10.5t-56.5 33.5q-21 17 -52 34t-70 17h-66v-370q0 -41 12.5 -64t38.5 -43h-235v4q22 11 37 31.5t15 43.5v358z" />
    <glyph glyph-name="gheupturncy" unicode="&#x491;" horiz-adv-x="521" 
d="M199 107q0 -41 12.5 -64t38.5 -43h-235v4q22 11 37 31.5t15 43.5v345q0 26 -11.5 48.5t-37.5 33.5h247q39 0 70 17t52 34q28 23 56.5 33.5t50.5 10.5q5 0 12 -1t12 -3q-6 -9 -15.5 -26t-19 -38.5t-17.5 -44.5t-11 -44q-19 12 -40 16t-47 4h-169v-357z" />
    <glyph glyph-name="decy" unicode="&#x434;" horiz-adv-x="575" 
d="M522 519q-12 -5 -23 -14t-19 -24.5t-12.5 -39.5t-4.5 -60l-1 -272q2 -38 12 -55t24.5 -20.5t30 3.5t29.5 18l5 -2q-5 -26 -7.5 -54.5t-0.5 -57t8.5 -55.5t20.5 -49v-5q-37 9 -61 25t-39.5 34.5t-25 38t-19 35t-21 25.5t-30.5 10h-226q-19 0 -30 -10t-19.5 -25.5t-18 -35
t-24 -38t-38 -34t-60.5 -24.5v5q27 50 29.5 111.5t-8.5 121.5l5 2q7 -8 16 -13q8 -5 20 -9t29 -4q20 31 36 75.5t27.5 92t17.5 94t6 82.5q0 37 -15 73.5t-56 55.5zM202 384q-6 -73 -15.5 -128.5t-20.5 -96t-23 -68t-22 -44.5l210 1v423h-47q-35 0 -57 -23.5t-25 -63.5z" />
    <glyph glyph-name="iecy" unicode="&#x435;" horiz-adv-x="513" 
d="M37 259q0 48 15.5 96t44.5 86.5t70 63t92 24.5q47 0 86 -20t66.5 -53t43 -76t15.5 -88q0 -14 -1 -17h-306q11 -46 35.5 -82.5t56 -62t67 -39.5t69.5 -14q32 0 59.5 9.5t50.5 25.5q-15 -34 -47 -61t-71 -41q-23 -8 -47.5 -14.5t-47.5 -6.5q-55 0 -101 22.5t-79.5 60
t-52 86t-18.5 101.5zM148 376q0 -36 5 -58v-4h169q0 27 -5 55.5t-15.5 52t-27 38.5t-39.5 15q-33 0 -60 -25t-27 -74z" />
    <glyph glyph-name="iocy" unicode="&#x451;" horiz-adv-x="513" 
d="M37 259q0 48 15.5 96t44.5 86.5t70 63t92 24.5q47 0 86 -20t66.5 -53t43 -76t15.5 -88q0 -14 -1 -17h-306q11 -46 35.5 -82.5t56 -62t67 -39.5t69.5 -14q32 0 59.5 9.5t50.5 25.5q-15 -34 -47 -61t-71 -41q-23 -8 -47.5 -14.5t-47.5 -6.5q-55 0 -101 22.5t-79.5 60
t-52 86t-18.5 101.5zM148 376q0 -36 5 -58v-4h169q0 27 -5 55.5t-15.5 52t-27 38.5t-39.5 15q-33 0 -60 -25t-27 -74zM344 675q23 0 40 -16.5t17 -39.5t-17 -38.5t-40 -15.5t-38.5 15.5t-15.5 38.5t15.5 39.5t38.5 16.5zM168 675q23 0 39.5 -15.5t16.5 -38.5t-16.5 -39.5
t-39.5 -16.5t-38.5 16.5t-15.5 39.5t15.5 38.5t38.5 15.5z" />
    <glyph glyph-name="zecy" unicode="&#x437;" horiz-adv-x="502" 
d="M334 297q28 -5 53.5 -16t44.5 -29t30 -43.5t11 -58.5q0 -36 -19 -65.5t-51 -50t-74.5 -31.5t-88.5 -11q-47 0 -85.5 9.5t-66.5 27t-43 42.5t-15 57q0 39 18.5 62.5t54.5 23.5q35 0 53 -20.5t18 -46.5q0 -18 -6.5 -28t-15 -17.5t-15 -15.5t-6.5 -22q0 -19 20.5 -26.5
t42.5 -7.5q33 0 56.5 12.5t39 31t23 40.5t7.5 41q0 48 -19.5 76t-73.5 28h-64v42h57q33 0 57.5 22.5t24.5 77.5q0 36 -13.5 58t-40.5 22t-40.5 -14t-26.5 -31.5t-33 -31.5t-62 -14q-21 0 -39 13q26 29 47 65t32 73q13 -6 31 -10.5t36.5 -6.5t35 -3t25.5 -1q84 0 136 -28.5
t52 -85.5q0 -76 -108 -109z" />
    <glyph glyph-name="ishortcy" unicode="&#x439;" horiz-adv-x="621" 
d="M590 0q-26 14 -37.5 37.5t-11.5 61.5v335q0 23 12.5 44.5t32.5 44.5h-225q17 -8 31.5 -28.5t16.5 -53.5l-200 -281v274q0 23 12.5 44.5t32.5 44.5h-225q18 -8 33 -30t15 -57v-337q0 -38 -11.5 -61.5t-37.5 -37.5h230q-21 11 -32.5 27.5t-15.5 42.5l199 279v-250
q0 -38 -11.5 -61.5t-37.5 -37.5h230zM139 678q0 25 16.5 38.5t35.5 13.5q34 0 46.5 -17t14.5 -39q4 -31 17.5 -43t37.5 -12q50 0 58 55q2 21 14.5 38.5t50.5 17.5q17 0 32.5 -14.5t15.5 -37.5q0 -26 -15.5 -43t-41 -27t-55.5 -14.5t-59 -4.5t-59 4.5t-54 14.5t-39.5 27
t-15.5 43z" />
    <glyph glyph-name="elcy" unicode="&#x43b;" horiz-adv-x="611" 
d="M357 477q-35 0 -54 -21.5t-22 -61.5q-2 -23 -4 -53t-5 -63.5t-8.5 -69t-13.5 -69.5t-21.5 -63t-32.5 -49t-44.5 -28.5t-58.5 -1.5q-32 6 -54.5 30t-22.5 59q0 38 23.5 62.5t57.5 24.5q29 0 44.5 -15.5t15.5 -41.5q0 -12 3 -24t12 -12q15 14 25.5 39.5t17.5 56t11.5 64
t6.5 63t2.5 52.5t0.5 34q0 18 -3.5 38t-12 38.5t-22 34t-34.5 24.5h428q-25 -17 -37 -47.5t-12 -87.5v-314q0 -25 8 -46t29 -29h-202q10 9 16.5 17t10.5 17.5t5.5 22t1.5 31.5v389h-55z" />
    <glyph glyph-name="emcy" unicode="&#x43c;" horiz-adv-x="709" 
d="M307 521q-11 -9 -16.5 -19.5t-5.5 -26.5q0 -20 6 -33l75 -176l75 223q-2 8 -11.5 16t-23.5 16h232q-21 -9 -29 -26t-8 -38q0 -5 0.5 -13.5t0.5 -11.5l37 -295q7 -53 18 -85t38 -52h-205q13 13 20.5 30.5t7.5 38.5q0 4 -0.5 9t-0.5 8l-48 347l-139 -416l-170 399l-18 -150
q-1 -10 -2.5 -23.5t-2.5 -27.5t-2 -25.5t-1 -18.5q0 -18 2.5 -42.5t7.5 -49t12 -46t17 -33.5h-155q10 18 20 39t20 52t19.5 74.5t18.5 108.5l29 207q-7 11 -16 20t-23 20h221z" />
    <glyph glyph-name="ency" unicode="&#x43d;" horiz-adv-x="614" 
d="M402 272h-200v-173q0 -43 13.5 -64.5t31.5 -34.5h-226q26 14 37.5 37.5t11.5 61.5v337q0 35 -15 57t-33 30h225q-20 -23 -32.5 -44.5t-12.5 -44.5v-114h200v115q0 21 -9.5 43t-33.5 45h235q-24 -9 -42 -30.5t-18 -57.5v-335q0 -45 14 -68.5t43 -31.5h-233q14 9 22.5 17
t13.5 18.5t6.5 25.5t1.5 38v173z" />
    <glyph glyph-name="ocy" unicode="&#x43e;" horiz-adv-x="539" 
d="M36 252q0 57 18.5 106t50 86t74.5 58t91 21t90.5 -21t74.5 -57.5t51 -85.5t19 -105q0 -55 -19 -103.5t-51.5 -85t-75 -57.5t-89.5 -21q-48 0 -91 20t-74.5 55.5t-50 84t-18.5 105.5zM192 134q0 -34 6.5 -56.5t17.5 -35.5t25 -18.5t29 -5.5q14 0 28 6t25.5 19.5t18.5 35.5
t7 55v30.5v48.5t-0.5 57t-0.5 55.5v43.5v22q0 42 -18 69t-60 27q-39 0 -58.5 -27t-19.5 -69v-257z" />
    <glyph glyph-name="pecy" unicode="&#x43f;" horiz-adv-x="603" 
d="M336 0q14 9 22.5 17t13.5 18.5t6.5 25.5t1.5 38v371h-171v-371q0 -43 13.5 -64.5t31.5 -34.5h-226q26 14 37.5 37.5t11.5 61.5v337q0 35 -15 57t-33 30h543q-24 -9 -42 -30.5t-18 -57.5v-335q0 -45 14 -68.5t43 -31.5h-233z" />
    <glyph glyph-name="ercy" unicode="&#x440;" horiz-adv-x="533" 
d="M199 458q40 28 78 48t76 20q30 0 56.5 -15.5t46 -42t30.5 -62.5t11 -76q0 -71 -27.5 -126t-71 -96.5t-96.5 -69.5t-103 -45v-74q0 -25 10.5 -46t37.5 -36h-231q23 12 37 37.5t14 51.5v471q0 29 -10.5 50t-29.5 36q43 9 86.5 22t85.5 28v-75zM199 35q40 16 69.5 43
t49.5 61t30 71.5t10 73.5q0 24 -7 50.5t-19.5 48.5t-30 36.5t-38.5 14.5q-16 0 -34 -3.5t-30 -13.5v-382z" />
    <glyph glyph-name="escy" unicode="&#x441;" horiz-adv-x="491" 
d="M262 524q81 0 129 -32t48 -86q0 -42 -26.5 -65.5t-64.5 -23.5q-34 0 -60.5 23.5t-26.5 65.5q0 23 7.5 40.5t19.5 30.5q-4 0 -9 0.5t-10 0.5q-48 0 -78.5 -40.5t-30.5 -109.5q0 -54 18.5 -102t50 -84t74 -57t90.5 -21q19 0 36 6.5t28 14.5l5 -2l1 -5q-27 -45 -80 -70.5
t-122 -25.5q-47 0 -88 22t-72.5 61t-49.5 92t-18 115q0 52 17 98t48 80.5t72.5 54t91.5 19.5z" />
    <glyph glyph-name="tecy" unicode="&#x442;" horiz-adv-x="596" 
d="M232 473h-6q-21 0 -37 -8.5t-29.5 -21.5t-26.5 -28t-28 -28t-33.5 -21.5t-44.5 -8.5q-5 0 -12 1t-12 3q6 9 15.5 29.5t19 46t17.5 52.5t11 48q16 -12 38.5 -17t48.5 -5h290q26 0 48.5 5t38.5 17q3 -21 11 -48t17.5 -52.5t19 -46t15.5 -29.5q-5 -2 -12 -3t-12 -1
q-38 0 -62 18t-44 40t-41 40t-52 18h-6v-366q0 -41 12.5 -64t38.5 -43h-235v4q22 11 37 31.5t15 43.5v394z" />
    <glyph glyph-name="ucy" unicode="&#x443;" 
d="M62 -96q0 16 6.5 28t16 19.5t20.5 11t20 3.5q17 0 27.5 -4.5t19 -10.5t18 -10.5t23.5 -4.5q13 0 25.5 15.5t20.5 35.5l-191 416q-11 24 -33 45.5t-44 26.5q45 10 87.5 22.5t82.5 32.5q9 -28 18.5 -49t21.5 -47l129 -285q36 81 52 137.5t16 88.5q0 51 -15 85.5t-44 63.5
h210q-28 -38 -51.5 -81.5t-46.5 -100.5l-142 -349q-11 -28 -27 -57t-36 -52.5t-44.5 -38.5t-52.5 -15q-39 0 -63 19t-24 55z" />
    <glyph glyph-name="efcy" unicode="&#x444;" horiz-adv-x="818" 
d="M475 -81q0 -25 10.5 -46t37.5 -36h-231q23 12 37 37.5t14 51.5v111q-23 -26 -45 -35t-53 -9q-96 0 -149 68.5t-53 198.5q0 56 14 104t38 83.5t56.5 56t70.5 20.5q35 0 64 -13.5t57 -48.5v139q0 38 -7 62.5t-33 44.5q45 7 87 18t85 32v-297q28 35 56.5 49t63.5 14
q38 0 71 -20.5t58 -56t39 -84t14 -104.5q0 -130 -53 -197.5t-149 -67.5q-31 0 -55.5 11.5t-44.5 31.5v-118zM343 401q-11 20 -30 38t-41 18q-23 0 -38.5 -15.5t-25 -41t-13.5 -59.5t-4 -71q0 -213 98 -213q27 0 40.5 24.5t13.5 63.5v256zM475 144q0 -39 13.5 -63.5
t40.5 -24.5q98 0 98 213q0 37 -4 71t-13.5 59.5t-25 41t-38.5 15.5q-22 0 -41 -18t-30 -38v-256z" />
    <glyph glyph-name="hacy" unicode="&#x445;" 
d="M312 330q25 29 39 53t14 55q0 18 -9 34t-22 30l1 4h178v-12q-34 -26 -65 -59t-59 -67l-58 -70l79 -136q21 -36 37.5 -61t31 -43t27.5 -30.5t28 -24.5v-3h-249l-1 5q14 8 21 16t7 26q0 14 -8.5 32.5t-21.5 40.5l-41 72q-23 -29 -38 -57t-15 -54q0 -21 9.5 -42.5
t23.5 -32.5l-2 -6h-214l-2 6q36 26 64.5 53t55.5 59l99 112l-94 158q-25 40 -52 62.5t-53 30.5q23 5 42 9.5t38 10t40 13t48 18.5z" />
    <glyph glyph-name="checy" unicode="&#x447;" horiz-adv-x="567" 
d="M363 284q-23 -30 -62 -54t-97 -26q-69 -3 -103.5 31t-34.5 94v108q0 70 -38 87h205q-19 -21 -26.5 -41.5t-8.5 -41.5v-86q0 -32 12 -50t30.5 -25t40 -3t40 16.5t30.5 33t12 47.5v63q0 70 -38 87h205q-20 -23 -27.5 -44.5t-7.5 -44.5v-328q0 -41 12.5 -64t38.5 -43h-235
q19 13 35.5 38.5t16.5 67.5v178z" />
    <glyph glyph-name="tsecy" unicode="&#x446;" horiz-adv-x="616" 
d="M29 0q18 8 33 30t15 57v335q0 38 -11.5 61.5t-37.5 37.5h226q-18 -13 -31.5 -34.5t-13.5 -64.5v-374h171v374q0 23 -1.5 38t-6.5 25.5t-13.5 18.5t-22.5 17h233q-29 -8 -43 -31.5t-14 -68.5l-1 -313q2 -38 12 -55t24.5 -20.5t30 3.5t29.5 18l5 -2q-5 -26 -7.5 -54
t-0.5 -56.5t8.5 -55.5t20.5 -49v-5q-37 9 -60.5 25t-38 34.5t-23.5 38t-17.5 35t-19.5 25.5t-30 10h-415z" />
    <glyph glyph-name="softsigncy" unicode="&#x44c;" horiz-adv-x="582" 
d="M202 322h94q48 0 93 -6.5t80 -24.5t56.5 -49.5t21.5 -80.5q0 -43 -21 -73.5t-56 -50t-80 -28.5t-93 -9h-261q10 9 17 19t10.5 24.5t5 34t1.5 47.5v298q0 38 -12.5 59t-37.5 41h234v-4q-21 -11 -36.5 -32.5t-15.5 -59.5v-105zM248 48q34 0 61 5t45.5 17.5t28 34.5t9.5 57
q0 30 -12 51.5t-32 35t-46.5 19.5t-56.5 6h-43v-226h46z" />
    <glyph glyph-name="hardsigncy" unicode="&#x44a;" horiz-adv-x="712" 
d="M342 322h84q48 0 93 -6.5t80 -24.5t56.5 -49.5t21.5 -80.5q0 -43 -21 -73.5t-56 -50t-80 -28.5t-93 -9h-251q10 9 16.5 19.5t10.5 24.5t5.5 33.5t1.5 47.5v355q-21 0 -34 -9t-23.5 -22.5t-20 -29.5t-23 -29.5t-33 -22.5t-48.5 -9q-5 0 -12 1t-12 3q6 9 15.5 30.5t19 47.5
t17.5 53.5t11 48.5q19 -12 40 -16t47 -4h240v-4q-21 -11 -36.5 -32.5t-15.5 -59.5v-104zM378 48q34 0 61 5t45.5 17.5t28 34.5t9.5 57q0 30 -12 51.5t-32 35t-46.5 19.5t-56.5 6h-33v-226h36z" />
    <glyph glyph-name="yerucy" unicode="&#x44b;" horiz-adv-x="813" 
d="M607 436q0 70 -38 87h205q-20 -23 -27.5 -44.5t-7.5 -44.5v-335q0 -43 12.5 -64.5t30.5 -34.5h-220q26 14 35.5 37.5t9.5 61.5v337zM202 322h70q48 0 93 -6.5t80 -24.5t56.5 -49.5t21.5 -80.5q0 -43 -21 -73.5t-56 -50t-80 -28.5t-93 -9h-237q10 9 17 19t10.5 24.5t5 34
t1.5 47.5v298q0 38 -12.5 59t-37.5 41h234v-4q-21 -11 -36.5 -32.5t-15.5 -59.5v-105zM226 48q38 0 63 5t42.5 17.5t27 34.5t9.5 57q0 30 -11.5 51.5t-31 35t-44 19.5t-51.5 6h-28v-226h24z" />
    <glyph glyph-name="ereversedcy" unicode="&#x44d;" horiz-adv-x="501" 
d="M243 480q-27 0 -40 -14t-25.5 -31.5t-32 -31.5t-61.5 -14q-21 0 -39 13q26 29 47 65t32 73q13 -6 31 -10.5t36.5 -6.5t35 -3t25.5 -1q49 0 88.5 -19t67 -52.5t42 -79.5t14.5 -100q0 -61 -18 -113t-49.5 -90.5t-73 -60.5t-87.5 -22q-69 0 -122 25.5t-80 70.5l1 5l5 2
q11 -8 28 -14.5t36 -6.5q44 0 82.5 18t68.5 49t50.5 70.5t27.5 83.5q-9 -15 -20 -30.5t-24 -27.5t-30 -19t-38 -4q-18 2 -31 10.5t-23.5 17.5t-20 17t-20.5 10q-18 2 -29 -8.5t-18 -21.5h-9q1 3 1 9q3 17 12.5 36t24 34.5t34 24.5t43.5 6q13 -2 27 -10t28 -17t28 -16.5
t26.5 -7.5t23.5 9.5t19 34.5q-1 67 -23.5 107.5t-70.5 40.5z" />
    <glyph glyph-name="iacy" unicode="&#x44f;" horiz-adv-x="577" 
d="M306 250l-67 -160q-8 -17 -10 -27t-2 -19q0 -21 20 -44h-232q18 11 38.5 33t40.5 65l73 152q-31 2 -56.5 10.5t-43.5 25t-28 41.5t-10 60q0 28 10.5 52.5t34.5 43t64 29t100 10.5h295q-17 -11 -21.5 -24.5t-4.5 -44.5v-375q0 -30 10.5 -50t23.5 -28h-198q16 11 24.5 27
t7.5 50v173h-69zM375 290v189h-37q-47 0 -76.5 -6t-46 -18.5t-22 -30.5t-4.5 -42q1 -25 9.5 -42.5t28.5 -28.5t53 -16t82 -5h13z" />
    <glyph glyph-name="euro" unicode="&#x20ac;" horiz-adv-x="733" 
d="M206 379q1 -33 9 -63h308q-9 -17 -12.5 -30t-3.5 -27h-275q31 -76 92.5 -122t146.5 -46q27 0 55.5 4t57.5 15t57.5 29.5t55.5 48.5q-9 -43 -32 -80.5t-58.5 -66t-83 -45t-104.5 -16.5q-54 0 -107 14.5t-97.5 47.5t-77.5 86.5t-46 130.5h-73q10 19 13 31t3 26h51
q0 9 -0.5 18.5t-0.5 19.5v25h-66q10 19 13 31t3 26h58q10 54 33.5 105.5t60.5 91t87.5 63.5t114.5 24q35 0 57.5 -5.5t39.5 -12t32.5 -12t35.5 -5.5q19 0 34.5 6t30.5 17q17 -55 44 -101.5t52 -71.5q-11 -5 -25.5 -6.5t-23.5 -1.5q-33 0 -57.5 11t-44.5 28t-37.5 36
t-37.5 36t-44 28t-57 11q-45 0 -78 -19t-55 -52t-34 -77t-15 -93h403q-9 -17 -12.5 -30t-3.5 -27h-386z" />
    <glyph glyph-name="softhyphen" unicode="&#xad;" horiz-adv-x="372" 
d="M354 346q-19 -34 -19 -77h-315q10 19 14.5 37t4.5 40h315z" />
    <glyph glyph-name="numero" unicode="&#x2116;" horiz-adv-x="1104" 
d="M230 466q-23 38 -41 65.5t-37 50.5v-269q0 -66 5.5 -116.5t15.5 -88t23 -64t27 -44.5h-187q17 22 30 50t22 65t14 85t5 112v319q-8 10 -19.5 20.5t-23.5 20t-24 17t-20 11.5h290q-12 -12 -16 -24t-4 -26q0 -40 25 -83l224 -395v82q0 64 -0.5 105.5t-2.5 73t-6.5 59.5
t-12.5 66q-8 42 -21.5 78.5t-32.5 63.5h192q-29 -37 -42.5 -76.5t-21.5 -88.5q-5 -29 -9 -70.5t-6 -83.5q-1 -24 -2 -56t-1.5 -66.5t-0.5 -68v-61.5q6 -8 18.5 -20t26.5 -24.5t28.5 -23.5t24.5 -16q-17 -6 -37.5 -16t-41 -22t-38.5 -25t-30 -25zM698 437q0 43 14 76.5
t38 56.5t55 35t65 12q33 0 64 -12t54 -34.5t37 -56t14 -75.5q0 -38 -14 -69t-37.5 -52.5t-54 -33.5t-63.5 -12q-34 0 -65 11t-55 32t-38 52t-14 70zM811 374q0 -21 5.5 -35.5t13.5 -22.5t18.5 -11.5t21.5 -3.5q20 0 38.5 15.5t18.5 57.5v32t-0.5 48t-0.5 45.5v24.5
q0 26 -13.5 43t-42.5 17q-27 0 -43 -17t-16 -43v-150zM1037 223q-19 -34 -19 -77h-315q10 19 14.5 37t4.5 40h315z" />
    <glyph glyph-name="guillemetleft" unicode="&#xab;" horiz-adv-x="562" 
d="M20 344l264 228l34 -63l-201 -184l201 -184l-34 -63l-264 226v40zM247 344l264 228l34 -63l-201 -184l201 -184l-34 -63l-264 226v40z" />
    <glyph glyph-name="guillemetright" unicode="&#xbb;" horiz-adv-x="562" 
d="M318 304l-263 -226l-35 63l202 184l-202 184l35 63l263 -228v-40zM544 304l-263 -226l-35 63l202 184l-202 184l35 63l263 -228v-40z" />
    <glyph glyph-name="nonbreakingspace" unicode="&#xa0;" horiz-adv-x="214" 
 />
    <glyph glyph-name="afii10026" unicode="&#x418;" horiz-adv-x="722" 
d="M509 605q-1 30 -9 52t-31 43h230q-23 -13 -39 -40.5t-16 -62.5v-494q0 -34 11 -63t40 -40h-233q14 13 23 23.5t14.5 23.5t7.5 30.5t2 44.5v378l-285 -401q0 -32 11 -60t40 -39h-233q14 13 23 23.5t14.5 23.5t7.5 30.5t2 44.5v479q0 32 -8 54.5t-32 44.5h230
q-23 -13 -39 -40.5t-16 -62.5v-399l285 401v6z" />
    <glyph glyph-name="afii10029" unicode="&#x41b;" horiz-adv-x="721" 
d="M482 122v525l-91 1q-35 0 -57.5 -21t-25.5 -61q-6 -84 -14.5 -172t-24 -164.5t-40 -134t-62.5 -81.5q-27 -21 -57.5 -22.5t-57 12t-43.5 38t-17 56.5q0 44 27 72.5t65 28.5q32 0 50 -17.5t18 -48.5q0 -14 0.5 -27t10.5 -13q17 16 31 51t24 80t17.5 96t12.5 99t7 88.5
t2 65.5q0 37 -15 72.5t-56 54.5h508q-16 -7 -30 -18.5t-24.5 -32t-16.5 -52.5t-6 -80v-414q0 -34 11 -63t40 -40h-233q14 13 23 23.5t14.5 23.5t7.5 30.5t2 44.5z" />
    <glyph glyph-name="afii10033" unicode="&#x41f;" horiz-adv-x="685" 
d="M209 654l-1 -555q0 -32 11 -60t40 -39h-233q14 13 23 23.5t14.5 23.5t7.5 30.5t2 44.5v479q0 32 -8 54.5t-32 44.5h634q-23 -13 -39 -40.5t-16 -62.5v-494q0 -34 11 -63t40 -40h-233q14 13 23.5 23.5t15 23.5t7.5 30.5t1 44.5v532h-268z" />
    <glyph glyph-name="afii10040" unicode="&#x426;" horiz-adv-x="748" 
d="M33 0q24 22 32 44.5t8 54.5v479q0 27 -2 44.5t-7.5 30.5t-14.5 23.5t-23 23.5h233q-29 -11 -40 -39t-11 -60l1 -555h268v532q1 27 -1 44.5t-7.5 30.5t-15 23.5t-23.5 23.5h233q-29 -11 -40 -40t-11 -63v-494q2 -38 15.5 -54t32 -18.5t39 6t35.5 19.5l5 -2
q-5 -26 -7.5 -54.5t-0.5 -57t9.5 -55.5t22.5 -49v-5q-42 9 -68.5 25t-44.5 34.5t-29.5 37.5t-22 34.5t-24 25.5t-34.5 10h-507z" />
    <glyph glyph-name="afii10043" unicode="&#x429;" horiz-adv-x="1113" 
d="M38 0q24 22 32 44.5t8 54.5v479q0 27 -2 44.5t-7.5 30.5t-14.5 23.5t-23 23.5h234q-29 -11 -40 -39t-11 -60v-555h243v532q1 27 -1 44.5t-7.5 30.5t-15 23.5t-23.5 23.5h233q-29 -11 -40 -39t-11 -60l1 -555h243v532q1 27 -1 44.5t-7.5 30.5t-15 23.5t-23.5 23.5h233
q-29 -11 -40 -40t-11 -63v-494q2 -38 15.5 -54t32 -18.5t39 6t35.5 19.5l5 -2q-5 -26 -7.5 -54.5t-0.5 -57t9.5 -55.5t22.5 -49v-5q-42 9 -68.5 25t-44.5 34.5t-29.5 37.5t-22 34.5t-24 25.5t-34.5 10h-861z" />
    <glyph glyph-name="afii10042" unicode="&#x428;" horiz-adv-x="1046" 
d="M38 0q24 22 32 44.5t8 54.5v479q0 27 -2 44.5t-7.5 30.5t-14.5 23.5t-23 23.5h234q-29 -11 -40 -39t-11 -60v-555h243v532q1 27 -1 44.5t-7.5 30.5t-15 23.5t-23.5 23.5h233q-29 -11 -40 -39t-11 -60l1 -555h243v532q1 27 -1 44.5t-7.5 30.5t-15 23.5t-23.5 23.5h233
q-29 -11 -40 -40t-11 -63v-498q0 -32 8 -54.5t32 -44.5h-973z" />
    <glyph glyph-name="afii10066" unicode="&#x431;" horiz-adv-x="545" 
d="M279 749q29 4 60 5t58.5 5.5t49 17t32.5 41.5h7q-2 -60 -17.5 -101.5t-41 -66.5t-59.5 -36t-73 -11q-61 0 -100 -15.5t-62.5 -43.5t-33.5 -67.5t-13 -87.5q30 61 77.5 97.5t112.5 36.5q48 0 90.5 -21t74.5 -57.5t51 -85.5t19 -105q0 -55 -19 -103.5t-51.5 -85t-75 -57.5
t-89.5 -21q-45 0 -85.5 17t-70.5 48q-27 28 -43.5 66.5t-25 82t-9.5 91t3 94.5q6 72 21.5 136t42.5 107q32 51 75.5 82t94.5 38zM198 134q0 -34 6.5 -56.5t17.5 -35.5t25 -18.5t29 -5.5q14 0 28 6t25.5 19.5t18.5 35.5t7 55v30.5v48.5t-0.5 57t-0.5 55.5v43.5v22
q0 42 -18 69t-60 27q-39 0 -58.5 -27t-19.5 -69v-257z" />
    <glyph glyph-name="afii10074" unicode="&#x438;" horiz-adv-x="621" 
d="M360 0q26 14 37.5 37.5t11.5 61.5v250l-199 -279q4 -26 15.5 -42.5t32.5 -27.5h-230q26 14 37.5 37.5t11.5 61.5v337q0 35 -15 57t-33 30h225q-20 -23 -32.5 -44.5t-12.5 -44.5v-274l200 281q-2 33 -16.5 53.5t-31.5 28.5h225q-20 -23 -32.5 -44.5t-12.5 -44.5v-335
q0 -38 11.5 -61.5t37.5 -37.5h-230z" />
    <glyph glyph-name="afii10091" unicode="&#x449;" horiz-adv-x="921" 
d="M26 0q18 8 33 30t15 57v335q0 38 -11.5 61.5t-37.5 37.5h226q-18 -13 -31.5 -34.5t-13.5 -64.5v-374h171v374q0 23 -1.5 38t-6.5 25.5t-13.5 18.5t-22.5 17h226q-18 -13 -31.5 -34.5t-13.5 -64.5v-374h171v374q0 23 -1.5 38t-6.5 25.5t-13.5 18.5t-22.5 17h232
q-29 -8 -43 -31.5t-14 -68.5v-313q2 -38 12 -55t24.5 -20.5t30 3.5t29.5 18l5 -2q-5 -26 -7.5 -54t-0.5 -56.5t8.5 -55.5t20.5 -49v-5q-37 9 -60.5 25t-38 34.5t-23.5 38t-17.5 35t-19.5 25.5t-30 10h-723z" />
    <glyph glyph-name="afii10090" unicode="&#x448;" horiz-adv-x="896" 
d="M26 0q18 8 33 30t15 57v335q0 38 -11.5 61.5t-37.5 37.5h226q-18 -13 -31.5 -34.5t-13.5 -64.5v-374h171v374q0 23 -1.5 38t-6.5 25.5t-13.5 18.5t-22.5 17h226q-18 -13 -31.5 -34.5t-13.5 -64.5v-374h171v374q0 23 -1.5 38t-6.5 25.5t-13.5 18.5t-22.5 17h232
q-29 -8 -43 -31.5t-14 -68.5v-334q0 -35 15 -57t33 -30h-838z" />
    <glyph glyph-name="afii10096" unicode="&#x44e;" horiz-adv-x="768" 
d="M266 252v20h-64v-173q0 -43 13.5 -64.5t31.5 -34.5h-226q26 14 37.5 37.5t11.5 61.5v337q0 35 -15 57t-33 30h225q-20 -23 -32.5 -44.5t-12.5 -44.5v-114h71q4 19 11 38q19 49 50.5 86t74.5 58t91 21t90.5 -21t74.5 -57.5t51 -85.5t19 -105q0 -55 -19 -103.5t-51.5 -85
t-75 -57.5t-89.5 -21q-48 0 -91 20t-74.5 55.5t-50 84t-18.5 105.5zM422 134q0 -34 6.5 -56.5t17.5 -35.5t25 -18.5t29 -5.5q14 0 28 6t25.5 19.5t18.5 35.5t7 55v79q0 27 -0.5 57t-0.5 55v66q0 42 -18 69t-60 27q-39 0 -58.5 -27t-19.5 -69v-257z" />
    <glyph glyph-name="afii10103" unicode="&#x456;" horiz-adv-x="269" 
d="M70 404q0 26 -11.5 48.5t-37.5 33.5q51 5 93.5 18t87.5 31v-428q0 -41 12.5 -64t38.5 -43h-235v4q22 11 37 31.5t15 43.5v325zM54 663q0 33 22.5 56.5t54.5 23.5q33 0 56 -23.5t23 -56.5t-23 -56t-56 -23q-32 0 -54.5 23t-22.5 56z" />
    <glyph glyph-name="afii10101" unicode="&#x454;" horiz-adv-x="501" 
d="M255 480q-48 0 -71 -41.5t-23 -110.5q0 -37 9 -71l1 7l21 31.5t24.5 30t31 21.5t40.5 5q18 -2 31 -10.5t23.5 -17.5t20 -17t20.5 -10q18 -2 29 8.5t18 21.5h9q-1 -3 -1 -9q-3 -17 -12.5 -36t-24 -34.5t-34 -24.5t-43.5 -6q-19 2 -39.5 16.5t-40 24.5t-37 8.5t-30.5 -30.5
q12 -36 33.5 -67t49.5 -54.5t62 -37t72 -13.5q19 0 36 6.5t28 14.5l5 -2l1 -5q-27 -45 -80 -70.5t-122 -25.5q-47 0 -88 22t-72.5 60.5t-49.5 90.5t-18 113q0 54 14.5 100t42 79.5t66.5 52.5t89 19q9 0 25.5 1t35 3t36.5 6.5t31 10.5q11 -37 32 -73t47 -65q-18 -13 -39 -13
q-42 0 -61.5 14t-32 31.5t-25.5 31.5t-40 14z" />
    <glyph glyph-name="afii10023" unicode="&#x401;" horiz-adv-x="691" 
d="M224 43h38q49 0 86.5 9t67.5 22.5t54.5 29t49 29t50.5 22.5t59 9q10 0 24 -3.5t18 -9.5q-27 -38 -52.5 -84t-45.5 -97q-21 11 -46.5 17t-53.5 9t-57 3.5t-57 0.5h-312q13 7 27.5 25t14.5 46v541q0 32 -15 55t-31 33h184q34 0 90.5 1t104 4t82 8t46.5 14q8 -24 19.5 -49
t24 -49t26 -45t25.5 -36q-11 -7 -22 -10t-33 -3q-33 0 -67.5 13.5t-54.5 32.5q-24 22 -48.5 36.5t-54.5 23.5t-69.5 13.5t-71.5 5.5v-234h69q26 0 56 3.5t59.5 12.5t56.5 23.5t46 36.5q5 -60 29 -119.5t61 -104.5l-26 -22q-24 22 -53.5 40.5t-61 32.5t-62 23.5t-56.5 12.5
q-20 2 -50 3.5t-34 1.5h-18.5t-15.5 -1v-326zM420 870q25 0 42.5 -17.5t17.5 -43.5q0 -25 -17.5 -42t-42.5 -17t-42.5 17t-17.5 42q0 26 17.5 43.5t42.5 17.5zM234 870q25 0 42.5 -17t17.5 -42q0 -26 -17.5 -43.5t-42.5 -17.5t-42.5 17.5t-17.5 43.5q0 25 17.5 42t42.5 17z
" />
    <glyph glyph-name="afii10053" unicode="&#x404;" horiz-adv-x="710" 
d="M387 -20q-61 0 -125.5 19t-118 63t-87.5 115.5t-34 176.5q0 64 22 129t64 117.5t102 86t136 33.5q35 0 60.5 -5.5t46.5 -12t39.5 -12t38.5 -5.5q19 0 34.5 6t30.5 17q17 -55 44 -101.5t52 -71.5q-11 -5 -25.5 -6.5t-23.5 -1.5q-26 0 -64 15t-71 48q-38 38 -74 62.5
t-89 24.5q-48 0 -85.5 -22t-63.5 -58.5t-39.5 -85t-13.5 -101.5q0 -24 3 -46q10 25 25.5 48t34.5 40t41.5 27.5t46.5 10.5q26 0 49.5 -9.5t44.5 -21t40 -21.5t37.5 -12t35.5 7.5t35 37.5l19 -8q-10 -20 -24 -44.5t-32.5 -45.5t-43.5 -35.5t-57 -14.5q-27 0 -50 10t-44 22.5
t-40.5 22.5t-39.5 10q-15 0 -29 -8.5t-23.5 -23t-11.5 -33t8 -39.5q18 -43 47.5 -78.5t67.5 -61t83 -39.5t95 -14q23 0 52 4t60 15t62.5 29.5t59.5 48.5q-9 -43 -36.5 -80.5t-68.5 -66t-93 -45t-110 -16.5z" />
    <glyph glyph-name="afii10147" unicode="&#x472;" horiz-adv-x="764" 
d="M194 543q2 26 17 58t43 60t67.5 47t90.5 19q67 0 126 -28.5t103.5 -78t70 -116t25.5 -141.5q0 -85 -26 -155.5t-73.5 -121.5t-115 -79t-149.5 -28q-70 0 -133 27.5t-110.5 75t-75.5 112t-28 139.5q0 118 49.5 213.5t155.5 150.5l15 -13q-26 -20 -44.5 -46t-30 -55.5
t-17 -60.5t-5.5 -61q0 -101 32.5 -179t80 -131t101.5 -80.5t97 -27.5q46 0 81.5 16.5t60 46t37.5 70t13 87.5q0 76 -24 138.5t-63.5 106.5t-91.5 68t-107 24q-65 0 -100.5 -15.5t-64.5 -46.5zM583 408q-19 -21 -38 -26.5t-37.5 -1t-38 16t-40.5 23t-44 20.5t-49 9
q-21 0 -39 -9t-34 -23t-29 -30t-23 -31l1 -21q19 21 37 26t37 0t38.5 -16.5t40 -23t43.5 -20.5t48 -9q21 0 40.5 9.5t36.5 24.5t31 33t25 34z" />
    <glyph glyph-name="space" unicode=" " horiz-adv-x="214" 
 />
    <glyph glyph-name="afii10028" unicode="&#x41a;" horiz-adv-x="674" 
d="M201 348v-265q-2 -24 10 -46.5t31 -36.5h-217q41 23 41 88v527q0 42 -11 63t-33 32h221q-42 -33 -42 -75v-243h66q34 1 57.5 20.5t40.5 50t29.5 68t25.5 73.5q9 26 19.5 50t25 42t33.5 28.5t46 10.5q43 0 64.5 -25.5t21.5 -63.5q0 -28 -11.5 -47t-28 -27.5t-35 -6.5
t-33.5 16q-10 9 -26 7q-15 -1 -25.5 -14t-19.5 -32.5t-18 -43t-20.5 -47t-27 -44t-36.5 -32.5q28 2 45.5 -2.5t30.5 -15t23 -27t22 -38.5l106 -187q20 -35 44.5 -61.5t46.5 -43.5h-267q28 31 28 61q0 13 -5 28t-17 38l-128 221h-77z" />
    <glyph glyph-name="afii10024" unicode="&#x416;" horiz-adv-x="1039" 
d="M587 348v-265q-2 -24 10 -46.5t31 -36.5h-217q41 23 41 88v260h-57l-128 -221q-12 -23 -17 -38t-5 -28q0 -30 28 -61h-267q22 17 46.5 43.5t44.5 61.5l106 187q12 22 22 38.5t22.5 27t30.5 15t46 2.5q-22 12 -37 32.5t-26.5 44t-20.5 47t-18 43t-20 32.5t-25 14
q-17 2 -31.5 -5.5t-28.5 -7.5q-29 0 -53 18.5t-24 59.5q0 38 23 60t66 22q27 0 46 -10.5t33 -28.5t25 -42t20 -50q13 -36 25.5 -73.5t29.5 -68t40 -50t58 -20.5h46v223q0 42 -11 63t-33 32h221q-42 -33 -42 -75v-243h48q34 1 57.5 20.5t40.5 50t29.5 68t25.5 73.5
q9 26 19.5 50t25 42t33.5 28.5t46 10.5q43 0 66 -22t23 -60q0 -41 -24 -59.5t-53 -18.5q-14 0 -28.5 7.5t-31.5 5.5q-15 -1 -25.5 -14t-19.5 -32.5t-18 -43t-20.5 -47t-26.5 -44t-37 -32.5q28 2 45.5 -2.5t30.5 -15t23 -27t22 -38.5l106 -187q20 -35 44.5 -61.5t46.5 -43.5
h-267q28 31 28 61q0 13 -5 28t-17 38l-128 221h-59z" />
    <glyph glyph-name="afii10072" unicode="&#x436;" horiz-adv-x="862" 
d="M312 0q26 20 38.5 43t12.5 64v143h-45l-82 -156q-10 -17 -14 -28t-4 -21q0 -23 23 -45h-232q9 6 19 18.5t26 37.5t40.5 66.5t63.5 105.5q10 17 17 27t16.5 14.5t23 5.5t37.5 0q-21 22 -31 47.5t-17 47.5t-14 37.5t-21 18.5q-8 4 -11 -3t-7 -17q-11 -22 -31 -29t-44 4
q-31 13 -41.5 42t3.5 59q14 29 42 40.5t58 4.5q20 -4 34 -14.5t23.5 -23.5t16 -26.5t10.5 -23.5q11 -26 18.5 -52.5t16.5 -48.5t23 -35.5t40 -14.5h43v156q0 21 -8 43.5t-27 43.5h205q-19 -21 -27 -43.5t-8 -43.5v-156h43q25 1 39.5 14.5t23.5 35.5t16.5 48.5t18.5 52.5
q4 10 10 23.5t16 26.5t24 23.5t34 14.5q30 7 58 -4.5t42 -40.5q14 -30 3.5 -59t-41.5 -42q-24 -11 -44 -4t-31 29q-4 10 -7 17t-11 3q-14 -3 -21 -18.5t-14 -37.5t-17 -47.5t-31 -47.5q24 1 37.5 0t23 -5.5t16.5 -14.5t17 -27q39 -64 63.5 -105.5t40.5 -66.5t26 -37.5
t19 -18.5h-232q23 22 23 45q0 10 -4 21t-14 28l-82 156h-45v-143q0 -41 12.5 -64t38.5 -43h-235h-2z" />
    <glyph glyph-name="afii10076" unicode="&#x43a;" horiz-adv-x="581" 
d="M17 0q26 20 38.5 43t12.5 64v337q0 21 -8 43.5t-27 43.5h205q-19 -21 -27 -43.5t-8 -43.5v-147h46q25 1 39.5 15t23.5 35.5t16.5 48t18.5 52.5q4 10 10 23.5t16 26.5t24 23.5t34 14.5q30 7 58 -4.5t42 -40.5q14 -30 2.5 -61.5t-42.5 -44.5q-24 -11 -44 -4t-31 29
q-4 10 -7 17t-11 3q-15 -3 -21.5 -17.5t-12.5 -35.5t-16 -45.5t-31 -46.5q24 1 39.5 0t26.5 -5.5t20 -14.5t19 -27q39 -64 63.5 -107t40.5 -70t26 -41t19 -20h-232q23 23 23 45q0 10 -4 21t-14 28l-82 165h-59v-152q0 -41 12.5 -64t38.5 -43h-235h-2z" />
    <glyph glyph-name="afii10062" unicode="&#x40e;" horiz-adv-x="669" 
d="M693 701q-23 -19 -40 -35.5t-31.5 -34.5t-28 -40.5t-28.5 -53.5q-28 -56 -54 -115t-53.5 -119t-58.5 -119.5t-69 -114.5q-33 -48 -77 -67.5t-91 7.5q-36 22 -48.5 56t-6.5 65.5t28 54.5t56 24q30 1 47 -18.5t18 -51.5q0 -27 7 -33.5t17.5 0.5t22.5 23.5t23 36.5
q-64 113 -108 193t-74.5 135t-50 89.5t-33 56t-24 34.5t-22.5 25h252q-32 -20 -32 -46q0 -9 0.5 -18.5t7.5 -25.5q1 -4 5 -12.5t19 -37t46.5 -85.5t88.5 -158q15 32 29 64t25 61.5t18.5 55t10.5 45.5q8 53 -6 90.5t-38 67.5zM194 844q0 25 16.5 38.5t35.5 13.5
q34 0 46.5 -17t14.5 -39q4 -31 17.5 -43t37.5 -12q50 0 58 55q2 21 14.5 38.5t50.5 17.5q17 0 32.5 -14.5t15.5 -37.5q0 -26 -15.5 -43t-41 -27t-55.5 -14.5t-59 -4.5t-59 4.5t-54 14.5t-39.5 27t-15.5 43z" />
    <glyph glyph-name="afii10110" unicode="&#x45e;" 
d="M62 -96q0 16 6.5 28t16 19.5t20.5 11t20 3.5q17 0 27.5 -4.5t19 -10.5t18 -10.5t23.5 -4.5q13 0 25.5 15.5t20.5 35.5l-191 416q-11 24 -33 45.5t-44 26.5q45 10 87.5 22.5t82.5 32.5q9 -28 18.5 -49t21.5 -47l129 -285q36 81 52 137.5t16 88.5q0 51 -15 85.5t-44 63.5
h210q-28 -38 -51.5 -81.5t-46.5 -100.5l-142 -349q-11 -28 -27 -57t-36 -52.5t-44.5 -38.5t-52.5 -15q-39 0 -63 19t-24 55zM111 678q0 25 16.5 38.5t35.5 13.5q34 0 46.5 -17t14.5 -39q4 -31 17.5 -43t37.5 -12q50 0 58 55q2 21 14.5 38.5t50.5 17.5q17 0 32.5 -14.5
t15.5 -37.5q0 -26 -15.5 -43t-41 -27t-55.5 -14.5t-59 -4.5t-59 4.5t-54 14.5t-39.5 27t-15.5 43z" />
    </font>
</defs>
</svg>
